<?xml version="1.0" encoding="utf-8"?>
<!-- Generator: Adobe Illustrator 24.3.0, SVG Export Plug-In . SVG Version: 6.00 Build 0)  -->
<svg version="1.1" id="Capa_1" xmlns="http://www.w3.org/2000/svg" xmlns:xlink="http://www.w3.org/1999/xlink" x="0px" y="0px"
	 viewBox="0 0 2090 600" style="enable-background:new 0 0 2090 600;" xml:space="preserve">
<style type="text/css">
	.st0{fill:#6BB535;}
	.st1{fill:#93B6CE;}
	.st2{fill:#434719;}
	.st3{fill:#ADCA30;}
	.st4{fill:#1B9938;}
	.st5{fill:#137E35;}
	.st6{fill:#076D36;}
	.st7{fill:#7C3A11;}
	.st8{fill:#1B5D3D;}
</style>
<g>
	<path class="st0" d="M434.3,258.2c-0.8-0.2-26.4-5.7-39.7,33.8c-13.5,40.1-47.8,44.5-78.7,41.7v53.1H306v-53.1
		c0,0-58.9,10.9-75.1-38.8c-15.5-47.5-40.8-37.5-42.9-36.6c3.4-1.7,65.7-31.2,101,17.7c0,0-1.2-35.6,28.3-52.9
		c0,0,22.5,18.2,21.3,48C338.5,271.3,369.5,229.2,434.3,258.2z"/>
	<path class="st1" d="M374.4,411.5c0,0,58.5-42.5,199.7-46.8c0,0-11.9,100.8-92.2,117L374.4,411.5z"/>
	<path class="st2" d="M325.4,390.4c0,0,103.1-44.4,248.7-25.2c0,0-136.2,6.4-197.3,47.9L325.4,390.4z"/>
	<path class="st2" d="M412.4,431.1c0,0,52.8-44.3,154.2-44.3c0,0-77,34.4-101.9,79.4L412.4,431.1z"/>
	<path class="st2" d="M480.5,479.9l79.8-75.7c0,0-27.1,72.3-59.3,93.5L480.5,479.9z"/>
	<path class="st3" d="M27.9,358.5c0,0,271.2-52.2,472.4,137.8c0,0-96.7,54.1-174.9-5.7L77.2,370.7L27.9,358.5z"/>
	<path class="st4" d="M24.5,364.7c0,0,125,388.6,475.8,143.9l-3.6-10.5L406,535.3L118.2,393l-76.8-27.4L24.5,364.7z"/>
	<path class="st5" d="M30.8,359.2c0,0,88.8-6.8,236.5,81.3s183.6,66.1,233,55.8c0,0-129.7,134-312.4-30.1c0,0-68.6-80.6-157.4-98.4
		L30.8,359.2z"/>
	<path class="st6" d="M302.5,5.5C139.8,5.5,7.9,137.3,7.9,300s131.9,294.5,294.5,294.5S597,462.7,597,300S465.2,5.5,302.5,5.5z
		 M302.5,578c-153.5,0-278-124.4-278-278S149,22,302.5,22s278,124.4,278,278S456,578,302.5,578z"/>
</g>
<g>
	<g>
		<path class="st7" d="M838.8,325.2H721.4l-22.3,66.9h-71.2L748.9,67.3h62l121.6,324.9h-71.2L838.8,325.2z M739.5,271h81.2
			l-40.8-121.6L739.5,271z"/>
		<path class="st7" d="M1016.6,277.7v114.5h-66.9V67.3h126.7c24.4,0,45.9,4.5,64.4,13.4c18.5,8.9,32.8,21.6,42.7,38
			c10,16.4,15,35.1,15,56.1c0,31.8-10.9,56.9-32.7,75.3c-21.8,18.4-52,27.6-90.5,27.6H1016.6z M1016.6,223.5h59.8
			c17.7,0,31.2-4.2,40.5-12.5c9.3-8.3,13.9-20.2,13.9-35.7c0-15.9-4.7-28.8-14.1-38.6c-9.4-9.8-22.3-14.9-38.8-15.2h-61.4V223.5z"/>
		<path class="st7" d="M1475.7,121.5h-99.5v270.7h-66.9V121.5h-98.2V67.3h264.6V121.5z"/>
		<path class="st7" d="M1749.4,283.9c-2.5,35-15.4,62.5-38.7,82.6c-23.3,20.1-54,30.1-92,30.1c-41.7,0-74.4-14-98.3-42.1
			c-23.9-28-35.8-66.5-35.8-115.5v-19.9c0-31.2,5.5-58.8,16.5-82.6c11-23.8,26.7-42.1,47.2-54.8c20.5-12.7,44.2-19.1,71.3-19.1
			c37.5,0,67.7,10,90.6,30.1c22.9,20.1,36.2,48.3,39.7,84.6h-66.9c-1.6-21-7.5-36.2-17.5-45.6c-10-9.4-25.3-14.2-45.9-14.2
			c-22.3,0-39,8-50.1,24c-11.1,16-16.8,40.8-17.1,74.4v24.5c0,35.1,5.3,60.8,16,77c10.6,16.2,27.4,24.3,50.3,24.3
			c20.7,0,36.1-4.7,46.3-14.2c10.2-9.4,16-24.1,17.5-43.8H1749.4z"/>
		<path class="st7" d="M2044.5,392.2h-66.9V252.9h-130.5v139.2h-66.9V67.3h66.9v131.7h130.5V67.3h66.9V392.2z"/>
	</g>
</g>
<g>
	<g>
		<path class="st8" d="M682.1,519.2h-33.2l-6.5,27.5h-13.9l28.2-108.5H675l28.2,108.5h-14.4L682.1,519.2z M679.3,507.5l-13.4-56.4
			h-1l-13.3,56.4H679.3z"/>
		<path class="st8" d="M773.6,465.7v87.2c0,14.9-10.4,24.9-26.7,24.9c-15.1,0-25.8-9.2-25.8-23.5V553h12v0.6
			c0,7.8,5.7,12.8,13.6,12.8c8.9,0,14.6-5.7,14.6-13.8v-19.4h-0.8c-2.6,7.1-10,11.5-19.1,11.5c-12.6,0-21.4-8.7-21.4-22v-36.9
			c0-13.1,8.7-22,21.4-22c9.2,0,16.7,4.9,19.1,11.8h0.8v-9.9H773.6z M761.3,519.6V489c0-7.1-6-13.8-14.9-13.8
			c-8.4,0-14.1,5.5-14.1,13.9v30.3c0,8.3,5.7,13.9,14.1,13.9C755.3,533.4,761.3,526.8,761.3,519.6z"/>
		<path class="st8" d="M834.2,463.8v13.8h-2.8c-12,0-19,8.7-19,18.1v51h-12.3v-81h12.3v11.8h0.6c2.8-8.6,9.6-13.8,18.8-13.8H834.2z"
			/>
		<path class="st8" d="M854,441.7c0-4.7,3.1-7.8,7.8-7.8c4.7,0,7.9,3.1,7.9,7.8s-3.2,7.9-7.9,7.9C857,449.7,854,446.4,854,441.7z
			 M855.6,465.7h12.3v81h-12.3V465.7z"/>
		<path class="st8" d="M892,523.9v-35.3c0-14.9,10.5-24.8,26.4-24.8c15.9,0,26.4,9.9,26.4,24.8v4.9h-12.2v-4.7
			c0-8.3-5.8-13.6-14.3-13.6c-8.6,0-14.1,5.3-14.1,13.6v35c0,8.3,5.5,13.6,14.1,13.6c8.4,0,14.3-5.3,14.3-13.6V519h12.2v4.9
			c0,14.9-10.5,24.8-26.4,24.8C902.6,548.6,892,538.8,892,523.9z"/>
		<path class="st8" d="M1043.5,530.5v-97.2h12.3v94.3c0,4.7,3.1,7.8,8.3,7.8h3.4v11.3h-6.5C1050.5,546.7,1043.5,540.2,1043.5,530.5z
			"/>
		<path class="st8" d="M1104.7,476.7v50.1c0,5.2,3.4,8.6,8.6,8.6h6.5v11.3h-9.6c-10.7,0-17.8-6.8-17.8-17v-53h-11.5v-11h8.1
			c2.6,0,4.2-1.6,4.2-4.2v-16.8h11.5v21.1h15.9v11H1104.7z"/>
		<path class="st8" d="M1253.5,463.8v13.8h-2.8c-12,0-19,8.7-19,18.1v51h-12.3v-81h12.3v11.8h0.6c2.8-8.6,9.6-13.8,18.8-13.8H1253.5
			z"/>
		<path class="st8" d="M1322.5,486.9v59.8h-11.8v-8.9h-1c-2.6,6.6-8.9,10.9-18.1,10.9c-13.9,0-23.3-9.2-23.3-23.3
			c0-14.7,10-24.5,25.1-24.5h16.8v-13.3c0-7.5-5.3-12.5-13.9-12.5c-7.6,0-13.3,5-13.3,12.5v2.6h-12.1v-3.2
			c0-13.8,10.4-23.2,25.6-23.2C1312.1,463.8,1322.5,473.2,1322.5,486.9z M1310.2,525.6v-14.9H1297c-9.7,0-16.4,5.5-16.4,14.3
			c0,8.3,5.7,13.8,14.4,13.8C1304.5,538.8,1310.2,532.6,1310.2,525.6z"/>
		<path class="st8" d="M1439.9,485.8v40.8c0,13.1-8.6,22-21.5,22c-9.2,0-16.4-4.7-19.1-11.8h-0.6v39h-12.3V465.7h12.3v9.9h0.6
			c2.8-7.1,9.9-11.8,19.1-11.8C1431.3,463.8,1439.9,472.7,1439.9,485.8z M1427.6,489.2c0-8.4-5.7-13.9-14.3-13.9
			c-8.7,0-14.7,6.6-14.7,13.8v34.3c0,7.1,6,13.8,14.7,13.8c8.6,0,14.3-5.5,14.3-13.9V489.2z"/>
		<path class="st8" d="M1514.8,486.9v59.8h-11.8v-8.9h-1c-2.6,6.6-8.9,10.9-18.1,10.9c-13.9,0-23.3-9.2-23.3-23.3
			c0-14.7,10-24.5,25.1-24.5h16.8v-13.3c0-7.5-5.3-12.5-13.9-12.5c-7.6,0-13.3,5-13.3,12.5v2.6h-12.1v-3.2
			c0-13.8,10.4-23.2,25.6-23.2C1504.4,463.8,1514.8,473.2,1514.8,486.9z M1502.4,525.6v-14.9h-13.1c-9.7,0-16.4,5.5-16.4,14.3
			c0,8.3,5.7,13.8,14.4,13.8C1496.8,538.8,1502.4,532.6,1502.4,525.6z"/>
		<path class="st8" d="M1574.5,463.8v13.8h-2.8c-12,0-19,8.7-19,18.1v51h-12.3v-81h12.3v11.8h0.6c2.8-8.6,9.6-13.8,18.8-13.8H1574.5
			z"/>
		<path class="st8" d="M1643.5,486.9v59.8h-11.8v-8.9h-1c-2.6,6.6-8.9,10.9-18.1,10.9c-13.9,0-23.3-9.2-23.3-23.3
			c0-14.7,10-24.5,25.1-24.5h16.8v-13.3c0-7.5-5.3-12.5-13.9-12.5c-7.6,0-13.3,5-13.3,12.5v2.6h-12.1v-3.2
			c0-13.8,10.4-23.2,25.6-23.2C1633.2,463.8,1643.5,473.2,1643.5,486.9z M1631.2,525.6v-14.9h-13.1c-9.7,0-16.4,5.5-16.4,14.3
			c0,8.3,5.7,13.8,14.4,13.8C1625.6,538.8,1631.2,532.6,1631.2,525.6z"/>
		<path class="st8" d="M1725.4,476.7v50.1c0,5.2,3.4,8.6,8.6,8.6h6.5v11.3h-9.6c-10.7,0-17.8-6.8-17.8-17v-53h-11.5v-11h8.1
			c2.6,0,4.2-1.6,4.2-4.2v-16.8h11.5v21.1h15.9v11H1725.4z"/>
		<path class="st8" d="M1760,523.5v-34.7c0-15.1,10.7-25.1,26.9-25.1c16,0,26.7,10,26.7,25.1v34.7c0,15.1-10.7,25.1-26.7,25.1
			C1770.7,548.6,1760,538.6,1760,523.5z M1801.3,523.4V489c0-8.4-5.8-13.9-14.4-13.9c-8.9,0-14.6,5.5-14.6,13.9v34.3
			c0,8.4,5.7,13.9,14.6,13.9C1795.5,537.3,1801.3,531.8,1801.3,523.4z"/>
		<path class="st8" d="M1889,433.3v113.4h-12.3v-9.9h-0.8c-2.4,7-9.9,11.8-19.1,11.8c-12.6,0-21.4-8.9-21.4-22v-40.8
			c0-13.1,8.7-22,21.4-22c9.2,0,16.7,4.9,19.1,11.8h0.8v-42.3H1889z M1876.7,523.4V489c0-7.1-6-13.8-14.9-13.8
			c-8.4,0-14.1,5.5-14.1,13.9v34c0,8.4,5.7,13.9,14.1,13.9C1870.7,537.1,1876.7,530.5,1876.7,523.4z"/>
		<path class="st8" d="M1913.1,523.5v-34.7c0-15.1,10.7-25.1,26.9-25.1c16,0,26.7,10,26.7,25.1v34.7c0,15.1-10.7,25.1-26.7,25.1
			C1923.8,548.6,1913.1,538.6,1913.1,523.5z M1954.4,523.4V489c0-8.4-5.8-13.9-14.4-13.9c-8.9,0-14.6,5.5-14.6,13.9v34.3
			c0,8.4,5.7,13.9,14.6,13.9C1948.6,537.3,1954.4,531.8,1954.4,523.4z"/>
		<path class="st8" d="M1987.3,525.5v-3.2h12v2.9c0,7.6,5.5,12.8,13.6,12.8c7.8,0,13.4-5,13.4-12.5c0-20.9-38.2-8.9-38.2-39.5
			c0-13.9,10-22.2,24.3-22.2c14.7,0,24.6,8.6,24.6,21.5v3.2h-12.2v-2.8c0-6.8-5-11.3-12.3-11.3c-7.5,0-12.3,4.5-12.3,11.5
			c0,20.6,38.2,7.6,38.2,39c0,14.4-10,23.7-25.4,23.7C1997.5,548.6,1987.3,539.4,1987.3,525.5z"/>
	</g>
</g>
<path class="st8" d="M1013.7,463.4v55.2c0,8.6-6.9,15.5-15.5,15.5h-3.6c-8.6,0-15.5-6.9-15.5-15.5v-55.2H967v57.8
	c0,14.3,11.6,25.8,25.8,25.8h7.2c14.3,0,25.8-11.6,25.8-25.8v-57.8H1013.7z"/>
<path class="st8" d="M1188,463.4v55.2c0,8.6-6.9,15.5-15.5,15.5h-3.6c-8.6,0-15.5-6.9-15.5-15.5v-55.2h-12.1v57.8
	c0,14.3,11.6,25.8,25.8,25.8h7.2c14.3,0,25.8-11.6,25.8-25.8v-57.8H1188z"/>
</svg>
