<?xml version="1.0" encoding="utf-8"?>
<!-- Generator: Adobe Illustrator 25.4.1, SVG Export Plug-In . SVG Version: 6.00 Build 0)  -->
<svg version="1.1" id="Capa_1" xmlns="http://www.w3.org/2000/svg" xmlns:xlink="http://www.w3.org/1999/xlink" x="0px" y="0px"
	 viewBox="0 0 300 300" style="enable-background:new 0 0 300 300;" xml:space="preserve">
<style type="text/css">
	.st0{fill-rule:evenodd;clip-rule:evenodd;fill:#006BBD;}
	.st1{fill-rule:evenodd;clip-rule:evenodd;fill:#FF0924;}
</style>
<image style="display:none;overflow:visible;" width="300" height="300" xlink:href="aviagen.png" >
</image>
<g>
	<path class="st0" d="M160,192.2c0-4.6,6.4-8.4,7.8-8.4c6.7,0,20.4-1.2,20.4,6.6c0,3.9-1.1,5.8-4.9,8c-2.6,1.5-6,1.9-9.1,2.3
		C168.5,201.4,160,198.7,160,192.2L160,192.2z M65.4,138.6h6c0.3-0.6,0.4-1.2,0.8-1.9c4.1-8.6,11-20.7,20.9-22.8
		c10.8-2.2,19.2,7.7,23.8,15.7c0.5,0.8,1.4,3.6,2.4,3.6c6.6,0,5-1,4.2-2.4c-3-5.2-1.9-4.4-6.3-10.2c-8-10.7-20.2-16.1-32.4-8.7
		c-8.3,5-14.5,15.2-18.3,23.9C66.1,136.8,65.8,137.8,65.4,138.6L65.4,138.6z M284.5,145.5h1.2c1,0,0.9,0.5,0.9,1.5h-2.1V145.5
		L284.5,145.5z M283,145.2c0,5.3-0.4,5,1.5,5.1v-2.1c2.5,0.2,0.7,2,3.6,2.1c-0.1-1.6,0-0.2-1.2-2.4c2.3-0.6,1.2-3.6-1.2-3.6
		C283.8,144.3,283,144,283,145.2L283,145.2z M285.7,152.1c-6.4,0-6.4-9.3,0-9.3c1.4,0,2.5,0.5,3.2,1.3
		C291.4,147.1,289.7,152.1,285.7,152.1L285.7,152.1z M281.6,151.4c5.4,5,13-2.6,7.9-7.8C283.8,138.1,276.6,146.5,281.6,151.4
		L281.6,151.4z M101.6,133.5c0,6,7.8,5,7.8,0.3C109.4,127.6,101.6,127.8,101.6,133.5L101.6,133.5z M97.1,152.7
		c4.4,0,5.4-0.6,5.4,6.9c0,2.9,0.5,19.6-1,21.2c-1.9,2.1-5.2-0.6-5.3,2.8h9.3h8.6c0.3-0.2,0.6-0.5,0.7-0.9c-1.9-2.6-5.2,1.7-6.2-4.9
		c-0.3-2.3-0.1-23.2-0.1-28c0-0.9,0-1.8,0-2.7c0-4.9-2.6-0.1-6.2,1.9c-1.1,0.6-2,1.1-3.3,1.5C97.3,151,96.8,151,97.1,152.7
		L97.1,152.7z M52.8,146.7c0,1.7,3.2,0.7,4.9,2.3c1.5,1.3,9.8,22.3,11.1,25.4c0.7,1.8,1.4,3.2,2.1,5.1c0.4,1,0.6,1.6,1,2.6
		c1,2.7,1.6,3.6,3.2,0.3c0.5-1.1,0.7-1.5,1.2-2.7l8.4-18c1.4-2.8,4.5-10.8,6.4-12.4c0.7-0.5,1.7-1.2,2.5-1.4c1.2-0.3,2.6,0,2.6-1.3
		c0-1.1-0.7-0.9-2.4-0.9c-3.9,0-7.7,0-11.7,0c-0.7,0-0.9,0.2-0.9,0.9c0,1.4,1.6,1.1,3,1.2c5.7,0.6,0,8.3-2.6,14.7
		c-1.1,2.6-4.9,10.2-5.4,12.2c-1.2-0.3-0.7-0.1-1.7-2.5c-1.1-2.9-8.5-20.4-8.5-21.4c0-3.8,1.5-2.4,5.4-3.3c0-2.1-0.6-1.8-3.3-1.8
		c-4.8,0-9.6,0-14.4,0C53,145.8,52.8,146,52.8,146.7L52.8,146.7z M216.8,158.1c-14,0-15.4,1.3-12.7-4c1.8-3.6,6.3-7.4,10.9-7.4h2.1
		c4.5,0,8.4,3.2,8.4,7.8C225.5,157.8,220.3,158.1,216.8,158.1L216.8,158.1z M213.9,184.4c5.3,0,7.4,0,12.1-2.6
		c1.2-0.7,6.2-4.6,6.2-5.8c0-2-2-0.2-2.5,0.2c-6.4,6.3-17.9,5.4-22.8-0.9c-3-3.9-4.3-7.2-4.3-13c0-1.5,0.5-1.8,2.1-1.8l21,0
		c3.8,0,7.2,0.9,7.2-1.8c0-17.2-26.3-18.3-34.8-3.1c-1.4,2.5-1.7,4.9-2.1,7.8C194.4,173.6,203.7,184.4,213.9,184.4L213.9,184.4z
		 M131.2,180.5c-2.7,0-5.7-1.6-5.7-4.2c0-4.4,1.6-6.4,6.1-8.6c1.7-0.9,7.7-4.2,9.2-4.3c0,7.4,1.6,11.9-4.3,15.4
		C135.5,179.5,132.7,180.5,131.2,180.5L131.2,180.5z M118.7,156.9c0,2.7,5.3-0.1,5.9-0.7c2.1-2.1,2.7-9.5,11.1-9.5
		c6.4,0,5.1,5.6,5.1,13.2c0,1.9-3.4,3.2-5.7,4.1c-2.4,1-4.3,2.1-6.6,3.2c-16.5,8.2-8.6,17.2-2.3,17.2c9.4,0,11.8-5.5,14.7-6.3
		c0.9,1.7,2.3,6,5.4,6c5.7,0,10.8-7.1,7.1-5.8c-1.1,0.4-6.2,7.4-6.2-7c0-4,0-8,0-12c0-3.2,0.6-8.9-0.7-11
		C141,140.1,118.7,148.1,118.7,156.9L118.7,156.9z M241.4,159.6c0,3.4,0.6,19.1-1.1,21.1c-0.7,0.9-1.5,1-2.8,1.1
		c-1.8,0.1-2.3-0.1-2.4,1.8c3,0.7,5.7,0,9,0c3,0,4.5,0.4,7.8,0.3c1,0,1.8,0.1,1.8-0.9c0-2.2-3.5-0.3-5.2-2.3
		c-1.7-1.9-1.1-15.6-1.1-19c0-4.3,0.5-6.6,2.8-8.9c6.1-6.2,17.6-4.9,17.6,5.9v18.6c0,3.9-1.5,4.5-5.4,4.5c-0.6,0.9-0.6,0.4-0.9,1.5
		c0.7,0.5,0.5,0.5,1.8,0.6c2.9,0.2,5-0.3,7.8-0.3c2.9,0,4.2,0.4,7.2,0.3c1.5,0,1.2,0,2.1-0.6c-0.6-2.7-2.4-0.7-4.8-2.1
		c-1.6-0.9-1.5-3.2-1.5-5.7c0-4.8,0-9.6,0-14.4c0-5.7-0.1-7.9-2.6-11.5c-3.7-5.3-11.9-6.1-17.8-2.3c-1.9,1.2-5.1,4-5.9,4.3
		c-1.1-2.2,0.8-6.6-1.2-6.6c-0.9,0-1.6,1.2-2.2,1.7c-0.6,0.6-1.4,1.2-2.2,1.7c-1.9,1.3-8.9,3.4-5.5,4.3
		C239.4,153.3,241.4,150.8,241.4,159.6L241.4,159.6z M40.9,161.4H26.8c0-1.8,2.6-7.7,3.3-9.8c0.6-1.6,1.2-3.1,1.8-4.8
		c0.6-1.6,1.2-3.8,2.4-4.5c1.5,2.8,2.7,6.6,4,9.8c0.7,1.7,1.3,3.2,2,4.9C41,158.9,42.6,161.4,40.9,161.4L40.9,161.4z M8.8,182v1.5
		h9.9h9.2c0.1-0.1,0.2-0.3,0.4-0.6c-0.5-1.9-2.3-1.3-4.5-1.5c-6.4-0.6-2-8.5,0.4-14.2c0.4-0.9,1-2.8,2-2.8h15.6
		c2.2,0,2.5,2.9,4.1,6.4c1.2,2.7,2.8,5.9,2.8,8.9c0,1.5-2,1.8-3.6,1.8c-2.1,0-3.8-0.1-4.2,1.5c0.2,0.3,0.3,0.5,0.5,0.6h10.6
		c1,0,1.9,0,2.9,0H64c0.4-0.3,0.6-0.6,0.3-1.2c-1-1.7-3.6,0.4-6.3-2.8c-2.1-2.5-12.7-30.1-14.1-33.7L38.7,133
		c-1.7-4.3-2.4-5.9-4.2-1c-4.6,12.7-10.5,27.1-15.4,40c-1,2.5-1.8,4.9-3,7.2C14,182.8,12,180.5,8.8,182L8.8,182z M188.3,151.8h6.4
		c0-0.7,0-1.3,0-2v0l0,0c-0.1-2-0.8-1.6-5.1-1.5c-7,0-5.1-0.7-10.2-2.4c-10.6-3.4-22.1,3.4-22.1,11.9c0,6.5,3.3,10.3,9.3,13.5
		c-1,1.4-2.3,1.8-4.3,2.6c-1.7,0.7-3.8,1.2-5.3,1.9c0.3,3.1,6.3,5.6,6.3,7.5c0,1.1-2.2,2-3.2,2.5c-18.8,9.3,5.8,23.9,25.9,13.4
		c9.9-5.1,13-18.4-3.7-20.6c-4.5-0.6-18.2,1.5-18.2-2.8c0-3.8,11.5-3,16.3-4.7c7.4-2.6,11-10.5,8.3-16.9c-0.3-0.8-0.7-0.9-0.7-1.6
		C188,152.2,188.1,152,188.3,151.8L188.3,151.8z M174.3,170.4c-5.3,0-8.1-1.7-9.8-7.6c-2.3-8,2.4-16,8.3-16h1.5
		c6.8,0,11.3,11.5,6.5,19.6C179.6,168.3,177.2,170.4,174.3,170.4L174.3,170.4z"/>
	<path class="st1" d="M238.4,203c2.5,0,1.6-6.6-6.9-6.6c-4.1,0-8.7,3.2-8.7,7.2c0,10.3,11,11,15.8,6.8c0.4-0.4,1.5-1.7,0.4-1.7
		c-2.1,0-1.5,1.5-5.1,1.5c-3.7,0-5.4-3.4-5.4-7.2H238.4L238.4,203z M75.2,111.6c1.5-0.1,0.5-0.1,2.9-1.6c1-0.7,1.8-1,2.9-1.6
		c6.6-3.3,10.9-1.1,12.5-1.9c-0.5-2-4.9-4.8-7.5-4.8h-2.1C78.5,101.7,75.2,106.2,75.2,111.6L75.2,111.6z M83.9,99.4
		c8,0,12.3,8.1,18.6,8.1c1.5,0,1.9-0.5,2.4-1.5c-0.6-0.9-1.8-1.1-3.7-3.2c-2.9-3.2-6-7.9-12.8-7.9c-5.6,0-9.1,4.1-8.1,5.1
		C80.8,100.6,82.4,99.4,83.9,99.4L83.9,99.4z M87.8,87.7c0.4,1.7,1.8,1.4,4.4,2.8c3.3,1.8,5.3,4.3,7.7,6.7c4,4.1,9.9,15.9,21.8,15.9
		c1.1,0,2.3-0.4,3-1c3.3-3-3,1.9-10.8-5.8c-1.7-1.7-4.5-6-6.2-8.2c-1.9-2.5-4.4-5.3-6.9-7.2c-2.5-1.9-6-3.9-10.5-3.9
		C89.3,87.1,88.6,87.5,87.8,87.7L87.8,87.7z M268.3,192.1c1-0.6,2.7-1.4,3.7-1.9c1.1-0.5,1.6-0.5,2-0.4c0.4,0.1,0.8,0.4,0.9,0.8
		c0.1,0.4,0,1-0.5,1.4c-0.4,0.4-1.1,0.7-2.3,1c-1.2,0.3-3.1,0.7-4.1,0.9c-1,0.2-1.2,0.2-1.3,0.1c-0.1-0.1-0.2-0.2-0.3-0.4
		c0-0.2,0-0.3,0.2-0.6C267,192.9,267.3,192.7,268.3,192.1L268.3,192.1z M257.7,198.2c2.6,0.3,1.5,3.2,1.7,9c0.1,5.5,4.7,6.7,8.4,4.8
		c1-0.5,1.6-1.2,2.7-1.5v2.4c1.6,0,5.3-1.4,7.2-1.8v-0.9c-0.7-0.2-1.5-0.3-2.1-0.6l0-10.2c0.1-3.3,1.6-2.7-6.5-2.7
		c-1.1,0-1.5-0.1-1.6,0.3c0.2,2.3,2.7,0.2,2.7,3.3c0,5.8,1.1,9.9-3.3,9.9c-1.7,0-2.1-2.5-2.1-3.9v-9.6c-1.1,0-7.5-0.4-7.9,0.3
		c-0.1,0.1-0.1,0.6,0,0.8c0.1,0.2,0.4,0.3,0.7,0.4C257.6,198.2,257.7,198.2,257.7,198.2L257.7,198.2z M240.8,200.3
		c3.3,0.1,2.4,1.7,2.4,9c0,3.1-2.5,0.3-2.7,3h10.8c-0.2-2.5-2.7-0.3-2.7-2.4c0-3.3-0.6-5.9-0.1-8.9c0.1-0.4,0.5-1.1,0.9-1.2
		c2.1,0.1,1.3,2.1,3.7,2.1c1.6,0,2.5-0.5,3-1.6c0-0.2,0.1-0.3,0.1-0.5c0.3-1.2-0.5-2.8-1.7-3c-2.3-0.4-2.5-0.3-6.2,2.2v-2.7
		c-2.6-0.6-1,1.1-5.7,2.5C241.1,199.2,240.9,198.8,240.8,200.3L240.8,200.3z M220.2,202.2c4.3-3.8,2.6-11.2-4.6-11.2
		c-1.6,0-13.3-0.3-13.8,0.3c0.1,1.3,0,0.8,1.4,1.3c0.7,0.2,1.6,0.4,1.6,1.4v15.6c0,2.1-2.7,0.4-3,2.7h11.9c0-0.1,0-0.2,0.1-0.3
		c0,0,1.4-0.1-0.9-0.9c-0.8-0.3-1.1-0.2-1.8-0.6c-0.5-2.3-0.3-4.7-0.3-7.5C213,203,216.6,205.3,220.2,202.2L220.2,202.2z
		 M212.4,192.5c5.8,0,5.3,9.4,0.4,9.1c-0.9,0-1.9-0.1-1.9-1.1C210.9,197.7,210.2,192.5,212.4,192.5L212.4,192.5z M234.5,200
		c0,2-3.6,1.5-5.7,1.5c0.1-1,0.4-2,1-2.6C231.3,197.1,234.5,197,234.5,200L234.5,200z"/>
</g>
</svg>
