<?xml version="1.0" encoding="utf-8"?>
<!-- Generator: Adobe Illustrator 24.3.0, SVG Export Plug-In . SVG Version: 6.00 Build 0)  -->
<svg version="1.1" id="Capa_1" xmlns="http://www.w3.org/2000/svg" xmlns:xlink="http://www.w3.org/1999/xlink" x="0px" y="0px"
	 viewBox="0 0 500 500" style="enable-background:new 0 0 500 500;" xml:space="preserve">
<style type="text/css">
	.st0{fill:url(#SVGID_1_);}
	.st1{fill:url(#SVGID_2_);}
	.st2{fill:url(#SVGID_3_);}
	.st3{fill:url(#SVGID_4_);}
	.st4{fill:url(#SVGID_5_);}
	.st5{fill:#9B9B9B;}
</style>
<g>
	<linearGradient id="SVGID_1_" gradientUnits="userSpaceOnUse" x1="165.5706" y1="232.1192" x2="269.2822" y2="232.1192">
		<stop  offset="0" style="stop-color:#7DB542"/>
		<stop  offset="1" style="stop-color:#ACD120"/>
	</linearGradient>
	<path class="st0" d="M182.52,188.24c9.3-9.3,21.27-13.96,35.9-13.96c13.96,0,25.93,4.99,35.9,14.96
		c9.3,9.32,13.96,23.61,13.96,42.88h-80.78c0,13.96,3.32,24.28,9.97,30.91c5.98,5.98,13.62,8.98,22.94,8.98
		c9.3,0,15.96-1.99,19.94-5.98c4.64-4.64,6.98-9.97,6.98-15.96h21.94c-2.67,11.97-6.98,20.94-12.96,26.93
		c-8.65,8.65-20.62,12.96-35.9,12.96c-15.96,0-28.92-4.99-38.89-14.96c-10.64-10.63-15.96-24.93-15.96-42.88
		S171.21,199.55,182.52,188.24z M197.48,199.21c-4.66,4.66-7.65,10.32-8.98,16.95h56.84c0-6.64-2.67-12.62-7.98-17.95
		c-4.66-4.64-11.31-6.98-19.94-6.98C209.45,191.23,202.79,193.9,197.48,199.21z"/>
	<linearGradient id="SVGID_2_" gradientUnits="userSpaceOnUse" x1="50.4004" y1="216.2622" x2="157.4861" y2="216.2622">
		<stop  offset="0" style="stop-color:#7DB542"/>
		<stop  offset="1" style="stop-color:#ACD120"/>
	</linearGradient>
	<path class="st1" d="M117.03,174.85c0,0-21.42-4.76-42.83,16.66l-0.02-45.21H50.4v139.94h66.55c0,0,40.53-6.68,40.53-54.27
		S117.03,174.85,117.03,174.85z M101.44,265.61H73.52v-40.83c0,0,4.14-23.28,28.95-25.35c24.82-2.07,26.88,24.82,26.88,24.82
		S135.56,265.61,101.44,265.61z"/>
	<g>
		<linearGradient id="SVGID_3_" gradientUnits="userSpaceOnUse" x1="267.2643" y1="219.009" x2="425.9922" y2="219.009">
			<stop  offset="0" style="stop-color:#7DB542"/>
			<stop  offset="1" style="stop-color:#ACD120"/>
		</linearGradient>
		<path class="st2" d="M425.99,228.24c-2.4,2.14-4.8,4.28-7.2,6.42c-25.55,22.74-55.5,35.63-89.43,38.67
			c-15.52,1.39-19.64-3.13-19.73-18.52c-0.04-7.2,0.05-14.41,0.1-21.61h0v-11.7c-0.04-4.11-0.12-8.22-0.3-12.32
			c-0.09-2.11,0-3.95,0.3-5.53v-7.09h8.22c0.65-0.03,1.34-0.04,2.08,0h1.53V178.7h-12.34v-27.04c-0.05-0.33-0.11-0.66-0.18-0.95
			h-24.69c-0.01,0.04-0.02,0.07-0.03,0.11v27.86h-13.05c-0.02,0.01-0.04,0.01-0.06,0.02h0.26v17.64c0.04,0.01,0.09,0.02,0.14,0.03
			h12.21v10.31c0.02,0.45,0.03,0.91,0.04,1.38c0.31,19.49-1.43,39.03,1.3,58.46c1.77,12.61,6.81,17.69,19.63,19.79
			c20.02,3.28,38.86-2.03,57.13-8.93C387.91,267.55,411.36,253.76,425.99,228.24z"/>
		<linearGradient id="SVGID_4_" gradientUnits="userSpaceOnUse" x1="341.8132" y1="220.7105" x2="436.7864" y2="220.7105">
			<stop  offset="0" style="stop-color:#7DB542"/>
			<stop  offset="1" style="stop-color:#ACD120"/>
		</linearGradient>
		<path class="st3" d="M406.13,196.76c4.6,2.18,7.58,5.59,7.53,10.66c-0.06,5.55-3.36,9.2-8.61,10.81
			c-2.82,0.87-5.78,1.31-8.69,1.85c-12.3,2.29-24.98,2.73-36.79,7.41c-15.57,6.16-22.38,23.13-14.4,39.54
			c6.46-26.47,26.67-30.81,48.43-33.96c13.03-1.89,25.74-6.03,35.81-15.56c8.42-7.96,9.67-16.88,3.53-26.65
			c-4.46-7.1-11.12-11.13-18.95-13.4c-15.37-4.47-30.73-4.05-45.76,1.28c-10.94,3.88-18.17,11.71-21.44,22.96
			c-0.33,1.15-0.74,2.34-0.87,3.51h25.76C379.67,194.65,394.09,191.06,406.13,196.76z"/>
		<linearGradient id="SVGID_5_" gradientUnits="userSpaceOnUse" x1="362.1202" y1="259.5591" x2="448.6971" y2="259.5591">
			<stop  offset="0" style="stop-color:#7DB542"/>
			<stop  offset="1" style="stop-color:#ACD120"/>
		</linearGradient>
		<path class="st4" d="M445.48,268.73c-9.03-3.53-8.66-10.56-8.65-17.9c0.01-6.22,0-12.45,0-18.67
			c-15.2,32.18-38.38,50.91-74.71,49.89c0.24,2.84,1.58,3.24,2.84,3.46c14.59,2.52,28.86,2.28,42.34-4.95
			c2.97-1.59,5.9-5.06,9.39-0.55c6.56,8.47,15.63,6.95,24.53,5.98c1.84-0.2,3.57-0.59,4.85-1.5v-15.47
			C445.88,268.91,445.69,268.81,445.48,268.73z"/>
	</g>
	<g>
		<path class="st5" d="M68.11,337.42c-1.46,0.88-3.22,1.33-5.29,1.36c-1.41,0.01-2.67-0.23-3.79-0.73c-1.12-0.5-2.08-1.19-2.87-2.08
			c-0.79-0.89-1.4-1.94-1.82-3.14c-0.42-1.21-0.63-2.52-0.63-3.94c0-1.47,0.22-2.85,0.67-4.15c0.45-1.3,1.1-2.43,1.95-3.39
			s1.9-1.73,3.14-2.29c1.24-0.56,2.66-0.84,4.25-0.84c1.62,0,3.1,0.31,4.45,0.94v2.61c-1.43-0.95-2.98-1.42-4.64-1.42
			c-1.16,0-2.2,0.22-3.1,0.66c-0.91,0.44-1.67,1.04-2.29,1.8c-0.62,0.76-1.09,1.65-1.42,2.66s-0.49,2.09-0.49,3.23
			c0,1.05,0.14,2.05,0.41,3.01c0.27,0.96,0.7,1.8,1.26,2.54c0.57,0.73,1.29,1.32,2.16,1.75c0.87,0.43,1.89,0.65,3.07,0.65
			c1.84,0,3.5-0.55,4.98-1.65V337.42z"/>
		<path class="st5" d="M80.85,338.76c-1.46,0-2.76-0.24-3.92-0.73s-2.14-1.17-2.96-2.06c-0.82-0.89-1.44-1.95-1.88-3.19
			c-0.43-1.24-0.65-2.61-0.65-4.12c0-1.63,0.23-3.1,0.69-4.39c0.46-1.29,1.11-2.39,1.96-3.29c0.85-0.9,1.87-1.59,3.08-2.06
			c1.2-0.47,2.54-0.71,4.02-0.71c1.42,0,2.7,0.23,3.83,0.7c1.14,0.47,2.1,1.14,2.89,2.02c0.79,0.88,1.4,1.95,1.82,3.22
			c0.42,1.26,0.63,2.7,0.63,4.31c0,1.53-0.22,2.93-0.66,4.19c-0.44,1.26-1.07,2.34-1.89,3.25c-0.82,0.91-1.81,1.61-2.99,2.11
			C83.66,338.51,82.33,338.76,80.85,338.76z M81.04,320.34c-1.07,0-2.04,0.18-2.91,0.56c-0.87,0.37-1.61,0.91-2.23,1.62
			s-1.1,1.58-1.43,2.61c-0.33,1.03-0.5,2.19-0.5,3.5c0,1.23,0.17,2.33,0.5,3.32c0.33,0.98,0.8,1.83,1.41,2.53
			c0.61,0.7,1.34,1.24,2.21,1.62c0.87,0.38,1.84,0.57,2.91,0.57c1.1,0,2.07-0.18,2.91-0.55s1.56-0.89,2.15-1.59
			c0.59-0.7,1.03-1.55,1.33-2.56c0.3-1.01,0.45-2.16,0.45-3.45c0-2.64-0.59-4.67-1.76-6.07C84.91,321.04,83.23,320.34,81.04,320.34z
			"/>
		<path class="st5" d="M119.98,338.3v-11.54c0-1.17-0.09-2.17-0.27-2.98c-0.18-0.81-0.46-1.47-0.83-1.98
			c-0.38-0.51-0.86-0.88-1.44-1.11c-0.58-0.23-1.27-0.34-2.08-0.34c-0.72,0-1.39,0.17-2.03,0.51c-0.64,0.34-1.2,0.8-1.68,1.4
			c-0.48,0.59-0.86,1.29-1.13,2.1c-0.27,0.8-0.41,1.67-0.41,2.61v11.34h-2.45v-11.79c0-4.11-1.58-6.17-4.73-6.17
			c-0.73,0-1.41,0.16-2.03,0.49s-1.17,0.78-1.64,1.37s-0.83,1.29-1.09,2.12c-0.26,0.82-0.39,1.73-0.39,2.73v11.25h-2.45v-19.62h2.45
			v3.18h0.08c1.38-2.43,3.39-3.64,6.04-3.64c0.69,0,1.34,0.11,1.95,0.32s1.16,0.5,1.65,0.88c0.49,0.38,0.9,0.83,1.26,1.35
			c0.35,0.52,0.62,1.1,0.8,1.72c0.69-1.39,1.59-2.45,2.69-3.18c1.1-0.73,2.35-1.09,3.75-1.09c4.31,0,6.46,2.66,6.46,7.97v12.11
			H119.98z"/>
		<path class="st5" d="M130.79,335.14v12.19h-2.45v-28.65h2.45v3.76h0.08c0.73-1.37,1.7-2.41,2.92-3.13
			c1.22-0.72,2.6-1.08,4.13-1.08c1.25,0,2.37,0.23,3.36,0.68c0.99,0.45,1.83,1.1,2.51,1.93c0.68,0.83,1.21,1.84,1.57,3.03
			c0.36,1.19,0.55,2.52,0.55,4c0,1.62-0.2,3.1-0.61,4.44c-0.41,1.33-1,2.48-1.76,3.44c-0.77,0.96-1.7,1.7-2.79,2.23
			c-1.09,0.53-2.32,0.79-3.69,0.79c-2.76,0-4.82-1.21-6.19-3.62H130.79z M130.79,330.14c0,0.89,0.15,1.73,0.45,2.52
			c0.3,0.79,0.72,1.48,1.26,2.07c0.54,0.59,1.18,1.06,1.94,1.41c0.76,0.34,1.6,0.52,2.52,0.52c0.98,0,1.87-0.21,2.66-0.62
			c0.79-0.42,1.47-1.01,2.02-1.77s0.98-1.69,1.28-2.78c0.3-1.09,0.45-2.3,0.45-3.64c0-1.15-0.14-2.19-0.42-3.11
			c-0.28-0.93-0.68-1.72-1.2-2.37c-0.52-0.65-1.14-1.15-1.88-1.5c-0.73-0.34-1.56-0.52-2.46-0.52c-1.02,0-1.94,0.19-2.76,0.56
			c-0.82,0.38-1.51,0.89-2.09,1.54c-0.58,0.65-1.02,1.42-1.32,2.29c-0.31,0.88-0.46,1.8-0.46,2.79V330.14z"/>
		<path class="st5" d="M150.86,338.3v-29.05h2.45v29.05H150.86z"/>
		<path class="st5" d="M160.8,328.93c0.01,1.2,0.17,2.28,0.48,3.24c0.31,0.96,0.75,1.77,1.32,2.43c0.58,0.66,1.27,1.17,2.1,1.52
			c0.82,0.35,1.75,0.53,2.79,0.53c2.21,0,4.3-0.77,6.27-2.32v2.41c-1.88,1.34-4.15,2.01-6.82,2.01c-1.32,0-2.51-0.23-3.58-0.69
			c-1.07-0.46-1.99-1.13-2.74-2s-1.33-1.95-1.74-3.23c-0.41-1.28-0.61-2.73-0.61-4.37c0-1.47,0.22-2.83,0.67-4.08
			c0.45-1.25,1.07-2.33,1.86-3.25c0.79-0.91,1.73-1.63,2.82-2.15s2.27-0.78,3.56-0.78c1.26,0,2.38,0.22,3.35,0.66
			c0.97,0.44,1.79,1.07,2.44,1.89c0.66,0.82,1.16,1.81,1.5,2.99c0.35,1.17,0.52,2.49,0.52,3.95v1.23H160.8z M172.45,326.78
			c-0.04-2.04-0.52-3.63-1.46-4.75c-0.93-1.12-2.23-1.69-3.89-1.69c-0.83,0-1.6,0.15-2.31,0.44s-1.33,0.72-1.87,1.27
			s-0.98,1.23-1.33,2.03c-0.35,0.8-0.6,1.7-0.74,2.69H172.45z"/>
		<path class="st5" d="M182.25,337.61c0,3.24-0.58,5.71-1.73,7.4s-2.98,2.53-5.5,2.53c-0.89,0-1.79-0.22-2.7-0.65v-2.38
			c1,0.59,1.94,0.88,2.84,0.88c3.09,0,4.64-2.45,4.64-7.36v-19.36h2.45V337.61z M181,313.71c-0.47,0-0.88-0.17-1.23-0.5
			c-0.35-0.33-0.52-0.75-0.52-1.26c0-0.5,0.17-0.91,0.52-1.24c0.34-0.33,0.75-0.49,1.23-0.49c0.24,0,0.47,0.04,0.69,0.12
			s0.41,0.2,0.57,0.35s0.29,0.33,0.38,0.55s0.14,0.44,0.14,0.7c0,0.24-0.04,0.47-0.13,0.69c-0.09,0.22-0.22,0.41-0.38,0.57
			c-0.17,0.16-0.35,0.28-0.57,0.37C181.49,313.67,181.26,313.71,181,313.71z"/>
		<path class="st5" d="M196.6,338.76c-1.46,0-2.76-0.24-3.92-0.73s-2.14-1.17-2.96-2.06c-0.82-0.89-1.44-1.95-1.88-3.19
			c-0.43-1.24-0.65-2.61-0.65-4.12c0-1.63,0.23-3.1,0.69-4.39c0.46-1.29,1.11-2.39,1.96-3.29c0.85-0.9,1.87-1.59,3.08-2.06
			c1.2-0.47,2.54-0.71,4.02-0.71c1.42,0,2.7,0.23,3.83,0.7c1.14,0.47,2.1,1.14,2.89,2.02c0.79,0.88,1.4,1.95,1.82,3.22
			c0.42,1.26,0.63,2.7,0.63,4.31c0,1.53-0.22,2.93-0.66,4.19c-0.44,1.26-1.07,2.34-1.89,3.25c-0.82,0.91-1.81,1.61-2.99,2.11
			C199.41,338.51,198.08,338.76,196.6,338.76z M196.79,320.34c-1.07,0-2.04,0.18-2.91,0.56c-0.87,0.37-1.61,0.91-2.23,1.62
			s-1.1,1.58-1.43,2.61c-0.33,1.03-0.5,2.19-0.5,3.5c0,1.23,0.17,2.33,0.5,3.32c0.33,0.98,0.8,1.83,1.41,2.53
			c0.61,0.7,1.34,1.24,2.21,1.62c0.87,0.38,1.84,0.57,2.91,0.57c1.1,0,2.07-0.18,2.91-0.55s1.56-0.89,2.15-1.59
			c0.59-0.7,1.03-1.55,1.33-2.56c0.3-1.01,0.45-2.16,0.45-3.45c0-2.64-0.59-4.67-1.76-6.07
			C200.66,321.04,198.98,320.34,196.79,320.34z"/>
		<path class="st5" d="M233.13,338.3v-3.49h-0.08c-0.64,1.25-1.51,2.22-2.62,2.91c-1.11,0.69-2.35,1.04-3.75,1.04
			c-0.95,0-1.8-0.13-2.56-0.4s-1.41-0.65-1.94-1.14c-0.53-0.49-0.94-1.08-1.23-1.77c-0.29-0.69-0.43-1.45-0.43-2.28
			c0-1.78,0.55-3.19,1.65-4.25c1.1-1.05,2.76-1.74,4.98-2.06l5.96-0.86c0-3.77-1.46-5.65-4.39-5.65c-2.29,0-4.41,0.84-6.36,2.51
			v-2.68c0.41-0.29,0.87-0.56,1.39-0.79c0.52-0.24,1.06-0.44,1.64-0.61c0.58-0.17,1.17-0.31,1.77-0.4c0.61-0.1,1.2-0.14,1.77-0.14
			c2.18,0,3.84,0.61,4.95,1.84c1.12,1.23,1.68,3.05,1.68,5.48v12.76H233.13z M228.07,328.78c-0.88,0.13-1.64,0.29-2.26,0.48
			c-0.63,0.19-1.14,0.45-1.55,0.78c-0.41,0.33-0.71,0.73-0.9,1.21c-0.19,0.48-0.29,1.07-0.29,1.77c0,0.52,0.09,1.01,0.28,1.46
			c0.19,0.45,0.45,0.83,0.8,1.16c0.35,0.33,0.78,0.58,1.28,0.76c0.5,0.18,1.08,0.27,1.72,0.27c0.87,0,1.67-0.17,2.4-0.5
			c0.73-0.33,1.36-0.79,1.89-1.38c0.53-0.59,0.95-1.29,1.25-2.11c0.3-0.82,0.45-1.71,0.45-2.66v-1.94L228.07,328.78z"/>
		<path class="st5" d="M257.69,336.79c0,3.64-0.83,6.34-2.48,8.1c-1.66,1.76-4.21,2.63-7.66,2.63c-2.15,0-4.18-0.48-6.09-1.44v-2.49
			c2.13,1.19,4.16,1.78,6.09,1.78c5.12,0,7.68-2.71,7.68-8.12v-2.36h-0.08c-1.51,2.58-3.81,3.87-6.9,3.87
			c-1.21,0-2.32-0.22-3.32-0.67s-1.86-1.09-2.58-1.94c-0.72-0.84-1.27-1.87-1.67-3.08c-0.4-1.21-0.59-2.57-0.59-4.09
			c0-1.61,0.21-3.08,0.63-4.4c0.42-1.32,1.02-2.46,1.8-3.4s1.72-1.68,2.83-2.19s2.35-0.78,3.73-0.78c2.77,0,4.8,1.12,6.08,3.37h0.08
			v-2.91h2.45V336.79z M255.24,326.38c0-0.82-0.15-1.59-0.44-2.32c-0.29-0.73-0.7-1.37-1.23-1.92c-0.52-0.55-1.15-0.99-1.87-1.31
			c-0.72-0.33-1.52-0.49-2.39-0.49c-1.02,0-1.95,0.2-2.77,0.59c-0.82,0.4-1.53,0.96-2.11,1.69c-0.58,0.73-1.03,1.61-1.34,2.65
			s-0.47,2.21-0.47,3.52c0,1.2,0.15,2.29,0.44,3.26s0.71,1.79,1.25,2.47c0.54,0.68,1.19,1.2,1.95,1.57
			c0.76,0.37,1.61,0.56,2.54,0.56c0.97,0,1.85-0.17,2.65-0.53c0.79-0.35,1.47-0.84,2.03-1.46c0.56-0.62,1-1.35,1.3-2.18
			s0.46-1.74,0.46-2.71V326.38z"/>
		<path class="st5" d="M273.75,321.19c-0.57-0.42-1.32-0.63-2.22-0.63c-0.65,0-1.23,0.12-1.72,0.37s-0.94,0.58-1.31,1.01
			c-0.38,0.42-0.7,0.91-0.96,1.47c-0.26,0.56-0.47,1.13-0.63,1.73c-0.16,0.6-0.27,1.21-0.34,1.82s-0.11,1.19-0.11,1.74v9.6h-2.43
			v-19.62h2.43v4.2h0.08c0.23-0.72,0.52-1.36,0.87-1.93c0.35-0.57,0.76-1.05,1.22-1.44c0.46-0.39,0.96-0.69,1.5-0.89
			c0.54-0.2,1.11-0.31,1.71-0.31c0.4,0,0.75,0.03,1.06,0.08c0.31,0.05,0.6,0.13,0.85,0.23V321.19z"/>
		<path class="st5" d="M284.83,338.76c-1.46,0-2.76-0.24-3.92-0.73s-2.14-1.17-2.96-2.06s-1.44-1.95-1.88-3.19
			c-0.43-1.24-0.65-2.61-0.65-4.12c0-1.63,0.23-3.1,0.69-4.39c0.46-1.29,1.12-2.39,1.96-3.29s1.88-1.59,3.08-2.06
			c1.2-0.47,2.54-0.71,4.02-0.71c1.42,0,2.7,0.23,3.83,0.7c1.14,0.47,2.1,1.14,2.89,2.02s1.4,1.95,1.82,3.22
			c0.42,1.26,0.63,2.7,0.63,4.31c0,1.53-0.22,2.93-0.66,4.19c-0.44,1.26-1.07,2.34-1.89,3.25s-1.81,1.61-2.99,2.11
			C287.64,338.51,286.31,338.76,284.83,338.76z M285.02,320.34c-1.07,0-2.04,0.18-2.91,0.56c-0.87,0.37-1.61,0.91-2.23,1.62
			c-0.62,0.71-1.1,1.58-1.43,2.61c-0.33,1.03-0.5,2.19-0.5,3.5c0,1.23,0.17,2.33,0.5,3.32c0.33,0.98,0.8,1.83,1.41,2.53
			c0.61,0.7,1.34,1.24,2.21,1.62c0.87,0.38,1.84,0.57,2.91,0.57c1.1,0,2.07-0.18,2.91-0.55c0.84-0.36,1.56-0.89,2.15-1.59
			c0.59-0.7,1.03-1.55,1.33-2.56c0.3-1.01,0.45-2.16,0.45-3.45c0-2.64-0.59-4.67-1.76-6.07
			C288.89,321.04,287.21,320.34,285.02,320.34z"/>
		<path class="st5" d="M300.5,313.71c-0.47,0-0.88-0.17-1.23-0.5c-0.34-0.33-0.52-0.75-0.52-1.26c0-0.5,0.17-0.91,0.52-1.24
			c0.35-0.33,0.75-0.49,1.23-0.49c0.24,0,0.47,0.04,0.69,0.12c0.22,0.08,0.41,0.2,0.57,0.35c0.16,0.15,0.29,0.33,0.38,0.55
			s0.14,0.44,0.14,0.7c0,0.24-0.04,0.47-0.13,0.69c-0.09,0.22-0.22,0.41-0.38,0.57c-0.17,0.16-0.35,0.28-0.57,0.37
			C300.99,313.67,300.76,313.71,300.5,313.71z M299.3,338.3v-19.62h2.45v19.62H299.3z"/>
		<path class="st5" d="M321.32,338.3v-11.31c0-4.43-1.61-6.65-4.83-6.65c-0.86,0-1.65,0.17-2.38,0.51
			c-0.73,0.34-1.36,0.81-1.89,1.41s-0.95,1.31-1.25,2.14c-0.3,0.82-0.45,1.71-0.45,2.67v11.23h-2.45v-19.62h2.45v3.41h0.08
			c1.46-2.58,3.65-3.87,6.57-3.87c2.15,0,3.78,0.7,4.91,2.09s1.69,3.41,1.69,6.04v11.96H321.32z"/>
		<path class="st5" d="M343.43,338.3v-3.45h-0.08c-0.65,1.24-1.58,2.2-2.79,2.88s-2.58,1.03-4.11,1.03c-1.23,0-2.34-0.23-3.34-0.68
			c-1-0.45-1.86-1.11-2.58-1.96c-0.72-0.86-1.27-1.89-1.66-3.1c-0.39-1.21-0.58-2.59-0.58-4.12c0-1.58,0.21-3.03,0.64-4.34
			c0.43-1.31,1.04-2.43,1.82-3.37c0.79-0.94,1.73-1.67,2.84-2.18c1.1-0.52,2.33-0.78,3.69-0.78c2.82,0,4.85,1.13,6.07,3.39h0.08
			v-12.36h2.45v29.05H343.43z M343.43,326.46c0-0.86-0.15-1.66-0.44-2.4c-0.29-0.74-0.7-1.39-1.23-1.94
			c-0.52-0.55-1.15-0.98-1.89-1.3c-0.74-0.32-1.54-0.48-2.42-0.48c-0.97,0-1.87,0.19-2.68,0.57c-0.82,0.38-1.52,0.94-2.1,1.66
			s-1.04,1.6-1.36,2.63c-0.33,1.04-0.49,2.21-0.49,3.53c0,1.24,0.15,2.35,0.44,3.33c0.29,0.98,0.71,1.81,1.25,2.49
			c0.54,0.68,1.19,1.2,1.95,1.55s1.59,0.54,2.51,0.54c1,0,1.89-0.18,2.69-0.54c0.8-0.36,1.48-0.85,2.03-1.48s0.98-1.36,1.28-2.2
			c0.3-0.84,0.45-1.74,0.45-2.7V326.46z"/>
		<path class="st5" d="M365.05,338.3v-3.33h-0.08c-1.33,2.53-3.39,3.79-6.19,3.79c-4.66,0-7-2.85-7-8.55v-11.54h2.45v11.08
			c0,2.35,0.42,4.09,1.25,5.21c0.84,1.12,2.12,1.69,3.84,1.69c0.84,0,1.61-0.16,2.31-0.49c0.7-0.33,1.3-0.79,1.8-1.38
			s0.9-1.31,1.18-2.14c0.28-0.83,0.42-1.75,0.42-2.76v-11.21h2.45v19.62H365.05z"/>
		<path class="st5" d="M372.71,334.77c0.37,0.29,0.77,0.56,1.21,0.79c0.43,0.23,0.88,0.43,1.34,0.59s0.92,0.29,1.39,0.37
			c0.47,0.08,0.91,0.12,1.33,0.12c2.91,0,4.37-1.09,4.37-3.28c0-0.5-0.1-0.93-0.31-1.29c-0.21-0.36-0.5-0.7-0.88-1
			c-0.38-0.3-0.84-0.58-1.38-0.83c-0.54-0.26-1.14-0.52-1.82-0.8c-0.91-0.37-1.69-0.75-2.34-1.13c-0.65-0.38-1.19-0.8-1.61-1.25
			c-0.42-0.45-0.73-0.95-0.94-1.5c-0.21-0.54-0.31-1.16-0.31-1.85c0-0.87,0.19-1.64,0.57-2.32c0.38-0.68,0.88-1.25,1.52-1.72
			c0.64-0.47,1.38-0.83,2.21-1.08s1.71-0.37,2.63-0.37c1.7,0,3.18,0.32,4.45,0.96v2.59c-1.47-0.95-3.05-1.42-4.75-1.42
			c-0.61,0-1.17,0.08-1.68,0.23s-0.94,0.37-1.29,0.65c-0.36,0.28-0.64,0.62-0.83,1.01c-0.2,0.39-0.3,0.82-0.3,1.29
			c0,0.49,0.08,0.91,0.23,1.27s0.39,0.69,0.72,0.99c0.33,0.29,0.75,0.57,1.27,0.84c0.52,0.27,1.15,0.56,1.89,0.86
			c0.95,0.38,1.76,0.76,2.45,1.14c0.69,0.38,1.26,0.79,1.71,1.23c0.45,0.44,0.78,0.93,1,1.48c0.22,0.54,0.33,1.17,0.33,1.89
			c0,0.88-0.18,1.67-0.55,2.36c-0.36,0.69-0.87,1.27-1.51,1.74c-0.64,0.47-1.4,0.83-2.27,1.07c-0.87,0.24-1.81,0.36-2.84,0.36
			c-1.98,0-3.65-0.42-5-1.25V334.77z"/>
		<path class="st5" d="M398.2,338.07c-0.84,0.42-1.76,0.63-2.76,0.63c-3.17,0-4.75-1.83-4.75-5.48v-12.4h-3.45v-2.15h3.45v-4.94
			l2.45-0.8v5.75h5.06v2.15h-5.06v12.02c0,1.33,0.22,2.29,0.65,2.88s1.17,0.88,2.2,0.88c0.77,0,1.5-0.23,2.2-0.69V338.07z"/>
		<path class="st5" d="M411.98,321.19c-0.58-0.42-1.32-0.63-2.22-0.63c-0.65,0-1.23,0.12-1.72,0.37c-0.5,0.25-0.94,0.58-1.31,1.01
			c-0.38,0.42-0.7,0.91-0.96,1.47c-0.26,0.56-0.47,1.13-0.63,1.73c-0.16,0.6-0.27,1.21-0.34,1.82s-0.11,1.19-0.11,1.74v9.6h-2.43
			v-19.62h2.43v4.2h0.08c0.23-0.72,0.52-1.36,0.87-1.93c0.35-0.57,0.76-1.05,1.22-1.44s0.96-0.69,1.5-0.89
			c0.54-0.2,1.11-0.31,1.71-0.31c0.4,0,0.75,0.03,1.06,0.08c0.31,0.05,0.6,0.13,0.85,0.23V321.19z"/>
		<path class="st5" d="M416.75,313.71c-0.47,0-0.88-0.17-1.23-0.5c-0.34-0.33-0.52-0.75-0.52-1.26c0-0.5,0.17-0.91,0.52-1.24
			c0.35-0.33,0.75-0.49,1.23-0.49c0.24,0,0.47,0.04,0.69,0.12c0.22,0.08,0.41,0.2,0.57,0.35c0.16,0.15,0.29,0.33,0.38,0.55
			s0.14,0.44,0.14,0.7c0,0.24-0.04,0.47-0.13,0.69c-0.09,0.22-0.22,0.41-0.38,0.57c-0.17,0.16-0.35,0.28-0.57,0.37
			C417.24,313.67,417.01,313.71,416.75,313.71z M415.55,338.3v-19.62H418v19.62H415.55z"/>
		<path class="st5" d="M435.63,338.3v-3.49h-0.08c-0.64,1.25-1.51,2.22-2.62,2.91c-1.11,0.69-2.35,1.04-3.75,1.04
			c-0.95,0-1.8-0.13-2.56-0.4c-0.76-0.27-1.41-0.65-1.94-1.14c-0.53-0.49-0.94-1.08-1.23-1.77c-0.29-0.69-0.43-1.45-0.43-2.28
			c0-1.78,0.55-3.19,1.65-4.25c1.1-1.05,2.76-1.74,4.98-2.06l5.96-0.86c0-3.77-1.46-5.65-4.39-5.65c-2.29,0-4.41,0.84-6.36,2.51
			v-2.68c0.41-0.29,0.87-0.56,1.39-0.79s1.06-0.44,1.64-0.61c0.57-0.17,1.17-0.31,1.77-0.4c0.61-0.1,1.2-0.14,1.77-0.14
			c2.18,0,3.84,0.61,4.95,1.84c1.12,1.23,1.68,3.05,1.68,5.48v12.76H435.63z M430.57,328.78c-0.88,0.13-1.63,0.29-2.26,0.48
			c-0.63,0.19-1.14,0.45-1.55,0.78c-0.41,0.33-0.71,0.73-0.9,1.21c-0.19,0.48-0.29,1.07-0.29,1.77c0,0.52,0.09,1.01,0.28,1.46
			s0.45,0.83,0.8,1.16c0.35,0.33,0.78,0.58,1.28,0.76s1.08,0.27,1.71,0.27c0.87,0,1.67-0.17,2.4-0.5c0.73-0.33,1.36-0.79,1.89-1.38
			c0.53-0.59,0.95-1.29,1.25-2.11c0.3-0.82,0.45-1.71,0.45-2.66v-1.94L430.57,328.78z"/>
		<path class="st5" d="M443.99,338.3v-29.05h2.45v29.05H443.99z"/>
	</g>
</g>
</svg>
