<?xml version="1.0" encoding="utf-8"?>
<!-- Generator: Adobe Illustrator 24.3.0, SVG Export Plug-In . SVG Version: 6.00 Build 0)  -->
<svg version="1.1" id="Capa_1" xmlns="http://www.w3.org/2000/svg" xmlns:xlink="http://www.w3.org/1999/xlink" x="0px" y="0px"
	 viewBox="0 0 289 300" style="enable-background:new 0 0 289 300;" xml:space="preserve">
<style type="text/css">
	.st0{fill:#FF8026;}
	.st1{fill:#01BB00;}
	.st2{fill:#009CD6;}
	.st3{fill:#5C3516;}
</style>
<circle class="st0" cx="119.6" cy="136.9" r="48.9"/>
<path class="st1" d="M223.3,121.3c-35.6,0-64.5,28.9-64.5,64.5h129C287.9,150.1,259,121.3,223.3,121.3z"/>
<path class="st2" d="M6.2,56.7c-0.8,0-1.5,0-2.3,0.1v128.9c0.8,0,1.5,0.1,2.3,0.1c35.6,0,64.5-28.9,64.5-64.5
	C70.7,85.6,41.8,56.7,6.2,56.7z"/>
<g>
	<g>
		<path class="st3" d="M4.4,204.5c2.2-0.3,4.9-0.6,7.8-0.6c5.3,0,9,1.2,11.5,3.5c2.5,2.3,4,5.6,4,10.2c0,4.6-1.4,8.4-4.1,11
			c-2.6,2.6-7,4.1-12.5,4.1c-2.6,0-4.8-0.1-6.6-0.3V204.5z M8,229.5c0.9,0.2,2.3,0.2,3.7,0.2c7.8,0,12.1-4.4,12.1-12
			c0-6.7-3.7-10.9-11.5-10.9c-1.9,0-3.3,0.2-4.3,0.4V229.5z"/>
		<path class="st3" d="M59.5,218c0,9.7-5.9,14.9-13.1,14.9c-7.5,0-12.7-5.8-12.7-14.4c0-9,5.6-14.9,13.1-14.9
			C54.5,203.7,59.5,209.6,59.5,218z M37.6,218.4c0,6,3.3,11.5,9,11.5c5.8,0,9.1-5.3,9.1-11.8c0-5.6-2.9-11.5-9-11.5
			C40.6,206.6,37.6,212.2,37.6,218.4z"/>
		<path class="st3" d="M67.3,232.4v-28.3h4l9.1,14.3c2.1,3.3,3.7,6.3,5.1,9.2l0.1,0c-0.3-3.8-0.4-7.2-0.4-11.6v-11.8h3.4v28.3h-3.7
			l-9-14.4c-2-3.2-3.9-6.4-5.3-9.5l-0.1,0c0.2,3.6,0.3,7,0.3,11.7v12.1H67.3z"/>
		<path class="st3" d="M109.8,204.5c1.8-0.4,4.5-0.6,7-0.6c3.9,0,6.4,0.7,8.2,2.3c1.4,1.3,2.2,3.2,2.2,5.4c0,3.7-2.4,6.2-5.3,7.2
			v0.1c2.2,0.8,3.5,2.8,4.2,5.7c0.9,3.9,1.6,6.7,2.2,7.8h-3.8c-0.5-0.8-1.1-3.2-1.9-6.8c-0.8-3.9-2.4-5.4-5.7-5.5h-3.4v12.3h-3.7
			V204.5z M113.4,217.4h3.7c3.9,0,6.4-2.1,6.4-5.4c0-3.7-2.6-5.3-6.5-5.3c-1.8,0-3,0.2-3.6,0.3V217.4z"/>
		<path class="st3" d="M139,204.1v28.3h-3.7v-28.3H139z"/>
		<path class="st3" d="M168.1,231.5c-1.3,0.7-4,1.3-7.5,1.3c-8,0-14-5-14-14.3c0-8.9,6-14.9,14.8-14.9c3.5,0,5.8,0.8,6.7,1.3l-0.9,3
			c-1.4-0.7-3.4-1.2-5.7-1.2c-6.6,0-11,4.2-11,11.7c0,6.9,4,11.4,10.9,11.4c2.2,0,4.5-0.5,6-1.2L168.1,231.5z"/>
		<path class="st3" d="M180.4,223.5l-2.9,8.9h-3.8l9.6-28.3h4.4l9.7,28.3h-3.9l-3-8.9H180.4z M189.7,220.7l-2.8-8.1
			c-0.6-1.8-1.1-3.5-1.5-5.2h-0.1c-0.4,1.7-0.9,3.4-1.4,5.1l-2.8,8.2H189.7z"/>
		<path class="st3" d="M204.6,204.5c1.8-0.4,4.5-0.6,7-0.6c3.9,0,6.4,0.7,8.2,2.3c1.4,1.3,2.2,3.2,2.2,5.4c0,3.7-2.4,6.2-5.3,7.2
			v0.1c2.2,0.8,3.5,2.8,4.2,5.7c0.9,3.9,1.6,6.7,2.2,7.8h-3.8c-0.5-0.8-1.1-3.2-1.9-6.8c-0.8-3.9-2.4-5.4-5.7-5.5h-3.4v12.3h-3.7
			V204.5z M208.2,217.4h3.7c3.9,0,6.4-2.1,6.4-5.4c0-3.7-2.6-5.3-6.5-5.3c-1.8,0-3,0.2-3.6,0.3V217.4z"/>
		<path class="st3" d="M230.1,204.5c2.2-0.3,4.9-0.6,7.8-0.6c5.3,0,9,1.2,11.5,3.5c2.5,2.3,4,5.6,4,10.2c0,4.6-1.4,8.4-4.1,11
			c-2.6,2.6-7,4.1-12.5,4.1c-2.6,0-4.8-0.1-6.6-0.3V204.5z M233.8,229.5c0.9,0.2,2.3,0.2,3.7,0.2c7.8,0,12.1-4.4,12.1-12
			c0-6.7-3.7-10.9-11.5-10.9c-1.9,0-3.3,0.2-4.3,0.4V229.5z"/>
		<path class="st3" d="M285.3,218c0,9.7-5.9,14.9-13.1,14.9c-7.5,0-12.7-5.8-12.7-14.4c0-9,5.6-14.9,13.1-14.9
			C280.3,203.7,285.3,209.6,285.3,218z M263.3,218.4c0,6,3.3,11.5,9,11.5c5.8,0,9.1-5.3,9.1-11.8c0-5.6-2.9-11.5-9-11.5
			C266.3,206.6,263.3,212.2,263.3,218.4z"/>
	</g>
</g>
<g>
	<path class="st3" d="M11.5,248.1c-0.4,0.2-1.2,0.4-2.3,0.4c-2.5,0-4.3-1.6-4.3-4.4c0-2.7,1.9-4.6,4.6-4.6c1.1,0,1.8,0.2,2.1,0.4
		l-0.3,0.9c-0.4-0.2-1-0.4-1.8-0.4c-2.1,0-3.4,1.3-3.4,3.6c0,2.1,1.2,3.5,3.4,3.5c0.7,0,1.4-0.1,1.8-0.4L11.5,248.1z"/>
	<path class="st3" d="M15,239.6v5.2c0,2,0.9,2.8,2,2.8c1.3,0,2.1-0.9,2.1-2.8v-5.2h1.1v5.1c0,2.7-1.4,3.8-3.3,3.8
		c-1.8,0-3.1-1-3.1-3.7v-5.2H15z"/>
	<path class="st3" d="M23.2,239.6h1.1v7.8H28v0.9h-4.9V239.6z"/>
	<path class="st3" d="M30.7,240.5h-2.7v-1h6.5v1h-2.7v7.8h-1.1V240.5z"/>
	<path class="st3" d="M37.6,239.6v8.8h-1.1v-8.8H37.6z"/>
	<path class="st3" d="M42.4,248.3l-2.9-8.8h1.2l1.4,4.3c0.4,1.2,0.7,2.2,0.9,3.3h0c0.2-1,0.6-2.1,1-3.3l1.5-4.3h1.2l-3.1,8.8H42.4z"
		/>
	<path class="st3" d="M49.4,245.6l-0.9,2.8h-1.2l3-8.8h1.4l3,8.8h-1.2l-0.9-2.8H49.4z M52.2,244.7l-0.9-2.5
		c-0.2-0.6-0.3-1.1-0.5-1.6h0c-0.1,0.5-0.3,1.1-0.4,1.6l-0.9,2.5H52.2z"/>
	<path class="st3" d="M60.5,239.6h1.1v7.8h3.7v0.9h-4.9V239.6z"/>
	<path class="st3" d="M74.5,243.9c0,3-1.8,4.6-4.1,4.6c-2.3,0-3.9-1.8-3.9-4.4c0-2.8,1.7-4.6,4.1-4.6
		C73,239.4,74.5,241.3,74.5,243.9z M67.7,244c0,1.9,1,3.5,2.8,3.5c1.8,0,2.8-1.7,2.8-3.6c0-1.7-0.9-3.6-2.8-3.6
		C68.7,240.4,67.7,242.1,67.7,244z"/>
	<path class="st3" d="M88,244.5c-0.1-1.2-0.1-2.7-0.1-3.8h0c-0.3,1-0.7,2.1-1.1,3.3l-1.5,4.3h-0.9l-1.4-4.2c-0.4-1.2-0.8-2.4-1-3.4
		h0c0,1.1-0.1,2.6-0.2,3.9l-0.2,3.8h-1.1l0.6-8.8h1.4l1.5,4.2c0.4,1.1,0.7,2,0.9,3h0c0.2-0.9,0.5-1.8,0.9-3l1.6-4.2h1.4l0.5,8.8
		h-1.1L88,244.5z"/>
	<path class="st3" d="M96.5,244.2h-3.4v3.2h3.8v0.9H92v-8.8h4.7v0.9h-3.6v2.8h3.4V244.2z"/>
	<path class="st3" d="M101.3,239.6h1.1v5.9c0,2.3-1.1,3-2.7,3c-0.4,0-0.9-0.1-1.2-0.2l0.2-0.9c0.2,0.1,0.6,0.2,0.9,0.2
		c1,0,1.6-0.5,1.6-2.2V239.6z"/>
	<path class="st3" d="M112.8,243.9c0,3-1.8,4.6-4.1,4.6c-2.3,0-3.9-1.8-3.9-4.4c0-2.8,1.7-4.6,4.1-4.6
		C111.2,239.4,112.8,241.3,112.8,243.9z M106,244c0,1.9,1,3.5,2.8,3.5c1.8,0,2.8-1.7,2.8-3.6c0-1.7-0.9-3.6-2.8-3.6
		C106.9,240.4,106,242.1,106,244z"/>
	<path class="st3" d="M115.1,239.7c0.6-0.1,1.4-0.2,2.2-0.2c1.2,0,2,0.2,2.5,0.7c0.4,0.4,0.7,1,0.7,1.7c0,1.2-0.7,1.9-1.7,2.2v0
		c0.7,0.2,1.1,0.9,1.3,1.8c0.3,1.2,0.5,2.1,0.7,2.4h-1.2c-0.1-0.2-0.3-1-0.6-2.1c-0.3-1.2-0.7-1.7-1.8-1.7h-1.1v3.8h-1.1V239.7z
		 M116.3,243.7h1.2c1.2,0,2-0.7,2-1.7c0-1.1-0.8-1.6-2-1.6c-0.5,0-0.9,0.1-1.1,0.1V243.7z"/>
</g>
</svg>
