<?xml version="1.0" encoding="utf-8"?>
<!-- Generator: Adobe Illustrator 24.3.0, SVG Export Plug-In . SVG Version: 6.00 Build 0)  -->
<svg version="1.1" id="Capa_1" xmlns="http://www.w3.org/2000/svg" xmlns:xlink="http://www.w3.org/1999/xlink" x="0px" y="0px"
	 viewBox="0 0 300 300" style="enable-background:new 0 0 300 300;" xml:space="preserve">
<style type="text/css">
	.st0{fill:url(#SVGID_1_);stroke:#0088AC;stroke-miterlimit:10;}
	.st1{fill:url(#SVGID_2_);stroke:#0088AC;stroke-miterlimit:10;}
	.st2{fill:url(#SVGID_3_);stroke:#0088AC;stroke-miterlimit:10;}
	.st3{fill:#02AAD4;}
	.st4{fill:#006681;}
	.st5{fill:#36ACC9;}
	.st6{fill:#5FBCD3;}
	.st7{fill:#88CEDF;}
	.st8{fill:#194478;}
</style>
<g>
	<g>
		
			<linearGradient id="SVGID_1_" gradientUnits="userSpaceOnUse" x1="173.9791" y1="168.8667" x2="188.8021" y2="157.6968" gradientTransform="matrix(1 0 0 -1 0 301)">
			<stop  offset="0" style="stop-color:#1D81B1"/>
			<stop  offset="0.3521" style="stop-color:#1886B7"/>
			<stop  offset="0.8913" style="stop-color:#0794C6"/>
			<stop  offset="1" style="stop-color:#0197CA"/>
		</linearGradient>
		<path class="st0" d="M171.3,135.6l-5.7,17h8.7c8.1,0,14.7-6.6,14.7-14.7v-21.2L171.3,135.6z"/>
		
			<linearGradient id="SVGID_2_" gradientUnits="userSpaceOnUse" x1="162.654" y1="173.6019" x2="173.207" y2="165.6496" gradientTransform="matrix(1 0 0 -1 0 301)">
			<stop  offset="0" style="stop-color:#1A77A7"/>
			<stop  offset="0.2781" style="stop-color:#177DAC"/>
			<stop  offset="0.7036" style="stop-color:#0C8BBC"/>
			<stop  offset="1" style="stop-color:#0197CA"/>
		</linearGradient>
		<polygon class="st1" points="143.7,152.7 156.1,152.7 167.8,132.7 189.1,114.2 189.1,107.8 162.7,127.3 		"/>
		
			<linearGradient id="SVGID_3_" gradientUnits="userSpaceOnUse" x1="111.4637" y1="216.4226" x2="171.2099" y2="171.4006" gradientTransform="matrix(1 0 0 -1 0 301)">
			<stop  offset="0" style="stop-color:#222E59"/>
			<stop  offset="0.1594" style="stop-color:#232F5A"/>
			<stop  offset="0.3138" style="stop-color:#243560"/>
			<stop  offset="0.4664" style="stop-color:#243F6B"/>
			<stop  offset="0.6178" style="stop-color:#224F7B"/>
			<stop  offset="0.7683" style="stop-color:#1C6593"/>
			<stop  offset="0.9162" style="stop-color:#0E83B3"/>
			<stop  offset="1" style="stop-color:#0197CA"/>
		</linearGradient>
		<path class="st2" d="M159.7,123.8l29.5-18V89.6c0-8.1-6.6-14.7-14.7-14.7h-48.3c-8.1,0-14.7,6.6-14.7,14.7V138
			c0,8.1,6.6,14.7,14.7,14.7h7.9L159.7,123.8z"/>
		<circle class="st3" cx="134" cy="111.6" r="12.4"/>
		<path class="st3" d="M121.7,111.6c0,0-0.8-4.4,4.1-11c4.9-6.6,6.8-9.8,7.7-14.5c0,0-0.1,5.3,5.6,11.6c5.7,6.3,6.2,8.7,6.2,8.7
			L121.7,111.6z"/>
		<circle class="st4" cx="134" cy="111.6" r="11.2"/>
		<circle class="st5" cx="133.7" cy="110.9" r="11.3"/>
		<path class="st6" d="M141.8,102.9c0.4,4.2-3.7,8.2-9.3,8.9c-4.1,0.6-7.9-0.8-9.9-3.2c-0.1,0.7-0.2,1.4-0.2,2.1
			c0,6.2,5.1,11.3,11.3,11.3c6.2,0,11.3-5.1,11.3-11.3C145,107.8,143.8,105,141.8,102.9z"/>
		<path class="st7" d="M125.1,110.1c0,0-0.5-3.7,3-7.3l-0.9-1.2c0,0-4.4,5-3.5,8.2L125.1,110.1z"/>
		<path class="st7" d="M123.5,110.4l1.3,0.2c0,0-0.8,3.2,0.9,5h-1.4C124.4,115.6,122.7,113,123.5,110.4z"/>
	</g>
	<g>
		<path class="st8" d="M9.8,161.5h3v10.2c0,0.9-0.2,1.8-0.6,2.5c-0.4,0.7-1,1.3-1.8,1.7s-1.6,0.6-2.6,0.6c-1.6,0-2.8-0.4-3.7-1.2
			c-0.9-0.8-1.3-1.9-1.3-3.4H6c0,0.7,0.2,1.3,0.5,1.6c0.3,0.3,0.8,0.5,1.4,0.5c0.6,0,1-0.2,1.4-0.6c0.3-0.4,0.5-1,0.5-1.7L9.8,161.5
			L9.8,161.5z"/>
		<path class="st8" d="M26.4,161.5v9.7c0,1.6-0.5,2.9-1.5,3.8c-1,0.9-2.4,1.4-4.1,1.4c-1.7,0-3.1-0.5-4.1-1.4
			c-1-0.9-1.5-2.2-1.6-3.8v-9.8h3v9.8c0,1,0.2,1.7,0.7,2.1c0.5,0.4,1.1,0.7,1.9,0.7c1.7,0,2.6-0.9,2.6-2.7v-9.8H26.4z"/>
		<path class="st8" d="M40.7,176.3h-3l-5.9-9.7v9.7h-3v-14.8h3l5.9,9.7v-9.7h3V176.3z"/>
		<path class="st8" d="M54,164h-4.5v12.3h-3V164h-4.5v-2.5h12L54,164L54,164z"/>
		<path class="st8" d="M62.6,173.3h-5.3l-1,3H53l5.5-14.8h2.8l5.5,14.8h-3.2L62.6,173.3z M58.1,170.8h3.7l-1.9-5.5L58.1,170.8z"/>
		<path class="st8" d="M72.4,170.7c0-1.7,0.4-3.1,1.1-4.1c0.8-1,1.8-1.5,3.2-1.5c1.1,0,2,0.4,2.6,1.2v-5.6h2.9v15.6h-2.6l-0.1-1.2
			c-0.7,0.9-1.7,1.4-2.8,1.4c-1.3,0-2.3-0.5-3.1-1.5C72.8,174,72.4,172.6,72.4,170.7z M75.3,171c0,1,0.2,1.8,0.5,2.4
			c0.4,0.6,0.9,0.8,1.6,0.8c0.9,0,1.5-0.4,1.9-1.1v-4.3c-0.4-0.8-1-1.1-1.9-1.1C76,167.5,75.3,168.7,75.3,171z"/>
		<path class="st8" d="M89.4,176.5c-1.6,0-2.9-0.5-3.9-1.5c-1-1-1.5-2.3-1.5-3.9v-0.3c0-1.1,0.2-2.1,0.6-3c0.4-0.9,1-1.5,1.8-2
			c0.8-0.5,1.7-0.7,2.7-0.7c1.5,0,2.7,0.5,3.5,1.4c0.9,0.9,1.3,2.3,1.3,4v1.2h-7c0.1,0.7,0.4,1.3,0.9,1.7c0.5,0.4,1.1,0.7,1.8,0.7
			c1.1,0,2-0.4,2.6-1.2l1.4,1.6c-0.4,0.6-1,1.1-1.8,1.5C91.1,176.4,90.3,176.5,89.4,176.5z M89,167.5c-0.6,0-1.1,0.2-1.4,0.6
			c-0.4,0.4-0.6,1-0.7,1.7H91v-0.2c0-0.7-0.2-1.2-0.5-1.5C90.1,167.7,89.7,167.5,89,167.5z"/>
		<path class="st8" d="M111.7,161.5v9.7c0,1.6-0.5,2.9-1.5,3.8c-1,0.9-2.4,1.4-4.1,1.4c-1.7,0-3.1-0.5-4.1-1.4
			c-1-0.9-1.5-2.2-1.6-3.8v-9.8h3v9.8c0,1,0.2,1.7,0.7,2.1c0.5,0.4,1.1,0.7,1.9,0.7c1.7,0,2.6-0.9,2.6-2.7v-9.8H111.7z"/>
		<path class="st8" d="M121.6,172.4c0-0.6-0.2-1-0.6-1.3c-0.4-0.3-1.1-0.6-2.2-1c-1.1-0.3-1.9-0.7-2.5-1c-1.7-0.9-2.5-2.1-2.5-3.7
			c0-0.8,0.2-1.5,0.7-2.1c0.5-0.6,1.1-1.1,1.9-1.5c0.8-0.4,1.8-0.5,2.8-0.5c1.1,0,2,0.2,2.8,0.6c0.8,0.4,1.5,0.9,1.9,1.6
			s0.7,1.5,0.7,2.4h-3c0-0.7-0.2-1.2-0.6-1.6c-0.4-0.4-1-0.6-1.8-0.6c-0.7,0-1.3,0.2-1.7,0.5c-0.4,0.3-0.6,0.7-0.6,1.2
			c0,0.5,0.2,0.9,0.7,1.2c0.5,0.3,1.2,0.6,2.1,0.9c1.7,0.5,3,1.2,3.8,1.9c0.8,0.8,1.2,1.7,1.2,2.9c0,1.3-0.5,2.3-1.4,3
			c-1,0.7-2.3,1.1-3.9,1.1c-1.1,0-2.2-0.2-3.1-0.6c-0.9-0.4-1.6-1-2.1-1.7s-0.7-1.6-0.7-2.5h3c0,1.6,1,2.4,2.9,2.4
			c0.7,0,1.3-0.2,1.7-0.4C121.4,173.4,121.6,173,121.6,172.4z"/>
		<path class="st8" d="M138,161.5v9.7c0,1.6-0.5,2.9-1.5,3.8c-1,0.9-2.4,1.4-4.1,1.4c-1.7,0-3.1-0.5-4.1-1.4c-1-0.9-1.5-2.2-1.6-3.8
			v-9.8h3v9.8c0,1,0.2,1.7,0.7,2.1c0.5,0.4,1.1,0.7,1.9,0.7c1.7,0,2.6-0.9,2.6-2.7v-9.8H138z"/>
		<path class="st8" d="M149,173.3h-5.3l-1,3h-3.2l5.5-14.8h2.8l5.5,14.8H150L149,173.3z M144.4,170.8h3.7l-1.9-5.5L144.4,170.8z"/>
		<path class="st8" d="M160.5,170.9H158v5.4h-3v-14.8h5.5c1.7,0,3.1,0.4,4,1.2c0.9,0.8,1.4,1.9,1.4,3.3c0,1-0.2,1.9-0.7,2.5
			c-0.4,0.7-1.1,1.2-2,1.6l3.2,6v0.1h-3.3L160.5,170.9z M158,168.4h2.5c0.8,0,1.4-0.2,1.8-0.6c0.4-0.4,0.6-0.9,0.6-1.6
			c0-0.7-0.2-1.2-0.6-1.6c-0.4-0.4-1-0.6-1.8-0.6H158V168.4L158,168.4z"/>
		<path class="st8" d="M171.9,176.3h-3v-14.8h3V176.3z"/>
		<path class="st8" d="M187.2,169.3c0,1.5-0.3,2.7-0.8,3.8c-0.5,1.1-1.2,1.9-2.2,2.5c-1,0.6-2.1,0.9-3.3,0.9c-1.2,0-2.3-0.3-3.3-0.9
			c-1-0.6-1.7-1.4-2.2-2.5c-0.5-1.1-0.8-2.3-0.8-3.8v-0.7c0-1.5,0.3-2.7,0.8-3.8c0.5-1.1,1.3-2,2.2-2.5c1-0.6,2.1-0.9,3.3-0.9
			c1.2,0,2.3,0.3,3.3,0.9c1,0.6,1.7,1.4,2.2,2.5c0.5,1.1,0.8,2.4,0.8,3.8L187.2,169.3L187.2,169.3z M184.2,168.6
			c0-1.6-0.3-2.7-0.8-3.5c-0.6-0.8-1.3-1.2-2.4-1.2c-1,0-1.8,0.4-2.4,1.2s-0.8,2-0.8,3.5v0.7c0,1.5,0.3,2.7,0.8,3.5
			c0.6,0.8,1.3,1.2,2.4,1.2c1,0,1.8-0.4,2.4-1.2c0.5-0.8,0.8-2,0.8-3.5V168.6z"/>
		<path class="st8" d="M197.5,172.4c0-0.6-0.2-1-0.6-1.3c-0.4-0.3-1.1-0.6-2.2-1c-1.1-0.3-1.9-0.7-2.5-1c-1.7-0.9-2.5-2.1-2.5-3.7
			c0-0.8,0.2-1.5,0.7-2.1c0.5-0.6,1.1-1.1,1.9-1.5c0.8-0.4,1.8-0.5,2.8-0.5c1.1,0,2,0.2,2.8,0.6c0.8,0.4,1.5,0.9,1.9,1.6
			c0.5,0.7,0.7,1.5,0.7,2.4h-3c0-0.7-0.2-1.2-0.6-1.6c-0.4-0.4-1-0.6-1.8-0.6c-0.7,0-1.3,0.2-1.7,0.5c-0.4,0.3-0.6,0.7-0.6,1.2
			c0,0.5,0.2,0.9,0.7,1.2c0.5,0.3,1.2,0.6,2.1,0.9c1.7,0.5,3,1.2,3.8,1.9s1.2,1.7,1.2,2.9c0,1.3-0.5,2.3-1.4,3
			c-1,0.7-2.3,1.1-3.9,1.1c-1.1,0-2.2-0.2-3.1-0.6c-0.9-0.4-1.6-1-2.1-1.7c-0.5-0.7-0.7-1.6-0.7-2.5h3c0,1.6,1,2.4,2.9,2.4
			c0.7,0,1.3-0.2,1.7-0.4C197.3,173.4,197.5,173,197.5,172.4z"/>
		<path class="st8" d="M207.3,170.7c0-1.7,0.4-3.1,1.1-4.1c0.8-1,1.8-1.5,3.2-1.5c1.1,0,2,0.4,2.6,1.2v-5.6h2.9v15.6h-2.6l-0.1-1.2
			c-0.7,0.9-1.7,1.4-2.8,1.4c-1.3,0-2.3-0.5-3.1-1.5C207.7,174,207.3,172.6,207.3,170.7z M210.3,171c0,1,0.2,1.8,0.5,2.4
			c0.4,0.6,0.9,0.8,1.6,0.8c0.9,0,1.5-0.4,1.9-1.1v-4.3c-0.4-0.8-1-1.1-1.9-1.1C211,167.5,210.3,168.7,210.3,171z"/>
		<path class="st8" d="M224.3,176.5c-1.6,0-2.9-0.5-3.9-1.5c-1-1-1.5-2.3-1.5-3.9v-0.3c0-1.1,0.2-2.1,0.6-3s1-1.5,1.8-2
			c0.8-0.5,1.7-0.7,2.7-0.7c1.5,0,2.7,0.5,3.5,1.4c0.9,0.9,1.3,2.3,1.3,4v1.2h-7c0.1,0.7,0.4,1.3,0.9,1.7c0.5,0.4,1.1,0.7,1.8,0.7
			c1.1,0,2-0.4,2.6-1.2l1.4,1.6c-0.4,0.6-1,1.1-1.8,1.5C226.1,176.4,225.2,176.5,224.3,176.5z M224,167.5c-0.6,0-1.1,0.2-1.4,0.6
			c-0.4,0.4-0.6,1-0.7,1.7h4.1v-0.2c0-0.7-0.2-1.2-0.5-1.5C225.1,167.7,224.6,167.5,224,167.5z"/>
		<path class="st8" d="M240.9,170.9h-2.4v5.4h-3v-14.8h5.5c1.7,0,3.1,0.4,4,1.2c0.9,0.8,1.4,1.9,1.4,3.3c0,1-0.2,1.9-0.7,2.5
			c-0.4,0.7-1.1,1.2-2,1.6l3.2,6v0.1h-3.3L240.9,170.9z M238.5,168.4h2.5c0.8,0,1.4-0.2,1.8-0.6c0.4-0.4,0.6-0.9,0.6-1.6
			c0-0.7-0.2-1.2-0.6-1.6c-0.4-0.4-1-0.6-1.8-0.6h-2.4V168.4z"/>
		<path class="st8" d="M253,176.3h-3v-14.8h3V176.3z"/>
		<path class="st8" d="M265.8,169.9H260v4h6.9v2.4h-9.9v-14.8h9.9v2.5H260v3.5h5.8V169.9L265.8,169.9z"/>
		<path class="st8" d="M281.4,174.4c-0.5,0.7-1.3,1.2-2.3,1.5c-1,0.4-2.1,0.5-3.3,0.5c-1.3,0-2.4-0.3-3.4-0.8s-1.7-1.4-2.2-2.4
			c-0.5-1.1-0.8-2.3-0.8-3.7v-1c0-1.5,0.3-2.7,0.7-3.8c0.5-1.1,1.2-1.9,2.2-2.5s2-0.9,3.3-0.9c1.8,0,3.1,0.4,4.1,1.3
			c1,0.8,1.6,2.1,1.8,3.6h-3c-0.1-0.8-0.4-1.5-0.9-1.9c-0.5-0.4-1.1-0.6-1.9-0.6c-1,0-1.8,0.4-2.4,1.2c-0.5,0.8-0.8,1.9-0.8,3.5v0.9
			c0,1.6,0.3,2.7,0.9,3.5c0.6,0.8,1.4,1.2,2.6,1.2c1.1,0,2-0.2,2.4-0.7v-2.5h-2.8v-2.2h5.8L281.4,174.4L281.4,174.4z"/>
		<path class="st8" d="M297.1,169.3c0,1.5-0.3,2.7-0.8,3.8s-1.2,1.9-2.2,2.5s-2.1,0.9-3.3,0.9c-1.2,0-2.3-0.3-3.3-0.9
			c-1-0.6-1.7-1.4-2.2-2.5s-0.8-2.3-0.8-3.8v-0.7c0-1.5,0.3-2.7,0.8-3.8s1.3-2,2.2-2.5c1-0.6,2.1-0.9,3.3-0.9c1.2,0,2.3,0.3,3.3,0.9
			c1,0.6,1.7,1.4,2.2,2.5c0.5,1.1,0.8,2.4,0.8,3.8L297.1,169.3L297.1,169.3z M294,168.6c0-1.6-0.3-2.7-0.8-3.5
			c-0.6-0.8-1.3-1.2-2.4-1.2c-1,0-1.8,0.4-2.4,1.2c-0.6,0.8-0.8,2-0.8,3.5v0.7c0,1.5,0.3,2.7,0.8,3.5c0.6,0.8,1.3,1.2,2.4,1.2
			c1,0,1.8-0.4,2.4-1.2c0.5-0.8,0.8-2,0.8-3.5V168.6z"/>
		<path class="st8" d="M19,195.4v5.2h-3v-14.8h5.8c1.1,0,2.1,0.2,2.9,0.6c0.8,0.4,1.5,1,1.9,1.7c0.5,0.7,0.7,1.6,0.7,2.6
			c0,1.4-0.5,2.6-1.5,3.4c-1,0.8-2.4,1.3-4.1,1.3L19,195.4L19,195.4z M19,192.9h2.7c0.8,0,1.4-0.2,1.8-0.6c0.4-0.4,0.6-0.9,0.6-1.6
			c0-0.7-0.2-1.3-0.6-1.8c-0.4-0.4-1-0.7-1.8-0.7H19V192.9z"/>
		<path class="st8" d="M35.1,195.2h-2.4v5.4h-3v-14.8h5.5c1.7,0,3.1,0.4,4,1.2c0.9,0.8,1.4,1.9,1.4,3.3c0,1-0.2,1.9-0.7,2.5
			c-0.4,0.7-1.1,1.2-2,1.6l3.2,6v0.1h-3.3L35.1,195.2z M32.7,192.7h2.5c0.8,0,1.4-0.2,1.8-0.6c0.4-0.4,0.6-0.9,0.6-1.6
			c0-0.7-0.2-1.2-0.6-1.6c-0.4-0.4-1-0.6-1.8-0.6h-2.4L32.7,192.7L32.7,192.7z"/>
		<path class="st8" d="M52.1,194.2h-5.8v4h6.9v2.4h-9.9v-14.8h9.9v2.5h-6.8v3.5h5.8V194.2z"/>
		<path class="st8" d="M62.8,196.7c0-0.6-0.2-1-0.6-1.3c-0.4-0.3-1.1-0.6-2.2-1c-1.1-0.3-1.9-0.7-2.5-1c-1.7-0.9-2.5-2.1-2.5-3.7
			c0-0.8,0.2-1.5,0.7-2.1c0.5-0.6,1.1-1.1,1.9-1.5c0.8-0.4,1.8-0.5,2.8-0.5c1.1,0,2,0.2,2.8,0.6c0.8,0.4,1.5,0.9,1.9,1.6
			s0.7,1.5,0.7,2.4h-3c0-0.7-0.2-1.2-0.6-1.6c-0.4-0.4-1-0.6-1.8-0.6c-0.7,0-1.3,0.2-1.7,0.5c-0.4,0.3-0.6,0.7-0.6,1.2
			c0,0.5,0.2,0.9,0.7,1.2c0.5,0.3,1.2,0.6,2.1,0.9c1.7,0.5,3,1.2,3.8,1.9c0.8,0.8,1.2,1.7,1.2,2.9c0,1.3-0.5,2.3-1.4,3
			c-1,0.7-2.3,1.1-3.9,1.1c-1.1,0-2.2-0.2-3.1-0.6c-0.9-0.4-1.6-1-2.1-1.7s-0.7-1.6-0.7-2.5h3c0,1.6,1,2.4,2.9,2.4
			c0.7,0,1.3-0.2,1.7-0.4C62.6,197.7,62.8,197.3,62.8,196.7z"/>
		<path class="st8" d="M79.4,185.8v9.7c0,1.6-0.5,2.9-1.5,3.8c-1,0.9-2.4,1.4-4.1,1.4c-1.7,0-3.1-0.5-4.1-1.4
			c-1-0.9-1.5-2.2-1.6-3.8v-9.8h3v9.8c0,1,0.2,1.7,0.7,2.1c0.5,0.4,1.1,0.7,1.9,0.7c1.7,0,2.6-0.9,2.6-2.7v-9.8H79.4z"/>
		<path class="st8" d="M87.7,195.2h-2.4v5.4h-3v-14.8h5.5c1.7,0,3.1,0.4,4,1.2c0.9,0.8,1.4,1.9,1.4,3.3c0,1-0.2,1.9-0.7,2.5
			c-0.4,0.7-1.1,1.2-2,1.6l3.2,6v0.1h-3.3L87.7,195.2z M85.3,192.7h2.5c0.8,0,1.4-0.2,1.8-0.6c0.4-0.4,0.6-0.9,0.6-1.6
			c0-0.7-0.2-1.2-0.6-1.6c-0.4-0.4-1-0.6-1.8-0.6h-2.4L85.3,192.7L85.3,192.7z"/>
		<path class="st8" d="M99,200.6h-3v-14.8h3V200.6z"/>
		<path class="st8" d="M105.3,198.2h7.4v2.4h-11.3v-1.8l7.3-10.5h-7.3v-2.5h11.1v1.7L105.3,198.2z"/>
		<path class="st8" d="M123.5,197.6h-5.3l-1,3h-3.2l5.5-14.8h2.8l5.5,14.8h-3.2L123.5,197.6z M119,195.1h3.7l-1.9-5.5L119,195.1z"/>
		<path class="st8" d="M129.4,200.6v-14.8h4.5c1.3,0,2.5,0.3,3.5,0.9c1,0.6,1.8,1.4,2.4,2.5c0.6,1.1,0.9,2.3,0.9,3.7v0.7
			c0,1.4-0.3,2.6-0.8,3.7c-0.6,1.1-1.4,1.9-2.4,2.5c-1,0.6-2.2,0.9-3.5,0.9L129.4,200.6L129.4,200.6z M132.4,188.3v9.9h1.5
			c1.2,0,2.1-0.4,2.7-1.2c0.6-0.8,0.9-1.9,1-3.3v-0.8c0-1.5-0.3-2.6-0.9-3.4c-0.6-0.8-1.5-1.2-2.7-1.2L132.4,188.3L132.4,188.3z"/>
		<path class="st8" d="M155.3,193.6c0,1.5-0.3,2.7-0.8,3.8c-0.5,1.1-1.2,1.9-2.2,2.5c-1,0.6-2.1,0.9-3.3,0.9c-1.2,0-2.3-0.3-3.3-0.9
			c-1-0.6-1.7-1.4-2.2-2.5c-0.5-1.1-0.8-2.3-0.8-3.8v-0.7c0-1.5,0.3-2.7,0.8-3.8c0.5-1.1,1.3-2,2.2-2.5c1-0.6,2.1-0.9,3.3-0.9
			c1.2,0,2.3,0.3,3.3,0.9c1,0.6,1.7,1.4,2.2,2.5c0.5,1.1,0.8,2.4,0.8,3.8L155.3,193.6L155.3,193.6z M152.3,192.9
			c0-1.6-0.3-2.7-0.8-3.5s-1.3-1.2-2.4-1.2s-1.8,0.4-2.4,1.2c-0.6,0.8-0.8,2-0.8,3.5v0.7c0,1.5,0.3,2.7,0.8,3.5
			c0.6,0.8,1.3,1.2,2.4,1.2c1,0,1.8-0.4,2.4-1.2s0.8-2,0.8-3.5V192.9z"/>
		<path class="st8" d="M162.7,195c0-1.7,0.4-3.1,1.1-4.1c0.8-1,1.8-1.5,3.2-1.5c1.1,0,2,0.4,2.6,1.2V185h2.9v15.6h-2.6l-0.1-1.2
			c-0.7,0.9-1.7,1.4-2.8,1.4c-1.3,0-2.3-0.5-3.1-1.5C163,198.3,162.7,196.9,162.7,195z M165.6,195.3c0,1,0.2,1.8,0.5,2.4
			s0.9,0.8,1.6,0.8c0.9,0,1.5-0.4,1.9-1.1V193c-0.4-0.8-1-1.1-1.9-1.1C166.3,191.8,165.6,193,165.6,195.3z"/>
		<path class="st8" d="M179.7,200.8c-1.6,0-2.9-0.5-3.9-1.5c-1-1-1.5-2.3-1.5-3.9v-0.3c0-1.1,0.2-2.1,0.6-3c0.4-0.9,1-1.5,1.8-2
			c0.8-0.5,1.7-0.7,2.7-0.7c1.5,0,2.7,0.5,3.5,1.4c0.9,0.9,1.3,2.3,1.3,4v1.2h-7c0.1,0.7,0.4,1.3,0.9,1.7c0.5,0.4,1.1,0.7,1.8,0.7
			c1.1,0,2-0.4,2.6-1.2l1.4,1.6c-0.4,0.6-1,1.1-1.8,1.5C181.4,200.7,180.6,200.8,179.7,200.8z M179.3,191.8c-0.6,0-1.1,0.2-1.4,0.6
			c-0.4,0.4-0.6,1-0.7,1.7h4.1v-0.2c0-0.7-0.2-1.2-0.5-1.5C180.4,192,180,191.8,179.3,191.8z"/>
		<path class="st8" d="M188.7,200.6h-2.9V185h2.9V200.6z"/>
		<path class="st8" d="M197.2,200.6v-14.8h4.5c1.3,0,2.5,0.3,3.5,0.9c1,0.6,1.8,1.4,2.4,2.5c0.6,1.1,0.9,2.3,0.9,3.7v0.7
			c0,1.4-0.3,2.6-0.8,3.7c-0.6,1.1-1.4,1.9-2.4,2.5c-1,0.6-2.2,0.9-3.5,0.9L197.2,200.6L197.2,200.6z M200.2,188.3v9.9h1.5
			c1.2,0,2.1-0.4,2.7-1.2c0.6-0.8,0.9-1.9,1-3.3v-0.8c0-1.5-0.3-2.6-0.9-3.4c-0.6-0.8-1.5-1.2-2.7-1.2L200.2,188.3L200.2,188.3z"/>
		<path class="st8" d="M213.8,200.6h-3v-14.8h3V200.6z"/>
		<path class="st8" d="M224.1,196.7c0-0.6-0.2-1-0.6-1.3c-0.4-0.3-1.1-0.6-2.2-1c-1.1-0.3-1.9-0.7-2.5-1c-1.7-0.9-2.5-2.1-2.5-3.7
			c0-0.8,0.2-1.5,0.7-2.1s1.1-1.1,1.9-1.5c0.8-0.4,1.8-0.5,2.8-0.5c1.1,0,2,0.2,2.8,0.6c0.8,0.4,1.5,0.9,1.9,1.6
			c0.5,0.7,0.7,1.5,0.7,2.4h-3c0-0.7-0.2-1.2-0.6-1.6s-1-0.6-1.8-0.6c-0.7,0-1.3,0.2-1.7,0.5c-0.4,0.3-0.6,0.7-0.6,1.2
			c0,0.5,0.2,0.9,0.7,1.2c0.5,0.3,1.2,0.6,2.1,0.9c1.7,0.5,3,1.2,3.8,1.9c0.8,0.8,1.2,1.7,1.2,2.9c0,1.3-0.5,2.3-1.4,3
			c-1,0.7-2.3,1.1-3.9,1.1c-1.1,0-2.2-0.2-3.1-0.6c-0.9-0.4-1.6-1-2.1-1.7c-0.5-0.7-0.7-1.6-0.7-2.5h3c0,1.6,1,2.4,2.9,2.4
			c0.7,0,1.3-0.2,1.7-0.4C223.9,197.7,224.1,197.3,224.1,196.7z"/>
		<path class="st8" d="M240.1,188.3h-4.5v12.3h-3v-12.3h-4.5v-2.5h12V188.3z"/>
		<path class="st8" d="M247.2,195.2h-2.4v5.4h-3v-14.8h5.5c1.7,0,3.1,0.4,4,1.2c0.9,0.8,1.4,1.9,1.4,3.3c0,1-0.2,1.9-0.7,2.5
			c-0.4,0.7-1.1,1.2-2,1.6l3.2,6v0.1h-3.3L247.2,195.2z M244.7,192.7h2.5c0.8,0,1.4-0.2,1.8-0.6c0.4-0.4,0.6-0.9,0.6-1.6
			c0-0.7-0.2-1.2-0.6-1.6c-0.4-0.4-1-0.6-1.8-0.6h-2.4V192.7z"/>
		<path class="st8" d="M258,200.6h-3v-14.8h3V200.6z"/>
		<path class="st8" d="M271.5,188.3H267v12.3h-3v-12.3h-4.5v-2.5h12L271.5,188.3L271.5,188.3z"/>
		<path class="st8" d="M284.9,193.6c0,1.5-0.3,2.7-0.8,3.8s-1.2,1.9-2.2,2.5c-1,0.6-2.1,0.9-3.3,0.9c-1.2,0-2.3-0.3-3.3-0.9
			c-1-0.6-1.7-1.4-2.2-2.5s-0.8-2.3-0.8-3.8v-0.7c0-1.5,0.3-2.7,0.8-3.8c0.5-1.1,1.3-2,2.2-2.5c1-0.6,2.1-0.9,3.3-0.9
			c1.2,0,2.3,0.3,3.3,0.9c1,0.6,1.7,1.4,2.2,2.5c0.5,1.1,0.8,2.4,0.8,3.8L284.9,193.6L284.9,193.6z M281.8,192.9
			c0-1.6-0.3-2.7-0.8-3.5c-0.6-0.8-1.3-1.2-2.4-1.2c-1,0-1.8,0.4-2.4,1.2c-0.6,0.8-0.8,2-0.8,3.5v0.7c0,1.5,0.3,2.7,0.8,3.5
			c0.6,0.8,1.3,1.2,2.4,1.2c1,0,1.8-0.4,2.4-1.2s0.8-2,0.8-3.5V192.9z"/>
	</g>
	<g>
		<path class="st8" d="M11.7,219.1c0-1.7,0.4-3.1,1.1-4.1c0.8-1,1.8-1.5,3.2-1.5c1.1,0,2,0.4,2.6,1.2v-5.6h2.9v15.6H19l-0.1-1.2
			c-0.7,0.9-1.7,1.4-2.8,1.4c-1.3,0-2.3-0.5-3.1-1.5C12.1,222.3,11.7,220.9,11.7,219.1z M14.7,219.3c0,1,0.2,1.8,0.5,2.4
			c0.4,0.6,0.9,0.8,1.6,0.8c0.9,0,1.5-0.4,1.9-1.1V217c-0.4-0.8-1-1.1-1.9-1.1C15.4,215.9,14.7,217,14.7,219.3z"/>
		<path class="st8" d="M29.4,224.9c-1.6,0-2.9-0.5-3.9-1.5c-1-1-1.5-2.3-1.5-3.9v-0.3c0-1.1,0.2-2.1,0.6-3s1-1.5,1.8-2
			c0.8-0.5,1.7-0.7,2.7-0.7c1.5,0,2.7,0.5,3.5,1.4c0.9,0.9,1.3,2.3,1.3,4v1.2h-7c0.1,0.7,0.4,1.3,0.9,1.7c0.5,0.4,1.1,0.7,1.8,0.7
			c1.1,0,2-0.4,2.6-1.2l1.4,1.6c-0.4,0.6-1,1.1-1.8,1.5S30.3,224.9,29.4,224.9z M29,215.8c-0.6,0-1.1,0.2-1.4,0.6
			c-0.4,0.4-0.6,1-0.7,1.7H31v-0.2c0-0.7-0.2-1.2-0.5-1.5C30.2,216,29.7,215.8,29,215.8z"/>
		<path class="st8" d="M47.3,219.3h-2.4v5.4h-3v-14.8h5.5c1.7,0,3.1,0.4,4,1.2c0.9,0.8,1.4,1.9,1.4,3.3c0,1-0.2,1.9-0.7,2.5
			c-0.4,0.7-1.1,1.2-2,1.6l3.2,6v0.1H50L47.3,219.3z M44.8,216.8h2.5c0.8,0,1.4-0.2,1.8-0.6c0.4-0.4,0.6-0.9,0.6-1.6
			c0-0.7-0.2-1.2-0.6-1.6c-0.4-0.4-1-0.6-1.8-0.6h-2.4V216.8z"/>
		<path class="st8" d="M58.7,224.7h-3v-14.8h3V224.7z"/>
		<path class="st8" d="M70.9,218.3H65v4h6.9v2.4H62v-14.8h9.9v2.5H65v3.5h5.8L70.9,218.3L70.9,218.3z"/>
		<path class="st8" d="M85.8,222.8c-0.5,0.7-1.3,1.2-2.3,1.5c-1,0.4-2.1,0.5-3.3,0.5c-1.3,0-2.4-0.3-3.4-0.8s-1.7-1.4-2.2-2.4
			c-0.5-1.1-0.8-2.3-0.8-3.7v-1c0-1.5,0.3-2.7,0.7-3.8c0.5-1.1,1.2-1.9,2.2-2.5c0.9-0.6,2-0.9,3.3-0.9c1.8,0,3.1,0.4,4.1,1.3
			c1,0.8,1.6,2.1,1.8,3.6h-3c-0.1-0.8-0.4-1.5-0.9-1.9c-0.5-0.4-1.1-0.6-1.9-0.6c-1,0-1.8,0.4-2.4,1.2c-0.5,0.8-0.8,1.9-0.8,3.5v0.9
			c0,1.6,0.3,2.7,0.9,3.5c0.6,0.8,1.4,1.2,2.6,1.2s2-0.2,2.4-0.7v-2.5H80v-2.2h5.8L85.8,222.8L85.8,222.8z"/>
		<path class="st8" d="M100.8,217.6c0,1.5-0.3,2.7-0.8,3.8c-0.5,1.1-1.2,1.9-2.2,2.5s-2.1,0.9-3.3,0.9c-1.2,0-2.3-0.3-3.3-0.9
			c-1-0.6-1.7-1.4-2.2-2.5c-0.5-1.1-0.8-2.3-0.8-3.8V217c0-1.5,0.3-2.7,0.8-3.8s1.3-2,2.2-2.5c1-0.6,2.1-0.9,3.3-0.9
			s2.3,0.3,3.3,0.9c1,0.6,1.7,1.4,2.2,2.5c0.5,1.1,0.8,2.4,0.8,3.8L100.8,217.6L100.8,217.6z M97.8,216.9c0-1.6-0.3-2.7-0.8-3.5
			c-0.6-0.8-1.3-1.2-2.4-1.2c-1,0-1.8,0.4-2.4,1.2s-0.8,2-0.8,3.5v0.7c0,1.5,0.3,2.7,0.8,3.5s1.3,1.2,2.4,1.2c1,0,1.8-0.4,2.4-1.2
			c0.5-0.8,0.8-2,0.8-3.5V216.9z"/>
	</g>
	<g>
		<path class="st8" d="M112.3,209.9l3.8,10.7l3.8-10.7h4v14.8h-3v-4l0.3-7l-4,11h-2.1l-4-11l0.3,7v4h-3v-14.8H112.3z"/>
		<path class="st8" d="M138.6,217.6c0,1.5-0.3,2.7-0.8,3.8c-0.5,1.1-1.2,1.9-2.2,2.5c-1,0.6-2.1,0.9-3.3,0.9c-1.2,0-2.3-0.3-3.3-0.9
			c-1-0.6-1.7-1.4-2.2-2.5c-0.5-1.1-0.8-2.3-0.8-3.8V217c0-1.5,0.3-2.7,0.8-3.8s1.3-2,2.2-2.5c1-0.6,2.1-0.9,3.3-0.9
			c1.2,0,2.3,0.3,3.3,0.9c1,0.6,1.7,1.4,2.2,2.5c0.5,1.1,0.8,2.4,0.8,3.8L138.6,217.6L138.6,217.6z M135.5,216.9
			c0-1.6-0.3-2.7-0.8-3.5c-0.6-0.8-1.3-1.2-2.4-1.2c-1,0-1.8,0.4-2.4,1.2s-0.8,2-0.8,3.5v0.7c0,1.5,0.3,2.7,0.8,3.5s1.3,1.2,2.4,1.2
			c1,0,1.8-0.4,2.4-1.2c0.5-0.8,0.8-2,0.8-3.5V216.9z"/>
		<path class="st8" d="M152.3,219.7c-0.1,1.6-0.7,2.8-1.8,3.8c-1.1,0.9-2.5,1.4-4.2,1.4c-1.9,0-3.4-0.6-4.5-1.9
			c-1.1-1.3-1.6-3-1.6-5.3v-0.9c0-1.4,0.3-2.7,0.8-3.8c0.5-1.1,1.2-1.9,2.1-2.5c0.9-0.6,2-0.9,3.2-0.9c1.7,0,3.1,0.5,4.1,1.4
			c1,0.9,1.6,2.2,1.8,3.8h-3c-0.1-1-0.3-1.6-0.8-2.1c-0.5-0.4-1.1-0.6-2.1-0.6c-1,0-1.8,0.4-2.3,1.1c-0.5,0.7-0.8,1.9-0.8,3.4v1.1
			c0,1.6,0.2,2.8,0.7,3.5c0.5,0.7,1.2,1.1,2.3,1.1c0.9,0,1.6-0.2,2.1-0.6c0.5-0.4,0.7-1.1,0.8-2L152.3,219.7L152.3,219.7z"/>
		<path class="st8" d="M166.2,224.7h-3v-6.3h-5.9v6.3h-3v-14.8h3v6h5.9v-6h3L166.2,224.7L166.2,224.7z"/>
		<path class="st8" d="M177.6,218.3h-5.8v4h6.9v2.4h-9.9v-14.8h9.9v2.5h-6.8v3.5h5.8L177.6,218.3L177.6,218.3z"/>
		<path class="st8" d="M190.8,221l3.4-11.1h3.4l-5.1,14.8h-3.2l-5.1-14.8h3.4L190.8,221z"/>
		<path class="st8" d="M202,224.7h-3v-14.8h3V224.7z"/>
		<path class="st8" d="M210.2,219.3h-2.4v5.4h-3v-14.8h5.5c1.7,0,3.1,0.4,4,1.2c0.9,0.8,1.4,1.9,1.4,3.3c0,1-0.2,1.9-0.7,2.5
			c-0.4,0.7-1.1,1.2-2,1.6l3.2,6v0.1h-3.3L210.2,219.3z M207.7,216.8h2.5c0.8,0,1.4-0.2,1.8-0.6c0.4-0.4,0.6-0.9,0.6-1.6
			c0-0.7-0.2-1.2-0.6-1.6c-0.4-0.4-1-0.6-1.8-0.6h-2.4V216.8z"/>
		<path class="st8" d="M229,209.9v9.7c0,1.6-0.5,2.9-1.5,3.8c-1,0.9-2.4,1.4-4.1,1.4c-1.7,0-3.1-0.5-4.1-1.4c-1-0.9-1.5-2.2-1.6-3.8
			v-9.8h3v9.8c0,1,0.2,1.7,0.7,2.1c0.5,0.4,1.1,0.7,1.9,0.7c1.7,0,2.6-0.9,2.6-2.7v-9.8H229z"/>
	</g>
	<g>
		<path class="st8" d="M250.4,219.9c-0.1,1.6-0.7,2.8-1.8,3.8s-2.5,1.4-4.2,1.4c-1.9,0-3.4-0.6-4.5-1.9c-1.1-1.3-1.6-3-1.6-5.3V217
			c0-1.4,0.3-2.7,0.8-3.8c0.5-1.1,1.2-1.9,2.1-2.5c0.9-0.6,2-0.9,3.2-0.9c1.7,0,3.1,0.5,4.1,1.4c1,0.9,1.6,2.2,1.8,3.8h-3
			c-0.1-1-0.3-1.6-0.8-2.1c-0.5-0.4-1.1-0.6-2.1-0.6c-1,0-1.8,0.4-2.3,1.1c-0.5,0.7-0.8,1.9-0.8,3.4v1.1c0,1.6,0.2,2.8,0.7,3.5
			c0.5,0.7,1.2,1.1,2.3,1.1c0.9,0,1.6-0.2,2.1-0.6c0.5-0.4,0.7-1.1,0.8-2L250.4,219.9L250.4,219.9z"/>
		<path class="st8" d="M264.3,224.9h-3v-6.3h-5.9v6.3h-3v-14.8h3v6h5.9v-6h3L264.3,224.9L264.3,224.9z"/>
		<path class="st8" d="M275.3,221.8H270l-1,3h-3.2l5.5-14.8h2.8l5.5,14.8h-3.2L275.3,221.8z M270.8,219.4h3.7l-1.9-5.5L270.8,219.4z
			"/>
		<path class="st8" d="M292.8,217.8c0,1.5-0.3,2.7-0.8,3.8c-0.5,1.1-1.2,1.9-2.2,2.5c-1,0.6-2.1,0.9-3.3,0.9c-1.2,0-2.3-0.3-3.3-0.9
			c-1-0.6-1.7-1.4-2.2-2.5s-0.8-2.3-0.8-3.8v-0.7c0-1.5,0.3-2.7,0.8-3.8c0.5-1.1,1.3-2,2.2-2.5c1-0.6,2.1-0.9,3.3-0.9
			s2.3,0.3,3.3,0.9c1,0.6,1.7,1.4,2.2,2.5c0.5,1.1,0.8,2.4,0.8,3.8L292.8,217.8L292.8,217.8z M289.7,217.1c0-1.6-0.3-2.7-0.8-3.5
			c-0.6-0.8-1.3-1.2-2.4-1.2c-1,0-1.8,0.4-2.4,1.2c-0.6,0.8-0.8,2-0.8,3.5v0.7c0,1.5,0.3,2.7,0.8,3.5c0.6,0.8,1.3,1.2,2.4,1.2
			c1,0,1.8-0.4,2.4-1.2s0.8-2,0.8-3.5V217.1z"/>
	</g>
</g>
</svg>
