<?xml version="1.0" encoding="utf-8"?>
<!-- Generator: Adobe Illustrator 16.0.3, SVG Export Plug-In . SVG Version: 6.00 Build 0)  -->
<!DOCTYPE svg PUBLIC "-//W3C//DTD SVG 1.1//EN" "http://www.w3.org/Graphics/SVG/1.1/DTD/svg11.dtd">
<svg version="1.1" id="Capa_1" xmlns="http://www.w3.org/2000/svg" xmlns:xlink="http://www.w3.org/1999/xlink" x="0px" y="0px"
	 width="500px" height="500px" viewBox="0 0 500 500" enable-background="new 0 0 500 500" xml:space="preserve">
<g>
	<g>
		<path fill="#527426" d="M256.325,239.612c0,0,50.436-29.582,115.903-16.004c0,0-21.338,43.159-78.074,60.619
			C294.154,284.228,282.999,259.979,256.325,239.612z"/>
		<path fill="#527426" d="M235.196,239.612c0,0-50.435-29.582-115.902-16.004c0,0,21.336,43.159,78.076,60.619
			C197.37,284.228,208.522,259.979,235.196,239.612z"/>
		<path fill="#ED7F1D" d="M108.707,174.546c0,0,2.861-97.313,138.913-103.163c0,0,118.455,0.158,135.191,103.163l-95.706,32.189
			l68.238-57.51l-78.969,52.359l45.924-72.102l-57.082,64.807l20.602-79.83l-34.336,77.254l-5.723-83.691l-6.295,83.691
			l-34.334-77.254l21.03,80.258l-57.511-67.381l45.494,72.532l-74.677-50.216l65.234,57.082L108.707,174.546z"/>
		<path fill="#344B8F" d="M290.108,219.182l92.702-43.563c0,0,2.576,25.75-4.933,37.34
			C377.878,212.958,355.558,203.875,290.108,219.182z"/>
		<path fill="#344B8F" d="M201.835,219.182l-92.703-43.563c0,0-2.575,25.75,4.934,37.34
			C114.066,212.958,136.385,203.875,201.835,219.182z"/>
	</g>
	<g>
		<g>
			<path fill="#344B8F" d="M185.641,365.403v10.376c-0.02,4.722,0.79,8.241,2.425,10.534c1.626,2.305,4.105,3.458,7.447,3.458
				c3.053,0,5.349-0.913,6.868-2.752c1.523-1.838,2.279-4.602,2.279-8.275l0,0v-13.341c0-2.523-0.106-4.646-0.307-6.36
				c-0.211-1.728-0.574-3.5-1.111-5.336h4.461h4.477c-0.52,1.802-0.871,3.563-1.081,5.283c-0.203,1.716-0.31,3.854-0.31,6.413
				v16.983c0,2.539,0.107,4.665,0.31,6.38c0.211,1.728,0.579,3.491,1.108,5.312h-3.448h-3.484l0,0v-4.433l0,0l0,0l-1.052,0.883
				c-3.572,2.795-7.382,4.195-11.415,4.195c-4.344,0-7.654-1.489-9.911-4.469c-2.261-2.984-3.386-7.346-3.386-13.078v-11.773
				c0-2.523-0.106-4.646-0.308-6.368c-0.209-1.718-0.569-3.489-1.109-5.328h4.458h4.476c-0.517,1.802-0.871,3.563-1.079,5.273
				C185.745,360.691,185.641,362.823,185.641,365.403L185.641,365.403z M221.027,382.388v-16.984c0-2.523-0.107-4.645-0.31-6.368
				c-0.211-1.718-0.572-3.488-1.109-5.327h4.488l0,0h5.021c4.813,0,8.418,0.989,10.807,2.97c2.402,1.99,3.599,4.962,3.599,8.936
				c0,4.276-1.399,7.397-4.205,9.374c-2.629,1.84-6.681,2.816-12.16,2.938l0,0v4.462c0,2.539,0.104,4.665,0.304,6.38
				c0.213,1.728,0.582,3.491,1.108,5.312h-4.455h-4.475c0.519-1.785,0.866-3.533,1.079-5.256
				C220.92,387.104,221.027,384.959,221.027,382.388L221.027,382.388z M227.158,374.855L227.158,374.855
				c3.313-0.037,5.76-0.729,7.329-2.072c1.578-1.348,2.361-3.513,2.361-6.481c0-2.901-0.729-5.076-2.183-6.517
				c-1.451-1.447-3.623-2.166-6.532-2.166h-0.976l0,0V374.855L227.158,374.855z M245.959,382.388
				c-1.543,3.261-2.826,5.748-3.859,7.465c-1.035,1.721-2.099,3.129-3.198,4.226h5.073h5.039c-0.237-0.922-0.081-2.538,0.468-4.844
				c0.554-2.303,1.335-4.641,2.372-7.036l0.188-0.589l0,0h14.946l0,0l1.322,3.112c0.856,2.018,1.493,3.87,1.9,5.586
				c0.401,1.706,0.499,2.964,0.287,3.771h5.019h4.999c-0.978-0.977-1.971-2.329-2.978-4.045c-1.022-1.715-2.324-4.266-3.925-7.646
				l-13.834-29.48h-0.006L245.959,382.388L245.959,382.388z M259.516,364.262h0.016l5.267,12.196l0,0h-10.544l0,0L259.516,364.262
				L259.516,364.262z M300.703,394.697c-5.707,0-10.443-2.007-14.217-6.015c-3.784-4.01-5.672-9.049-5.672-15.109
				c0-5.876,2.012-10.756,6.039-14.641c4.024-3.896,9.079-5.839,15.134-5.839c5.727,0,10.475,2.003,14.246,6.022
				c3.787,4.017,5.674,9.067,5.674,15.124c0,5.86-2.012,10.73-6.043,14.618C311.837,392.752,306.779,394.697,300.703,394.697
				L300.703,394.697z M301.987,389.798c3.801,0,6.959-1.391,9.474-4.158c2.516-2.771,3.773-6.248,3.773-10.422
				c0-4.94-1.382-9.049-4.132-12.322c-2.763-3.271-6.229-4.905-10.399-4.905c-3.781,0-6.928,1.388-9.442,4.16
				c-2.516,2.768-3.774,6.252-3.774,10.438c0,4.931,1.379,9.032,4.134,12.3C294.381,388.161,297.845,389.798,301.987,389.798z"/>
		</g>
	</g>
	<g>
		<path fill="#262626" d="M186.529,416.064c0.204-0.028,0.408-0.047,0.616-0.052c0.207-0.008,0.413-0.012,0.617-0.012
			c0.839,0,1.571,0.085,2.196,0.258c0.622,0.173,1.149,0.404,1.58,0.687c0.429,0.286,0.769,0.608,1.012,0.974
			c0.243,0.36,0.404,0.73,0.486,1.103c0.143,0.606,0.115,1.171-0.083,1.705c-0.199,0.529-0.509,1.018-0.928,1.462
			c-0.421,0.445-0.93,0.841-1.527,1.193c-0.6,0.352-1.232,0.648-1.899,0.892c-0.669,0.245-1.35,0.431-2.039,0.567
			c-0.688,0.133-1.33,0.2-1.928,0.2c-0.345-0.009-0.696-0.047-1.05-0.118c-0.203,0.662-0.352,1.286-0.448,1.865
			c-0.095,0.579-0.125,1.092-0.083,1.534c0.009,0.185-0.063,0.281-0.214,0.293c-0.152,0.01-0.327-0.042-0.524-0.146
			c-0.197-0.11-0.388-0.266-0.571-0.466c-0.183-0.202-0.297-0.425-0.349-0.673c-0.083-0.407-0.091-0.873-0.03-1.403
			c0.059-0.527,0.171-1.091,0.334-1.689c-0.577-0.344-0.959-0.751-1.141-1.215l0.016,0.022c-0.153-0.28,0.081-0.53,0.699-0.75
			c0.223,0.378,0.462,0.696,0.714,0.949c0.173-0.514,0.364-1.031,0.578-1.547c0.21-0.517,0.438-1.022,0.677-1.515
			c0.237-0.495,0.479-0.964,0.729-1.409c0.249-0.447,0.494-0.859,0.737-1.23c-0.498,0.23-0.969,0.521-1.422,0.872
			c-0.451,0.349-0.866,0.724-1.245,1.122c-0.379,0.401-0.718,0.818-1.012,1.251c-0.292,0.434-0.534,0.852-0.721,1.26
			c-0.188,0.402-0.313,0.779-0.38,1.134c-0.065,0.353-0.058,0.651,0.023,0.898c0.04,0.123-0.034,0.185-0.222,0.169
			c-0.188-0.017-0.41-0.077-0.667-0.188c-0.258-0.108-0.504-0.256-0.738-0.448c-0.233-0.191-0.374-0.393-0.424-0.613
			c-0.022-0.062-0.036-0.128-0.04-0.193c-0.006-0.068,0.003-0.134,0.022-0.195v0.013c0.102-0.806,0.382-1.591,0.842-2.358
			c0.462-0.77,1.07-1.453,1.824-2.063c0.757-0.61,1.641-1.108,2.659-1.497c1.019-0.385,2.137-0.597,3.35-0.638h-0.027V416.064z
			 M186.833,416.982c-0.231,0.015-0.463,0.043-0.69,0.084c-0.228,0.043-0.453,0.098-0.676,0.169
			c0.162,0.056,0.338,0.131,0.524,0.223c0.189,0.092,0.36,0.195,0.517,0.312c0.158,0.115,0.284,0.237,0.381,0.364
			c0.097,0.128,0.127,0.256,0.098,0.381c-0.324,0.389-0.639,0.804-0.942,1.251c-0.305,0.447-0.588,0.91-0.852,1.393
			c-0.263,0.481-0.508,0.972-0.735,1.471c-0.229,0.495-0.429,0.989-0.601,1.479c0.081,0.018,0.164,0.023,0.252,0.023
			c0.083,0,0.174,0,0.263,0c0.529,0,1.067-0.063,1.613-0.191c0.546-0.126,1.073-0.303,1.581-0.527
			c0.505-0.225,0.979-0.497,1.421-0.813c0.442-0.315,0.817-0.666,1.125-1.044c0.308-0.383,0.536-0.787,0.684-1.221
			c0.147-0.432,0.186-0.878,0.113-1.336c-0.051-0.196-0.149-0.411-0.295-0.648c-0.146-0.236-0.375-0.455-0.684-0.657
			c-0.309-0.201-0.711-0.369-1.207-0.506C188.221,417.053,187.595,416.982,186.833,416.982z"/>
		<path fill="#262626" d="M198.261,424.936c-0.171,0.236-0.371,0.484-0.599,0.732c-0.228,0.254-0.49,0.479-0.784,0.682
			c-0.292,0.208-0.614,0.371-0.963,0.495c-0.35,0.126-0.733,0.186-1.147,0.168c-0.244-0.006-0.464-0.044-0.656-0.115
			c-0.19-0.07-0.359-0.162-0.5-0.278c-0.142-0.115-0.259-0.249-0.35-0.399c-0.091-0.143-0.152-0.298-0.183-0.46
			c-0.04-0.232-0.04-0.453,0-0.655c0.041-0.206,0.104-0.399,0.189-0.58c0.085-0.184,0.19-0.364,0.311-0.54
			c0.122-0.176,0.254-0.355,0.394-0.539l0.229-0.294v0.011l0.273-0.358c0.051-0.078,0.128-0.148,0.228-0.214
			c0.103-0.065,0.284-0.12,0.547-0.177c-0.13,0.021-0.238,0.033-0.319,0.047c-0.082,0.011-0.151,0.021-0.212,0.033
			c-0.122,0.022-0.244,0.046-0.367,0.067c-0.12,0.021-0.272,0.024-0.455,0.021h-0.138c-0.172,0.238-0.324,0.473-0.457,0.703
			c-0.131,0.228-0.257,0.441-0.379,0.648l-0.014-0.013c-0.021,0.043-0.087,0.052-0.199,0.033c-0.111-0.021-0.224-0.059-0.341-0.112
			c-0.118-0.052-0.215-0.113-0.296-0.181c-0.083-0.063-0.108-0.124-0.076-0.174v0.014l0.729-1.225
			c-0.142-0.121-0.225-0.266-0.257-0.435c-0.051-0.218-0.029-0.412,0.061-0.579c0.089-0.17,0.203-0.365,0.333-0.595
			c0.053-0.09,0.102-0.192,0.152-0.306c0.053-0.111,0.097-0.249,0.14-0.41c0.16,0.055,0.326,0.113,0.5,0.173
			c0.17,0.063,0.331,0.132,0.477,0.211c0.148,0.082,0.273,0.178,0.373,0.28c0.101,0.106,0.166,0.227,0.197,0.361
			c0.02,0.062,0.028,0.13,0.023,0.204c-0.006,0.073-0.023,0.16-0.054,0.258l-0.409,0.475c-0.029,0.043-0.003,0.051,0.083,0.017
			c0.086-0.032,0.208-0.086,0.366-0.162c0.156-0.077,0.332-0.17,0.525-0.275c0.191-0.104,0.375-0.211,0.555-0.316
			c0.177-0.104,0.335-0.204,0.479-0.295c0.141-0.093,0.231-0.163,0.272-0.214c0.061,0,0.144,0.021,0.251,0.065
			c0.106,0.041,0.218,0.089,0.335,0.143c0.114,0.053,0.215,0.104,0.303,0.146c0.085,0.048,0.141,0.077,0.159,0.092
			c0.132,0.119,0.199,0.26,0.199,0.424c0,0.168-0.049,0.35-0.145,0.546s-0.229,0.407-0.396,0.631
			c-0.166,0.22-0.341,0.448-0.525,0.68c-0.112,0.126-0.217,0.25-0.317,0.379c-0.102,0.129-0.204,0.258-0.306,0.392
			c-0.082,0.101-0.167,0.211-0.258,0.339c-0.091,0.125-0.175,0.254-0.251,0.385c-0.076,0.129-0.138,0.258-0.184,0.384
			c-0.044,0.13-0.058,0.233-0.037,0.321c0,0.04,0.061,0.062,0.182,0.062c0.112,0.008,0.243-0.021,0.396-0.082
			c0.152-0.058,0.31-0.142,0.47-0.252c0.163-0.109,0.322-0.238,0.48-0.385c0.156-0.148,0.291-0.311,0.402-0.486h-0.016
			c0.154-0.227,0.291-0.445,0.418-0.666c0.126-0.215,0.23-0.401,0.311-0.558c0.03-0.037,0.104-0.043,0.221-0.018
			c0.118,0.024,0.233,0.063,0.348,0.121c0.119,0.055,0.218,0.12,0.297,0.194c0.082,0.073,0.108,0.135,0.077,0.187v-0.023l-0.29,0.53
			l-0.394,0.706L198.261,424.936z"/>
		<path fill="#262626" d="M201.941,420.667c0.434,0.059,0.796,0.195,1.084,0.413c0.29,0.219,0.512,0.464,0.664,0.738
			c0.274,0.19,0.49,0.469,0.653,0.837c0.019,0.054,0.039,0.11,0.053,0.169c0.016,0.054,0.034,0.12,0.053,0.198
			c0.07,0.304,0.085,0.612,0.046,0.924c-0.043,0.313-0.128,0.617-0.258,0.907c-0.133,0.292-0.302,0.572-0.51,0.838
			c-0.208,0.263-0.448,0.493-0.721,0.688c-0.275,0.188-0.574,0.347-0.898,0.458c-0.325,0.112-0.669,0.167-1.034,0.167
			c-0.659-0.007-1.271-0.159-1.838-0.459c-0.567-0.299-1.004-0.754-1.308-1.366c-0.081-0.163-0.143-0.338-0.183-0.528
			c-0.071-0.303-0.077-0.614-0.014-0.936c0.061-0.319,0.175-0.635,0.341-0.934c0.167-0.305,0.382-0.586,0.646-0.855
			c0.262-0.268,0.563-0.497,0.896-0.693c0.335-0.192,0.697-0.343,1.088-0.444C201.092,420.688,201.503,420.646,201.941,420.667z
			 M202.184,423.455c-0.093-0.02-0.167-0.07-0.228-0.146c-0.06-0.077-0.113-0.166-0.16-0.26c-0.043-0.094-0.081-0.194-0.105-0.302
			c-0.024-0.105-0.043-0.196-0.054-0.272c-0.01-0.094,0.013-0.181,0.07-0.271c0.053-0.089,0.12-0.163,0.197-0.232
			c0.076-0.067,0.156-0.121,0.243-0.175c0.085-0.047,0.153-0.084,0.206-0.103c-0.042-0.017-0.119-0.021-0.228-0.021
			c-0.214,0.016-0.441,0.076-0.685,0.183c-0.243,0.11-0.461,0.248-0.653,0.407c-0.184,0.178-0.341,0.371-0.479,0.587
			c-0.138,0.214-0.243,0.437-0.321,0.669c-0.076,0.234-0.124,0.465-0.143,0.692c-0.021,0.23-0.006,0.443,0.044,0.64
			c0.051,0.266,0.17,0.49,0.357,0.669c0.189,0.181,0.456,0.277,0.799,0.291c0.365,0.017,0.7-0.083,1.004-0.295
			c0.304-0.213,0.559-0.473,0.761-0.794c0.2-0.316,0.343-0.657,0.424-1.022c0.081-0.363,0.085-0.698,0.016-0.991v-0.052
			c-0.081,0-0.16,0.02-0.243,0.067c-0.082,0.043-0.156,0.102-0.229,0.163c-0.07,0.063-0.126,0.131-0.167,0.201
			c-0.039,0.07-0.061,0.132-0.061,0.191L202.184,423.455z"/>
		<path fill="#262626" d="M211.576,424.564c-0.071,0.207-0.121,0.409-0.146,0.613c-0.024,0.202-0.022,0.381,0.008,0.526
			c0.02,0.07,0.016,0.109-0.014,0.118h0.151c0.261-0.07,0.501-0.188,0.715-0.352c0.211-0.162,0.405-0.343,0.577-0.553
			c0.171-0.205,0.324-0.43,0.463-0.663c0.137-0.239,0.264-0.466,0.388-0.682c0.081-0.107,0.137-0.202,0.167-0.286
			c0.031-0.037,0.104-0.043,0.222-0.027c0.116,0.021,0.235,0.052,0.355,0.101c0.123,0.051,0.228,0.107,0.322,0.176
			c0.09,0.064,0.119,0.122,0.089,0.174l-0.244,0.423v0.01c-0.231,0.418-0.491,0.827-0.773,1.229c-0.286,0.407-0.64,0.77-1.064,1.094
			c-0.071,0.057-0.159,0.117-0.259,0.187c-0.101,0.065-0.223,0.129-0.364,0.188c-0.143,0.06-0.3,0.111-0.471,0.149
			c-0.174,0.04-0.365,0.053-0.577,0.046c-0.497-0.028-0.892-0.143-1.186-0.354c-0.292-0.209-0.495-0.468-0.607-0.787
			c-0.305,0.297-0.64,0.55-1.012,0.763c-0.371,0.21-0.764,0.319-1.178,0.326c-0.395-0.029-0.736-0.104-1.026-0.225
			c-0.29-0.124-0.53-0.273-0.722-0.441c-0.191-0.166-0.341-0.352-0.448-0.543c-0.107-0.195-0.179-0.373-0.222-0.542
			c-0.03-0.156-0.044-0.283-0.044-0.381c-0.02-0.261,0.015-0.547,0.105-0.854c0.091-0.311,0.223-0.621,0.395-0.934
			c0.173-0.307,0.39-0.604,0.655-0.896c0.262-0.291,0.554-0.545,0.88-0.77c0.324-0.227,0.68-0.404,1.07-0.54
			c0.392-0.132,0.807-0.2,1.252-0.2c0.134,0,0.264,0.008,0.396,0.021c0.132,0.016,0.274,0.033,0.428,0.063
			c0.293,0.068,0.551,0.187,0.772,0.35l0.078-0.138l0.289-0.611c0.132-0.261,0.25-0.531,0.355-0.813
			c0.107-0.282,0.202-0.559,0.283-0.831c0.081-0.27,0.15-0.532,0.205-0.78c0.056-0.251,0.093-0.479,0.115-0.682
			c0.12-0.057,0.304-0.055,0.555,0.006c0.248,0.06,0.493,0.152,0.737,0.271c0.243,0.128,0.449,0.27,0.615,0.44
			c0.168,0.17,0.236,0.331,0.205,0.487c-0.019,0.084-0.066,0.227-0.136,0.422c-0.072,0.197-0.159,0.419-0.258,0.666
			c-0.102,0.243-0.214,0.504-0.333,0.775c-0.123,0.271-0.239,0.526-0.351,0.768l-0.258,0.579v-0.013
			c-0.203,0.444-0.406,0.905-0.608,1.385c-0.203,0.478-0.375,0.994-0.518,1.541L211.576,424.564L211.576,424.564z M207.76,425.664
			c0.132-0.029,0.286-0.107,0.457-0.238c0.172-0.129,0.342-0.281,0.509-0.46c0.165-0.175,0.329-0.363,0.486-0.566
			c0.156-0.199,0.285-0.38,0.386-0.542l0.093-0.371c0.069-0.231,0.146-0.465,0.226-0.701c0.083-0.234,0.173-0.47,0.274-0.702
			c-0.051-0.105-0.13-0.196-0.241-0.273c-0.112-0.08-0.256-0.121-0.426-0.136c-0.377-0.008-0.716,0.084-1.027,0.276
			c-0.308,0.194-0.574,0.441-0.798,0.735c-0.224,0.296-0.405,0.613-0.547,0.951c-0.142,0.336-0.233,0.643-0.273,0.921
			c-0.02,0.077-0.027,0.169-0.022,0.288c0.005,0.118,0.022,0.23,0.053,0.342c0.03,0.16,0.105,0.295,0.228,0.405
			C207.259,425.694,207.469,425.721,207.76,425.664z"/>
		<path fill="#262626" d="M218.55,420.742c0.132-0.049,0.319-0.039,0.555,0.021c0.239,0.065,0.473,0.163,0.701,0.295
			c0.228,0.136,0.42,0.287,0.577,0.456c0.157,0.169,0.222,0.335,0.189,0.496c-0.019,0.057-0.053,0.145-0.098,0.266
			c-0.045,0.119-0.093,0.249-0.143,0.397v-0.018c-0.085,0.231-0.176,0.496-0.282,0.79c-0.106,0.297-0.202,0.59-0.29,0.876
			c-0.084,0.289-0.152,0.559-0.198,0.808c-0.046,0.25-0.051,0.45-0.021,0.606c0,0.058-0.006,0.085-0.015,0.085h0.152
			c0.26-0.069,0.497-0.186,0.706-0.35c0.208-0.163,0.396-0.348,0.568-0.558c0.173-0.211,0.331-0.434,0.472-0.671
			c0.142-0.236,0.273-0.464,0.396-0.683l0.164-0.305c0.061-0.092,0.155-0.141,0.285-0.146c0.123-0.008,0.249,0.016,0.371,0.066
			c0.12,0.053,0.216,0.13,0.288,0.229c0.073,0.096,0.078,0.209,0.017,0.335l-0.243,0.401c-0.234,0.402-0.494,0.809-0.776,1.227
			c-0.283,0.413-0.628,0.783-1.034,1.098c-0.071,0.057-0.161,0.116-0.271,0.187c-0.113,0.063-0.24,0.125-0.382,0.185
			c-0.141,0.054-0.3,0.102-0.47,0.139c-0.172,0.038-0.359,0.061-0.563,0.061c-0.457-0.015-0.818-0.146-1.085-0.389
			c-0.269-0.248-0.444-0.553-0.527-0.911l-0.014-0.009c-0.111,0.139-0.227,0.272-0.349,0.396c-0.122,0.119-0.256,0.238-0.396,0.343
			c-0.073,0.057-0.162,0.116-0.273,0.187c-0.112,0.064-0.24,0.125-0.379,0.185c-0.144,0.054-0.3,0.102-0.472,0.139
			c-0.173,0.038-0.359,0.061-0.565,0.061c-0.445-0.015-0.799-0.146-1.062-0.389c-0.262-0.248-0.436-0.549-0.518-0.901
			c-0.019-0.077-0.035-0.16-0.048-0.251c-0.008-0.092-0.015-0.176-0.015-0.254c0.02-0.32,0.081-0.705,0.175-1.158
			c0.097-0.452,0.201-0.904,0.312-1.346c0.08-0.36,0.159-0.703,0.237-1.031c0.076-0.325,0.121-0.601,0.144-0.818l0.122-0.146
			c0.12-0.051,0.301-0.042,0.54,0.021c0.236,0.066,0.469,0.163,0.7,0.294c0.224,0.135,0.423,0.286,0.584,0.455
			c0.162,0.169,0.227,0.339,0.198,0.496c-0.02,0.064-0.052,0.16-0.092,0.289c-0.039,0.124-0.097,0.267-0.169,0.43v-0.011
			c-0.087,0.231-0.185,0.493-0.287,0.774c-0.103,0.287-0.192,0.57-0.273,0.853c-0.081,0.282-0.144,0.547-0.183,0.799
			c-0.042,0.247-0.045,0.449-0.015,0.595c0,0.057-0.006,0.085-0.015,0.085h0.135c0.263-0.071,0.498-0.187,0.708-0.345
			c0.207-0.155,0.394-0.335,0.563-0.537c0.165-0.2,0.316-0.413,0.455-0.643c0.136-0.23,0.266-0.453,0.387-0.672h-0.014
			c0.018-0.033,0.042-0.073,0.067-0.11c0.024-0.035,0.048-0.077,0.069-0.111l0.153-0.602c0.102-0.372,0.19-0.729,0.266-1.065
			c0.074-0.339,0.123-0.62,0.145-0.846L218.55,420.742z"/>
		<path fill="#262626" d="M229.037,424.068c-0.182,0.318-0.409,0.669-0.683,1.052c-0.273,0.382-0.623,0.751-1.051,1.112
			c-0.25,0.196-0.515,0.351-0.788,0.46c-0.273,0.112-0.537,0.188-0.791,0.242c-0.255,0.054-0.484,0.086-0.69,0.095
			c-0.208,0.013-0.373,0.017-0.495,0.017c-0.791,0-1.436-0.157-1.938-0.473c-0.5-0.32-0.829-0.753-0.979-1.302
			c-0.133-0.478-0.129-0.943,0.009-1.404c0.135-0.456,0.398-0.952,0.782-1.49c0.13-0.175,0.319-0.365,0.561-0.563
			c0.245-0.199,0.525-0.386,0.845-0.555c0.319-0.171,0.665-0.307,1.041-0.413c0.375-0.104,0.765-0.155,1.172-0.146
			c0.425,0.008,0.781,0.104,1.07,0.286c0.289,0.189,0.468,0.435,0.539,0.735c0.031,0.142,0.037,0.281,0.018,0.419
			c-0.022,0.135-0.078,0.277-0.169,0.427c-0.08,0.091-0.181,0.147-0.297,0.162c-0.115,0.018-0.23,0.007-0.342-0.036
			c-0.109-0.041-0.203-0.11-0.28-0.201c-0.074-0.09-0.108-0.196-0.099-0.314c0.069-0.112,0.086-0.226,0.045-0.339
			c-0.01-0.037-0.029-0.062-0.06-0.077c-0.031-0.019-0.082-0.02-0.151-0.007c-0.387,0.057-0.726,0.192-1.019,0.41
			c-0.296,0.221-0.549,0.468-0.762,0.75s-0.379,0.574-0.499,0.88c-0.124,0.308-0.193,0.577-0.214,0.811c0,0.055,0,0.118,0,0.189
			s0.012,0.149,0.03,0.23c0.021,0.107,0.054,0.213,0.107,0.314c0.05,0.1,0.114,0.195,0.188,0.283
			c0.076,0.088,0.164,0.167,0.267,0.233c0.1,0.066,0.224,0.109,0.365,0.132l-0.032-0.008c0.214,0.034,0.445,0.021,0.692-0.035
			c0.248-0.055,0.504-0.155,0.77-0.301c0.263-0.146,0.521-0.332,0.773-0.567c0.254-0.228,0.491-0.505,0.713-0.821
			c0.111-0.169,0.218-0.344,0.313-0.523c0.097-0.178,0.184-0.35,0.266-0.509c0.07-0.094,0.175-0.145,0.311-0.15
			c0.137-0.008,0.268,0.015,0.389,0.064c0.12,0.05,0.214,0.12,0.282,0.214c0.063,0.097,0.061,0.207-0.01,0.33L229.037,424.068z"/>
		<path fill="#262626" d="M235.313,424.068c-0.182,0.318-0.409,0.669-0.683,1.052c-0.271,0.38-0.622,0.751-1.049,1.112
			c-0.253,0.196-0.515,0.351-0.789,0.46c-0.272,0.112-0.536,0.188-0.792,0.242c-0.253,0.054-0.483,0.086-0.69,0.095
			c-0.207,0.013-0.372,0.017-0.495,0.017c-0.79,0-1.435-0.157-1.936-0.473c-0.503-0.32-0.83-0.753-0.982-1.302
			c-0.129-0.478-0.127-0.943,0.011-1.404c0.136-0.456,0.395-0.952,0.78-1.49c0.131-0.175,0.32-0.365,0.563-0.563
			c0.244-0.199,0.524-0.386,0.843-0.555c0.319-0.171,0.665-0.307,1.042-0.413c0.374-0.104,0.765-0.155,1.17-0.146
			c0.426,0.008,0.783,0.104,1.072,0.286c0.289,0.189,0.469,0.435,0.539,0.735c0.032,0.142,0.034,0.281,0.015,0.419
			c-0.019,0.135-0.075,0.277-0.166,0.427c-0.081,0.091-0.18,0.147-0.297,0.162c-0.115,0.018-0.229,0.007-0.342-0.036
			c-0.109-0.041-0.204-0.11-0.281-0.201c-0.076-0.09-0.109-0.196-0.099-0.314c0.07-0.112,0.084-0.226,0.046-0.339
			c-0.012-0.037-0.03-0.062-0.06-0.077c-0.033-0.019-0.083-0.02-0.152-0.007c-0.386,0.057-0.725,0.192-1.018,0.41
			c-0.296,0.221-0.55,0.468-0.762,0.75c-0.213,0.282-0.379,0.574-0.502,0.88c-0.119,0.308-0.192,0.577-0.213,0.811
			c0,0.055,0,0.118,0,0.189s0.013,0.149,0.03,0.23c0.021,0.107,0.057,0.213,0.106,0.314c0.052,0.1,0.115,0.195,0.189,0.283
			c0.077,0.088,0.167,0.167,0.265,0.233c0.104,0.066,0.225,0.109,0.367,0.132l-0.031-0.008c0.214,0.034,0.444,0.021,0.69-0.035
			c0.252-0.055,0.506-0.155,0.768-0.301c0.265-0.146,0.522-0.332,0.776-0.567c0.254-0.228,0.491-0.505,0.714-0.821
			c0.113-0.169,0.217-0.344,0.312-0.523c0.095-0.178,0.185-0.35,0.267-0.509c0.071-0.094,0.174-0.145,0.311-0.15
			c0.139-0.008,0.267,0.015,0.387,0.064c0.123,0.05,0.216,0.12,0.285,0.214c0.063,0.097,0.061,0.207-0.01,0.33L235.313,424.068z"/>
		<path fill="#262626" d="M235.496,420.742c0.132-0.049,0.313-0.039,0.54,0.026c0.229,0.068,0.451,0.166,0.669,0.296
			c0.218,0.129,0.395,0.283,0.53,0.455c0.137,0.172,0.183,0.337,0.131,0.497c0.009-0.011,0.005,0-0.017,0.046
			c-0.021,0.042-0.048,0.098-0.083,0.171c-0.036,0.067-0.077,0.148-0.121,0.239c-0.046,0.092-0.089,0.178-0.129,0.256
			c-0.094,0.183-0.194,0.386-0.312,0.608c-0.117,0.22-0.229,0.445-0.334,0.671c-0.106,0.23-0.209,0.457-0.313,0.672
			c-0.103,0.219-0.182,0.412-0.237,0.581c-0.054,0.172-0.089,0.306-0.105,0.406c-0.015,0.102,0.008,0.153,0.069,0.153h0.105
			c0.293-0.069,0.56-0.186,0.799-0.345c0.236-0.155,0.456-0.336,0.654-0.541c0.195-0.206,0.376-0.422,0.537-0.651
			c0.163-0.226,0.319-0.449,0.472-0.66l0.167-0.252c0.029-0.042,0.104-0.05,0.223-0.027c0.116,0.023,0.229,0.067,0.343,0.129
			c0.108,0.055,0.203,0.124,0.278,0.201c0.076,0.07,0.093,0.135,0.056,0.183l0.015-0.022c-0.295,0.462-0.647,0.923-1.058,1.396
			c-0.41,0.471-0.849,0.886-1.313,1.248c-0.083,0.045-0.179,0.104-0.29,0.173c-0.112,0.064-0.241,0.125-0.388,0.185
			c-0.146,0.057-0.305,0.103-0.477,0.139c-0.175,0.038-0.358,0.061-0.551,0.061c-0.405-0.006-0.723-0.117-0.956-0.323
			c-0.232-0.205-0.385-0.465-0.457-0.774c-0.021-0.111-0.032-0.229-0.038-0.345c-0.005-0.122,0.004-0.247,0.023-0.371v0.011
			c0.052-0.354,0.157-0.763,0.319-1.227c0.16-0.466,0.334-0.93,0.518-1.395c0.11-0.316,0.223-0.625,0.334-0.922
			c0.111-0.302,0.196-0.57,0.257-0.82L235.496,420.742z M236.285,417.513c0.081-0.009,0.188,0.013,0.313,0.058
			c0.127,0.044,0.264,0.107,0.41,0.188c0.147,0.083,0.293,0.173,0.441,0.274c0.146,0.103,0.276,0.201,0.396,0.296
			c0.116,0.097,0.212,0.185,0.286,0.266c0.078,0.081,0.122,0.142,0.13,0.186c-0.008,0.203-0.048,0.383-0.114,0.536
			c-0.064,0.155-0.135,0.313-0.204,0.475c-0.072,0.163-0.141,0.329-0.207,0.497c-0.065,0.17-0.113,0.366-0.142,0.594
			c-0.133-0.023-0.287-0.073-0.464-0.154c-0.181-0.082-0.346-0.176-0.501-0.279c-0.156-0.106-0.293-0.217-0.41-0.328
			c-0.116-0.113-0.188-0.205-0.207-0.282c-0.021-0.144-0.022-0.298-0.016-0.468c0.011-0.169,0.026-0.345,0.046-0.527
			c0.03-0.186,0.052-0.371,0.062-0.561c0.009-0.188,0.004-0.374-0.016-0.549L236.285,417.513z"/>
		<path fill="#262626" d="M242.486,420.667c0.437,0.059,0.8,0.195,1.087,0.413c0.289,0.219,0.509,0.464,0.661,0.738
			c0.272,0.19,0.493,0.469,0.655,0.837c0.019,0.054,0.038,0.11,0.053,0.169c0.015,0.054,0.031,0.12,0.053,0.198
			c0.069,0.304,0.087,0.612,0.045,0.924c-0.039,0.313-0.127,0.617-0.26,0.907c-0.131,0.292-0.301,0.572-0.507,0.838
			c-0.207,0.263-0.449,0.493-0.723,0.688c-0.274,0.188-0.574,0.347-0.897,0.458c-0.324,0.112-0.67,0.167-1.035,0.167
			c-0.657-0.007-1.271-0.159-1.837-0.459c-0.567-0.299-1.004-0.754-1.308-1.366c-0.081-0.163-0.14-0.338-0.182-0.528
			c-0.071-0.303-0.077-0.614-0.016-0.936c0.061-0.319,0.174-0.635,0.343-0.934c0.166-0.305,0.38-0.586,0.645-0.855
			c0.263-0.268,0.563-0.497,0.897-0.693c0.332-0.192,0.696-0.343,1.086-0.444C241.637,420.688,242.052,420.646,242.486,420.667z
			 M242.73,423.455c-0.09-0.02-0.168-0.07-0.227-0.146c-0.062-0.077-0.114-0.166-0.16-0.26c-0.048-0.094-0.081-0.194-0.108-0.302
			c-0.022-0.105-0.042-0.196-0.052-0.272c-0.01-0.094,0.015-0.181,0.067-0.271c0.057-0.089,0.124-0.163,0.199-0.232
			c0.075-0.067,0.155-0.121,0.243-0.175c0.085-0.047,0.155-0.084,0.205-0.103c-0.04-0.017-0.119-0.021-0.228-0.021
			c-0.213,0.016-0.44,0.076-0.686,0.183c-0.241,0.11-0.461,0.248-0.65,0.407c-0.184,0.178-0.345,0.371-0.48,0.587
			c-0.136,0.214-0.244,0.437-0.317,0.669c-0.078,0.234-0.126,0.465-0.147,0.692c-0.02,0.23-0.004,0.443,0.047,0.64
			c0.053,0.266,0.171,0.49,0.359,0.669c0.186,0.181,0.451,0.277,0.798,0.291c0.364,0.017,0.696-0.083,1.003-0.295
			c0.304-0.213,0.558-0.473,0.759-0.794c0.201-0.316,0.345-0.657,0.426-1.022c0.081-0.363,0.086-0.698,0.016-0.991v-0.052
			c-0.08,0-0.164,0.02-0.243,0.067c-0.082,0.043-0.156,0.102-0.229,0.163c-0.07,0.063-0.126,0.131-0.167,0.201
			c-0.04,0.07-0.06,0.132-0.06,0.191L242.73,423.455z M243.11,418.029c0.03-0.027,0.083-0.02,0.151,0.025
			c0.072,0.046,0.153,0.109,0.244,0.191c0.09,0.082,0.184,0.174,0.275,0.283c0.09,0.11,0.173,0.216,0.241,0.313
			c0.07,0.098,0.125,0.186,0.162,0.271c0.033,0.08,0.037,0.131,0.005,0.162c-0.323,0.222-0.619,0.399-0.888,0.528
			c-0.27,0.127-0.535,0.25-0.798,0.371l-0.519,0.242c-0.09,0.046-0.188,0.065-0.295,0.057c-0.106-0.014-0.202-0.039-0.28-0.089
			c-0.085-0.05-0.142-0.116-0.177-0.197c-0.035-0.077-0.027-0.17,0.023-0.269L243.11,418.029z"/>
		<path fill="#262626" d="M253.869,424.715c-0.111,0.182-0.261,0.4-0.454,0.665c-0.192,0.259-0.418,0.512-0.676,0.759
			c-0.257,0.248-0.543,0.457-0.85,0.629c-0.312,0.171-0.636,0.26-0.98,0.26c-0.215,0-0.431-0.024-0.648-0.082
			c-0.219-0.052-0.416-0.135-0.591-0.247c-0.178-0.113-0.33-0.26-0.458-0.44c-0.126-0.179-0.209-0.393-0.251-0.64
			c-0.03-0.208-0.037-0.417-0.022-0.621c0.016-0.202,0.048-0.419,0.091-0.642c0.047-0.225,0.108-0.472,0.191-0.735
			c0.08-0.264,0.177-0.563,0.288-0.892c0.051-0.144,0.085-0.274,0.105-0.396c0.02-0.124,0.02-0.225,0-0.3l-0.519,0.434
			c-0.313,0.243-0.59,0.49-0.835,0.732c-0.241,0.24-0.485,0.512-0.729,0.808c-0.142,0.437-0.244,0.884-0.304,1.34
			c-0.063,0.458-0.065,0.919-0.016,1.387c0,0.077-0.089,0.112-0.266,0.104c-0.178-0.009-0.375-0.04-0.593-0.101
			c-0.22-0.06-0.424-0.134-0.615-0.227c-0.192-0.092-0.306-0.185-0.334-0.275c-0.052-0.317-0.07-0.624-0.06-0.922
			c0.008-0.303,0.036-0.596,0.082-0.889c0.047-0.292,0.102-0.58,0.173-0.865c0.074-0.287,0.148-0.569,0.229-0.862
			c0.082-0.337,0.162-0.667,0.243-0.988c0.08-0.32,0.146-0.628,0.198-0.924c0.103-0.041,0.248-0.042,0.439-0.003
			c0.193,0.035,0.392,0.1,0.594,0.183c0.201,0.087,0.396,0.19,0.576,0.313c0.183,0.122,0.32,0.25,0.412,0.385
			c0.313-0.254,0.653-0.468,1.027-0.644c0.367-0.177,0.764-0.275,1.191-0.295c0.141,0,0.305,0.045,0.484,0.132
			c0.185,0.087,0.353,0.195,0.512,0.321c0.153,0.129,0.286,0.265,0.384,0.412c0.105,0.149,0.146,0.279,0.124,0.393
			c-0.101,0.36-0.204,0.695-0.304,1.009c-0.101,0.313-0.191,0.584-0.274,0.806c-0.07,0.199-0.133,0.381-0.189,0.543
			c-0.055,0.165-0.1,0.33-0.136,0.492c-0.037,0.162-0.061,0.327-0.068,0.498c-0.011,0.17,0,0.35,0.029,0.546
			c0-0.018,0.023-0.041,0.075-0.063h-0.014c0.253-0.105,0.541-0.284,0.868-0.538c0.321-0.255,0.626-0.598,0.908-1.035
			c0.082-0.112,0.155-0.22,0.22-0.327c0.067-0.104,0.132-0.208,0.19-0.315l0.154-0.309c0.031-0.033,0.1-0.04,0.211-0.026
			c0.113,0.022,0.229,0.053,0.35,0.101c0.124,0.053,0.225,0.11,0.313,0.177c0.085,0.065,0.113,0.124,0.085,0.172v-0.021
			l-0.564,1.016V424.715z"/>
		<path fill="#262626" d="M269.51,419.931c-0.111,0.062-0.233,0.107-0.362,0.135c-0.134,0.027-0.268,0.044-0.4,0.044
			c-0.23,0-0.449-0.046-0.652-0.132c-0.2-0.088-0.381-0.188-0.531-0.307s-0.271-0.23-0.356-0.343
			c-0.089-0.113-0.122-0.192-0.101-0.244c0.194-0.077,0.403-0.19,0.631-0.337c0.23-0.148,0.433-0.31,0.618-0.484
			c0.181-0.178,0.325-0.356,0.431-0.54c0.109-0.184,0.148-0.349,0.115-0.497c-0.021-0.076-0.083-0.148-0.188-0.211
			c-0.105-0.06-0.275-0.105-0.509-0.124c-0.081-0.017-0.163-0.023-0.252-0.023c-0.087,0-0.167,0-0.251,0
			c-0.354,0-0.736,0.027-1.146,0.08c-0.411,0.052-0.82,0.13-1.223,0.233c-0.407,0.103-0.792,0.228-1.15,0.373
			c-0.36,0.15-0.664,0.324-0.912,0.524s-0.423,0.422-0.53,0.667c-0.107,0.242-0.105,0.507,0.006,0.796
			c0.063,0.191,0.168,0.377,0.322,0.567c0.151,0.186,0.33,0.366,0.539,0.548c0.209,0.18,0.431,0.352,0.676,0.525
			c0.242,0.171,0.485,0.348,0.73,0.523c0.304,0.219,0.606,0.439,0.909,0.66c0.306,0.224,0.578,0.455,0.822,0.697
			c0.242,0.244,0.447,0.494,0.604,0.754c0.163,0.263,0.265,0.541,0.308,0.837c0.029,0.423-0.098,0.855-0.388,1.3
			c-0.292,0.441-0.695,0.845-1.216,1.204c-0.524,0.357-1.146,0.647-1.864,0.864c-0.718,0.219-1.494,0.318-2.325,0.296
			c-0.454-0.028-0.96-0.104-1.511-0.229c-0.553-0.12-1.08-0.289-1.581-0.504c-0.501-0.217-0.944-0.481-1.328-0.793
			c-0.388-0.313-0.635-0.676-0.747-1.095c-0.12-0.456-0.085-0.892,0.107-1.303c0.19-0.411,0.611-0.818,1.261-1.22l-0.048,0.011
			c0.061-0.049,0.223-0.039,0.48,0.029c0.258,0.072,0.533,0.167,0.819,0.281c0.289,0.116,0.548,0.236,0.769,0.36
			c0.223,0.125,0.33,0.218,0.321,0.281l-0.351,0.167c-0.191,0.087-0.383,0.175-0.57,0.265c-0.185,0.091-0.351,0.193-0.491,0.313
			c-0.146,0.114-0.25,0.244-0.322,0.389c-0.072,0.147-0.084,0.307-0.045,0.493c0.071,0.28,0.213,0.512,0.426,0.685
			c0.215,0.176,0.467,0.313,0.76,0.411c0.294,0.101,0.608,0.167,0.948,0.204c0.343,0.033,0.679,0.051,1.012,0.051
			c0.579,0,1.096-0.057,1.549-0.175c0.459-0.114,0.837-0.281,1.144-0.491c0.303-0.21,0.519-0.467,0.642-0.771
			c0.128-0.303,0.148-0.642,0.052-1.023c-0.049-0.189-0.146-0.375-0.285-0.558c-0.142-0.186-0.315-0.363-0.509-0.535
			c-0.196-0.173-0.419-0.344-0.663-0.506c-0.243-0.165-0.491-0.327-0.743-0.491c-0.303-0.197-0.601-0.396-0.882-0.598
			c-0.282-0.197-0.536-0.408-0.771-0.631c-0.227-0.215-0.413-0.44-0.565-0.675c-0.151-0.231-0.244-0.479-0.258-0.747
			c-0.033-0.39,0.048-0.762,0.242-1.12c0.191-0.36,0.467-0.693,0.828-1.01c0.357-0.311,0.781-0.597,1.27-0.851
			c0.486-0.252,1.013-0.467,1.582-0.641c0.565-0.176,1.154-0.31,1.769-0.397c0.613-0.088,1.219-0.121,1.816-0.099
			c0.375,0.022,0.699,0.074,0.973,0.163c0.271,0.085,0.502,0.2,0.691,0.337c0.187,0.137,0.333,0.297,0.441,0.48
			c0.106,0.185,0.185,0.377,0.236,0.58c0.045,0.22,0.061,0.449,0.037,0.685c-0.028,0.24-0.076,0.477-0.151,0.705
			c-0.079,0.23-0.174,0.442-0.291,0.641c-0.115,0.195-0.239,0.365-0.373,0.506L269.51,419.931z"/>
		<path fill="#262626" d="M272.943,420.667c0.435,0.059,0.798,0.195,1.089,0.413c0.288,0.219,0.508,0.464,0.66,0.738
			c0.273,0.19,0.49,0.469,0.65,0.837c0.022,0.054,0.04,0.11,0.056,0.169c0.015,0.054,0.03,0.12,0.054,0.198
			c0.071,0.304,0.082,0.612,0.045,0.924c-0.038,0.313-0.126,0.617-0.256,0.907c-0.134,0.292-0.304,0.572-0.51,0.838
			c-0.211,0.263-0.447,0.493-0.724,0.688c-0.273,0.188-0.57,0.347-0.895,0.458c-0.324,0.112-0.673,0.167-1.037,0.167
			c-0.656-0.007-1.27-0.159-1.836-0.459c-0.566-0.299-1.007-0.754-1.306-1.366c-0.083-0.163-0.146-0.338-0.188-0.528
			c-0.066-0.303-0.073-0.614-0.016-0.936c0.063-0.319,0.175-0.635,0.343-0.934c0.17-0.305,0.382-0.586,0.647-0.855
			c0.261-0.268,0.563-0.497,0.897-0.693c0.334-0.192,0.697-0.343,1.085-0.444C272.096,420.688,272.507,420.646,272.943,420.667z
			 M273.187,423.455c-0.093-0.02-0.167-0.07-0.229-0.146c-0.063-0.077-0.111-0.166-0.159-0.26c-0.045-0.094-0.079-0.194-0.106-0.302
			c-0.025-0.105-0.044-0.196-0.052-0.272c-0.013-0.094,0.013-0.181,0.07-0.271c0.054-0.089,0.118-0.163,0.196-0.232
			c0.075-0.067,0.155-0.121,0.242-0.175c0.085-0.047,0.155-0.084,0.207-0.103c-0.043-0.017-0.118-0.021-0.229-0.021
			c-0.215,0.016-0.439,0.076-0.684,0.183c-0.246,0.11-0.465,0.248-0.655,0.407c-0.182,0.178-0.339,0.371-0.479,0.587
			c-0.136,0.214-0.242,0.437-0.317,0.669c-0.078,0.234-0.125,0.465-0.146,0.692c-0.021,0.23-0.006,0.443,0.046,0.64
			c0.051,0.266,0.165,0.49,0.356,0.669c0.188,0.181,0.459,0.277,0.797,0.291c0.364,0.017,0.704-0.083,1.003-0.295
			c0.308-0.213,0.559-0.473,0.764-0.794c0.204-0.316,0.344-0.657,0.429-1.022c0.079-0.363,0.082-0.698,0.012-0.991v-0.052
			c-0.081,0-0.16,0.02-0.242,0.067c-0.082,0.043-0.158,0.102-0.228,0.163c-0.072,0.063-0.128,0.131-0.167,0.201
			c-0.043,0.07-0.061,0.132-0.061,0.191L273.187,423.455z"/>
		<path fill="#262626" d="M275.102,425.44c-0.063-0.295-0.034-0.583,0.084-0.863c0.116-0.281,0.306-0.509,0.568-0.676l0.244-0.382
			c0.19-0.337,0.391-0.671,0.595-1.004c0.202-0.329,0.424-0.649,0.665-0.96l0.247-0.34c0.13-0.188,0.281-0.392,0.456-0.61
			c0.171-0.221,0.439-0.474,0.82-0.762c0.17,0.058,0.381,0.135,0.629,0.241c0.245,0.102,0.47,0.214,0.671,0.337
			c0.196,0.12,0.333,0.251,0.415,0.386c0.081,0.132,0.041,0.251-0.122,0.358l0.034-0.012c-0.143,0.12-0.243,0.211-0.298,0.274
			c-0.053,0.063-0.115,0.145-0.176,0.245l-0.136,0.211c-0.144,0.244-0.222,0.507-0.234,0.779c-0.018,0.275,0.011,0.547,0.067,0.815
			c0.03,0.144,0.07,0.296,0.122,0.447c0.052,0.154,0.102,0.305,0.151,0.46l0.184,0.632c0.092,0.318,0.098,0.609,0.031,0.873
			c-0.071,0.262-0.209,0.491-0.409,0.67c-0.207,0.182-0.464,0.322-0.783,0.415c-0.32,0.101-0.678,0.136-1.074,0.123
			c-0.412-0.019-0.778-0.084-1.104-0.182c-0.318-0.097-0.592-0.22-0.821-0.367c-0.225-0.147-0.405-0.318-0.546-0.51
			C275.246,425.854,275.153,425.652,275.102,425.44z M277.592,423.486c-0.019-0.056-0.03-0.11-0.035-0.175
			c-0.007-0.059-0.015-0.116-0.022-0.172l-0.352,0.593l-0.015,0.01c0.051,0.056,0.118,0.152,0.197,0.289
			c0.082,0.139,0.155,0.281,0.222,0.434s0.108,0.293,0.12,0.434c0.016,0.139-0.012,0.239-0.084,0.302
			c-0.113-0.116-0.242-0.178-0.396-0.197c-0.149-0.017-0.291-0.003-0.416,0.048c-0.127,0.049-0.236,0.12-0.318,0.206
			c-0.088,0.086-0.121,0.18-0.101,0.271c0.01,0.035,0.033,0.08,0.07,0.13c0.036,0.055,0.073,0.107,0.112,0.154
			c0.113,0.112,0.255,0.197,0.424,0.249c0.174,0.054,0.331,0.086,0.473,0.098c0.162,0.018,0.294-0.002,0.394-0.05
			c0.102-0.052,0.18-0.115,0.237-0.201c0.058-0.085,0.088-0.185,0.097-0.295c0.013-0.114,0-0.231-0.026-0.361
			c-0.033-0.125-0.072-0.255-0.122-0.39c-0.052-0.137-0.103-0.271-0.154-0.412c-0.053-0.148-0.104-0.303-0.157-0.465
			C277.68,423.822,277.635,423.658,277.592,423.486z"/>
		<path fill="#262626" d="M280.907,421.207c-0.172,0.044-0.326,0.044-0.46,0c-0.13-0.041-0.227-0.104-0.293-0.187
			c-0.065-0.08-0.092-0.17-0.077-0.27c0.02-0.097,0.095-0.186,0.236-0.261c0.637-0.354,1.306-0.65,2.006-0.9
			c0.174-0.457,0.31-0.876,0.41-1.262c0.1-0.392,0.172-0.752,0.216-1.093c0.129-0.055,0.32-0.053,0.566,0.005
			c0.251,0.062,0.49,0.154,0.723,0.279c0.23,0.129,0.435,0.275,0.611,0.439c0.168,0.168,0.247,0.327,0.223,0.482
			c-0.019,0.054-0.042,0.131-0.065,0.219c-0.026,0.092-0.061,0.198-0.116,0.319c0.615-0.086,1.265-0.126,1.93-0.126
			c0.102,0,0.237,0,0.404,0.005c0.166,0.006,0.303,0.011,0.402,0.017c0.07,0.106,0.11,0.221,0.11,0.344
			c0.008,0.122-0.016,0.238-0.065,0.349c-0.047,0.109-0.124,0.199-0.212,0.277c-0.093,0.08-0.196,0.116-0.32,0.116
			c-0.11-0.005-0.223-0.009-0.334-0.015c-0.111-0.002-0.224-0.007-0.334-0.007c-0.354,0-0.702,0.017-1.032,0.045
			c-0.336,0.029-0.677,0.071-1.018,0.126l-0.41,0.963l-0.063,0.135c-0.059,0.133-0.14,0.318-0.239,0.55
			c-0.106,0.231-0.213,0.489-0.327,0.774c-0.118,0.287-0.234,0.585-0.352,0.898c-0.115,0.313-0.222,0.616-0.304,0.908
			c-0.087,0.293-0.148,0.562-0.19,0.81c-0.039,0.245-0.039,0.444,0,0.588v0.088h0.105c0.264-0.071,0.504-0.187,0.709-0.347
			c0.207-0.154,0.395-0.334,0.561-0.535c0.168-0.202,0.322-0.416,0.456-0.646c0.139-0.228,0.27-0.45,0.388-0.669h-0.016
			c0.033-0.063,0.069-0.122,0.115-0.187c0.045-0.057,0.085-0.115,0.115-0.175c0.018-0.038,0.084-0.052,0.2-0.029
			c0.109,0.021,0.224,0.053,0.345,0.105c0.124,0.048,0.226,0.107,0.312,0.175c0.087,0.067,0.118,0.125,0.101,0.174l-0.275,0.475
			c-0.23,0.401-0.494,0.809-0.782,1.22c-0.284,0.414-0.625,0.771-1.009,1.081c-0.072,0.058-0.164,0.119-0.276,0.188
			c-0.111,0.064-0.236,0.126-0.378,0.184c-0.143,0.057-0.301,0.103-0.47,0.14c-0.173,0.038-0.361,0.06-0.563,0.06
			c-0.458-0.015-0.812-0.143-1.074-0.389c-0.256-0.247-0.427-0.551-0.506-0.909c-0.023-0.076-0.033-0.163-0.041-0.246
			c-0.004-0.09-0.006-0.17-0.006-0.241c-0.011-0.725,0.105-1.438,0.349-2.141c0.244-0.705,0.514-1.39,0.805-2.059l0.109-0.213
			c-0.146,0.058-0.284,0.117-0.43,0.175c-0.141,0.059-0.28,0.121-0.425,0.185L280.907,421.207z"/>
		<path fill="#262626" d="M290.436,422.624c-0.312,0.631-0.784,1.159-1.406,1.579c-0.625,0.425-1.361,0.742-2.213,0.942
			c0.063,0.191,0.168,0.371,0.314,0.541c0.146,0.167,0.34,0.27,0.584,0.307l-0.031-0.011c0.213,0.034,0.445,0.021,0.695-0.033
			c0.245-0.058,0.502-0.158,0.767-0.302c0.263-0.146,0.52-0.331,0.771-0.565c0.254-0.23,0.495-0.505,0.715-0.823
			c0.116-0.167,0.215-0.341,0.313-0.523c0.097-0.177,0.188-0.351,0.267-0.509c0.07-0.093,0.174-0.143,0.313-0.15
			c0.137-0.007,0.264,0.015,0.379,0.067c0.118,0.055,0.205,0.127,0.272,0.223c0.066,0.096,0.069,0.203,0.009,0.321l-0.196,0.381
			c-0.185,0.318-0.412,0.669-0.685,1.052c-0.272,0.382-0.621,0.751-1.052,1.112c-0.251,0.196-0.513,0.351-0.788,0.46
			c-0.275,0.112-0.537,0.188-0.791,0.242c-0.252,0.054-0.482,0.086-0.691,0.095c-0.206,0.013-0.37,0.017-0.494,0.017
			c-0.79,0-1.436-0.157-1.936-0.473c-0.501-0.32-0.831-0.753-0.979-1.302c-0.137-0.478-0.131-0.943,0.009-1.404
			c0.133-0.456,0.396-0.952,0.778-1.49c0.13-0.175,0.319-0.365,0.563-0.563c0.243-0.199,0.523-0.386,0.843-0.555
			c0.321-0.171,0.666-0.307,1.043-0.413c0.372-0.104,0.766-0.155,1.167-0.146c0.428,0.008,0.791,0.104,1.088,0.286
			c0.299,0.189,0.487,0.441,0.555,0.756c0.032,0.144,0.032,0.284,0.009,0.43c-0.024,0.143-0.088,0.297-0.188,0.461v-0.01H290.436z
			 M289.248,421.757c-0.327,0.05-0.637,0.159-0.91,0.34c-0.271,0.174-0.515,0.38-0.721,0.621c-0.206,0.238-0.379,0.495-0.506,0.765
			c-0.136,0.271-0.23,0.524-0.29,0.769c0.614-0.206,1.153-0.48,1.609-0.832c0.456-0.349,0.789-0.764,1.002-1.251v0.013
			c0.03-0.06,0.046-0.113,0.055-0.171c0.007-0.055,0-0.104-0.009-0.146C289.444,421.763,289.371,421.728,289.248,421.757z"/>
		<path fill="#262626" d="M299.388,424.715c-0.115,0.182-0.265,0.4-0.458,0.665c-0.189,0.259-0.418,0.512-0.672,0.759
			c-0.262,0.248-0.546,0.457-0.852,0.629c-0.313,0.171-0.64,0.26-0.983,0.26c-0.211,0-0.426-0.024-0.644-0.082
			c-0.219-0.052-0.416-0.135-0.595-0.247c-0.176-0.113-0.328-0.26-0.455-0.44c-0.127-0.179-0.209-0.393-0.25-0.64
			c-0.032-0.208-0.04-0.417-0.026-0.621c0.016-0.202,0.05-0.419,0.095-0.642c0.046-0.225,0.108-0.472,0.188-0.735
			s0.177-0.563,0.289-0.892c0.054-0.144,0.087-0.274,0.108-0.396c0.016-0.124,0.016-0.225,0-0.3l-0.518,0.434
			c-0.313,0.243-0.592,0.49-0.837,0.732c-0.243,0.24-0.484,0.512-0.728,0.808c-0.142,0.437-0.248,0.884-0.306,1.34
			c-0.061,0.458-0.064,0.919-0.02,1.387c0,0.077-0.084,0.112-0.26,0.104c-0.179-0.009-0.376-0.04-0.595-0.101
			c-0.217-0.06-0.424-0.134-0.617-0.227c-0.19-0.092-0.303-0.185-0.334-0.275c-0.047-0.317-0.068-0.624-0.06-0.922
			c0.013-0.303,0.039-0.596,0.084-0.889c0.047-0.292,0.104-0.58,0.176-0.865c0.069-0.287,0.146-0.569,0.228-0.862
			c0.082-0.337,0.16-0.667,0.246-0.988c0.078-0.32,0.145-0.628,0.193-0.924c0.1-0.041,0.249-0.042,0.44-0.003
			c0.193,0.035,0.391,0.1,0.593,0.183c0.203,0.087,0.394,0.19,0.579,0.313c0.181,0.122,0.317,0.25,0.412,0.385
			c0.313-0.254,0.655-0.468,1.021-0.644c0.372-0.177,0.768-0.275,1.194-0.295c0.142,0,0.303,0.045,0.488,0.132
			c0.181,0.087,0.351,0.195,0.508,0.321c0.155,0.129,0.286,0.265,0.389,0.412c0.097,0.149,0.142,0.279,0.118,0.393
			c-0.101,0.36-0.2,0.695-0.3,1.009c-0.104,0.313-0.194,0.584-0.276,0.806c-0.069,0.199-0.133,0.381-0.19,0.543
			c-0.052,0.165-0.104,0.33-0.134,0.492c-0.036,0.162-0.061,0.327-0.069,0.498c-0.012,0.17,0,0.35,0.03,0.546
			c0-0.018,0.023-0.041,0.072-0.063h-0.015c0.257-0.105,0.545-0.284,0.87-0.538c0.324-0.255,0.63-0.598,0.912-1.035
			c0.081-0.112,0.15-0.22,0.218-0.327c0.066-0.104,0.131-0.208,0.191-0.315l0.152-0.309c0.032-0.033,0.102-0.04,0.21-0.026
			c0.112,0.022,0.23,0.053,0.355,0.101c0.121,0.053,0.222,0.11,0.309,0.177c0.085,0.065,0.116,0.124,0.082,0.172v-0.021
			l-0.561,1.016V424.715L299.388,424.715z"/>
		<path fill="#262626" d="M299.937,420.742c0.13-0.049,0.309-0.039,0.536,0.026c0.228,0.068,0.451,0.166,0.674,0.296
			c0.215,0.129,0.394,0.283,0.526,0.455c0.139,0.172,0.179,0.337,0.127,0.497c0.016-0.011,0.007,0-0.012,0.046
			c-0.021,0.042-0.052,0.098-0.084,0.171c-0.034,0.067-0.076,0.148-0.123,0.239c-0.045,0.092-0.087,0.178-0.129,0.256
			c-0.091,0.183-0.198,0.386-0.306,0.608c-0.123,0.22-0.23,0.445-0.341,0.671c-0.105,0.23-0.209,0.457-0.31,0.672
			c-0.103,0.219-0.181,0.412-0.236,0.581c-0.054,0.172-0.091,0.306-0.105,0.406c-0.018,0.102,0.007,0.153,0.07,0.153h0.102
			c0.298-0.069,0.564-0.186,0.801-0.345c0.239-0.155,0.454-0.336,0.656-0.541c0.193-0.206,0.374-0.422,0.535-0.651
			c0.164-0.226,0.321-0.449,0.469-0.66l0.171-0.252c0.03-0.042,0.104-0.05,0.217-0.027c0.119,0.023,0.234,0.067,0.347,0.129
			c0.108,0.055,0.203,0.124,0.282,0.201c0.075,0.07,0.086,0.135,0.051,0.183l0.018-0.022c-0.294,0.462-0.647,0.923-1.06,1.396
			c-0.409,0.471-0.849,0.886-1.313,1.248c-0.082,0.045-0.179,0.104-0.291,0.173c-0.11,0.064-0.239,0.125-0.386,0.185
			c-0.148,0.057-0.308,0.103-0.479,0.139c-0.176,0.038-0.36,0.061-0.551,0.061c-0.403-0.006-0.722-0.117-0.954-0.323
			c-0.233-0.205-0.386-0.465-0.459-0.774c-0.018-0.111-0.033-0.229-0.036-0.345c-0.003-0.122,0.003-0.247,0.021-0.371v0.011
			c0.055-0.354,0.154-0.763,0.322-1.227c0.163-0.466,0.336-0.93,0.512-1.395c0.114-0.316,0.225-0.625,0.339-0.922
			c0.112-0.302,0.197-0.57,0.255-0.82L299.937,420.742z M300.725,417.513c0.081-0.009,0.186,0.013,0.31,0.058
			c0.13,0.044,0.267,0.107,0.411,0.188c0.148,0.083,0.294,0.173,0.442,0.274c0.149,0.103,0.278,0.201,0.394,0.296
			c0.115,0.097,0.21,0.185,0.289,0.266c0.078,0.081,0.117,0.142,0.127,0.186c-0.01,0.203-0.049,0.383-0.112,0.536
			c-0.065,0.155-0.133,0.313-0.204,0.475c-0.072,0.163-0.139,0.329-0.204,0.497c-0.068,0.17-0.116,0.366-0.146,0.594
			c-0.134-0.023-0.287-0.073-0.465-0.154c-0.178-0.082-0.344-0.176-0.496-0.279c-0.159-0.106-0.298-0.217-0.411-0.328
			c-0.116-0.113-0.188-0.205-0.207-0.282c-0.021-0.144-0.028-0.298-0.018-0.468c0.016-0.169,0.026-0.345,0.048-0.527
			c0.03-0.186,0.049-0.371,0.061-0.561c0.013-0.188,0.006-0.374-0.015-0.549L300.725,417.513z"/>
		<path fill="#262626" d="M306.042,421.269c0.334-0.184,0.688-0.322,1.064-0.422c0.376-0.098,0.752-0.13,1.127-0.096
			c0.335,0.037,0.622,0.102,0.866,0.202c0.243,0.098,0.446,0.223,0.613,0.371c0.169,0.146,0.299,0.309,0.396,0.491
			c0.097,0.179,0.164,0.365,0.206,0.564c0.037,0.159,0.061,0.326,0.061,0.489c0,0.166-0.016,0.319-0.033,0.46
			c-0.081,0.438-0.242,0.865-0.488,1.284c-0.236,0.419-0.544,0.797-0.908,1.135c-0.367,0.342-0.785,0.618-1.261,0.837
			c-0.479,0.225-0.979,0.356-1.503,0.399c-0.355-0.008-0.679-0.052-0.967-0.138c-0.291-0.086-0.534-0.19-0.741-0.328
			c0,0.039,0,0.071,0,0.106c0,0.034,0.008,0.073,0.022,0.107c0,0.078-0.091,0.112-0.27,0.105c-0.176-0.01-0.373-0.04-0.592-0.101
			c-0.218-0.059-0.424-0.135-0.614-0.227c-0.195-0.091-0.306-0.186-0.334-0.275c-0.071-0.431-0.084-0.863-0.039-1.298
			c0.042-0.438,0.131-0.873,0.249-1.311c0.124-0.438,0.271-0.875,0.441-1.31c0.171-0.437,0.347-0.87,0.516-1.299l0.292-0.674
			c0.1-0.27,0.199-0.542,0.303-0.818c0.099-0.278,0.193-0.55,0.282-0.819c0.086-0.268,0.157-0.528,0.211-0.774
			c0.054-0.253,0.101-0.481,0.131-0.694c0.127-0.056,0.318-0.054,0.57,0.006c0.248,0.061,0.486,0.154,0.721,0.28
			c0.232,0.126,0.437,0.271,0.605,0.438c0.176,0.166,0.249,0.327,0.23,0.481c-0.03,0.105-0.084,0.255-0.154,0.454
			c-0.069,0.196-0.158,0.417-0.258,0.659c-0.099,0.241-0.209,0.498-0.327,0.76c-0.118,0.263-0.228,0.515-0.324,0.758
			L306.042,421.269z M305.164,423.192c-0.112,0.265-0.213,0.533-0.297,0.797c-0.089,0.266-0.162,0.535-0.222,0.807
			c0,0.027,0.003,0.055,0.009,0.078c0.004,0.019,0.012,0.044,0.021,0.073c0.04,0.165,0.124,0.324,0.242,0.469
			c0.122,0.144,0.315,0.223,0.579,0.234c0.222,0.018,0.458-0.034,0.697-0.146c0.243-0.111,0.479-0.264,0.709-0.459
			c0.228-0.194,0.436-0.417,0.63-0.67c0.193-0.254,0.357-0.509,0.492-0.767c0.136-0.258,0.239-0.508,0.297-0.754
			c0.063-0.244,0.072-0.463,0.033-0.646c-0.052-0.219-0.203-0.331-0.459-0.337c-0.232-0.007-0.479,0.021-0.735,0.084
			c-0.258,0.062-0.509,0.156-0.752,0.276c-0.245,0.118-0.475,0.262-0.693,0.427C305.499,422.825,305.316,423,305.164,423.192z"/>
		<path fill="#262626" d="M313.841,421.207c-0.065,0.134-0.144,0.319-0.243,0.55c-0.104,0.231-0.212,0.488-0.324,0.775
			c-0.122,0.285-0.236,0.584-0.358,0.898c-0.112,0.312-0.215,0.616-0.299,0.904c-0.089,0.295-0.148,0.563-0.188,0.811
			c-0.043,0.248-0.043,0.447,0,0.591v0.086h0.103c0.266-0.07,0.5-0.188,0.709-0.346c0.208-0.156,0.394-0.334,0.562-0.535
			c0.165-0.202,0.32-0.415,0.453-0.646c0.14-0.229,0.268-0.452,0.392-0.672h-0.015c0.03-0.062,0.065-0.122,0.111-0.186
			c0.049-0.056,0.089-0.115,0.115-0.173c0.021-0.039,0.086-0.053,0.2-0.029c0.109,0.019,0.228,0.052,0.349,0.104
			c0.121,0.05,0.228,0.109,0.313,0.175c0.085,0.069,0.118,0.126,0.097,0.174l-0.273,0.476c-0.232,0.4-0.493,0.808-0.782,1.217
			c-0.288,0.417-0.626,0.775-1.009,1.085c-0.073,0.057-0.166,0.117-0.275,0.187c-0.109,0.065-0.238,0.125-0.379,0.185
			c-0.143,0.056-0.301,0.102-0.473,0.14c-0.173,0.037-0.36,0.059-0.561,0.059c-0.458-0.015-0.813-0.143-1.073-0.388
			c-0.258-0.249-0.427-0.553-0.509-0.911c-0.021-0.076-0.036-0.161-0.036-0.244c-0.007-0.09-0.01-0.169-0.01-0.241
			c-0.021-0.703,0.088-1.388,0.322-2.053c0.23-0.666,0.484-1.322,0.758-1.969l0.394-0.885c0.099-0.271,0.203-0.542,0.306-0.82
			c0.101-0.277,0.193-0.549,0.281-0.818c0.086-0.268,0.158-0.527,0.213-0.775c0.054-0.251,0.097-0.479,0.127-0.692
			c0.134-0.058,0.322-0.055,0.57,0.006s0.491,0.152,0.722,0.28c0.232,0.126,0.438,0.271,0.611,0.438
			c0.17,0.165,0.243,0.326,0.224,0.481c-0.03,0.104-0.081,0.255-0.157,0.451c-0.08,0.199-0.164,0.42-0.261,0.667
			c-0.097,0.246-0.199,0.501-0.317,0.765c-0.118,0.266-0.228,0.513-0.328,0.746L313.841,421.207z"/>
		<path fill="#262626" d="M320.328,422.624c-0.314,0.631-0.781,1.159-1.405,1.579c-0.622,0.425-1.357,0.742-2.212,0.942
			c0.063,0.191,0.165,0.371,0.312,0.541c0.149,0.167,0.346,0.27,0.584,0.307l-0.029-0.011c0.215,0.034,0.441,0.021,0.69-0.033
			c0.255-0.058,0.509-0.158,0.77-0.302c0.268-0.146,0.521-0.331,0.779-0.565c0.251-0.23,0.487-0.505,0.71-0.823
			c0.114-0.167,0.218-0.341,0.314-0.523c0.095-0.177,0.185-0.351,0.265-0.509c0.068-0.093,0.175-0.143,0.308-0.15
			c0.14-0.007,0.264,0.015,0.382,0.067c0.117,0.055,0.212,0.127,0.275,0.223c0.064,0.096,0.067,0.203,0.008,0.321l-0.197,0.381
			c-0.183,0.318-0.41,0.669-0.686,1.052c-0.27,0.382-0.622,0.751-1.046,1.112c-0.254,0.196-0.521,0.351-0.794,0.46
			c-0.275,0.112-0.533,0.188-0.787,0.242c-0.255,0.054-0.484,0.086-0.694,0.095c-0.21,0.013-0.373,0.017-0.494,0.017
			c-0.787,0-1.434-0.157-1.937-0.473c-0.504-0.32-0.83-0.753-0.979-1.302c-0.132-0.478-0.128-0.943,0.006-1.404
			c0.139-0.456,0.396-0.952,0.785-1.49c0.129-0.175,0.318-0.365,0.561-0.563c0.242-0.199,0.524-0.386,0.845-0.555
			c0.319-0.171,0.665-0.307,1.04-0.413c0.376-0.104,0.764-0.155,1.172-0.146c0.425,0.008,0.786,0.104,1.085,0.286
			c0.298,0.189,0.485,0.441,0.556,0.756c0.03,0.144,0.03,0.284,0.006,0.43c-0.025,0.143-0.088,0.297-0.188,0.461v-0.01H320.328z
			 M319.143,421.757c-0.332,0.05-0.639,0.159-0.912,0.34c-0.271,0.174-0.514,0.38-0.721,0.621c-0.212,0.238-0.375,0.495-0.509,0.765
			c-0.131,0.271-0.228,0.524-0.288,0.769c0.616-0.206,1.153-0.48,1.612-0.832c0.458-0.349,0.788-0.764,1.003-1.251v0.013
			c0.027-0.06,0.045-0.113,0.052-0.171c0.01-0.055,0.004-0.104-0.009-0.146C319.338,421.763,319.266,421.728,319.143,421.757z"/>
	</g>
	<g>
		<path fill="#527425" d="M63.917,305.09c14.026,24.15,17.575,26.697,17.575,26.697H73.29c-0.205-3.565-3.414-8.101-3.414-8.101
			H57.598c-2.19,2.445-3.105,8.101-3.105,8.101h-8.154C51.485,326.592,63.917,305.09,63.917,305.09z M59.228,320.477h8.661
			l-4.331-8.048L59.228,320.477z"/>
		<path fill="#527425" d="M412.637,305.028c14.028,24.146,17.577,26.695,17.577,26.695h-8.2c-0.206-3.564-3.412-8.099-3.412-8.099
			h-12.28c-2.191,2.444-3.108,8.099-3.108,8.099h-8.148C400.209,326.525,412.637,305.028,412.637,305.028z M407.952,320.415h8.661
			l-4.333-8.05L407.952,320.415z"/>
		<path fill="#527425" d="M110.957,310.83v-4.619c0,0-25.133-6.045-27.307,12.566c0,0-1.834,19.125,29.617,11.89
			c0,0-1.665-6.741,0.781-11.88h-7.693c0,0,1.172-0.298,1.324,9.077c0,0-17.271,6.199-18.391-9.077
			C89.288,318.787,89.525,302.662,110.957,310.83z"/>
		<path fill="#527425" d="M140.1,312.666c0.676,4.686-6.659,7.335-6.659,7.335c0.543,1.629,12.293,11.822,12.293,11.822h-6.316
			c-5.163-3.602-12.838-11.89-12.838-11.89c-0.748,7.879,1.291,11.89,1.291,11.89h-7.745c2.786-15.08,0-26.154,0-26.154
			C141.864,304.583,140.1,312.666,140.1,312.666z M126.852,308.215v10.574c0,0,7.746-0.145,8.255-5.477
			C135.106,313.312,135.479,308.083,126.852,308.215z"/>
		<path fill="#527425" d="M146.755,318.694c0,0-0.271-13.501,18.749-13.434c0,0,15.487,0.307,16.234,13.434
			c0,0-0.134,13.602-17.491,13.4C164.246,332.095,147.773,332.739,146.755,318.694z M152.615,317.981
			c1.221,11.513,12.378,11.002,12.378,11.002c12.024,0.156,11.516-10.289,11.516-10.289c-1.786-10.699-12.28-10.341-12.28-10.341
			C152.104,309.014,152.615,317.981,152.615,317.981z"/>
		<path fill="#527425" d="M194.441,305.736h-7.54c0,0,2.786,11.207,0,25.881h7.54C194.441,331.617,191.521,319.662,194.441,305.736z
			"/>
		<path fill="#527425" d="M198.584,305.736l4.212,3.396c0,0,0.95,18.953-1.29,22.484h6.997c0,0-1.63-5.977-1.02-17.798
			c0,0,14.743,14.876,16.438,17.798h6.996c0,0-3.058-12.565,0-25.881h-7.131c0,0,1.834,5.027,1.29,19.837l-18.409-19.837H198.584z"
			/>
		<path fill="#527425" d="M263.27,318.679c-0.815,16.793-26.135,12.938-26.135,12.938c2.65-16.166,0-25.883,0-25.883
			C265.495,304.517,263.27,318.679,263.27,318.679z M243.809,308.506v20.428c0,0,14.063,0.832,14.368-10.255
			C258.177,318.679,258.38,308.506,243.809,308.506z"/>
		<path fill="#527425" d="M297.627,305.736c0,0-2.99,6.049,0,26.087h-5.91v-2.651c0,0-19.226,10.122-21.943-7.201
			c0,0-0.336-2.104,0-10.392c0,0-0.338-4.823-1.291-5.843h7.609c0,0-6.111,24.388,6.965,23.301c0,0,8.322,0.813,8.251-7.474
			c0,0,0.138-13.995-1.357-15.827H297.627L297.627,305.736z"/>
		<path fill="#527425" d="M303.673,325.979v5.093c0,0,15.994,4.485,18.237-6.214c0,0,0.916-3.515-4.84-6.623
			c0,0-12.276-4.992-5.857-9.12c0,0,4.379-2.649,9.425,1.782l-0.051-4.583c0,0-13.858-4.535-16.914,5.858
			c0,0-1.022,3.311,6.264,7.132c0,0,6.269,2.396,6.625,5.759c0,0,0.509,3.463-5.912,4.023
			C310.651,329.088,307.137,329.597,303.673,325.979z"/>
		<path fill="#527425" d="M327.107,305.663l24.962,0.073l-1.627,4.143c0,0-3.024-2.104-9.272-1.525c0,0-0.338,20.645,1.29,23.655
			h-7.54c0,0,2.177-5.417,1.154-23.621c0,0-8.218,0-10.799,1.492L327.107,305.663z"/>
		<path fill="#527425" d="M362.363,308.317c0,0-0.142,5.742-0.081,11.583c0.056,5.637,0.298,11.361,1.03,12.108h-7.54
			c0,0,1.357-4.058,1.357-6.03l0.071-13.787c0,0-0.203-4.703-1.429-6.528c0,0,20.312-2.135,20.278,7.24c0,0,0.303,4.926-6.795,6.965
			c0,0,8.457,9.441,12.194,11.919l-6.18-0.035c0,0-9.324-6.945-12.834-11.706l0.016-1.237c0,0,7.553-0.217,8.098-5.565
			C370.55,313.243,370.583,308.115,362.363,308.317z"/>
		<path fill="#527425" d="M383.812,305.453h7.488c0,0-0.916,3.51-1.019,5.956v14.112c0,0,0.051,4.256,1.225,6.483l-7.694-0.27
			c0,0,0.715-0.561,1.221-6.014v-14.569C385.032,311.154,384.983,307.394,383.812,305.453z"/>
		<path fill="#527425" d="M433.553,305.669h7.679c0,0-1.156,2.514-1.09,4.891l-0.132,18.478c0,0,10.185-0.612,13.651-2.244
			l-2.582,4.931h-17.526c0,0,0.949-0.481,1.322-6.661l0.137-12.841C435.015,312.226,434.774,307.264,433.553,305.669z"/>
	</g>
</g>
</svg>
