<svg width="61" height="17" viewBox="0 0 61 17" fill="none" xmlns="http://www.w3.org/2000/svg">
<g clip-path="url(#clip0_2_287)">
<path d="M60.9417 7.8236C60.8746 8.26587 60.8746 8.72116 60.7808 9.16343C60.5663 10.2041 60.1909 11.1667 59.4803 11.9862C58.6625 12.9358 57.6034 13.4691 56.3566 13.6382C55.15 13.8073 54.2652 13.274 53.5546 12.3895C53.3401 12.1293 53.1524 11.8301 52.9781 11.5439C52.5893 10.9325 52.214 10.9325 51.7984 11.5179C51.4364 12.0512 51.1012 12.5976 50.6052 13.0399C50.0019 13.5862 49.3315 14.0285 48.4869 14.1455C47.6557 14.2626 46.9318 14.0025 46.3151 13.4821C45.7788 13.0399 45.4168 12.4675 45.1353 11.8561C44.7197 10.9325 44.3443 10.009 44.237 8.99433C44.1432 8.09677 44.1432 7.19921 44.1432 6.30165C44.1432 5.30002 44.1432 4.28539 44.1566 3.28376C44.1566 3.04961 44.1834 2.81547 44.2236 2.58132C44.4113 1.5927 45.0682 1.31953 45.9665 1.46262C46.6502 1.57969 47.1195 2.10002 47.2267 2.82847C47.3071 3.33579 47.3206 3.85612 47.3206 4.37644C47.3206 4.9488 47.3206 5.50815 47.2937 6.08051C47.2401 7.19921 47.468 8.29189 47.763 9.38457C47.8434 9.65774 47.9104 9.94392 48.0043 10.2171C48.0311 10.3212 48.0847 10.4252 48.1384 10.5163C48.3931 10.9586 48.8891 10.9976 49.2109 10.5943C49.5326 10.1911 49.7337 9.72278 49.9617 9.2675C50.2968 8.59108 50.632 7.91465 51.0878 7.31628C51.1817 7.19921 51.2755 7.09514 51.3828 6.99108C52.0933 6.24961 53.0452 6.27563 53.7423 7.04311C54.1311 7.47238 54.4261 7.96669 54.6942 8.474C54.9891 9.03335 55.2841 9.60571 55.579 10.1651C55.6595 10.3082 55.7533 10.4512 55.8606 10.5813C56.1555 10.9325 56.6381 10.9586 56.9733 10.6594C57.1476 10.5163 57.2548 10.3212 57.3353 10.126C57.7509 9.21547 57.9654 8.25286 58.0592 7.26425C58.1263 6.48376 58.0995 5.71628 58.1129 4.93579C58.1129 4.61059 58.1263 4.28539 58.1933 3.97319C58.3408 3.27075 58.7698 2.90652 59.4401 2.91953C60.097 2.93254 60.7674 3.46587 60.821 4.07725C60.888 4.76669 60.888 5.46913 60.9148 6.17156C60.9148 6.28864 60.9014 6.40571 60.9551 6.50978C60.9417 6.96506 60.9417 7.39433 60.9417 7.8236Z" fill="#662681"/>
<path d="M30.1601 5.72927C30.1601 5.3 30.1601 4.87073 30.1601 4.42845C30.1601 4.31138 30.1735 4.1813 30.2003 4.06423C30.3478 3.40081 30.7098 3.07561 31.3801 3.03658C32.0504 2.98455 32.5197 3.28374 32.761 3.89512C32.9621 4.40244 33.0023 4.94878 33.0559 5.48211C33.123 6.1065 33.1632 6.73089 33.1498 7.35528C33.123 8.42195 32.9889 9.4626 32.5197 10.4382C31.9164 11.7 30.9913 12.7016 29.7579 13.3911C28.672 14.0024 27.5458 13.8593 26.5135 13.0528C26.0577 12.7016 25.6689 12.2854 25.3203 11.8431C25.1729 11.661 24.9986 11.4789 24.8109 11.3358C24.5293 11.1276 24.288 11.1406 24.0333 11.3748C23.8054 11.5699 23.6579 11.8171 23.5104 12.0642C23.068 12.7537 22.5452 13.378 21.8212 13.8073C20.494 14.5618 18.6975 14.1846 17.8126 12.9618C17.2228 12.1423 16.9278 11.1927 16.6463 10.2431C16.2173 8.8252 16.1502 7.35528 16.2173 5.88536C16.2575 5.02683 16.2307 4.15528 16.2307 3.29675C16.2307 3.0626 16.2575 2.82845 16.2977 2.59431C16.4854 1.69675 17.1155 1.34553 18.0137 1.44959C18.7243 1.52764 19.1131 1.89187 19.274 2.5813C19.4348 3.24471 19.4214 3.90813 19.3946 4.57154C19.3008 6.31463 19.341 8.04471 19.9711 9.72276C20.0784 10.022 20.1454 10.3341 20.3063 10.6073C20.5342 10.9846 20.8291 11.0236 21.1509 10.7114C21.4056 10.4512 21.5665 10.139 21.7408 9.82683C22.1564 9.07235 22.4915 8.29187 22.9742 7.57642C23.1753 7.27723 23.4032 6.99105 23.7115 6.76992C24.3014 6.35366 24.9718 6.37967 25.5348 6.82195C26.0443 7.23821 26.3661 7.77154 26.6878 8.31788C27.0766 8.96829 27.452 9.63171 27.8274 10.2951C27.9212 10.4642 28.0419 10.6203 28.2028 10.7504C28.4173 10.9195 28.6586 10.9325 28.8731 10.7634C29.0742 10.6203 29.2082 10.4122 29.3289 10.2041C29.825 9.38455 30.0529 8.48699 30.1333 7.5374C30.1735 6.95203 30.1601 6.34065 30.1601 5.72927Z" fill="#662681"/>
<path d="M6.30979 5.89838C8.11968 5.96342 9.68825 6.43171 11.0557 7.48537C13.2946 9.21545 13.5359 12.4935 11.5518 14.4968C10.3452 15.7065 8.85704 16.3309 7.12759 16.474C5.81374 16.5781 4.55352 16.3829 3.36034 15.8496C2.01968 15.2512 0.960556 14.3276 0.397479 12.9748C-0.366697 11.1407 -0.0181254 9.47561 1.34935 8.04472C2.70341 6.62683 4.43286 5.98943 6.30979 5.89838ZM6.45726 14.0285C6.5511 14.0285 6.63154 14.0285 6.72539 14.0285C6.81924 14.0285 6.89968 14.0024 6.99352 14.0024C8.03924 13.8724 8.95089 13.4951 9.67484 12.7407C10.3184 12.0772 10.5329 11.3098 10.1709 10.4382C9.94297 9.90488 9.55418 9.51464 9.05814 9.21545C8.18671 8.68212 7.22143 8.47399 6.18913 8.52602C5.27748 8.57805 4.45968 8.8122 3.72231 9.35854C2.43528 10.3081 2.31462 11.8691 3.45418 12.8968C4.28539 13.6642 5.30429 14.0024 6.45726 14.0285Z" fill="#EA670C"/>
<path d="M33.6324 9.68377C33.5654 7.08215 35.7373 4.98784 37.9091 4.57158C38.6599 4.42849 39.3704 4.55857 40.0542 4.87077C41.4887 5.53418 42.521 6.57483 43.1109 8.00572C43.6874 9.4106 43.3388 10.6984 42.3735 11.8301C41.2876 13.0919 39.8665 13.7163 38.1907 13.8334C37.2924 13.8984 36.4076 13.8204 35.5764 13.4561C34.7049 13.0789 34.1955 12.3895 33.914 11.5309C33.6995 10.9326 33.619 10.3212 33.6324 9.68377ZM37.3326 11.1537C38.4588 11.1537 39.4911 10.8935 40.3759 10.1911C40.7513 9.8919 41.0597 9.51467 40.9792 9.00735C40.872 8.38296 40.7915 7.75857 40.6173 7.14719C40.3357 6.13255 39.2498 5.58621 38.2041 6.27564C37.4399 6.78296 36.8232 7.42036 36.3137 8.16182C36.0054 8.6041 35.7239 9.07239 35.6702 9.61873C35.563 10.6464 36.0456 11.1017 36.9707 11.1537C37.0913 11.1537 37.212 11.1537 37.3326 11.1537Z" fill="#662681"/>
<path d="M10.1441 4.20732C9.08495 4.20732 8.24034 3.3748 8.25375 2.32114C8.26715 1.31951 9.13858 0.5 10.1709 0.5C11.2032 0.5 12.1014 1.37155 12.088 2.36016C12.0746 3.40081 11.2032 4.22033 10.1441 4.20732Z" fill="#EA670C"/>
<path d="M0.893524 2.36015C0.893524 1.33251 1.73814 0.513 2.78385 0.513C3.84298 0.513 4.7144 1.35853 4.701 2.38617C4.701 3.41381 3.84298 4.23333 2.78385 4.23333C1.71133 4.20731 0.893524 3.4008 0.893524 2.36015Z" fill="#EA670C"/>
</g>
<defs>
<clipPath id="clip0_2_287">
<rect width="61" height="16" fill="white" transform="translate(0 0.5)"/>
</clipPath>
</defs>
</svg>