<?xml version="1.0" encoding="utf-8"?>
<!-- Generator: Adobe Illustrator 25.4.1, SVG Export Plug-In . SVG Version: 6.00 Build 0)  -->
<svg version="1.1" id="Capa_1" xmlns="http://www.w3.org/2000/svg" xmlns:xlink="http://www.w3.org/1999/xlink" x="0px" y="0px"
	 viewBox="0 0 500 500" style="enable-background:new 0 0 500 500;" xml:space="preserve">
<style type="text/css">
	.st0{display:none;}
	.st1{display:inline;}
	.st2{fill:#527426;}
	.st3{fill:#ED7F1D;}
	.st4{fill:#344B8F;}
	.st5{fill:#262626;}
	.st6{fill:#527425;}
	.st7{fill-rule:evenodd;clip-rule:evenodd;}
	.st8{fill:none;stroke:#94BDAB;stroke-width:0.519;stroke-miterlimit:3.864;}
	
		.st9{clip-path:url(#SVGID_00000029019017616009263110000003303568717195991718_);fill-rule:evenodd;clip-rule:evenodd;fill:#79B53E;}
	
		.st10{clip-path:url(#SVGID_00000029019017616009263110000003303568717195991718_);fill-rule:evenodd;clip-rule:evenodd;fill:#006B47;}
	
		.st11{clip-path:url(#SVGID_00000029019017616009263110000003303568717195991718_);fill-rule:evenodd;clip-rule:evenodd;fill:#E1001A;}
	
		.st12{clip-path:url(#SVGID_00000029019017616009263110000003303568717195991718_);fill-rule:evenodd;clip-rule:evenodd;fill:#FFFFFF;}
	.st13{clip-path:url(#SVGID_00000029019017616009263110000003303568717195991718_);}
	.st14{clip-path:url(#SVGID_00000105422643152686204800000015204070700673630644_);}
	.st15{clip-path:url(#SVGID_00000032643949780094461870000002796022213031814034_);}
	.st16{fill-rule:evenodd;clip-rule:evenodd;fill:#E1001A;}
	
		.st17{clip-path:url(#SVGID_00000079461596534994173190000008816370295876476853_);fill-rule:evenodd;clip-rule:evenodd;fill:#FFFFFF;}
	.st18{clip-path:url(#SVGID_00000079461596534994173190000008816370295876476853_);}
	.st19{clip-path:url(#SVGID_00000026156196589206870940000006114503060307147673_);}
	.st20{clip-path:url(#SVGID_00000089547387410421715720000016877465711298049701_);}
	.st21{clip-path:url(#SVGID_00000009565765706236374800000005837680779907958948_);}
	.st22{clip-path:url(#SVGID_00000180350190522176245260000010381571884432894338_);}
</style>
<g class="st0">
	<g class="st1">
		<path class="st2" d="M256.3,239.6c0,0,50.4-29.6,115.9-16c0,0-21.3,43.2-78.1,60.6C294.2,284.2,283,260,256.3,239.6z"/>
		<path class="st2" d="M235.2,239.6c0,0-50.4-29.6-115.9-16c0,0,21.3,43.2,78.1,60.6C197.4,284.2,208.5,260,235.2,239.6z"/>
		<path class="st3" d="M108.7,174.5c0,0,2.9-97.3,138.9-103.2c0,0,118.5,0.2,135.2,103.2l-95.7,32.2l68.2-57.5l-79,52.4l45.9-72.1
			l-57.1,64.8l20.6-79.8l-34.3,77.3l-5.7-83.7l-6.3,83.7l-34.3-77.3l21,80.3l-57.5-67.4l45.5,72.5l-74.7-50.2l65.2,57.1L108.7,174.5
			z"/>
		<path class="st4" d="M290.1,219.2l92.7-43.6c0,0,2.6,25.8-4.9,37.3C377.9,213,355.6,203.9,290.1,219.2z"/>
		<path class="st4" d="M201.8,219.2l-92.7-43.6c0,0-2.6,25.8,4.9,37.3C114.1,213,136.4,203.9,201.8,219.2z"/>
	</g>
	<g class="st1">
		<g>
			<path class="st4" d="M185.6,365.4v10.4c0,4.7,0.8,8.2,2.4,10.5c1.6,2.3,4.1,3.5,7.4,3.5c3.1,0,5.3-0.9,6.9-2.8
				c1.5-1.8,2.3-4.6,2.3-8.3l0,0v-13.3c0-2.5-0.1-4.6-0.3-6.4c-0.2-1.7-0.6-3.5-1.1-5.3h4.5h4.5c-0.5,1.8-0.9,3.6-1.1,5.3
				c-0.2,1.7-0.3,3.9-0.3,6.4v17c0,2.5,0.1,4.7,0.3,6.4c0.2,1.7,0.6,3.5,1.1,5.3h-3.4h-3.5l0,0v-4.4l0,0l0,0l-1.1,0.9
				c-3.6,2.8-7.4,4.2-11.4,4.2c-4.3,0-7.7-1.5-9.9-4.5c-2.3-3-3.4-7.3-3.4-13.1v-11.8c0-2.5-0.1-4.6-0.3-6.4
				c-0.2-1.7-0.6-3.5-1.1-5.3h4.5h4.5c-0.5,1.8-0.9,3.6-1.1,5.3C185.7,360.7,185.6,362.8,185.6,365.4L185.6,365.4z M221,382.4v-17
				c0-2.5-0.1-4.6-0.3-6.4c-0.2-1.7-0.6-3.5-1.1-5.3h4.5l0,0h5c4.8,0,8.4,1,10.8,3c2.4,2,3.6,5,3.6,8.9c0,4.3-1.4,7.4-4.2,9.4
				c-2.6,1.8-6.7,2.8-12.2,2.9l0,0v4.5c0,2.5,0.1,4.7,0.3,6.4c0.2,1.7,0.6,3.5,1.1,5.3h-4.5h-4.5c0.5-1.8,0.9-3.5,1.1-5.3
				C220.9,387.1,221,385,221,382.4L221,382.4z M227.2,374.9L227.2,374.9c3.3,0,5.8-0.7,7.3-2.1c1.6-1.3,2.4-3.5,2.4-6.5
				c0-2.9-0.7-5.1-2.2-6.5c-1.5-1.4-3.6-2.2-6.5-2.2h-1l0,0L227.2,374.9L227.2,374.9z M246,382.4c-1.5,3.3-2.8,5.7-3.9,7.5
				c-1,1.7-2.1,3.1-3.2,4.2h5.1h5c-0.2-0.9-0.1-2.5,0.5-4.8c0.6-2.3,1.3-4.6,2.4-7l0.2-0.6l0,0H267l0,0l1.3,3.1
				c0.9,2,1.5,3.9,1.9,5.6c0.4,1.7,0.5,3,0.3,3.8h5h5c-1-1-2-2.3-3-4c-1-1.7-2.3-4.3-3.9-7.6l-13.8-29.5h0L246,382.4L246,382.4z
				 M259.5,364.3L259.5,364.3l5.3,12.2l0,0h-10.5l0,0L259.5,364.3L259.5,364.3z M300.7,394.7c-5.7,0-10.4-2-14.2-6
				c-3.8-4-5.7-9-5.7-15.1c0-5.9,2-10.8,6-14.6c4-3.9,9.1-5.8,15.1-5.8c5.7,0,10.5,2,14.2,6c3.8,4,5.7,9.1,5.7,15.1
				c0,5.9-2,10.7-6,14.6C311.8,392.8,306.8,394.7,300.7,394.7L300.7,394.7z M302,389.8c3.8,0,7-1.4,9.5-4.2
				c2.5-2.8,3.8-6.2,3.8-10.4c0-4.9-1.4-9-4.1-12.3c-2.8-3.3-6.2-4.9-10.4-4.9c-3.8,0-6.9,1.4-9.4,4.2c-2.5,2.8-3.8,6.3-3.8,10.4
				c0,4.9,1.4,9,4.1,12.3C294.4,388.2,297.8,389.8,302,389.8z"/>
		</g>
	</g>
	<g class="st1">
		<path class="st5" d="M186.5,416.1c0.2,0,0.4,0,0.6-0.1c0.2,0,0.4,0,0.6,0c0.8,0,1.6,0.1,2.2,0.3c0.6,0.2,1.1,0.4,1.6,0.7
			c0.4,0.3,0.8,0.6,1,1c0.2,0.4,0.4,0.7,0.5,1.1c0.1,0.6,0.1,1.2-0.1,1.7c-0.2,0.5-0.5,1-0.9,1.5c-0.4,0.4-0.9,0.8-1.5,1.2
			c-0.6,0.4-1.2,0.6-1.9,0.9c-0.7,0.2-1.4,0.4-2,0.6c-0.7,0.1-1.3,0.2-1.9,0.2c-0.3,0-0.7,0-1.1-0.1c-0.2,0.7-0.4,1.3-0.4,1.9
			c-0.1,0.6-0.1,1.1-0.1,1.5c0,0.2-0.1,0.3-0.2,0.3c-0.2,0-0.3,0-0.5-0.1c-0.2-0.1-0.4-0.3-0.6-0.5c-0.2-0.2-0.3-0.4-0.3-0.7
			c-0.1-0.4-0.1-0.9,0-1.4c0.1-0.5,0.2-1.1,0.3-1.7c-0.6-0.3-1-0.8-1.1-1.2l0,0c-0.2-0.3,0.1-0.5,0.7-0.8c0.2,0.4,0.5,0.7,0.7,0.9
			c0.2-0.5,0.4-1,0.6-1.5c0.2-0.5,0.4-1,0.7-1.5c0.2-0.5,0.5-1,0.7-1.4c0.2-0.4,0.5-0.9,0.7-1.2c-0.5,0.2-1,0.5-1.4,0.9
			c-0.5,0.3-0.9,0.7-1.2,1.1c-0.4,0.4-0.7,0.8-1,1.3c-0.3,0.4-0.5,0.9-0.7,1.3c-0.2,0.4-0.3,0.8-0.4,1.1c-0.1,0.4-0.1,0.7,0,0.9
			c0,0.1,0,0.2-0.2,0.2c-0.2,0-0.4-0.1-0.7-0.2c-0.3-0.1-0.5-0.3-0.7-0.4c-0.2-0.2-0.4-0.4-0.4-0.6c0-0.1,0-0.1,0-0.2
			c0-0.1,0-0.1,0-0.2v0c0.1-0.8,0.4-1.6,0.8-2.4c0.5-0.8,1.1-1.5,1.8-2.1c0.8-0.6,1.6-1.1,2.7-1.5
			C184.2,416.3,185.3,416.1,186.5,416.1L186.5,416.1L186.5,416.1L186.5,416.1z M186.8,417c-0.2,0-0.5,0-0.7,0.1
			c-0.2,0-0.5,0.1-0.7,0.2c0.2,0.1,0.3,0.1,0.5,0.2c0.2,0.1,0.4,0.2,0.5,0.3c0.2,0.1,0.3,0.2,0.4,0.4c0.1,0.1,0.1,0.3,0.1,0.4
			c-0.3,0.4-0.6,0.8-0.9,1.3c-0.3,0.4-0.6,0.9-0.9,1.4c-0.3,0.5-0.5,1-0.7,1.5c-0.2,0.5-0.4,1-0.6,1.5c0.1,0,0.2,0,0.3,0
			c0.1,0,0.2,0,0.3,0c0.5,0,1.1-0.1,1.6-0.2c0.5-0.1,1.1-0.3,1.6-0.5c0.5-0.2,1-0.5,1.4-0.8c0.4-0.3,0.8-0.7,1.1-1
			c0.3-0.4,0.5-0.8,0.7-1.2c0.1-0.4,0.2-0.9,0.1-1.3c-0.1-0.2-0.1-0.4-0.3-0.6c-0.1-0.2-0.4-0.5-0.7-0.7c-0.3-0.2-0.7-0.4-1.2-0.5
			C188.2,417.1,187.6,417,186.8,417z"/>
		<path class="st5" d="M198.3,424.9c-0.2,0.2-0.4,0.5-0.6,0.7c-0.2,0.3-0.5,0.5-0.8,0.7c-0.3,0.2-0.6,0.4-1,0.5
			c-0.4,0.1-0.7,0.2-1.1,0.2c-0.2,0-0.5,0-0.7-0.1c-0.2-0.1-0.4-0.2-0.5-0.3c-0.1-0.1-0.3-0.2-0.4-0.4c-0.1-0.1-0.2-0.3-0.2-0.5
			c0-0.2,0-0.5,0-0.7c0-0.2,0.1-0.4,0.2-0.6c0.1-0.2,0.2-0.4,0.3-0.5c0.1-0.2,0.3-0.4,0.4-0.5l0.2-0.3v0l0.3-0.4
			c0.1-0.1,0.1-0.1,0.2-0.2c0.1-0.1,0.3-0.1,0.5-0.2c-0.1,0-0.2,0-0.3,0c-0.1,0-0.2,0-0.2,0c-0.1,0-0.2,0-0.4,0.1
			c-0.1,0-0.3,0-0.5,0h-0.1c-0.2,0.2-0.3,0.5-0.5,0.7c-0.1,0.2-0.3,0.4-0.4,0.6l0,0c0,0-0.1,0.1-0.2,0c-0.1,0-0.2-0.1-0.3-0.1
			c-0.1-0.1-0.2-0.1-0.3-0.2c-0.1-0.1-0.1-0.1-0.1-0.2v0l0.7-1.2c-0.1-0.1-0.2-0.3-0.3-0.4c-0.1-0.2,0-0.4,0.1-0.6
			c0.1-0.2,0.2-0.4,0.3-0.6c0.1-0.1,0.1-0.2,0.2-0.3c0.1-0.1,0.1-0.2,0.1-0.4c0.2,0.1,0.3,0.1,0.5,0.2c0.2,0.1,0.3,0.1,0.5,0.2
			c0.1,0.1,0.3,0.2,0.4,0.3c0.1,0.1,0.2,0.2,0.2,0.4c0,0.1,0,0.1,0,0.2c0,0.1,0,0.2-0.1,0.3l-0.4,0.5c0,0,0,0.1,0.1,0
			c0.1,0,0.2-0.1,0.4-0.2c0.2-0.1,0.3-0.2,0.5-0.3c0.2-0.1,0.4-0.2,0.6-0.3c0.2-0.1,0.3-0.2,0.5-0.3c0.1-0.1,0.2-0.2,0.3-0.2
			c0.1,0,0.1,0,0.3,0.1c0.1,0,0.2,0.1,0.3,0.1c0.1,0.1,0.2,0.1,0.3,0.1c0.1,0,0.1,0.1,0.2,0.1c0.1,0.1,0.2,0.3,0.2,0.4
			c0,0.2,0,0.4-0.1,0.5s-0.2,0.4-0.4,0.6c-0.2,0.2-0.3,0.4-0.5,0.7c-0.1,0.1-0.2,0.2-0.3,0.4c-0.1,0.1-0.2,0.3-0.3,0.4
			c-0.1,0.1-0.2,0.2-0.3,0.3c-0.1,0.1-0.2,0.3-0.3,0.4c-0.1,0.1-0.1,0.3-0.2,0.4c0,0.1-0.1,0.2,0,0.3c0,0,0.1,0.1,0.2,0.1
			c0.1,0,0.2,0,0.4-0.1c0.2-0.1,0.3-0.1,0.5-0.3c0.2-0.1,0.3-0.2,0.5-0.4c0.2-0.1,0.3-0.3,0.4-0.5h0c0.2-0.2,0.3-0.4,0.4-0.7
			c0.1-0.2,0.2-0.4,0.3-0.6c0,0,0.1,0,0.2,0c0.1,0,0.2,0.1,0.3,0.1c0.1,0.1,0.2,0.1,0.3,0.2c0.1,0.1,0.1,0.1,0.1,0.2v0l-0.3,0.5
			L198.3,424.9L198.3,424.9z"/>
		<path class="st5" d="M201.9,420.7c0.4,0.1,0.8,0.2,1.1,0.4c0.3,0.2,0.5,0.5,0.7,0.7c0.3,0.2,0.5,0.5,0.7,0.8c0,0.1,0,0.1,0.1,0.2
			c0,0.1,0,0.1,0.1,0.2c0.1,0.3,0.1,0.6,0,0.9c0,0.3-0.1,0.6-0.3,0.9c-0.1,0.3-0.3,0.6-0.5,0.8c-0.2,0.3-0.4,0.5-0.7,0.7
			c-0.3,0.2-0.6,0.3-0.9,0.5c-0.3,0.1-0.7,0.2-1,0.2c-0.7,0-1.3-0.2-1.8-0.5c-0.6-0.3-1-0.8-1.3-1.4c-0.1-0.2-0.1-0.3-0.2-0.5
			c-0.1-0.3-0.1-0.6,0-0.9c0.1-0.3,0.2-0.6,0.3-0.9c0.2-0.3,0.4-0.6,0.6-0.9c0.3-0.3,0.6-0.5,0.9-0.7c0.3-0.2,0.7-0.3,1.1-0.4
			S201.5,420.6,201.9,420.7z M202.2,423.5c-0.1,0-0.2-0.1-0.2-0.1c-0.1-0.1-0.1-0.2-0.2-0.3c0-0.1-0.1-0.2-0.1-0.3
			c0-0.1,0-0.2-0.1-0.3c0-0.1,0-0.2,0.1-0.3c0.1-0.1,0.1-0.2,0.2-0.2c0.1-0.1,0.2-0.1,0.2-0.2c0.1,0,0.2-0.1,0.2-0.1
			c0,0-0.1,0-0.2,0c-0.2,0-0.4,0.1-0.7,0.2c-0.2,0.1-0.5,0.2-0.7,0.4c-0.2,0.2-0.3,0.4-0.5,0.6c-0.1,0.2-0.2,0.4-0.3,0.7
			c-0.1,0.2-0.1,0.5-0.1,0.7c0,0.2,0,0.4,0,0.6c0.1,0.3,0.2,0.5,0.4,0.7c0.2,0.2,0.5,0.3,0.8,0.3c0.4,0,0.7-0.1,1-0.3
			c0.3-0.2,0.6-0.5,0.8-0.8c0.2-0.3,0.3-0.7,0.4-1c0.1-0.4,0.1-0.7,0-1v-0.1c-0.1,0-0.2,0-0.2,0.1c-0.1,0-0.2,0.1-0.2,0.2
			c-0.1,0.1-0.1,0.1-0.2,0.2c0,0.1-0.1,0.1-0.1,0.2L202.2,423.5z"/>
		<path class="st5" d="M211.6,424.6c-0.1,0.2-0.1,0.4-0.1,0.6c0,0.2,0,0.4,0,0.5c0,0.1,0,0.1,0,0.1h0.2c0.3-0.1,0.5-0.2,0.7-0.4
			c0.2-0.2,0.4-0.3,0.6-0.6c0.2-0.2,0.3-0.4,0.5-0.7c0.1-0.2,0.3-0.5,0.4-0.7c0.1-0.1,0.1-0.2,0.2-0.3c0,0,0.1,0,0.2,0
			c0.1,0,0.2,0.1,0.4,0.1c0.1,0.1,0.2,0.1,0.3,0.2c0.1,0.1,0.1,0.1,0.1,0.2l-0.2,0.4v0c-0.2,0.4-0.5,0.8-0.8,1.2
			c-0.3,0.4-0.6,0.8-1.1,1.1c-0.1,0.1-0.2,0.1-0.3,0.2c-0.1,0.1-0.2,0.1-0.4,0.2c-0.1,0.1-0.3,0.1-0.5,0.1c-0.2,0-0.4,0.1-0.6,0
			c-0.5,0-0.9-0.1-1.2-0.4c-0.3-0.2-0.5-0.5-0.6-0.8c-0.3,0.3-0.6,0.5-1,0.8c-0.4,0.2-0.8,0.3-1.2,0.3c-0.4,0-0.7-0.1-1-0.2
			c-0.3-0.1-0.5-0.3-0.7-0.4c-0.2-0.2-0.3-0.4-0.4-0.5c-0.1-0.2-0.2-0.4-0.2-0.5c0-0.2,0-0.3,0-0.4c0-0.3,0-0.5,0.1-0.9
			c0.1-0.3,0.2-0.6,0.4-0.9c0.2-0.3,0.4-0.6,0.7-0.9c0.3-0.3,0.6-0.5,0.9-0.8c0.3-0.2,0.7-0.4,1.1-0.5c0.4-0.1,0.8-0.2,1.3-0.2
			c0.1,0,0.3,0,0.4,0c0.1,0,0.3,0,0.4,0.1c0.3,0.1,0.6,0.2,0.8,0.4l0.1-0.1l0.3-0.6c0.1-0.3,0.2-0.5,0.4-0.8
			c0.1-0.3,0.2-0.6,0.3-0.8c0.1-0.3,0.1-0.5,0.2-0.8c0.1-0.3,0.1-0.5,0.1-0.7c0.1-0.1,0.3-0.1,0.6,0c0.2,0.1,0.5,0.2,0.7,0.3
			c0.2,0.1,0.4,0.3,0.6,0.4c0.2,0.2,0.2,0.3,0.2,0.5c0,0.1-0.1,0.2-0.1,0.4c-0.1,0.2-0.2,0.4-0.3,0.7c-0.1,0.2-0.2,0.5-0.3,0.8
			c-0.1,0.3-0.2,0.5-0.4,0.8l-0.3,0.6v0c-0.2,0.4-0.4,0.9-0.6,1.4C211.9,423.5,211.7,424,211.6,424.6L211.6,424.6L211.6,424.6z
			 M207.8,425.7c0.1,0,0.3-0.1,0.5-0.2c0.2-0.1,0.3-0.3,0.5-0.5c0.2-0.2,0.3-0.4,0.5-0.6c0.2-0.2,0.3-0.4,0.4-0.5l0.1-0.4
			c0.1-0.2,0.1-0.5,0.2-0.7c0.1-0.2,0.2-0.5,0.3-0.7c-0.1-0.1-0.1-0.2-0.2-0.3c-0.1-0.1-0.3-0.1-0.4-0.1c-0.4,0-0.7,0.1-1,0.3
			c-0.3,0.2-0.6,0.4-0.8,0.7c-0.2,0.3-0.4,0.6-0.5,1c-0.1,0.3-0.2,0.6-0.3,0.9c0,0.1,0,0.2,0,0.3c0,0.1,0,0.2,0.1,0.3
			c0,0.2,0.1,0.3,0.2,0.4C207.3,425.7,207.5,425.7,207.8,425.7z"/>
		<path class="st5" d="M218.6,420.7c0.1,0,0.3,0,0.6,0c0.2,0.1,0.5,0.2,0.7,0.3c0.2,0.1,0.4,0.3,0.6,0.5s0.2,0.3,0.2,0.5
			c0,0.1-0.1,0.1-0.1,0.3c0,0.1-0.1,0.2-0.1,0.4v0c-0.1,0.2-0.2,0.5-0.3,0.8c-0.1,0.3-0.2,0.6-0.3,0.9c-0.1,0.3-0.2,0.6-0.2,0.8
			c0,0.2-0.1,0.5,0,0.6c0,0.1,0,0.1,0,0.1h0.2c0.3-0.1,0.5-0.2,0.7-0.4c0.2-0.2,0.4-0.3,0.6-0.6c0.2-0.2,0.3-0.4,0.5-0.7
			c0.1-0.2,0.3-0.5,0.4-0.7l0.2-0.3c0.1-0.1,0.2-0.1,0.3-0.1c0.1,0,0.2,0,0.4,0.1c0.1,0.1,0.2,0.1,0.3,0.2c0.1,0.1,0.1,0.2,0,0.3
			l-0.2,0.4c-0.2,0.4-0.5,0.8-0.8,1.2c-0.3,0.4-0.6,0.8-1,1.1c-0.1,0.1-0.2,0.1-0.3,0.2c-0.1,0.1-0.2,0.1-0.4,0.2
			c-0.1,0.1-0.3,0.1-0.5,0.1c-0.2,0-0.4,0.1-0.6,0.1c-0.5,0-0.8-0.1-1.1-0.4c-0.3-0.2-0.4-0.6-0.5-0.9l0,0c-0.1,0.1-0.2,0.3-0.3,0.4
			c-0.1,0.1-0.3,0.2-0.4,0.3c-0.1,0.1-0.2,0.1-0.3,0.2c-0.1,0.1-0.2,0.1-0.4,0.2c-0.1,0.1-0.3,0.1-0.5,0.1c-0.2,0-0.4,0.1-0.6,0.1
			c-0.4,0-0.8-0.1-1.1-0.4c-0.3-0.2-0.4-0.5-0.5-0.9c0-0.1,0-0.2,0-0.3c0-0.1,0-0.2,0-0.3c0-0.3,0.1-0.7,0.2-1.2
			c0.1-0.5,0.2-0.9,0.3-1.3c0.1-0.4,0.2-0.7,0.2-1c0.1-0.3,0.1-0.6,0.1-0.8l0.1-0.1c0.1-0.1,0.3,0,0.5,0c0.2,0.1,0.5,0.2,0.7,0.3
			c0.2,0.1,0.4,0.3,0.6,0.5c0.2,0.2,0.2,0.3,0.2,0.5c0,0.1-0.1,0.2-0.1,0.3c0,0.1-0.1,0.3-0.2,0.4v0c-0.1,0.2-0.2,0.5-0.3,0.8
			c-0.1,0.3-0.2,0.6-0.3,0.9c-0.1,0.3-0.1,0.5-0.2,0.8c0,0.2,0,0.4,0,0.6c0,0.1,0,0.1,0,0.1h0.1c0.3-0.1,0.5-0.2,0.7-0.3
			c0.2-0.2,0.4-0.3,0.6-0.5c0.2-0.2,0.3-0.4,0.5-0.6c0.1-0.2,0.3-0.5,0.4-0.7h0c0,0,0-0.1,0.1-0.1c0,0,0-0.1,0.1-0.1l0.2-0.6
			c0.1-0.4,0.2-0.7,0.3-1.1c0.1-0.3,0.1-0.6,0.1-0.8L218.6,420.7z"/>
		<path class="st5" d="M229,424.1c-0.2,0.3-0.4,0.7-0.7,1.1c-0.3,0.4-0.6,0.8-1.1,1.1c-0.2,0.2-0.5,0.4-0.8,0.5
			c-0.3,0.1-0.5,0.2-0.8,0.2c-0.3,0.1-0.5,0.1-0.7,0.1c-0.2,0-0.4,0-0.5,0c-0.8,0-1.4-0.2-1.9-0.5c-0.5-0.3-0.8-0.8-1-1.3
			c-0.1-0.5-0.1-0.9,0-1.4c0.1-0.5,0.4-1,0.8-1.5c0.1-0.2,0.3-0.4,0.6-0.6c0.2-0.2,0.5-0.4,0.8-0.6c0.3-0.2,0.7-0.3,1-0.4
			c0.4-0.1,0.8-0.2,1.2-0.1c0.4,0,0.8,0.1,1.1,0.3c0.3,0.2,0.5,0.4,0.5,0.7c0,0.1,0,0.3,0,0.4c0,0.1-0.1,0.3-0.2,0.4
			c-0.1,0.1-0.2,0.1-0.3,0.2c-0.1,0-0.2,0-0.3,0c-0.1,0-0.2-0.1-0.3-0.2c-0.1-0.1-0.1-0.2-0.1-0.3c0.1-0.1,0.1-0.2,0-0.3
			c0,0,0-0.1-0.1-0.1c0,0-0.1,0-0.2,0c-0.4,0.1-0.7,0.2-1,0.4c-0.3,0.2-0.5,0.5-0.8,0.8s-0.4,0.6-0.5,0.9c-0.1,0.3-0.2,0.6-0.2,0.8
			c0,0.1,0,0.1,0,0.2s0,0.1,0,0.2c0,0.1,0.1,0.2,0.1,0.3c0.1,0.1,0.1,0.2,0.2,0.3c0.1,0.1,0.2,0.2,0.3,0.2c0.1,0.1,0.2,0.1,0.4,0.1
			l0,0c0.2,0,0.4,0,0.7,0c0.2-0.1,0.5-0.2,0.8-0.3c0.3-0.1,0.5-0.3,0.8-0.6c0.3-0.2,0.5-0.5,0.7-0.8c0.1-0.2,0.2-0.3,0.3-0.5
			c0.1-0.2,0.2-0.4,0.3-0.5c0.1-0.1,0.2-0.1,0.3-0.1c0.1,0,0.3,0,0.4,0.1c0.1,0,0.2,0.1,0.3,0.2c0.1,0.1,0.1,0.2,0,0.3L229,424.1z"
			/>
		<path class="st5" d="M235.3,424.1c-0.2,0.3-0.4,0.7-0.7,1.1c-0.3,0.4-0.6,0.8-1,1.1c-0.3,0.2-0.5,0.4-0.8,0.5
			c-0.3,0.1-0.5,0.2-0.8,0.2c-0.3,0.1-0.5,0.1-0.7,0.1c-0.2,0-0.4,0-0.5,0c-0.8,0-1.4-0.2-1.9-0.5c-0.5-0.3-0.8-0.8-1-1.3
			c-0.1-0.5-0.1-0.9,0-1.4c0.1-0.5,0.4-1,0.8-1.5c0.1-0.2,0.3-0.4,0.6-0.6c0.2-0.2,0.5-0.4,0.8-0.6c0.3-0.2,0.7-0.3,1-0.4
			c0.4-0.1,0.8-0.2,1.2-0.1c0.4,0,0.8,0.1,1.1,0.3c0.3,0.2,0.5,0.4,0.5,0.7c0,0.1,0,0.3,0,0.4c0,0.1-0.1,0.3-0.2,0.4
			c-0.1,0.1-0.2,0.1-0.3,0.2c-0.1,0-0.2,0-0.3,0c-0.1,0-0.2-0.1-0.3-0.2c-0.1-0.1-0.1-0.2-0.1-0.3c0.1-0.1,0.1-0.2,0-0.3
			c0,0,0-0.1-0.1-0.1c0,0-0.1,0-0.2,0c-0.4,0.1-0.7,0.2-1,0.4c-0.3,0.2-0.6,0.5-0.8,0.8c-0.2,0.3-0.4,0.6-0.5,0.9
			c-0.1,0.3-0.2,0.6-0.2,0.8c0,0.1,0,0.1,0,0.2s0,0.1,0,0.2c0,0.1,0.1,0.2,0.1,0.3c0.1,0.1,0.1,0.2,0.2,0.3c0.1,0.1,0.2,0.2,0.3,0.2
			c0.1,0.1,0.2,0.1,0.4,0.1l0,0c0.2,0,0.4,0,0.7,0c0.3-0.1,0.5-0.2,0.8-0.3c0.3-0.1,0.5-0.3,0.8-0.6c0.3-0.2,0.5-0.5,0.7-0.8
			c0.1-0.2,0.2-0.3,0.3-0.5c0.1-0.2,0.2-0.4,0.3-0.5c0.1-0.1,0.2-0.1,0.3-0.1c0.1,0,0.3,0,0.4,0.1c0.1,0,0.2,0.1,0.3,0.2
			c0.1,0.1,0.1,0.2,0,0.3L235.3,424.1z"/>
		<path class="st5" d="M235.5,420.7c0.1,0,0.3,0,0.5,0c0.2,0.1,0.5,0.2,0.7,0.3c0.2,0.1,0.4,0.3,0.5,0.5c0.1,0.2,0.2,0.3,0.1,0.5
			c0,0,0,0,0,0c0,0,0,0.1-0.1,0.2c0,0.1-0.1,0.1-0.1,0.2c0,0.1-0.1,0.2-0.1,0.3c-0.1,0.2-0.2,0.4-0.3,0.6c-0.1,0.2-0.2,0.4-0.3,0.7
			c-0.1,0.2-0.2,0.5-0.3,0.7c-0.1,0.2-0.2,0.4-0.2,0.6c-0.1,0.2-0.1,0.3-0.1,0.4c0,0.1,0,0.2,0.1,0.2h0.1c0.3-0.1,0.6-0.2,0.8-0.3
			c0.2-0.2,0.5-0.3,0.7-0.5c0.2-0.2,0.4-0.4,0.5-0.7c0.2-0.2,0.3-0.4,0.5-0.7l0.2-0.3c0,0,0.1,0,0.2,0c0.1,0,0.2,0.1,0.3,0.1
			c0.1,0.1,0.2,0.1,0.3,0.2c0.1,0.1,0.1,0.1,0.1,0.2l0,0c-0.3,0.5-0.6,0.9-1.1,1.4c-0.4,0.5-0.8,0.9-1.3,1.2c-0.1,0-0.2,0.1-0.3,0.2
			c-0.1,0.1-0.2,0.1-0.4,0.2c-0.1,0.1-0.3,0.1-0.5,0.1c-0.2,0-0.4,0.1-0.6,0.1c-0.4,0-0.7-0.1-1-0.3c-0.2-0.2-0.4-0.5-0.5-0.8
			c0-0.1,0-0.2,0-0.3c0-0.1,0-0.2,0-0.4v0c0.1-0.4,0.2-0.8,0.3-1.2c0.2-0.5,0.3-0.9,0.5-1.4c0.1-0.3,0.2-0.6,0.3-0.9
			c0.1-0.3,0.2-0.6,0.3-0.8L235.5,420.7z M236.3,417.5c0.1,0,0.2,0,0.3,0.1c0.1,0,0.3,0.1,0.4,0.2c0.1,0.1,0.3,0.2,0.4,0.3
			c0.1,0.1,0.3,0.2,0.4,0.3c0.1,0.1,0.2,0.2,0.3,0.3c0.1,0.1,0.1,0.1,0.1,0.2c0,0.2,0,0.4-0.1,0.5c-0.1,0.2-0.1,0.3-0.2,0.5
			c-0.1,0.2-0.1,0.3-0.2,0.5c-0.1,0.2-0.1,0.4-0.1,0.6c-0.1,0-0.3-0.1-0.5-0.2c-0.2-0.1-0.3-0.2-0.5-0.3c-0.2-0.1-0.3-0.2-0.4-0.3
			c-0.1-0.1-0.2-0.2-0.2-0.3c0-0.1,0-0.3,0-0.5c0-0.2,0-0.3,0-0.5c0-0.2,0.1-0.4,0.1-0.6c0-0.2,0-0.4,0-0.5L236.3,417.5z"/>
		<path class="st5" d="M242.5,420.7c0.4,0.1,0.8,0.2,1.1,0.4c0.3,0.2,0.5,0.5,0.7,0.7c0.3,0.2,0.5,0.5,0.7,0.8c0,0.1,0,0.1,0.1,0.2
			c0,0.1,0,0.1,0.1,0.2c0.1,0.3,0.1,0.6,0,0.9c0,0.3-0.1,0.6-0.3,0.9c-0.1,0.3-0.3,0.6-0.5,0.8c-0.2,0.3-0.4,0.5-0.7,0.7
			c-0.3,0.2-0.6,0.3-0.9,0.5c-0.3,0.1-0.7,0.2-1,0.2c-0.7,0-1.3-0.2-1.8-0.5c-0.6-0.3-1-0.8-1.3-1.4c-0.1-0.2-0.1-0.3-0.2-0.5
			c-0.1-0.3-0.1-0.6,0-0.9c0.1-0.3,0.2-0.6,0.3-0.9c0.2-0.3,0.4-0.6,0.6-0.9c0.3-0.3,0.6-0.5,0.9-0.7c0.3-0.2,0.7-0.3,1.1-0.4
			C241.6,420.7,242.1,420.6,242.5,420.7z M242.7,423.5c-0.1,0-0.2-0.1-0.2-0.1c-0.1-0.1-0.1-0.2-0.2-0.3c0-0.1-0.1-0.2-0.1-0.3
			c0-0.1,0-0.2-0.1-0.3c0-0.1,0-0.2,0.1-0.3c0.1-0.1,0.1-0.2,0.2-0.2c0.1-0.1,0.2-0.1,0.2-0.2c0.1,0,0.2-0.1,0.2-0.1
			c0,0-0.1,0-0.2,0c-0.2,0-0.4,0.1-0.7,0.2c-0.2,0.1-0.5,0.2-0.6,0.4c-0.2,0.2-0.3,0.4-0.5,0.6c-0.1,0.2-0.2,0.4-0.3,0.7
			c-0.1,0.2-0.1,0.5-0.1,0.7c0,0.2,0,0.4,0,0.6c0.1,0.3,0.2,0.5,0.4,0.7c0.2,0.2,0.5,0.3,0.8,0.3c0.4,0,0.7-0.1,1-0.3
			c0.3-0.2,0.6-0.5,0.8-0.8c0.2-0.3,0.3-0.7,0.4-1c0.1-0.4,0.1-0.7,0-1v-0.1c-0.1,0-0.2,0-0.2,0.1c-0.1,0-0.2,0.1-0.2,0.2
			c-0.1,0.1-0.1,0.1-0.2,0.2c0,0.1-0.1,0.1-0.1,0.2L242.7,423.5z M243.1,418c0,0,0.1,0,0.2,0c0.1,0,0.2,0.1,0.2,0.2
			c0.1,0.1,0.2,0.2,0.3,0.3c0.1,0.1,0.2,0.2,0.2,0.3c0.1,0.1,0.1,0.2,0.2,0.3c0,0.1,0,0.1,0,0.2c-0.3,0.2-0.6,0.4-0.9,0.5
			c-0.3,0.1-0.5,0.2-0.8,0.4l-0.5,0.2c-0.1,0-0.2,0.1-0.3,0.1c-0.1,0-0.2,0-0.3-0.1c-0.1,0-0.1-0.1-0.2-0.2c0-0.1,0-0.2,0-0.3
			L243.1,418z"/>
		<path class="st5" d="M253.9,424.7c-0.1,0.2-0.3,0.4-0.5,0.7c-0.2,0.3-0.4,0.5-0.7,0.8c-0.3,0.2-0.5,0.5-0.9,0.6
			c-0.3,0.2-0.6,0.3-1,0.3c-0.2,0-0.4,0-0.6-0.1c-0.2-0.1-0.4-0.1-0.6-0.2c-0.2-0.1-0.3-0.3-0.5-0.4c-0.1-0.2-0.2-0.4-0.3-0.6
			c0-0.2,0-0.4,0-0.6c0-0.2,0-0.4,0.1-0.6c0-0.2,0.1-0.5,0.2-0.7c0.1-0.3,0.2-0.6,0.3-0.9c0.1-0.1,0.1-0.3,0.1-0.4
			c0-0.1,0-0.2,0-0.3l-0.5,0.4c-0.3,0.2-0.6,0.5-0.8,0.7c-0.2,0.2-0.5,0.5-0.7,0.8c-0.1,0.4-0.2,0.9-0.3,1.3c-0.1,0.5-0.1,0.9,0,1.4
			c0,0.1-0.1,0.1-0.3,0.1c-0.2,0-0.4,0-0.6-0.1c-0.2-0.1-0.4-0.1-0.6-0.2c-0.2-0.1-0.3-0.2-0.3-0.3c-0.1-0.3-0.1-0.6-0.1-0.9
			c0-0.3,0-0.6,0.1-0.9c0-0.3,0.1-0.6,0.2-0.9c0.1-0.3,0.1-0.6,0.2-0.9c0.1-0.3,0.2-0.7,0.2-1c0.1-0.3,0.1-0.6,0.2-0.9
			c0.1,0,0.2,0,0.4,0c0.2,0,0.4,0.1,0.6,0.2c0.2,0.1,0.4,0.2,0.6,0.3c0.2,0.1,0.3,0.2,0.4,0.4c0.3-0.3,0.7-0.5,1-0.6
			c0.4-0.2,0.8-0.3,1.2-0.3c0.1,0,0.3,0,0.5,0.1c0.2,0.1,0.4,0.2,0.5,0.3c0.2,0.1,0.3,0.3,0.4,0.4c0.1,0.1,0.1,0.3,0.1,0.4
			c-0.1,0.4-0.2,0.7-0.3,1c-0.1,0.3-0.2,0.6-0.3,0.8c-0.1,0.2-0.1,0.4-0.2,0.5c-0.1,0.2-0.1,0.3-0.1,0.5c0,0.2-0.1,0.3-0.1,0.5
			c0,0.2,0,0.4,0,0.5c0,0,0,0,0.1-0.1h0c0.3-0.1,0.5-0.3,0.9-0.5c0.3-0.3,0.6-0.6,0.9-1c0.1-0.1,0.2-0.2,0.2-0.3
			c0.1-0.1,0.1-0.2,0.2-0.3l0.2-0.3c0,0,0.1,0,0.2,0c0.1,0,0.2,0.1,0.4,0.1c0.1,0.1,0.2,0.1,0.3,0.2c0.1,0.1,0.1,0.1,0.1,0.2v0
			L253.9,424.7L253.9,424.7L253.9,424.7z"/>
		<path class="st5" d="M269.5,419.9c-0.1,0.1-0.2,0.1-0.4,0.1c-0.1,0-0.3,0-0.4,0c-0.2,0-0.4,0-0.7-0.1c-0.2-0.1-0.4-0.2-0.5-0.3
			s-0.3-0.2-0.4-0.3c-0.1-0.1-0.1-0.2-0.1-0.2c0.2-0.1,0.4-0.2,0.6-0.3c0.2-0.1,0.4-0.3,0.6-0.5c0.2-0.2,0.3-0.4,0.4-0.5
			c0.1-0.2,0.1-0.3,0.1-0.5c0-0.1-0.1-0.1-0.2-0.2c-0.1-0.1-0.3-0.1-0.5-0.1c-0.1,0-0.2,0-0.3,0c-0.1,0-0.2,0-0.3,0
			c-0.4,0-0.7,0-1.1,0.1c-0.4,0.1-0.8,0.1-1.2,0.2c-0.4,0.1-0.8,0.2-1.1,0.4c-0.4,0.1-0.7,0.3-0.9,0.5s-0.4,0.4-0.5,0.7
			c-0.1,0.2-0.1,0.5,0,0.8c0.1,0.2,0.2,0.4,0.3,0.6c0.2,0.2,0.3,0.4,0.5,0.5c0.2,0.2,0.4,0.4,0.7,0.5c0.2,0.2,0.5,0.3,0.7,0.5
			c0.3,0.2,0.6,0.4,0.9,0.7c0.3,0.2,0.6,0.5,0.8,0.7c0.2,0.2,0.4,0.5,0.6,0.8c0.2,0.3,0.3,0.5,0.3,0.8c0,0.4-0.1,0.9-0.4,1.3
			c-0.3,0.4-0.7,0.8-1.2,1.2c-0.5,0.4-1.1,0.6-1.9,0.9c-0.7,0.2-1.5,0.3-2.3,0.3c-0.5,0-1-0.1-1.5-0.2c-0.6-0.1-1.1-0.3-1.6-0.5
			c-0.5-0.2-0.9-0.5-1.3-0.8c-0.4-0.3-0.6-0.7-0.7-1.1c-0.1-0.5-0.1-0.9,0.1-1.3c0.2-0.4,0.6-0.8,1.3-1.2l0,0c0.1,0,0.2,0,0.5,0
			c0.3,0.1,0.5,0.2,0.8,0.3c0.3,0.1,0.5,0.2,0.8,0.4c0.2,0.1,0.3,0.2,0.3,0.3l-0.4,0.2c-0.2,0.1-0.4,0.2-0.6,0.3
			c-0.2,0.1-0.4,0.2-0.5,0.3c-0.1,0.1-0.2,0.2-0.3,0.4c-0.1,0.1-0.1,0.3,0,0.5c0.1,0.3,0.2,0.5,0.4,0.7c0.2,0.2,0.5,0.3,0.8,0.4
			c0.3,0.1,0.6,0.2,0.9,0.2c0.3,0,0.7,0.1,1,0.1c0.6,0,1.1-0.1,1.5-0.2c0.5-0.1,0.8-0.3,1.1-0.5c0.3-0.2,0.5-0.5,0.6-0.8
			c0.1-0.3,0.1-0.6,0.1-1c0-0.2-0.1-0.4-0.3-0.6c-0.1-0.2-0.3-0.4-0.5-0.5c-0.2-0.2-0.4-0.3-0.7-0.5c-0.2-0.2-0.5-0.3-0.7-0.5
			c-0.3-0.2-0.6-0.4-0.9-0.6c-0.3-0.2-0.5-0.4-0.8-0.6c-0.2-0.2-0.4-0.4-0.6-0.7c-0.2-0.2-0.2-0.5-0.3-0.7c0-0.4,0-0.8,0.2-1.1
			c0.2-0.4,0.5-0.7,0.8-1c0.4-0.3,0.8-0.6,1.3-0.9c0.5-0.3,1-0.5,1.6-0.6c0.6-0.2,1.2-0.3,1.8-0.4c0.6-0.1,1.2-0.1,1.8-0.1
			c0.4,0,0.7,0.1,1,0.2c0.3,0.1,0.5,0.2,0.7,0.3c0.2,0.1,0.3,0.3,0.4,0.5c0.1,0.2,0.2,0.4,0.2,0.6c0,0.2,0.1,0.4,0,0.7
			c0,0.2-0.1,0.5-0.2,0.7c-0.1,0.2-0.2,0.4-0.3,0.6C269.8,419.6,269.7,419.7,269.5,419.9L269.5,419.9z"/>
		<path class="st5" d="M272.9,420.7c0.4,0.1,0.8,0.2,1.1,0.4c0.3,0.2,0.5,0.5,0.7,0.7c0.3,0.2,0.5,0.5,0.6,0.8c0,0.1,0,0.1,0.1,0.2
			c0,0.1,0,0.1,0.1,0.2c0.1,0.3,0.1,0.6,0,0.9c0,0.3-0.1,0.6-0.3,0.9c-0.1,0.3-0.3,0.6-0.5,0.8c-0.2,0.3-0.4,0.5-0.7,0.7
			c-0.3,0.2-0.6,0.3-0.9,0.5c-0.3,0.1-0.7,0.2-1,0.2c-0.7,0-1.3-0.2-1.8-0.5c-0.6-0.3-1-0.8-1.3-1.4c-0.1-0.2-0.1-0.3-0.2-0.5
			c-0.1-0.3-0.1-0.6,0-0.9c0.1-0.3,0.2-0.6,0.3-0.9c0.2-0.3,0.4-0.6,0.6-0.9c0.3-0.3,0.6-0.5,0.9-0.7c0.3-0.2,0.7-0.3,1.1-0.4
			C272.1,420.7,272.5,420.6,272.9,420.7z M273.2,423.5c-0.1,0-0.2-0.1-0.2-0.1c-0.1-0.1-0.1-0.2-0.2-0.3c0-0.1-0.1-0.2-0.1-0.3
			c0-0.1,0-0.2-0.1-0.3c0-0.1,0-0.2,0.1-0.3c0.1-0.1,0.1-0.2,0.2-0.2c0.1-0.1,0.2-0.1,0.2-0.2c0.1,0,0.2-0.1,0.2-0.1
			c0,0-0.1,0-0.2,0c-0.2,0-0.4,0.1-0.7,0.2c-0.2,0.1-0.5,0.2-0.7,0.4c-0.2,0.2-0.3,0.4-0.5,0.6c-0.1,0.2-0.2,0.4-0.3,0.7
			c-0.1,0.2-0.1,0.5-0.1,0.7c0,0.2,0,0.4,0,0.6c0.1,0.3,0.2,0.5,0.4,0.7c0.2,0.2,0.5,0.3,0.8,0.3c0.4,0,0.7-0.1,1-0.3
			c0.3-0.2,0.6-0.5,0.8-0.8c0.2-0.3,0.3-0.7,0.4-1c0.1-0.4,0.1-0.7,0-1v-0.1c-0.1,0-0.2,0-0.2,0.1c-0.1,0-0.2,0.1-0.2,0.2
			c-0.1,0.1-0.1,0.1-0.2,0.2c0,0.1-0.1,0.1-0.1,0.2L273.2,423.5z"/>
		<path class="st5" d="M275.1,425.4c-0.1-0.3,0-0.6,0.1-0.9c0.1-0.3,0.3-0.5,0.6-0.7l0.2-0.4c0.2-0.3,0.4-0.7,0.6-1
			c0.2-0.3,0.4-0.6,0.7-1l0.2-0.3c0.1-0.2,0.3-0.4,0.5-0.6c0.2-0.2,0.4-0.5,0.8-0.8c0.2,0.1,0.4,0.1,0.6,0.2
			c0.2,0.1,0.5,0.2,0.7,0.3c0.2,0.1,0.3,0.3,0.4,0.4c0.1,0.1,0,0.3-0.1,0.4l0,0c-0.1,0.1-0.2,0.2-0.3,0.3c-0.1,0.1-0.1,0.1-0.2,0.2
			l-0.1,0.2c-0.1,0.2-0.2,0.5-0.2,0.8c0,0.3,0,0.5,0.1,0.8c0,0.1,0.1,0.3,0.1,0.4c0.1,0.2,0.1,0.3,0.2,0.5l0.2,0.6
			c0.1,0.3,0.1,0.6,0,0.9c-0.1,0.3-0.2,0.5-0.4,0.7c-0.2,0.2-0.5,0.3-0.8,0.4c-0.3,0.1-0.7,0.1-1.1,0.1c-0.4,0-0.8-0.1-1.1-0.2
			c-0.3-0.1-0.6-0.2-0.8-0.4c-0.2-0.1-0.4-0.3-0.5-0.5C275.2,425.9,275.2,425.7,275.1,425.4z M277.6,423.5c0-0.1,0-0.1,0-0.2
			c0-0.1,0-0.1,0-0.2l-0.4,0.6l0,0c0.1,0.1,0.1,0.2,0.2,0.3c0.1,0.1,0.2,0.3,0.2,0.4s0.1,0.3,0.1,0.4c0,0.1,0,0.2-0.1,0.3
			c-0.1-0.1-0.2-0.2-0.4-0.2c-0.1,0-0.3,0-0.4,0c-0.1,0-0.2,0.1-0.3,0.2c-0.1,0.1-0.1,0.2-0.1,0.3c0,0,0,0.1,0.1,0.1
			c0,0.1,0.1,0.1,0.1,0.2c0.1,0.1,0.3,0.2,0.4,0.2c0.2,0.1,0.3,0.1,0.5,0.1c0.2,0,0.3,0,0.4,0c0.1-0.1,0.2-0.1,0.2-0.2
			c0.1-0.1,0.1-0.2,0.1-0.3c0-0.1,0-0.2,0-0.4c0-0.1-0.1-0.3-0.1-0.4c-0.1-0.1-0.1-0.3-0.2-0.4c-0.1-0.1-0.1-0.3-0.2-0.5
			C277.7,423.8,277.6,423.7,277.6,423.5z"/>
		<path class="st5" d="M280.9,421.2c-0.2,0-0.3,0-0.5,0c-0.1,0-0.2-0.1-0.3-0.2c-0.1-0.1-0.1-0.2-0.1-0.3c0-0.1,0.1-0.2,0.2-0.3
			c0.6-0.4,1.3-0.6,2-0.9c0.2-0.5,0.3-0.9,0.4-1.3c0.1-0.4,0.2-0.8,0.2-1.1c0.1-0.1,0.3-0.1,0.6,0c0.3,0.1,0.5,0.2,0.7,0.3
			c0.2,0.1,0.4,0.3,0.6,0.4c0.2,0.2,0.2,0.3,0.2,0.5c0,0.1,0,0.1-0.1,0.2c0,0.1-0.1,0.2-0.1,0.3c0.6-0.1,1.3-0.1,1.9-0.1
			c0.1,0,0.2,0,0.4,0c0.2,0,0.3,0,0.4,0c0.1,0.1,0.1,0.2,0.1,0.3c0,0.1,0,0.2-0.1,0.3c0,0.1-0.1,0.2-0.2,0.3
			c-0.1,0.1-0.2,0.1-0.3,0.1c-0.1,0-0.2,0-0.3,0c-0.1,0-0.2,0-0.3,0c-0.4,0-0.7,0-1,0c-0.3,0-0.7,0.1-1,0.1l-0.4,1l-0.1,0.1
			c-0.1,0.1-0.1,0.3-0.2,0.5c-0.1,0.2-0.2,0.5-0.3,0.8c-0.1,0.3-0.2,0.6-0.4,0.9c-0.1,0.3-0.2,0.6-0.3,0.9c-0.1,0.3-0.1,0.6-0.2,0.8
			c0,0.2,0,0.4,0,0.6v0.1h0.1c0.3-0.1,0.5-0.2,0.7-0.3c0.2-0.2,0.4-0.3,0.6-0.5c0.2-0.2,0.3-0.4,0.5-0.6c0.1-0.2,0.3-0.5,0.4-0.7h0
			c0-0.1,0.1-0.1,0.1-0.2c0-0.1,0.1-0.1,0.1-0.2c0,0,0.1-0.1,0.2,0c0.1,0,0.2,0.1,0.3,0.1c0.1,0,0.2,0.1,0.3,0.2
			c0.1,0.1,0.1,0.1,0.1,0.2l-0.3,0.5c-0.2,0.4-0.5,0.8-0.8,1.2c-0.3,0.4-0.6,0.8-1,1.1c-0.1,0.1-0.2,0.1-0.3,0.2
			c-0.1,0.1-0.2,0.1-0.4,0.2c-0.1,0.1-0.3,0.1-0.5,0.1c-0.2,0-0.4,0.1-0.6,0.1c-0.5,0-0.8-0.1-1.1-0.4c-0.3-0.2-0.4-0.6-0.5-0.9
			c0-0.1,0-0.2,0-0.2c0-0.1,0-0.2,0-0.2c0-0.7,0.1-1.4,0.3-2.1c0.2-0.7,0.5-1.4,0.8-2.1l0.1-0.2c-0.1,0.1-0.3,0.1-0.4,0.2
			C281.2,421.1,281.1,421.1,280.9,421.2L280.9,421.2z"/>
		<path class="st5" d="M290.4,422.6c-0.3,0.6-0.8,1.2-1.4,1.6c-0.6,0.4-1.4,0.7-2.2,0.9c0.1,0.2,0.2,0.4,0.3,0.5
			c0.1,0.2,0.3,0.3,0.6,0.3l0,0c0.2,0,0.4,0,0.7,0c0.2-0.1,0.5-0.2,0.8-0.3c0.3-0.1,0.5-0.3,0.8-0.6c0.3-0.2,0.5-0.5,0.7-0.8
			c0.1-0.2,0.2-0.3,0.3-0.5c0.1-0.2,0.2-0.4,0.3-0.5c0.1-0.1,0.2-0.1,0.3-0.1c0.1,0,0.3,0,0.4,0.1c0.1,0.1,0.2,0.1,0.3,0.2
			c0.1,0.1,0.1,0.2,0,0.3l-0.2,0.4c-0.2,0.3-0.4,0.7-0.7,1.1c-0.3,0.4-0.6,0.8-1.1,1.1c-0.3,0.2-0.5,0.4-0.8,0.5
			c-0.3,0.1-0.5,0.2-0.8,0.2c-0.3,0.1-0.5,0.1-0.7,0.1c-0.2,0-0.4,0-0.5,0c-0.8,0-1.4-0.2-1.9-0.5c-0.5-0.3-0.8-0.8-1-1.3
			c-0.1-0.5-0.1-0.9,0-1.4c0.1-0.5,0.4-1,0.8-1.5c0.1-0.2,0.3-0.4,0.6-0.6c0.2-0.2,0.5-0.4,0.8-0.6c0.3-0.2,0.7-0.3,1-0.4
			c0.4-0.1,0.8-0.2,1.2-0.1c0.4,0,0.8,0.1,1.1,0.3c0.3,0.2,0.5,0.4,0.6,0.8c0,0.1,0,0.3,0,0.4C290.6,422.3,290.5,422.5,290.4,422.6
			L290.4,422.6L290.4,422.6L290.4,422.6z M289.2,421.8c-0.3,0-0.6,0.2-0.9,0.3c-0.3,0.2-0.5,0.4-0.7,0.6c-0.2,0.2-0.4,0.5-0.5,0.8
			c-0.1,0.3-0.2,0.5-0.3,0.8c0.6-0.2,1.2-0.5,1.6-0.8c0.5-0.3,0.8-0.8,1-1.3v0c0-0.1,0-0.1,0.1-0.2c0-0.1,0-0.1,0-0.1
			C289.4,421.8,289.4,421.7,289.2,421.8z"/>
		<path class="st5" d="M299.4,424.7c-0.1,0.2-0.3,0.4-0.5,0.7c-0.2,0.3-0.4,0.5-0.7,0.8c-0.3,0.2-0.5,0.5-0.9,0.6
			c-0.3,0.2-0.6,0.3-1,0.3c-0.2,0-0.4,0-0.6-0.1c-0.2-0.1-0.4-0.1-0.6-0.2c-0.2-0.1-0.3-0.3-0.5-0.4c-0.1-0.2-0.2-0.4-0.2-0.6
			c0-0.2,0-0.4,0-0.6c0-0.2,0-0.4,0.1-0.6c0-0.2,0.1-0.5,0.2-0.7s0.2-0.6,0.3-0.9c0.1-0.1,0.1-0.3,0.1-0.4c0-0.1,0-0.2,0-0.3
			l-0.5,0.4c-0.3,0.2-0.6,0.5-0.8,0.7c-0.2,0.2-0.5,0.5-0.7,0.8c-0.1,0.4-0.2,0.9-0.3,1.3c-0.1,0.5-0.1,0.9,0,1.4
			c0,0.1-0.1,0.1-0.3,0.1c-0.2,0-0.4,0-0.6-0.1c-0.2-0.1-0.4-0.1-0.6-0.2c-0.2-0.1-0.3-0.2-0.3-0.3c0-0.3-0.1-0.6-0.1-0.9
			c0-0.3,0-0.6,0.1-0.9c0-0.3,0.1-0.6,0.2-0.9c0.1-0.3,0.1-0.6,0.2-0.9c0.1-0.3,0.2-0.7,0.2-1c0.1-0.3,0.1-0.6,0.2-0.9
			c0.1,0,0.2,0,0.4,0c0.2,0,0.4,0.1,0.6,0.2c0.2,0.1,0.4,0.2,0.6,0.3c0.2,0.1,0.3,0.2,0.4,0.4c0.3-0.3,0.7-0.5,1-0.6
			c0.4-0.2,0.8-0.3,1.2-0.3c0.1,0,0.3,0,0.5,0.1c0.2,0.1,0.4,0.2,0.5,0.3c0.2,0.1,0.3,0.3,0.4,0.4c0.1,0.1,0.1,0.3,0.1,0.4
			c-0.1,0.4-0.2,0.7-0.3,1c-0.1,0.3-0.2,0.6-0.3,0.8c-0.1,0.2-0.1,0.4-0.2,0.5c-0.1,0.2-0.1,0.3-0.1,0.5c0,0.2-0.1,0.3-0.1,0.5
			c0,0.2,0,0.4,0,0.5c0,0,0,0,0.1-0.1h0c0.3-0.1,0.5-0.3,0.9-0.5c0.3-0.3,0.6-0.6,0.9-1c0.1-0.1,0.1-0.2,0.2-0.3
			c0.1-0.1,0.1-0.2,0.2-0.3l0.2-0.3c0,0,0.1,0,0.2,0c0.1,0,0.2,0.1,0.4,0.1c0.1,0.1,0.2,0.1,0.3,0.2c0.1,0.1,0.1,0.1,0.1,0.2v0
			L299.4,424.7L299.4,424.7L299.4,424.7z"/>
		<path class="st5" d="M299.9,420.7c0.1,0,0.3,0,0.5,0c0.2,0.1,0.5,0.2,0.7,0.3c0.2,0.1,0.4,0.3,0.5,0.5c0.1,0.2,0.2,0.3,0.1,0.5
			c0,0,0,0,0,0c0,0-0.1,0.1-0.1,0.2c0,0.1-0.1,0.1-0.1,0.2c0,0.1-0.1,0.2-0.1,0.3c-0.1,0.2-0.2,0.4-0.3,0.6
			c-0.1,0.2-0.2,0.4-0.3,0.7c-0.1,0.2-0.2,0.5-0.3,0.7c-0.1,0.2-0.2,0.4-0.2,0.6c-0.1,0.2-0.1,0.3-0.1,0.4c0,0.1,0,0.2,0.1,0.2h0.1
			c0.3-0.1,0.6-0.2,0.8-0.3c0.2-0.2,0.5-0.3,0.7-0.5c0.2-0.2,0.4-0.4,0.5-0.7c0.2-0.2,0.3-0.4,0.5-0.7l0.2-0.3c0,0,0.1,0,0.2,0
			c0.1,0,0.2,0.1,0.3,0.1c0.1,0.1,0.2,0.1,0.3,0.2c0.1,0.1,0.1,0.1,0.1,0.2l0,0c-0.3,0.5-0.6,0.9-1.1,1.4c-0.4,0.5-0.8,0.9-1.3,1.2
			c-0.1,0-0.2,0.1-0.3,0.2c-0.1,0.1-0.2,0.1-0.4,0.2c-0.1,0.1-0.3,0.1-0.5,0.1c-0.2,0-0.4,0.1-0.6,0.1c-0.4,0-0.7-0.1-1-0.3
			c-0.2-0.2-0.4-0.5-0.5-0.8c0-0.1,0-0.2,0-0.3c0-0.1,0-0.2,0-0.4v0c0.1-0.4,0.2-0.8,0.3-1.2c0.2-0.5,0.3-0.9,0.5-1.4
			c0.1-0.3,0.2-0.6,0.3-0.9c0.1-0.3,0.2-0.6,0.3-0.8L299.9,420.7z M300.7,417.5c0.1,0,0.2,0,0.3,0.1c0.1,0,0.3,0.1,0.4,0.2
			c0.1,0.1,0.3,0.2,0.4,0.3c0.1,0.1,0.3,0.2,0.4,0.3c0.1,0.1,0.2,0.2,0.3,0.3c0.1,0.1,0.1,0.1,0.1,0.2c0,0.2,0,0.4-0.1,0.5
			c-0.1,0.2-0.1,0.3-0.2,0.5c-0.1,0.2-0.1,0.3-0.2,0.5c-0.1,0.2-0.1,0.4-0.1,0.6c-0.1,0-0.3-0.1-0.5-0.2c-0.2-0.1-0.3-0.2-0.5-0.3
			c-0.2-0.1-0.3-0.2-0.4-0.3c-0.1-0.1-0.2-0.2-0.2-0.3c0-0.1,0-0.3,0-0.5c0-0.2,0-0.3,0-0.5c0-0.2,0-0.4,0.1-0.6c0-0.2,0-0.4,0-0.5
			L300.7,417.5z"/>
		<path class="st5" d="M306,421.3c0.3-0.2,0.7-0.3,1.1-0.4c0.4-0.1,0.8-0.1,1.1-0.1c0.3,0,0.6,0.1,0.9,0.2c0.2,0.1,0.4,0.2,0.6,0.4
			c0.2,0.1,0.3,0.3,0.4,0.5c0.1,0.2,0.2,0.4,0.2,0.6c0,0.2,0.1,0.3,0.1,0.5c0,0.2,0,0.3,0,0.5c-0.1,0.4-0.2,0.9-0.5,1.3
			c-0.2,0.4-0.5,0.8-0.9,1.1c-0.4,0.3-0.8,0.6-1.3,0.8c-0.5,0.2-1,0.4-1.5,0.4c-0.4,0-0.7-0.1-1-0.1c-0.3-0.1-0.5-0.2-0.7-0.3
			c0,0,0,0.1,0,0.1c0,0,0,0.1,0,0.1c0,0.1-0.1,0.1-0.3,0.1c-0.2,0-0.4,0-0.6-0.1c-0.2-0.1-0.4-0.1-0.6-0.2c-0.2-0.1-0.3-0.2-0.3-0.3
			c-0.1-0.4-0.1-0.9,0-1.3c0-0.4,0.1-0.9,0.2-1.3c0.1-0.4,0.3-0.9,0.4-1.3c0.2-0.4,0.3-0.9,0.5-1.3l0.3-0.7c0.1-0.3,0.2-0.5,0.3-0.8
			c0.1-0.3,0.2-0.5,0.3-0.8c0.1-0.3,0.2-0.5,0.2-0.8c0.1-0.3,0.1-0.5,0.1-0.7c0.1-0.1,0.3-0.1,0.6,0c0.2,0.1,0.5,0.2,0.7,0.3
			c0.2,0.1,0.4,0.3,0.6,0.4c0.2,0.2,0.2,0.3,0.2,0.5c0,0.1-0.1,0.3-0.2,0.5c-0.1,0.2-0.2,0.4-0.3,0.7c-0.1,0.2-0.2,0.5-0.3,0.8
			c-0.1,0.3-0.2,0.5-0.3,0.8L306,421.3z M305.2,423.2c-0.1,0.3-0.2,0.5-0.3,0.8c-0.1,0.3-0.2,0.5-0.2,0.8c0,0,0,0.1,0,0.1
			c0,0,0,0,0,0.1c0,0.2,0.1,0.3,0.2,0.5c0.1,0.1,0.3,0.2,0.6,0.2c0.2,0,0.5,0,0.7-0.1c0.2-0.1,0.5-0.3,0.7-0.5
			c0.2-0.2,0.4-0.4,0.6-0.7c0.2-0.3,0.4-0.5,0.5-0.8c0.1-0.3,0.2-0.5,0.3-0.8c0.1-0.2,0.1-0.5,0-0.6c-0.1-0.2-0.2-0.3-0.5-0.3
			c-0.2,0-0.5,0-0.7,0.1c-0.3,0.1-0.5,0.2-0.8,0.3c-0.2,0.1-0.5,0.3-0.7,0.4C305.5,422.8,305.3,423,305.2,423.2z"/>
		<path class="st5" d="M313.8,421.2c-0.1,0.1-0.1,0.3-0.2,0.5c-0.1,0.2-0.2,0.5-0.3,0.8c-0.1,0.3-0.2,0.6-0.4,0.9
			c-0.1,0.3-0.2,0.6-0.3,0.9c-0.1,0.3-0.1,0.6-0.2,0.8c0,0.2,0,0.4,0,0.6v0.1h0.1c0.3-0.1,0.5-0.2,0.7-0.3c0.2-0.2,0.4-0.3,0.6-0.5
			c0.2-0.2,0.3-0.4,0.5-0.6c0.1-0.2,0.3-0.5,0.4-0.7h0c0-0.1,0.1-0.1,0.1-0.2c0-0.1,0.1-0.1,0.1-0.2c0,0,0.1-0.1,0.2,0
			c0.1,0,0.2,0.1,0.3,0.1c0.1,0,0.2,0.1,0.3,0.2c0.1,0.1,0.1,0.1,0.1,0.2l-0.3,0.5c-0.2,0.4-0.5,0.8-0.8,1.2c-0.3,0.4-0.6,0.8-1,1.1
			c-0.1,0.1-0.2,0.1-0.3,0.2c-0.1,0.1-0.2,0.1-0.4,0.2c-0.1,0.1-0.3,0.1-0.5,0.1c-0.2,0-0.4,0.1-0.6,0.1c-0.5,0-0.8-0.1-1.1-0.4
			c-0.3-0.2-0.4-0.6-0.5-0.9c0-0.1,0-0.2,0-0.2c0-0.1,0-0.2,0-0.2c0-0.7,0.1-1.4,0.3-2.1c0.2-0.7,0.5-1.3,0.8-2l0.4-0.9
			c0.1-0.3,0.2-0.5,0.3-0.8c0.1-0.3,0.2-0.5,0.3-0.8c0.1-0.3,0.2-0.5,0.2-0.8c0.1-0.3,0.1-0.5,0.1-0.7c0.1-0.1,0.3-0.1,0.6,0
			s0.5,0.2,0.7,0.3c0.2,0.1,0.4,0.3,0.6,0.4c0.2,0.2,0.2,0.3,0.2,0.5c0,0.1-0.1,0.3-0.2,0.5c-0.1,0.2-0.2,0.4-0.3,0.7
			c-0.1,0.2-0.2,0.5-0.3,0.8c-0.1,0.3-0.2,0.5-0.3,0.7L313.8,421.2z"/>
		<path class="st5" d="M320.3,422.6c-0.3,0.6-0.8,1.2-1.4,1.6c-0.6,0.4-1.4,0.7-2.2,0.9c0.1,0.2,0.2,0.4,0.3,0.5
			c0.1,0.2,0.3,0.3,0.6,0.3l0,0c0.2,0,0.4,0,0.7,0c0.3-0.1,0.5-0.2,0.8-0.3c0.3-0.1,0.5-0.3,0.8-0.6c0.3-0.2,0.5-0.5,0.7-0.8
			c0.1-0.2,0.2-0.3,0.3-0.5c0.1-0.2,0.2-0.4,0.3-0.5c0.1-0.1,0.2-0.1,0.3-0.1c0.1,0,0.3,0,0.4,0.1c0.1,0.1,0.2,0.1,0.3,0.2
			c0.1,0.1,0.1,0.2,0,0.3l-0.2,0.4c-0.2,0.3-0.4,0.7-0.7,1.1c-0.3,0.4-0.6,0.8-1,1.1c-0.3,0.2-0.5,0.4-0.8,0.5
			c-0.3,0.1-0.5,0.2-0.8,0.2c-0.3,0.1-0.5,0.1-0.7,0.1c-0.2,0-0.4,0-0.5,0c-0.8,0-1.4-0.2-1.9-0.5c-0.5-0.3-0.8-0.8-1-1.3
			c-0.1-0.5-0.1-0.9,0-1.4c0.1-0.5,0.4-1,0.8-1.5c0.1-0.2,0.3-0.4,0.6-0.6c0.2-0.2,0.5-0.4,0.8-0.6c0.3-0.2,0.7-0.3,1-0.4
			c0.4-0.1,0.8-0.2,1.2-0.1c0.4,0,0.8,0.1,1.1,0.3c0.3,0.2,0.5,0.4,0.6,0.8c0,0.1,0,0.3,0,0.4C320.5,422.3,320.4,422.5,320.3,422.6
			L320.3,422.6L320.3,422.6L320.3,422.6z M319.1,421.8c-0.3,0-0.6,0.2-0.9,0.3c-0.3,0.2-0.5,0.4-0.7,0.6c-0.2,0.2-0.4,0.5-0.5,0.8
			c-0.1,0.3-0.2,0.5-0.3,0.8c0.6-0.2,1.2-0.5,1.6-0.8c0.5-0.3,0.8-0.8,1-1.3v0c0-0.1,0-0.1,0.1-0.2c0-0.1,0-0.1,0-0.1
			C319.3,421.8,319.3,421.7,319.1,421.8z"/>
	</g>
	<g class="st1">
		<path class="st6" d="M63.9,305.1c14,24.1,17.6,26.7,17.6,26.7h-8.2c-0.2-3.6-3.4-8.1-3.4-8.1H57.6c-2.2,2.4-3.1,8.1-3.1,8.1h-8.2
			C51.5,326.6,63.9,305.1,63.9,305.1z M59.2,320.5h8.7l-4.3-8L59.2,320.5z"/>
		<path class="st6" d="M412.6,305c14,24.1,17.6,26.7,17.6,26.7H422c-0.2-3.6-3.4-8.1-3.4-8.1h-12.3c-2.2,2.4-3.1,8.1-3.1,8.1h-8.1
			C400.2,326.5,412.6,305,412.6,305z M408,320.4h8.7l-4.3-8L408,320.4z"/>
		<path class="st6" d="M111,310.8v-4.6c0,0-25.1-6-27.3,12.6c0,0-1.8,19.1,29.6,11.9c0,0-1.7-6.7,0.8-11.9h-7.7c0,0,1.2-0.3,1.3,9.1
			c0,0-17.3,6.2-18.4-9.1C89.3,318.8,89.5,302.7,111,310.8z"/>
		<path class="st6" d="M140.1,312.7c0.7,4.7-6.7,7.3-6.7,7.3c0.5,1.6,12.3,11.8,12.3,11.8h-6.3c-5.2-3.6-12.8-11.9-12.8-11.9
			c-0.7,7.9,1.3,11.9,1.3,11.9h-7.7c2.8-15.1,0-26.2,0-26.2C141.9,304.6,140.1,312.7,140.1,312.7z M126.9,308.2v10.6
			c0,0,7.7-0.1,8.3-5.5C135.1,313.3,135.5,308.1,126.9,308.2z"/>
		<path class="st6" d="M146.8,318.7c0,0-0.3-13.5,18.7-13.4c0,0,15.5,0.3,16.2,13.4c0,0-0.1,13.6-17.5,13.4
			C164.2,332.1,147.8,332.7,146.8,318.7z M152.6,318c1.2,11.5,12.4,11,12.4,11c12,0.2,11.5-10.3,11.5-10.3
			c-1.8-10.7-12.3-10.3-12.3-10.3C152.1,309,152.6,318,152.6,318z"/>
		<path class="st6" d="M194.4,305.7h-7.5c0,0,2.8,11.2,0,25.9h7.5C194.4,331.6,191.5,319.7,194.4,305.7z"/>
		<path class="st6" d="M198.6,305.7l4.2,3.4c0,0,0.9,19-1.3,22.5h7c0,0-1.6-6-1-17.8c0,0,14.7,14.9,16.4,17.8h7c0,0-3.1-12.6,0-25.9
			h-7.1c0,0,1.8,5,1.3,19.8l-18.4-19.8L198.6,305.7L198.6,305.7z"/>
		<path class="st6" d="M263.3,318.7c-0.8,16.8-26.1,12.9-26.1,12.9c2.6-16.2,0-25.9,0-25.9C265.5,304.5,263.3,318.7,263.3,318.7z
			 M243.8,308.5v20.4c0,0,14.1,0.8,14.4-10.3C258.2,318.7,258.4,308.5,243.8,308.5z"/>
		<path class="st6" d="M297.6,305.7c0,0-3,6,0,26.1h-5.9v-2.7c0,0-19.2,10.1-21.9-7.2c0,0-0.3-2.1,0-10.4c0,0-0.3-4.8-1.3-5.8h7.6
			c0,0-6.1,24.4,7,23.3c0,0,8.3,0.8,8.3-7.5c0,0,0.1-14-1.4-15.8L297.6,305.7L297.6,305.7z"/>
		<path class="st6" d="M303.7,326v5.1c0,0,16,4.5,18.2-6.2c0,0,0.9-3.5-4.8-6.6c0,0-12.3-5-5.9-9.1c0,0,4.4-2.6,9.4,1.8l-0.1-4.6
			c0,0-13.9-4.5-16.9,5.9c0,0-1,3.3,6.3,7.1c0,0,6.3,2.4,6.6,5.8c0,0,0.5,3.5-5.9,4C310.7,329.1,307.1,329.6,303.7,326z"/>
		<path class="st6" d="M327.1,305.7l25,0.1l-1.6,4.1c0,0-3-2.1-9.3-1.5c0,0-0.3,20.6,1.3,23.7h-7.5c0,0,2.2-5.4,1.2-23.6
			c0,0-8.2,0-10.8,1.5L327.1,305.7z"/>
		<path class="st6" d="M362.4,308.3c0,0-0.1,5.7-0.1,11.6c0.1,5.6,0.3,11.4,1,12.1h-7.5c0,0,1.4-4.1,1.4-6l0.1-13.8
			c0,0-0.2-4.7-1.4-6.5c0,0,20.3-2.1,20.3,7.2c0,0,0.3,4.9-6.8,7c0,0,8.5,9.4,12.2,11.9l-6.2,0c0,0-9.3-6.9-12.8-11.7l0-1.2
			c0,0,7.6-0.2,8.1-5.6C370.5,313.2,370.6,308.1,362.4,308.3z"/>
		<path class="st6" d="M383.8,305.5h7.5c0,0-0.9,3.5-1,6v14.1c0,0,0.1,4.3,1.2,6.5l-7.7-0.3c0,0,0.7-0.6,1.2-6v-14.6
			C385,311.2,385,307.4,383.8,305.5z"/>
		<path class="st6" d="M433.6,305.7h7.7c0,0-1.2,2.5-1.1,4.9L440,329c0,0,10.2-0.6,13.7-2.2l-2.6,4.9h-17.5c0,0,0.9-0.5,1.3-6.7
			l0.1-12.8C435,312.2,434.8,307.3,433.6,305.7z"/>
	</g>
</g>
<g>
	<polygon class="st7" points="108.6,331.9 98.9,331.9 98.9,313.6 86.9,313.6 86.9,331.9 77.3,331.9 77.3,288.2 86.9,288.2 
		86.9,306.4 98.9,306.4 98.9,288.2 108.6,288.2 	"/>
	<path class="st7" d="M146.6,310.2c0-4.8-0.7-8.3-2.2-10.7c-1.5-2.4-3.9-3.6-7.1-3.6c-3.1,0-5.4,1.1-7,3.4
		c-1.6,2.3-2.4,5.9-2.4,10.9c0,4.7,0.8,8.2,2.3,10.6c1.5,2.4,3.9,3.6,7.2,3.6c3.3,0,5.6-1.2,7.1-3.5
		C145.8,318.6,146.6,315,146.6,310.2z M157,310.2c0,6.7-1.7,12.1-5.3,16.1c-3.5,4.1-8.3,6.1-14.4,6.1c-6,0-10.8-2-14.4-5.9
		c-3.5-4-5.3-9.4-5.3-16.3s1.7-12.4,5.2-16.3c3.5-4,8.3-6,14.4-6c6.3,0,11.2,1.9,14.6,5.6C155.3,297.3,157,302.8,157,310.2z"/>
	<path class="st7" d="M185.9,302.3c0-2.2-0.5-3.8-1.6-4.9c-1.1-1.1-2.6-1.6-4.6-1.6h-4.1v13h4.4c1.8,0,3.2-0.6,4.3-1.7
		C185.4,305.8,185.9,304.3,185.9,302.3z M201.5,331.9h-10.7l-11.2-18.5h-3.9v18.5H166v-43.7h14.5c4.8,0,8.4,1.1,11.1,3.3
		c2.6,2.2,3.9,5.2,3.9,9.1c0,2.9-0.6,5.2-1.9,7c-1.2,1.8-2.9,3-5,3.7L201.5,331.9z"/>
	<polygon class="st7" points="234.4,295.8 224,295.8 224,331.9 214.4,331.9 214.4,295.8 204.1,295.8 204.1,288.2 234.4,288.2 	"/>
	<rect x="242.7" y="288.2" class="st7" width="9.7" height="43.7"/>
	<polygon class="st7" points="288,312.3 273.9,312.3 273.9,331.9 264.2,331.9 264.2,288.2 287.4,288.2 287.4,295.8 273.8,295.8 
		273.8,307.4 288,307.4 	"/>
	<path class="st7" d="M315.3,302.3c0-2.2-0.5-3.8-1.6-4.9c-1.1-1.1-2.6-1.6-4.6-1.6H305v13h4.4c1.8,0,3.2-0.6,4.3-1.7
		C314.8,305.8,315.3,304.3,315.3,302.3z M330.9,331.9h-10.7l-11.2-18.5H305v18.5h-9.7v-43.7h14.5c4.8,0,8.4,1.1,11.1,3.3
		c2.6,2.2,3.9,5.2,3.9,9.1c0,2.9-0.6,5.2-1.9,7c-1.3,1.8-2.9,3-5,3.7L330.9,331.9z"/>
	<path class="st7" d="M367.6,318.2c0,4.2-1.3,7.6-3.9,10.3c-2.6,2.7-6.6,4-12,4c-5.3,0-9.2-1.3-11.7-3.9c-2.4-2.6-3.7-6.1-3.7-10.5
		v-29.9h9.7v30.1c0,2,0.5,3.6,1.5,4.8c1,1.2,2.7,1.7,4.9,1.7c2.3,0,4-0.6,5.1-1.9c1.1-1.3,1.6-3.3,1.6-6.2v-28.6h8.4V318.2z"/>
	<polygon class="st7" points="404.6,295.8 394.3,295.8 394.3,331.9 384.6,331.9 384.6,295.8 374.3,295.8 374.3,288.2 404.6,288.2 	
		"/>
	<path class="st8" d="M106.7,279"/>
	<g>
		<defs>
			<rect id="SVGID_1_" x="76" y="76.1" width="328.3" height="202.5"/>
		</defs>
		<clipPath id="SVGID_00000104680452511031391580000002908085074784346496_">
			<use xlink:href="#SVGID_1_"  style="overflow:visible;"/>
		</clipPath>
		
			<path style="clip-path:url(#SVGID_00000104680452511031391580000002908085074784346496_);fill-rule:evenodd;clip-rule:evenodd;fill:#79B53E;" d="
			M200.2,171.3c0,0-31.5-35.8-123.5-36.9v87.1l74.2,18.3L200.2,171.3z"/>
		
			<path style="clip-path:url(#SVGID_00000104680452511031391580000002908085074784346496_);fill-rule:evenodd;clip-rule:evenodd;fill:#79B53E;" d="
			M281.2,171.3c0,0,31.8-36.1,123.8-37.2v87.1l-74.5,18.6L281.2,171.3z"/>
		
			<path style="clip-path:url(#SVGID_00000104680452511031391580000002908085074784346496_);fill-rule:evenodd;clip-rule:evenodd;fill:#006B47;" d="
			M405,192.1c0,0-35.1-9.9-94.2,17.5c-60.9,28.2,43.8,69.8,43.8,69.8H405V192.1z"/>
		
			<path style="clip-path:url(#SVGID_00000104680452511031391580000002908085074784346496_);fill-rule:evenodd;clip-rule:evenodd;fill:#006B47;" d="
			M76.7,192.1c0,0,35.1-9.9,94.2,17.5c60.9,28.2-43.8,69.8-43.8,69.8H76.7V192.1z"/>
		
			<path style="clip-path:url(#SVGID_00000104680452511031391580000002908085074784346496_);fill-rule:evenodd;clip-rule:evenodd;fill:#E1001A;" d="
			M107.7,279.2c6.9-66.3,62.9-118.9,131-118.9c68.1,0,124.1,53.3,131.1,119.5L107.7,279.2z"/>
		
			<path style="clip-path:url(#SVGID_00000104680452511031391580000002908085074784346496_);fill-rule:evenodd;clip-rule:evenodd;fill:#FFFFFF;" d="
			M239.2,413.6c-2.6,23.9-13.1-124.5-0.7-243.6C238.5,170.1,252.3,294.6,239.2,413.6z"/>
		
			<path style="clip-path:url(#SVGID_00000104680452511031391580000002908085074784346496_);fill-rule:evenodd;clip-rule:evenodd;fill:#FFFFFF;" d="
			M201.2,172.2c0,0-107.4,98.1-2.1,235.4c0,0-47.2-80.4-37.2-141.8C172.7,199.7,201.2,172.2,201.2,172.2z"/>
		
			<path style="clip-path:url(#SVGID_00000104680452511031391580000002908085074784346496_);fill-rule:evenodd;clip-rule:evenodd;fill:#FFFFFF;" d="
			M277.1,172.2c0,0,107.5,98.1,2.1,235.4c0,0,47.2-80.4,37.2-141.8C305.7,199.7,277.1,172.2,277.1,172.2z"/>
		
			<path style="clip-path:url(#SVGID_00000104680452511031391580000002908085074784346496_);fill-rule:evenodd;clip-rule:evenodd;fill:#FFFFFF;" d="
			M122.5,239.6c0,0,105.9,60.5,232.7,1.1c0,0-78.8,23.1-140.9,18C147.3,253.3,122.5,239.6,122.5,239.6z"/>
		<g style="clip-path:url(#SVGID_00000104680452511031391580000002908085074784346496_);">
			<defs>
				<path id="SVGID_00000001659094260576427690000003047940827187538329_" d="M161.4,385.6c0,0,65.1,35.7,156.1,0.7
					c0,0-53.5,13.7-94.2,10.4C179.5,393.1,161.4,385.6,161.4,385.6z"/>
			</defs>
			<clipPath id="SVGID_00000119820595337709777700000007530942250257419197_">
				<use xlink:href="#SVGID_00000001659094260576427690000003047940827187538329_"  style="overflow:visible;"/>
			</clipPath>
			<g style="clip-path:url(#SVGID_00000119820595337709777700000007530942250257419197_);">
				<g>
					<defs>
						<rect id="SVGID_00000169555709961316043910000009997869975278663580_" x="161.4" y="385.6" width="156.1" height="35.7"/>
					</defs>
					<clipPath id="SVGID_00000025425093924332393880000008642863753830079155_">
						<use xlink:href="#SVGID_00000169555709961316043910000009997869975278663580_"  style="overflow:visible;"/>
					</clipPath>
					<g style="clip-path:url(#SVGID_00000025425093924332393880000008642863753830079155_);">
						<defs>
							<rect id="SVGID_00000070839886386448061500000017705016469649599157_" x="161.4" y="385.6" width="156.1" height="35.7"/>
						</defs>
						<clipPath id="SVGID_00000150822534761394514920000005664002873691812773_">
							<use xlink:href="#SVGID_00000070839886386448061500000017705016469649599157_"  style="overflow:visible;"/>
						</clipPath>
						<g style="clip-path:url(#SVGID_00000150822534761394514920000005664002873691812773_);">
							
								<image style="overflow:visible;" width="652" height="150" xlink:href="CA4D0E32.jpg"  transform="matrix(0.24 0 0 0.24 161.28 385.52)">
							</image>
						</g>
					</g>
				</g>
			</g>
		</g>
		
			<path style="clip-path:url(#SVGID_00000104680452511031391580000002908085074784346496_);fill-rule:evenodd;clip-rule:evenodd;fill:#FFFFFF;" d="
			M148.8,205.8c0,0,76.1,41.7,182.7,0.8c0,0-62.6,16-110.2,12.1C170,214.6,148.8,205.8,148.8,205.8z"/>
		
			<path style="clip-path:url(#SVGID_00000104680452511031391580000002908085074784346496_);fill-rule:evenodd;clip-rule:evenodd;fill:#006B47;" d="
			M236,153.5c0,0,4-50.5-6.4-64c-10.1-11.8-19.6-15.1-39.2-11.9v34.3c0,0,16.1-1.5,26.2,3.6c4.4,2.8,11.5,8.9,16,38
			C232.7,154.1,236,153.5,236,153.5z"/>
		
			<path style="clip-path:url(#SVGID_00000104680452511031391580000002908085074784346496_);fill-rule:evenodd;clip-rule:evenodd;fill:#006B47;" d="
			M243.4,153.5c0,0-3.9-33,6.5-46.6c10.1-11.8,19.6-15.1,39.2-11.9l-0.3,34.8c0,0-24.9-1.5-31.3,2.9c-4.4,2.8-10.8,9.7-11.1,20.7
			C246.3,154.1,243.4,153.5,243.4,153.5z"/>
	</g>
	<path class="st16" d="M345.1,369.7c-24,32.6-62.8,54.1-106.4,54.1c-43.7,0-82.4-21.3-106.3-54.1L345.1,369.7z"/>
	<g>
		<defs>
			<path id="SVGID_00000033359338983039138680000016380032238872457110_" d="M345.1,369.7c-24,32.6-62.8,54.1-106.4,54.1
				c-43.7,0-82.4-21.3-106.3-54.1L345.1,369.7z"/>
		</defs>
		<clipPath id="SVGID_00000109021599407030799500000013077582797975230901_">
			<use xlink:href="#SVGID_00000033359338983039138680000016380032238872457110_"  style="overflow:visible;"/>
		</clipPath>
		
			<path style="clip-path:url(#SVGID_00000109021599407030799500000013077582797975230901_);fill-rule:evenodd;clip-rule:evenodd;fill:#FFFFFF;" d="
			M239.1,415.8c-2.7,24.2-13.3-126.2-0.7-246.9C238.3,168.9,252.4,295.1,239.1,415.8z"/>
		
			<path style="clip-path:url(#SVGID_00000109021599407030799500000013077582797975230901_);fill-rule:evenodd;clip-rule:evenodd;fill:#FFFFFF;" d="
			M200.6,171c0,0-108.9,99.5-2.2,238.7c0,0-47.9-81.5-37.7-143.7C171.6,198.9,200.6,171,200.6,171z"/>
		
			<path style="clip-path:url(#SVGID_00000109021599407030799500000013077582797975230901_);fill-rule:evenodd;clip-rule:evenodd;fill:#FFFFFF;" d="
			M277.5,171c0,0,108.9,99.5,2.2,238.7c0,0,47.9-81.5,37.7-143.7C306.5,198.9,277.5,171,277.5,171z"/>
		<g style="clip-path:url(#SVGID_00000109021599407030799500000013077582797975230901_);">
			<defs>
				<path id="SVGID_00000123433075629610140630000009747769385395165864_" d="M120.8,239.4c0,0,107.3,61.3,235.9,1.1
					c0,0-79.9,23.4-142.9,18.3C145.9,253.2,120.8,239.4,120.8,239.4z"/>
			</defs>
			<clipPath id="SVGID_00000038382431225604894020000002225679684987898278_">
				<use xlink:href="#SVGID_00000123433075629610140630000009747769385395165864_"  style="overflow:visible;"/>
			</clipPath>
			<g style="clip-path:url(#SVGID_00000038382431225604894020000002225679684987898278_);">
				<g>
					<defs>
						<rect id="SVGID_00000005254968098179254780000010447772172331731086_" x="120.8" y="239.4" width="235.9" height="61.3"/>
					</defs>
					<clipPath id="SVGID_00000008836632278381716410000016681513621621848710_">
						<use xlink:href="#SVGID_00000005254968098179254780000010447772172331731086_"  style="overflow:visible;"/>
					</clipPath>
					<g style="clip-path:url(#SVGID_00000008836632278381716410000016681513621621848710_);">
						<defs>
							<rect id="SVGID_00000015355035185062747330000010813098028138278555_" x="120.8" y="239.4" width="235.9" height="61.3"/>
						</defs>
						<clipPath id="SVGID_00000021804820876470146300000017896964445061621633_">
							<use xlink:href="#SVGID_00000015355035185062747330000010813098028138278555_"  style="overflow:visible;"/>
						</clipPath>
						<g style="clip-path:url(#SVGID_00000021804820876470146300000017896964445061621633_);">
							
								<image style="overflow:visible;" width="984" height="256" xlink:href="CA4D0E35.jpg"  transform="matrix(0.24 0 0 0.24 120.72 239.36)">
							</image>
						</g>
					</g>
				</g>
			</g>
		</g>
		
			<path style="clip-path:url(#SVGID_00000109021599407030799500000013077582797975230901_);fill-rule:evenodd;clip-rule:evenodd;fill:#FFFFFF;" d="
			M160.2,387.4c0,0,66,36.2,158.3,0.7c0,0-54.2,13.9-95.5,10.5C178.5,395,160.2,387.4,160.2,387.4z"/>
		<g style="clip-path:url(#SVGID_00000109021599407030799500000013077582797975230901_);">
			<defs>
				<path id="SVGID_00000070796672145833472210000014805297401133853313_" d="M147.5,205.2c0,0,77.2,42.3,185.2,0.8
					c0,0-63.4,16.3-111.7,12.3C168.9,214.1,147.5,205.2,147.5,205.2z"/>
			</defs>
			<clipPath id="SVGID_00000180332069667377402640000003097193652735966910_">
				<use xlink:href="#SVGID_00000070796672145833472210000014805297401133853313_"  style="overflow:visible;"/>
			</clipPath>
			<g style="clip-path:url(#SVGID_00000180332069667377402640000003097193652735966910_);">
				<g>
					<defs>
						<rect id="SVGID_00000137833547066206833370000001538299507260797320_" x="147.5" y="205.2" width="185.2" height="42.3"/>
					</defs>
					<clipPath id="SVGID_00000154422578064704996750000010113027011020001162_">
						<use xlink:href="#SVGID_00000137833547066206833370000001538299507260797320_"  style="overflow:visible;"/>
					</clipPath>
					<g style="clip-path:url(#SVGID_00000154422578064704996750000010113027011020001162_);">
						<defs>
							<rect id="SVGID_00000094597653337490186000000002373503921544023714_" x="147.5" y="205.2" width="185.2" height="42.3"/>
						</defs>
						<clipPath id="SVGID_00000011748218076927599680000014649263234132990652_">
							<use xlink:href="#SVGID_00000094597653337490186000000002373503921544023714_"  style="overflow:visible;"/>
						</clipPath>
						<g style="clip-path:url(#SVGID_00000011748218076927599680000014649263234132990652_);">
							
								<image style="overflow:visible;" width="773" height="177" xlink:href="CA4D0E37.jpg"  transform="matrix(0.24 0 0 0.24 147.36 205.04)">
							</image>
						</g>
					</g>
				</g>
			</g>
		</g>
	</g>
	<path class="st8" d="M132.1,368.8"/>
	<path class="st8" d="M344.9,368.8"/>
</g>
<g>
	<path d="M221.9,342.9c1.1-0.2,2.7-0.4,4.9-0.4c2.3,0,4.1,0.5,5.2,1.4c1,0.9,1.7,2.2,1.7,3.9c0,1.7-0.5,3-1.5,4
		c-1.3,1.3-3.3,1.9-5.5,1.9c-0.6,0-1.1,0-1.6-0.1v6.6h-3.2V342.9z M225.1,351c0.4,0.1,0.9,0.1,1.6,0.1c2.4,0,3.8-1.2,3.8-3.2
		c0-2-1.4-3-3.6-3c-0.9,0-1.5,0.1-1.8,0.2V351z"/>
	<path d="M246.2,352.4h-6.6v5.1h7.4v2.6h-10.6v-17.5h10.2v2.6h-7v4.5h6.6V352.4z"/>
	<path d="M249.8,342.9c1.2-0.2,3-0.4,4.8-0.4c2.5,0,4.2,0.4,5.4,1.4c1,0.8,1.5,2,1.5,3.5c0,2.3-1.5,3.8-3.2,4.4v0.1
		c1.2,0.5,2,1.7,2.4,3.4c0.5,2.2,1,4.2,1.4,4.9h-3.3c-0.3-0.5-0.7-2-1.2-4.1c-0.5-2.3-1.3-3-3.1-3.1H253v7.2h-3.2V342.9z M253,350.6
		h1.9c2.2,0,3.5-1.1,3.5-2.9c0-1.9-1.4-2.8-3.4-2.8c-1,0-1.7,0.1-2,0.2V350.6z"/>
	<path d="M267.7,342.6v10.2c0,3.4,1.4,5,3.6,5c2.3,0,3.7-1.6,3.7-5v-10.2h3.2v10c0,5.4-2.8,7.8-7,7.8c-4.1,0-6.7-2.3-6.7-7.8v-10
		H267.7z M275.4,338.6l-3.2,3.1h-2.6l2.3-3.1H275.4z"/>
</g>
</svg>
