<?xml version="1.0" encoding="utf-8"?>
<!-- Generator: Adobe Illustrator 24.3.0, SVG Export Plug-In . SVG Version: 6.00 Build 0)  -->
<svg version="1.1" id="Capa_1" xmlns="http://www.w3.org/2000/svg" xmlns:xlink="http://www.w3.org/1999/xlink" x="0px" y="0px"
	 viewBox="0 0 370.2 404.9" style="enable-background:new 0 0 370.2 404.9;" xml:space="preserve">
<style type="text/css">
	.st0{fill:#71A850;}
	.st1{fill:#005640;}
	.st2{fill:#10312B;}
	.st3{fill:#D7282F;}
</style>
<g>
	<g>
		<path class="st0" d="M352.8,125.3l0-62.1c0,0-62.9-5.7-124.2,34.9c0,0,33.8,13.3,49.7,33.9C278.3,131.9,327.1,110.4,352.8,125.3z"
			/>
		<path class="st0" d="M15.9,126.8l0-62.1c0,0,81.1-4.5,120.8,32.8c0,0-36.9,16.8-52.9,37.4C83.8,134.9,41.5,111.9,15.9,126.8z"/>
		<path class="st1" d="M352.8,121.9c0,0-45.5-11.6-74.5,10c0,0,31.5,31.4,38.9,79.5l35.6,0L352.8,121.9z"/>
		<path class="st1" d="M15.9,122.1c0,0,38.9-11.6,67.9,9.9c0,0-26.5,31.5-33.9,79.5l-33.9,0L15.9,122.1z"/>
		<path class="st1" d="M232.7,58l0-35.9c0,0-40.8-11.6-45.8,35.9l0,23.2h2.6C189.5,81.3,188,51.1,232.7,58z"/>
		<path class="st1" d="M178.7,81.3c0,0,5.8-51.9-9.6-67.5c0,0-12-13.4-35.8-10.1l0,35.2c0,0,37.2-4.4,40.8,25.6
			c0,0,1.7,13.1,1.7,16.8L178.7,81.3z"/>
		<g>
			<g>
				<path class="st2" d="M11.5,278.1v-45.7h9.2v18h18.1v-18h9.2v45.7h-9.2v-20H20.7v20H11.5z"/>
				<path class="st2" d="M53.4,255.5c0-4.7,0.7-8.6,2.1-11.7c1-2.3,2.5-4.4,4.3-6.3c1.8-1.8,3.8-3.2,5.9-4.1
					c2.8-1.2,6.1-1.8,9.9-1.8c6.7,0,12.1,2.1,16.2,6.3c4,4.2,6.1,10,6.1,17.4c0,7.4-2,13.2-6,17.3c-4,4.2-9.4,6.3-16.1,6.3
					c-6.8,0-12.2-2.1-16.2-6.2C55.4,268.5,53.4,262.8,53.4,255.5z M62.9,255.2c0,5.2,1.2,9.1,3.6,11.8c2.4,2.7,5.4,4,9.1,4
					c3.7,0,6.7-1.3,9.1-4c2.4-2.7,3.5-6.6,3.5-11.9c0-5.2-1.1-9.1-3.4-11.7c-2.3-2.6-5.3-3.9-9.2-3.9c-3.8,0-6.9,1.3-9.2,3.9
					C64,246,62.9,250,62.9,255.2z"/>
				<path class="st2" d="M102.6,278.1v-45.7H122c4.9,0,8.4,0.4,10.6,1.2c2.2,0.8,4,2.3,5.3,4.4c1.3,2.1,2,4.5,2,7.2
					c0,3.4-1,6.3-3,8.5c-2,2.2-5,3.6-9,4.2c2,1.2,3.6,2.4,4.9,3.8c1.3,1.4,3.1,3.9,5.3,7.4l5.6,8.9h-11l-6.7-9.9
					c-2.4-3.6-4-5.8-4.9-6.7c-0.9-0.9-1.8-1.6-2.8-1.9c-1-0.3-2.5-0.5-4.6-0.5h-1.9v19.1H102.6z M111.8,251.7h6.8
					c4.4,0,7.2-0.2,8.3-0.6c1.1-0.4,2-1,2.6-1.9c0.6-0.9,0.9-2.1,0.9-3.4c0-1.5-0.4-2.8-1.2-3.7c-0.8-0.9-2-1.5-3.5-1.8
					c-0.7-0.1-3-0.2-6.7-0.2h-7.2V251.7z"/>
				<path class="st2" d="M156.6,278.1v-38H143v-7.7h36.3v7.7h-13.5v38H156.6z"/>
				<path class="st2" d="M182.7,278.1v-45.7h9.2v45.7H182.7z"/>
				<path class="st2" d="M198.4,278.1v-45.7h31.3v7.7h-22.1v10.8h19.1v7.7h-19.1v19.4H198.4z"/>
				<path class="st2" d="M235,278.1v-45.7h19.4c4.9,0,8.4,0.4,10.6,1.2c2.2,0.8,4,2.3,5.3,4.4c1.3,2.1,2,4.5,2,7.2
					c0,3.4-1,6.3-3,8.5c-2,2.2-5,3.6-9,4.2c2,1.2,3.6,2.4,4.9,3.8c1.3,1.4,3.1,3.9,5.3,7.4l5.6,8.9h-11l-6.7-9.9
					c-2.4-3.6-4-5.8-4.9-6.7c-0.9-0.9-1.8-1.6-2.8-1.9c-1-0.3-2.5-0.5-4.6-0.5h-1.9v19.1H235z M244.2,251.7h6.8
					c4.4,0,7.2-0.2,8.3-0.6c1.1-0.4,2-1,2.6-1.9c0.6-0.9,0.9-2.1,0.9-3.4c0-1.5-0.4-2.8-1.2-3.7c-0.8-0.9-2-1.5-3.5-1.8
					c-0.7-0.1-3-0.2-6.7-0.2h-7.2V251.7z"/>
				<path class="st2" d="M278.6,232.4h9.2v24.8c0,3.9,0.1,6.5,0.3,7.6c0.4,1.9,1.3,3.4,2.8,4.5c1.5,1.1,3.5,1.7,6.1,1.7
					c2.6,0,4.6-0.5,5.9-1.6c1.3-1.1,2.1-2.4,2.4-3.9c0.3-1.6,0.4-4.1,0.4-7.8v-25.3h9.2v24c0,5.5-0.2,9.4-0.7,11.6
					c-0.5,2.3-1.4,4.2-2.8,5.7c-1.3,1.6-3.1,2.8-5.4,3.7c-2.2,0.9-5.2,1.4-8.8,1.4c-4.4,0-7.7-0.5-9.9-1.5c-2.3-1-4-2.3-5.3-3.9
					c-1.3-1.6-2.2-3.3-2.6-5.1c-0.6-2.6-0.9-6.5-0.9-11.6V232.4z"/>
				<path class="st2" d="M332.7,278.1v-38h-13.6v-7.7h36.3v7.7H342v38H332.7z"/>
			</g>
		</g>
		<g>
			<path class="st3" d="M178.9,323.4l-1.2-31l-56.5,0c2.7,7.6,10.6,23.9,10.6,23.9C139.2,322.7,178.9,323.4,178.9,323.4z"/>
			<path class="st3" d="M228.2,319c8.4-3.9,14.2-20.1,16.2-26.6l-57.6,0l-2.3,30.9C186.9,324.2,228.2,319,228.2,319z"/>
			<path class="st3" d="M235.5,317.4l23.4-5l-23.6,7.5l-8.8,11l4.4-9.2c-6.6,3.2-46.5,5.3-46.5,5.3l-3.2,15.5l-2.6-15.5
				c-2.9,0.6-43.3-3.4-43.3-3.4l2.6,6.2L131,321H129c-1.8-0.3-12.8-4.5-19.2-7c-2-0.5-3.7-1.2-4.5-1.8c0,0,1.9,0.7,4.5,1.8
				c7.1,1.9,18.9,3.2,18.9,3.2c-0.9-1.5-10.4-18.1-14.2-24.7l-43.3,0C96,327,136.3,349.6,182,349.5c45.6,0,86-22.6,110.7-57.2
				l-41.5,0C246.8,300,235.5,317.4,235.5,317.4z"/>
			<path class="st3" d="M186.3,198.7l0,12.7l78.2,0c-0.1-11.8-2.6-23.3-2.6-23.3C244.5,195.8,186.3,198.7,186.3,198.7z"/>
			<path class="st3" d="M248,146c0,0-34.3,9.5-61.6,10.4l0,37.5c0,0,62.1-3.3,74.4-10.9C260.7,183,252.2,149.4,248,146z"/>
			<path class="st3" d="M178.2,156.6c-27.3-0.8-60.4-9.2-60.4-9.2c-3.9,3.2-11.2,38.2-11.2,38.2c10.2,5.5,70.3,8,70.3,8L178.2,156.6
				z"/>
			<path class="st3" d="M105.1,190.3c-2.1,3-3.2,21.1-3.2,21.1l74.9,0l0-12.7C116.4,196.7,105.1,190.3,105.1,190.3z"/>
			<path class="st3" d="M97,185.8c-4.4-0.6-16.4-6.1-23.3-9.4c-2.5-0.9-4.4-1.8-5.1-2.5c0,0,2.1,1,5.1,2.5
				c8.8,3.2,24.6,6.8,24.6,6.8c2.8-9.3,14.4-37.9,14.4-37.9c-6.6-1.8-12.8-4.4-15.1-5.8c-0.8-0.3-1.5-0.7-1.8-1.1
				c0,0,0.6,0.5,1.8,1.1c4.8,2.1,16.7,3.3,16.7,3.3c6.3-14.1,17.2-27.6,22.4-33.7c1-1.2,2-2.4,3-3.3c0,0-1.1,1.2-3,3.3
				c-9.2,11.6-17.7,34.8-17.7,34.8c13,5.2,59.3,6.7,59.3,6.7l5-52.4l0.1,1.2l2.6,51.2c25.4,0.7,61.3-7.1,61.3-7.1
				c-3.3-10.3-23.7-38.9-23.7-38.9c10.8,8,27.3,37.8,27.3,37.8c4.1,0.8,17.7-2.5,17.7-2.5c-1.1,1.4-15.4,5-15.4,5
				c6.5,9.7,13.5,36.4,13.5,36.4c5,0.3,30.6-7.5,30.6-7.5c-1.7,2.7-28.7,12.2-28.7,12.2c0.7,2.7,2.9,21,3.3,25.4l45.2,0
				C309.8,142.9,252,89.7,181.9,89.7c-70.2,0-127.9,53.3-135.3,121.7l47,0C92.2,209.5,97,185.8,97,185.8z"/>
		</g>
	</g>
</g>
<g>
	<path class="st2" d="M6.4,377.1h2.1V392H6.4V377.1z M7.6,390.1h4c1.1,0,1.8-0.2,2.3-0.6s0.7-1,0.7-1.7v0c0-0.5-0.1-0.9-0.3-1.3
		c-0.2-0.4-0.4-0.6-0.8-0.8c-0.4-0.2-0.9-0.3-1.4-0.3H7.6v-1.9h4.6c0.8,0,1.4-0.2,1.7-0.5c0.4-0.4,0.6-0.9,0.6-1.6
		c0-0.7-0.2-1.3-0.7-1.7s-1.1-0.6-2-0.6H7.6v-1.9h4.6c1,0,1.8,0.2,2.4,0.5s1.1,0.8,1.5,1.4s0.5,1.3,0.5,2.2c0,0.5-0.1,1-0.3,1.4
		c-0.2,0.4-0.5,0.8-0.9,1.1c-0.4,0.3-0.9,0.5-1.5,0.6c0.6,0.1,1.1,0.3,1.6,0.6c0.4,0.3,0.8,0.8,1,1.3c0.2,0.5,0.3,1.1,0.3,1.6v0
		c0,0.8-0.2,1.5-0.5,2.1s-0.9,1.1-1.5,1.4s-1.4,0.5-2.3,0.5H7.6V390.1z"/>
	<path class="st2" d="M20,377.1h2.1V392H20V377.1z M21,377.1h8.6v2H21V377.1z M21,383.6h7.4v2H21V383.6z M21,390.1h8.6v2H21V390.1z"
		/>
	<path class="st2" d="M32.5,377.1h2.1V392h-2.1V377.1z M33.4,383.8h5.1c0.4,0,0.7-0.1,1.1-0.3s0.5-0.5,0.7-0.8
		c0.2-0.4,0.3-0.8,0.3-1.2c0-0.5-0.1-0.9-0.3-1.2c-0.2-0.4-0.4-0.6-0.7-0.8s-0.7-0.3-1.1-0.3h-5.1v-2h5c0.9,0,1.6,0.2,2.3,0.5
		c0.7,0.4,1.2,0.9,1.5,1.5c0.4,0.7,0.5,1.4,0.5,2.3c0,0.9-0.2,1.6-0.5,2.3c-0.4,0.7-0.9,1.2-1.5,1.5c-0.7,0.4-1.4,0.5-2.3,0.5h-5
		V383.8z M37.5,385.3l2.1-0.5l3.8,7.2h-2.5L37.5,385.3z"/>
	<path class="st2" d="M46.2,377.1h2.1V392h-2.1V377.1z M47.1,383.8h5.1c0.4,0,0.7-0.1,1.1-0.3s0.5-0.5,0.7-0.8
		c0.2-0.4,0.3-0.8,0.3-1.2c0-0.5-0.1-0.9-0.3-1.2c-0.2-0.4-0.4-0.6-0.7-0.8c-0.3-0.2-0.7-0.3-1.1-0.3h-5.1v-2h5
		c0.9,0,1.6,0.2,2.3,0.5c0.7,0.4,1.2,0.9,1.5,1.5c0.4,0.7,0.5,1.4,0.5,2.3c0,0.9-0.2,1.6-0.5,2.3c-0.4,0.7-0.9,1.2-1.5,1.5
		c-0.7,0.4-1.4,0.5-2.3,0.5h-5V383.8z M51.2,385.3l2.1-0.5l3.8,7.2h-2.5L51.2,385.3z"/>
	<path class="st2" d="M62,392h-2.1v-14.9H62V392z"/>
	<path class="st2" d="M65.7,377.1h2.1V392h-2.1V377.1z M66.7,377.1h8.6v2h-8.6V377.1z M66.7,383.6h7.4v2h-7.4V383.6z M66.7,390.1
		h8.6v2h-8.6V390.1z"/>
	<path class="st2" d="M80.7,392c-0.6-0.1-1.2-0.3-1.8-0.6c-0.6-0.3-1.1-0.6-1.6-1l1.3-1.6c0.6,0.5,1.2,0.9,1.9,1.1s1.4,0.4,2.2,0.4
		c1.1,0,1.9-0.2,2.5-0.6c0.6-0.4,0.9-1,0.9-1.7v0c0-0.5-0.1-0.9-0.4-1.2c-0.3-0.3-0.6-0.5-1-0.7c-0.4-0.1-1-0.3-1.7-0.4
		c0,0,0,0-0.1,0c0,0,0,0-0.1,0l-0.2,0c-1-0.2-1.8-0.4-2.4-0.6c-0.6-0.2-1.2-0.6-1.6-1.2c-0.4-0.6-0.7-1.4-0.7-2.4v0
		c0-0.9,0.2-1.7,0.6-2.4c0.4-0.7,1-1.1,1.8-1.5c0.8-0.3,1.7-0.5,2.9-0.5c0.5,0,1.1,0.1,1.6,0.2c0.5,0.1,1,0.3,1.5,0.5
		c0.5,0.2,1,0.5,1.5,0.9l-1.2,1.7c-0.6-0.4-1.1-0.7-1.7-0.9c-0.6-0.2-1.1-0.3-1.7-0.3c-1,0-1.8,0.2-2.4,0.6c-0.6,0.4-0.8,1-0.8,1.7
		v0c0,0.5,0.1,0.9,0.4,1.2c0.3,0.3,0.7,0.5,1.1,0.7c0.4,0.1,1,0.3,1.8,0.4c0,0,0.1,0,0.1,0c0,0,0,0,0.1,0c0,0,0.1,0,0.1,0
		c0,0,0.1,0,0.1,0c0.9,0.2,1.7,0.4,2.3,0.7c0.6,0.3,1.1,0.7,1.5,1.2c0.4,0.6,0.6,1.3,0.6,2.3v0c0,0.9-0.2,1.7-0.6,2.3
		c-0.4,0.6-1.1,1.1-1.9,1.5c-0.8,0.3-1.8,0.5-3,0.5C82,392.2,81.3,392.1,80.7,392z"/>
	<path class="st2" d="M96.8,377.1h2.1V392h-2.1V377.1z M97.8,377.1h8.4v2h-8.4V377.1z M97.8,383.8h7.2v2h-7.2V383.8z"/>
	<path class="st2" d="M110.7,391.5c-0.8-0.5-1.4-1.1-1.8-1.9c-0.4-0.8-0.7-1.8-0.7-2.9v-4.2c0-1.1,0.2-2.1,0.7-2.9
		c0.4-0.8,1-1.5,1.8-1.9c0.8-0.5,1.7-0.7,2.7-0.7s2,0.2,2.7,0.7c0.8,0.5,1.4,1.1,1.8,1.9c0.4,0.8,0.7,1.8,0.7,2.9v4.2
		c0,1.1-0.2,2.1-0.7,2.9c-0.4,0.8-1,1.5-1.8,1.9c-0.8,0.5-1.7,0.7-2.7,0.7S111.5,392,110.7,391.5z M115.1,389.7
		c0.5-0.3,0.8-0.7,1.1-1.2c0.3-0.5,0.4-1.1,0.4-1.8v-4.4c0-0.7-0.1-1.3-0.4-1.8c-0.3-0.5-0.6-0.9-1.1-1.2c-0.5-0.3-1-0.4-1.6-0.4
		s-1.2,0.1-1.6,0.4c-0.5,0.3-0.8,0.7-1.1,1.2c-0.3,0.5-0.4,1.1-0.4,1.8v4.4c0,0.7,0.1,1.3,0.4,1.8c0.3,0.5,0.6,0.9,1.1,1.2
		c0.5,0.3,1,0.4,1.6,0.4S114.6,390,115.1,389.7z"/>
	<path class="st2" d="M121.9,377.1h2.1V392h-2.1V377.1z M122.8,383.8h5.1c0.4,0,0.7-0.1,1.1-0.3s0.5-0.5,0.7-0.8
		c0.2-0.4,0.3-0.8,0.3-1.2c0-0.5-0.1-0.9-0.3-1.2c-0.2-0.4-0.4-0.6-0.7-0.8c-0.3-0.2-0.7-0.3-1.1-0.3h-5.1v-2h5
		c0.9,0,1.6,0.2,2.3,0.5c0.7,0.4,1.2,0.9,1.5,1.5c0.4,0.7,0.5,1.4,0.5,2.3c0,0.9-0.2,1.6-0.5,2.3c-0.4,0.7-0.9,1.2-1.5,1.5
		c-0.7,0.4-1.4,0.5-2.3,0.5h-5V383.8z M126.9,385.3l2.1-0.5l3.8,7.2h-2.5L126.9,385.3z"/>
	<path class="st2" d="M139.2,377.1h10.5v2h-10.5V377.1z M143.4,378.4h2.1V392h-2.1V378.4z"/>
	<path class="st2" d="M151.7,377.1h2.1V392h-2.1V377.1z M153,383.7h8.3v2H153V383.7z M160.2,377.1h2.1V392h-2.1V377.1z"/>
	<path class="st2" d="M166,377.1h2.1V392H166V377.1z M167,377.1h8.6v2H167V377.1z M167,383.6h7.4v2H167V383.6z M167,390.1h8.6v2H167
		V390.1z"/>
	<path class="st2" d="M190.5,377.1h1.4l3.1,11.7l2.6-11.7h2.2l-3.6,14.9H194l-2.7-10.4l-2.9,10.4h-2.1l-3.6-14.9h2.2l2.6,11.7
		L190.5,377.1z"/>
	<path class="st2" d="M203.9,391.5c-0.8-0.5-1.4-1.1-1.8-1.9c-0.4-0.8-0.7-1.8-0.7-2.9v-4.2c0-1.1,0.2-2.1,0.7-2.9
		c0.4-0.8,1-1.5,1.8-1.9c0.8-0.5,1.7-0.7,2.7-0.7s2,0.2,2.7,0.7c0.8,0.5,1.4,1.1,1.8,1.9c0.4,0.8,0.7,1.8,0.7,2.9v4.2
		c0,1.1-0.2,2.1-0.7,2.9c-0.4,0.8-1,1.5-1.8,1.9c-0.8,0.5-1.7,0.7-2.7,0.7S204.7,392,203.9,391.5z M208.3,389.7
		c0.5-0.3,0.8-0.7,1.1-1.2c0.3-0.5,0.4-1.1,0.4-1.8v-4.4c0-0.7-0.1-1.3-0.4-1.8c-0.3-0.5-0.6-0.9-1.1-1.2c-0.5-0.3-1-0.4-1.6-0.4
		s-1.2,0.1-1.6,0.4c-0.5,0.3-0.8,0.7-1.1,1.2c-0.3,0.5-0.4,1.1-0.4,1.8v4.4c0,0.7,0.1,1.3,0.4,1.8c0.3,0.5,0.6,0.9,1.1,1.2
		c0.5,0.3,1,0.4,1.6,0.4S207.9,390,208.3,389.7z"/>
	<path class="st2" d="M215.1,377.1h2.1V392h-2.1V377.1z M216,383.8h5.1c0.4,0,0.7-0.1,1.1-0.3s0.5-0.5,0.7-0.8
		c0.2-0.4,0.3-0.8,0.3-1.2c0-0.5-0.1-0.9-0.3-1.2c-0.2-0.4-0.4-0.6-0.7-0.8c-0.3-0.2-0.7-0.3-1.1-0.3H216v-2h5
		c0.9,0,1.6,0.2,2.3,0.5c0.7,0.4,1.2,0.9,1.5,1.5c0.4,0.7,0.5,1.4,0.5,2.3c0,0.9-0.2,1.6-0.5,2.3c-0.4,0.7-0.9,1.2-1.5,1.5
		c-0.7,0.4-1.4,0.5-2.3,0.5h-5V383.8z M220.1,385.3l2.1-0.5l3.8,7.2h-2.5L220.1,385.3z"/>
	<path class="st2" d="M228.8,377.1h2.1V392h-2.1V377.1z M229.8,390.1h8.5v2h-8.5V390.1z"/>
	<path class="st2" d="M240.8,377.1h2.1V392h-2.1V377.1z M242.3,390.1h3.4c1.1,0,2-0.3,2.6-0.9c0.6-0.6,0.9-1.4,0.9-2.4v-4.4
		c0-1-0.3-1.8-0.9-2.4c-0.6-0.6-1.5-0.9-2.6-0.9h-3.4v-2h3.3c1.2,0,2.2,0.2,3.1,0.6s1.5,1,1.9,1.8c0.4,0.8,0.7,1.8,0.7,2.9v4.2
		c0,1.1-0.2,2.1-0.7,2.9c-0.4,0.8-1.1,1.4-1.9,1.8c-0.9,0.4-1.9,0.6-3.1,0.6h-3.3V390.1z"/>
	<path class="st2" d="M260.3,377.1h2.1V392h-2.1V377.1z M261.3,377.1h8.6v2h-8.6V377.1z M261.3,383.6h7.4v2h-7.4V383.6z
		 M261.3,390.1h8.6v2h-8.6V390.1z"/>
	<path class="st2" d="M271.3,377.1h2.3l3.6,11.7l3.6-11.7h2.3l-4.9,14.9h-2L271.3,377.1z"/>
	<path class="st2" d="M285.2,377.1h2.1V392h-2.1V377.1z M286.3,377.1h8.6v2h-8.6V377.1z M286.3,383.6h7.4v2h-7.4V383.6z
		 M286.3,390.1h8.6v2h-8.6V390.1z"/>
	<path class="st2" d="M297.8,377.1h2.1V392h-2.1V377.1z M298.7,383.8h5.1c0.4,0,0.7-0.1,1.1-0.3s0.5-0.5,0.7-0.8
		c0.2-0.4,0.3-0.8,0.3-1.2c0-0.5-0.1-0.9-0.3-1.2c-0.2-0.4-0.4-0.6-0.7-0.8c-0.3-0.2-0.7-0.3-1.1-0.3h-5.1v-2h5
		c0.9,0,1.6,0.2,2.3,0.5c0.7,0.4,1.2,0.9,1.5,1.5c0.4,0.7,0.5,1.4,0.5,2.3c0,0.9-0.2,1.6-0.5,2.3c-0.4,0.7-0.9,1.2-1.5,1.5
		c-0.7,0.4-1.4,0.5-2.3,0.5h-5V383.8z M302.8,385.3l2.1-0.5l3.8,7.2h-2.5L302.8,385.3z"/>
	<path class="st2" d="M315.9,386v6.1h-2.1V386l-4.5-8.8h2.3l3.3,6.7l3.3-6.7h2.3L315.9,386z"/>
	<path class="st2" d="M327.6,377.1h2.1V392h-2.1V377.1z M329,390.1h3.4c1.1,0,2-0.3,2.6-0.9c0.6-0.6,0.9-1.4,0.9-2.4v-4.4
		c0-1-0.3-1.8-0.9-2.4c-0.6-0.6-1.5-0.9-2.6-0.9H329v-2h3.3c1.2,0,2.2,0.2,3.1,0.6s1.5,1,1.9,1.8c0.4,0.8,0.7,1.8,0.7,2.9v4.2
		c0,1.1-0.2,2.1-0.7,2.9c-0.4,0.8-1.1,1.4-1.9,1.8c-0.9,0.4-1.9,0.6-3.1,0.6H329V390.1z"/>
	<path class="st2" d="M344.8,377.1h1.8l5.5,14.9h-2.3l-4.1-12l-4.1,12h-2.3L344.8,377.1z M341.8,386.8h7.8v2h-7.8V386.8z"/>
	<path class="st2" d="M357.9,386v6.1h-2.1V386l-4.5-8.8h2.3l3.3,6.7l3.3-6.7h2.3L357.9,386z"/>
</g>
<rect x="6.4" y="397.1" class="st2" width="356" height="2.3"/>
<rect x="6.4" y="369.8" class="st2" width="356" height="2.3"/>
</svg>
