<?xml version="1.0" encoding="utf-8"?>
<!-- Generator: Adobe Illustrator 25.4.1, SVG Export Plug-In . SVG Version: 6.00 Build 0)  -->
<svg version="1.1" id="Capa_1" xmlns="http://www.w3.org/2000/svg" xmlns:xlink="http://www.w3.org/1999/xlink" x="0px" y="0px"
	 viewBox="0 0 611 180" style="enable-background:new 0 0 611 180;" xml:space="preserve">
<style type="text/css">
	.st0{fill:#F1B92C;}
</style>
<g>
	<path class="st0" d="M209.6,87.7c-4.6-1.1-8.5-2.6-11.4-4.4l6.4-14.5c2.8,1.6,6,2.9,9.5,3.9c3.5,1,6.8,1.5,10,1.5
		c2.8,0,4.7-0.3,5.9-0.8c1.2-0.5,1.8-1.3,1.8-2.4c0-1.2-0.8-2.2-2.3-2.8c-1.5-0.6-4.1-1.3-7.6-2c-4.6-1-8.4-2-11.4-3.1
		s-5.7-2.9-7.9-5.4c-2.3-2.5-3.4-5.9-3.4-10.2c0-3.7,1-7.1,3.1-10.1c2.1-3,5.2-5.4,9.3-7.2c4.1-1.7,9.2-2.6,15.1-2.6
		c4.1,0,8,0.4,11.9,1.3c3.9,0.9,7.4,2.2,10.3,3.8l-6,14.4c-5.8-2.9-11.3-4.4-16.5-4.4c-5.1,0-7.7,1.2-7.7,3.7c0,1.2,0.8,2.1,2.3,2.7
		c1.5,0.6,4,1.2,7.5,1.9c4.5,0.8,8.3,1.8,11.4,2.9c3.1,1.1,5.8,2.9,8.1,5.4c2.3,2.5,3.4,5.9,3.4,10.1c0,3.7-1,7.1-3.1,10.1
		c-2.1,3-5.2,5.4-9.3,7.2s-9.2,2.7-15.1,2.7C219,89.3,214.3,88.8,209.6,87.7z"/>
	<path class="st0" d="M267.4,85.7c-4.1-2.1-7.3-4.9-9.6-8.5c-2.3-3.6-3.5-7.8-3.5-12.4c0-4.6,1.2-8.7,3.5-12.4
		c2.3-3.6,5.5-6.5,9.6-8.5c4.1-2,8.7-3,13.8-3c5.2,0,9.8,1,13.9,3c4.1,2,7.3,4.9,9.5,8.5c2.3,3.6,3.4,7.8,3.4,12.4
		c0,4.6-1.1,8.7-3.4,12.4c-2.3,3.6-5.5,6.5-9.5,8.5c-4.1,2.1-8.7,3.1-13.9,3.1C276.1,88.8,271.5,87.8,267.4,85.7z M286.6,71.5
		c1.4-1.6,2.1-3.8,2.1-6.7s-0.7-5.1-2.1-6.7c-1.4-1.6-3.2-2.4-5.4-2.4c-2.2,0-4,0.8-5.4,2.4c-1.4,1.6-2.1,3.8-2.1,6.7
		c0,2.9,0.7,5.1,2.1,6.7c1.4,1.6,3.2,2.4,5.4,2.4C283.4,73.9,285.2,73.1,286.6,71.5z"/>
	<path class="st0" d="M334.6,44.3h10v13.9h-9.5V88h-19.1V58.2h-6.3V44.3h6.3v-0.3c0-6,1.8-10.8,5.4-14.3c3.6-3.5,8.7-5.3,15.2-5.3
		c2.1,0,4.2,0.2,6.2,0.6c2,0.4,3.7,1,5.1,1.7L343.5,40c-1.6-0.7-3-1.1-4.3-1.1c-1.4,0-2.5,0.4-3.3,1.3
		C335,41.1,334.6,42.4,334.6,44.3L334.6,44.3L334.6,44.3z"/>
	<path class="st0" d="M384,86.4c-2.9,1.6-6.8,2.4-11.7,2.4c-6.5,0-11.5-1.6-14.9-4.7c-3.5-3.1-5.2-7.8-5.2-14.1V58.2h-6.3V44.3h6.3
		V31.4h19.1v12.9h9.5v13.9h-9.5v11.7c0,1.4,0.4,2.5,1.1,3.3c0.7,0.8,1.7,1.2,2.9,1.2c1.6,0,3.1-0.4,4.3-1.3L384,86.4z"/>
	<path class="st0" d="M466.8,41.8l-16,46.2h-18.6l-7-21.4L418,88h-18.6l-16-46.2h18.1l7.9,24.4l8.3-24.4h16.2l8,24.7l8.3-24.7H466.8
		z"/>
	<path class="st0" d="M508.2,46.4c4.3,3.6,6.4,9.2,6.4,16.8V88h-17.7v-6.1c-2.2,4.6-6.6,6.9-13.1,6.9c-3.7,0-6.8-0.6-9.3-1.9
		c-2.6-1.3-4.5-3-5.8-5.2c-1.3-2.2-2-4.6-2-7.3c0-4.6,1.7-8,5.2-10.4c3.5-2.4,8.8-3.5,15.9-3.5h7.7c-0.6-3.6-3.5-5.4-8.7-5.4
		c-2.1,0-4.2,0.3-6.3,1c-2.1,0.6-4,1.5-5.5,2.7l-6.1-12.6c2.6-1.6,5.8-2.9,9.6-3.8c3.7-0.9,7.5-1.4,11.2-1.4
		C497.7,40.9,503.9,42.8,508.2,46.4z M493.2,76.2c1.1-0.7,1.9-1.8,2.4-3.3v-3.2h-4.7c-3.9,0-5.8,1.3-5.8,3.9c0,1.1,0.4,2,1.2,2.7
		c0.8,0.7,1.9,1.1,3.3,1.1C490.9,77.3,492.1,77,493.2,76.2z"/>
	<path class="st0" d="M556,40.9v16.9c-1.5-0.2-2.9-0.3-4.2-0.3c-6.5,0-9.8,3.3-9.8,10V88h-19.1V41.8H541v5
		C544.4,42.9,549.4,40.9,556,40.9z"/>
	<path class="st0" d="M609.9,69.3h-32.1c0.7,1.7,1.8,3.1,3.4,4c1.6,0.9,3.5,1.4,5.9,1.4c2,0,3.7-0.3,5.1-0.8
		c1.4-0.5,2.9-1.4,4.5-2.6l10,10c-4.5,5-11.2,7.4-20.2,7.4c-5.6,0-10.5-1-14.7-3.1c-4.2-2.1-7.5-4.9-9.8-8.6
		c-2.3-3.7-3.5-7.8-3.5-12.3c0-4.6,1.1-8.7,3.4-12.4c2.3-3.6,5.4-6.5,9.4-8.5s8.4-3,13.4-3c4.7,0,8.9,0.9,12.8,2.8s6.9,4.6,9.2,8.2
		c2.3,3.6,3.4,7.9,3.4,12.9C610.2,65.1,610.1,66.6,609.9,69.3z M580.1,55.5c-1.3,1.1-2.1,2.6-2.5,4.6h14.9c-0.4-1.9-1.2-3.4-2.5-4.5
		c-1.3-1.1-2.9-1.6-4.9-1.6C583,53.9,581.3,54.5,580.1,55.5z"/>
</g>
<g>
	<path class="st0" d="M211.7,108.9v25.2h31.5v3.9h-31.5v26.1h-4.3V105h39.5v3.9H211.7z"/>
	<path class="st0" d="M284.8,123.9c2.9,2.8,4.4,6.9,4.4,12.3v27.9h-4.1v-7.9c-1.4,2.6-3.5,4.6-6.2,6c-2.7,1.4-5.9,2.2-9.7,2.2
		c-4.9,0-8.8-1.2-11.6-3.5c-2.8-2.3-4.3-5.3-4.3-9.1c0-3.7,1.3-6.6,3.9-8.9c2.6-2.3,6.8-3.4,12.5-3.4H285V136c0-4.1-1.1-7.2-3.3-9.4
		c-2.2-2.1-5.5-3.2-9.8-3.2c-2.9,0-5.7,0.5-8.4,1.5c-2.7,1-4.9,2.4-6.8,4.1l-2.1-3c2.2-2,4.8-3.5,7.9-4.6c3.1-1.1,6.3-1.6,9.7-1.6
		C277.7,119.7,281.9,121.1,284.8,123.9z M279.2,158.5c2.6-1.7,4.5-4.1,5.8-7.3v-8.3h-15c-4.3,0-7.5,0.8-9.4,2.4
		c-1.9,1.6-2.9,3.7-2.9,6.5c0,2.9,1.1,5.1,3.2,6.8c2.1,1.7,5.1,2.5,9,2.5C273.5,161,276.6,160.1,279.2,158.5z"/>
	<path class="st0" d="M312.6,161.6c-3.4-1.9-6-4.6-7.9-8c-1.9-3.4-2.9-7.2-2.9-11.5c0-4.3,1-8.2,2.9-11.6c1.9-3.4,4.6-6,7.9-7.9
		c3.4-1.9,7.2-2.8,11.5-2.8c3.5,0,6.8,0.7,9.7,2.1c2.9,1.4,5.2,3.4,7,6l-3.1,2.3c-1.6-2.2-3.5-3.8-5.9-4.9s-4.9-1.6-7.7-1.6
		c-3.4,0-6.5,0.8-9.2,2.3c-2.7,1.5-4.9,3.7-6.4,6.5c-1.5,2.8-2.3,6.1-2.3,9.7c0,3.7,0.8,6.9,2.3,9.7c1.5,2.8,3.7,5,6.4,6.5
		c2.7,1.5,5.8,2.3,9.2,2.3c2.8,0,5.4-0.5,7.7-1.6s4.3-2.7,5.9-4.9l3.1,2.3c-1.8,2.6-4.2,4.7-7,6c-2.9,1.4-6.1,2.1-9.7,2.1
		C319.8,164.5,316,163.5,312.6,161.6z"/>
	<path class="st0" d="M375.8,161.3c-1.1,1-2.4,1.8-4,2.3c-1.6,0.5-3.3,0.8-5,0.8c-3.8,0-6.8-1.1-8.9-3.2c-2.1-2.1-3.1-5.1-3.1-8.8
		v-28.8h-8.1V120h8.1v-9.6h4.2v9.6h14v3.6h-14V152c0,2.9,0.7,5.1,2.1,6.5c1.4,1.5,3.4,2.2,6.1,2.2c2.8,0,5-0.8,6.8-2.4L375.8,161.3z
		"/>
	<path class="st0" d="M391.9,161.6c-3.4-1.9-6-4.6-7.9-8c-1.9-3.4-2.9-7.2-2.9-11.5c0-4.3,1-8.1,2.9-11.5c1.9-3.4,4.5-6.1,7.9-8
		c3.3-1.9,7.1-2.9,11.3-2.9c4.2,0,7.9,1,11.3,2.9c3.3,1.9,6,4.6,7.9,8c1.9,3.4,2.9,7.2,2.9,11.5c0,4.3-1,8.1-2.9,11.5
		c-1.9,3.4-4.5,6.1-7.9,8c-3.4,1.9-7.1,2.9-11.3,2.9C399,164.5,395.3,163.5,391.9,161.6z M412.3,158.3c2.7-1.6,4.8-3.8,6.3-6.6
		c1.5-2.8,2.3-6,2.3-9.6c0-3.6-0.8-6.8-2.3-9.6c-1.5-2.8-3.7-5-6.3-6.6c-2.7-1.6-5.7-2.4-9.1-2.4s-6.4,0.8-9.1,2.4
		c-2.7,1.6-4.8,3.8-6.3,6.6c-1.5,2.8-2.3,6-2.3,9.6c0,3.6,0.8,6.8,2.3,9.6c1.5,2.8,3.7,5,6.3,6.6c2.7,1.6,5.7,2.4,9.1,2.4
		S409.6,159.9,412.3,158.3z"/>
	<path class="st0" d="M448.7,122.3c2.9-1.7,6.4-2.6,10.5-2.6v4.1l-1-0.1c-4.9,0-8.7,1.5-11.5,4.6c-2.8,3.1-4.1,7.3-4.1,12.8v23h-4.2
		V120h4.1v9.6C443.7,126.5,445.8,124,448.7,122.3z"/>
	<path class="st0" d="M508.2,120l-22.6,50.1c-1.7,3.9-3.6,6.6-5.9,8.3c-2.2,1.6-4.9,2.4-7.9,2.4c-2,0-3.9-0.3-5.7-1s-3.3-1.7-4.5-3
		l2.1-3.2c2.3,2.3,5,3.5,8.2,3.5c2.1,0,4-0.6,5.5-1.8c1.5-1.2,2.9-3.2,4.2-6.1l2.4-5.3L464.1,120h4.5l17.6,39.4l17.6-39.4
		C503.9,120,508.2,120,508.2,120z"/>
</g>
<g>
	<g>
		<path class="st0" d="M156.3,153.2h-30.6c-2-16.5-16.9-28.2-33.4-26.3L50.1,84.6c-0.1-1-0.2-1.9-0.4-2.9l38.7-42.2
			c3.6,0,7.2-1.1,10.2-3.1l11.2,11.2c-1.1,1.7-6.8,23.4-6.8,23.4c-3.4,13.6,4.8,27.3,18.4,30.7c6.9,1.7,14.3,0.5,20.2-3.5
			c4.3-2.9,5.4-8.6,2.6-12.9c-1.1-1.7-2.8-3-4.8-3.7l-9.5-3.2v-5.9c4.8-1.7,8.6-5.5,10.3-10.3h5.9l3.2,9.5c1.6,4.9,6.9,7.5,11.8,5.9
			c2-0.7,3.6-1.9,4.8-3.7c7.7-11.7,4.6-27.4-7.1-35.1c-5.9-3.9-13.2-5.2-20.1-3.5c0,0-21.7,5.7-23.4,6.8L103.9,31
			c5.8-8.7,3.4-20.5-5.3-26.3S78.2,1.3,72.4,10c-2,3.1-3.2,6.7-3.2,10.4l-45.8,42C9.8,63.7-0.1,75.7,1.2,89.2
			c1.1,11.7,10.4,21,22.1,22.2l41.8,41.8h-30c-10.5,0-18.9,8.5-18.9,18.9c0,4.2,3.4,7.6,7.6,7.6h144c4.2,0,7.6-3.4,7.6-7.6
			C175.3,161.7,166.8,153.2,156.3,153.2 M118.1,153.2H73.3c2.1-12.4,13.8-20.7,26.2-18.6C109,136.2,116.5,143.6,118.1,153.2
			 M67.8,145.1L33,110.4c7.7-2.4,13.7-8.4,16.1-16.1l34.8,34.8C76.6,132.1,70.9,137.9,67.8,145.1 M33.3,63.5l37.8-34.7
			c1.9,3.8,4.9,6.9,8.7,8.7L46.5,73.9C43.5,69,38.8,65.3,33.3,63.5C33.3,63.5,33.3,63.5,33.3,63.5z M136.9,88.8
			c0.9,0.3,1.4,1.3,1.1,2.2c-0.1,0.4-0.4,0.7-0.7,0.9c-8.2,5.4-19.2,3.2-24.6-4.9c-2.8-4.2-3.7-9.3-2.5-14.2l1.2-4.9
			c2.8,3.1,6.6,5.1,10.8,5.6v7.8c0,1.6,1,3.1,2.6,3.6L136.9,88.8z M124.1,66c-5.2,0-9.5-4.2-9.5-9.5c0-5.2,4.2-9.5,9.5-9.5
			c5.2,0,9.5,4.2,9.5,9.5S129.3,66,124.1,66 M140.3,42.7c9.5-2.4,19.1,3.4,21.5,12.9c1.2,4.8,0.3,10-2.4,14.1
			c-0.5,0.8-1.6,1-2.4,0.5c-0.3-0.2-0.5-0.5-0.7-0.9l-4-12.1c-0.5-1.6-2-2.6-3.6-2.6H141c-0.5-4.2-2.4-8-5.5-10.8L140.3,42.7z
			 M88.1,9.2c6.3,0,11.4,5.1,11.4,11.4s-5.1,11.4-11.4,11.4s-11.4-5.1-11.4-11.4S81.8,9.2,88.1,9.2 M8.5,86.9
			c0-9.4,7.6-17.1,17.1-17.1s17.1,7.6,17.1,17.1s-7.6,17.1-17.1,17.1C16.2,103.9,8.5,96.3,8.5,86.9 M23.7,172.1
			c0-6.3,5.1-11.4,11.4-11.4h121.3c6.3,0,11.4,5.1,11.4,11.4H23.7z"/>
	</g>
	<g>
		<path class="st0" d="M25.6,81.2c3.1,0,5.7,2.5,5.7,5.7c0,3.1-2.5,5.7-5.7,5.7s-5.7-2.5-5.7-5.7C19.9,83.7,22.4,81.2,25.6,81.2"/>
	</g>
</g>
</svg>
