<?xml version="1.0" encoding="utf-8"?>
<!-- Generator: Adobe Illustrator 26.5.3, SVG Export Plug-In . SVG Version: 6.00 Build 0)  -->
<svg version="1.1" id="Capa_1" xmlns="http://www.w3.org/2000/svg" xmlns:xlink="http://www.w3.org/1999/xlink" x="0px" y="0px"
	 viewBox="0 0 483 500" style="enable-background:new 0 0 483 500;" xml:space="preserve">
<style type="text/css">
	.st0{fill:#FFFFFF;}
</style>
<g>
	<g>
		<path class="st0" d="M459.1,268.6c0.3-4.5,0.6-8.9,0.6-13.4c0-23.2-3.3-46.3-10.4-68.3l-23.2,23.2c5.6,20.2,5,35.3,3.6,57.3
			c9.8,1.2,19.6,2.1,29.1,3.3C458.8,269.8,458.8,269.2,459.1,268.6z"/>
		<path class="st0" d="M270.6,35.1c-1.2,10.1-2.4,19.6-3.3,29.1c47.2,8,82.8,26.1,112.2,60.3l21.4-21.4
			C365.3,61.8,326.1,44,270.6,35.1z"/>
		<path class="st0" d="M98.5,385.6c7.7-6.2,15.1-12.2,22.9-18.7c11,33.5,22,66.2,33.2,100.3c-35.9-13.9-70.9-27.9-106-41.6
			c8.9-7.1,17.8-13.9,27-21.4c-43-48.7-62-104.2-57.9-168.3c10.1,1.2,19.6,2.1,29.4,3.3C43.6,295,60.5,343.7,98.5,385.6z"/>
		<path class="st0" d="M457,285.8c-8.6,54.6-33.5,99.7-75.7,136.8c-0.9-1.8-1.5-3.3-2.4-4.5c-5-6.5-10.1-12.8-15.4-19.3
			c17.5-15.1,31.8-32.6,42.7-52.5c11-19.9,18.1-41.3,21.7-63.8C437.7,283.8,447.2,285,457,285.8z"/>
		<path class="st0" d="M94.6,85.8c5.9,7.7,11.9,15.1,18.1,22.9c-16.6,14.5-31.2,31.8-42.1,51.6s-18.4,41.3-22,63.8
			c-9.8-1.2-19.3-2.1-28.8-3.3C24.9,176.9,50.1,122.3,94.6,85.8z"/>
		<path class="st0" d="M252.5,62.7c-46.9-3-89.3,9.2-126.7,35.9c-5.9-7.7-12.2-15.1-18.4-23.2C151,44,200.6,30,255.8,33.3
			c-0.6,5.3-1.2,9.8-1.8,14.5C253.4,52.6,253.1,57.3,252.5,62.7z"/>
		<path class="st0" d="M305.1,435.1c16-8.6,31.5-17.2,46.9-25.5c5.3,6.8,11.3,14.2,17.5,22c-16,12.2-33.8,22-53.4,29.4
			C312.2,452.1,308.6,443.2,305.1,435.1z"/>
		<path class="st0" d="M461.5,104.2c4.7,4.7,5.6,11.9,2.4,17.8c-1.8,3-3.6,5.9-5.6,8.6c-64.7,79.8-129.7,159.4-195,238.9
			c-16,19.9-42.1,19.3-56.1-1.5c-23.2-33.8-46.3-68-68.9-102.1c-13.9-21.1-4.7-46.9,18.7-52.5c13.9-3.6,27.6,2.1,36.8,15.4
			c13.7,19.9,27.3,40.1,41,60c1.5,2.1,3,4.2,5,6.8c3-2.7,5-4.5,7.4-6.8c62.6-60.3,125.5-120.8,188.5-181c2.4-2.1,4.7-4.2,7.4-5.9
			C448.4,98.3,456.4,99.2,461.5,104.2L461.5,104.2z"/>
	</g>
</g>
</svg>
