<?xml version="1.0" encoding="utf-8"?>
<!-- Generator: Adobe Illustrator 16.0.3, SVG Export Plug-In . SVG Version: 6.00 Build 0)  -->
<!DOCTYPE svg PUBLIC "-//W3C//DTD SVG 1.1//EN" "http://www.w3.org/Graphics/SVG/1.1/DTD/svg11.dtd">
<svg version="1.1" id="Capa_1" xmlns="http://www.w3.org/2000/svg" xmlns:xlink="http://www.w3.org/1999/xlink" x="0px" y="0px"
	 width="137px" height="175px" viewBox="0 0 137 175" enable-background="new 0 0 137 175" xml:space="preserve">
<path fill-rule="evenodd" clip-rule="evenodd" fill="#FFFFFF" d="M27.06,58.511c1.783,0.589,3.705-0.377,4.293-2.16
	c5.336-16.137,20.346-26.978,37.354-26.978c21.688,0,39.335,17.645,39.335,39.335c0,16.763-7.51,26.779-13.541,34.828
	c-4.39,5.853-8.18,10.908-8.18,17.041c0,0.403-0.006,0.803-0.015,1.2H72.105v-7.808c0-1.877-1.521-3.398-3.398-3.398
	c-1.877,0-3.398,1.521-3.398,3.398v7.808H51.105c-0.009-0.397-0.014-0.797-0.014-1.2c0-6.134-3.791-11.188-8.18-17.043
	c-4.443-5.928-9.479-12.646-11.976-22.194c-0.475-1.816-2.334-2.903-4.148-2.428c-1.815,0.474-2.903,2.332-2.427,4.147
	c2.834,10.837,8.533,18.441,13.114,24.551c3.81,5.083,6.819,9.098,6.819,12.967c0,1.627,0.07,3.215,0.203,4.73v28.747
	c0,0.092,0.007,0.181,0.014,0.271c0.002,0.021,0.001,0.043,0.004,0.064c0.012,0.126,0.032,0.248,0.057,0.37v0.003
	c1.18,5.535,4.202,10.57,8.511,14.174c4.392,3.675,9.941,5.698,15.625,5.698c5.683,0,11.231-2.023,15.624-5.698
	c4.308-3.604,7.33-8.639,8.51-14.174c0-0.002,0.002-0.003,0.002-0.004c0.025-0.121,0.043-0.243,0.057-0.369
	c0.001-0.021,0.001-0.044,0.003-0.064c0.007-0.092,0.013-0.181,0.013-0.271v-28.746c0.135-1.516,0.205-3.104,0.205-4.73
	c0-3.869,3.01-7.884,6.818-12.967c6.287-8.387,14.9-19.874,14.9-38.902c0-25.438-20.695-46.132-46.132-46.132
	c-19.946,0-37.549,12.716-43.808,31.642C24.31,55.999,25.277,57.92,27.06,58.511 M68.707,167.836
	c-6.911,0-13.142-4.178-16.095-10.385H84.8C81.847,163.658,75.616,167.836,68.707,167.836 M86.12,150.653H51.294v-7.642H86.12
	V150.653z M86.12,136.215H51.294v-7.643H86.12V136.215z"/>
<path fill-rule="evenodd" clip-rule="evenodd" fill="#FFFFFF" d="M68.707,16.478c1.877,0,3.397-1.521,3.397-3.398V4.024
	c0-1.877-1.521-3.399-3.397-3.399c-1.877,0-3.398,1.522-3.398,3.399v9.056C65.309,14.957,66.83,16.478,68.707,16.478"/>
<path fill-rule="evenodd" clip-rule="evenodd" fill="#FFFFFF" d="M4.023,72.106h9.055c1.878,0,3.399-1.521,3.399-3.398
	c0-1.878-1.521-3.399-3.399-3.399H4.023c-1.877,0-3.398,1.521-3.398,3.399C0.625,70.585,2.146,72.106,4.023,72.106"/>
<path fill-rule="evenodd" clip-rule="evenodd" fill="#FFFFFF" d="M84.267,75.574c0-1.877-1.521-3.399-3.397-3.399H56.544
	c-1.877,0-3.398,1.522-3.398,3.399s1.521,3.399,3.398,3.399h8.764v7.807c0,1.876,1.521,3.399,3.398,3.399
	c1.878,0,3.399-1.522,3.399-3.399v-7.807h8.764C82.746,78.973,84.267,77.451,84.267,75.574"/>
<path fill-rule="evenodd" clip-rule="evenodd" fill="#FFFFFF" d="M26.969,31.776c0.664,0.664,1.533,0.996,2.403,0.996
	c0.869,0,1.739-0.332,2.403-0.996c1.327-1.328,1.327-3.48,0-4.806l-6.403-6.403c-1.328-1.327-3.48-1.327-4.807,0
	c-1.326,1.326-1.326,3.479,0,4.806L26.969,31.776z"/>
<path fill-rule="evenodd" clip-rule="evenodd" fill="#FFFFFF" d="M20.625,120.188c0.869,0,1.739-0.332,2.403-0.996l6.403-6.401
	c1.327-1.328,1.327-3.479,0-4.807c-1.328-1.328-3.48-1.328-4.806,0l-6.404,6.402c-1.327,1.328-1.327,3.479,0,4.806
	C18.884,119.856,19.753,120.188,20.625,120.188"/>
<path fill-rule="evenodd" clip-rule="evenodd" fill="#FFFFFF" d="M108.042,32.771c0.869,0,1.738-0.332,2.402-0.996l6.402-6.403
	c1.328-1.327,1.328-3.479,0-4.807c-1.326-1.327-3.477-1.326-4.805,0l-6.404,6.403c-1.326,1.328-1.326,3.48,0,4.807
	C106.3,32.439,107.171,32.771,108.042,32.771"/>
<path fill-rule="evenodd" clip-rule="evenodd" fill="#FFFFFF" d="M107.983,107.984c-1.328,1.326-1.328,3.478,0,4.806l6.402,6.403
	c0.664,0.664,1.533,0.994,2.402,0.994s1.74-0.33,2.404-0.994c1.326-1.326,1.326-3.479,0-4.807l-6.404-6.402
	C111.462,106.656,109.31,106.656,107.983,107.984"/>
<path fill-rule="evenodd" clip-rule="evenodd" fill="#FFFFFF" d="M124.335,72.106h9.055c1.877,0,3.398-1.521,3.398-3.398
	c0-1.878-1.521-3.399-3.398-3.399h-9.055c-1.877,0-3.398,1.521-3.398,3.399C120.937,70.585,122.458,72.106,124.335,72.106"/>
<path fill-rule="evenodd" clip-rule="evenodd" fill="#FFFFFF" d="M68.707,96.976c-1.872,0-3.398,1.527-3.398,3.399
	c0,1.871,1.526,3.398,3.398,3.398c1.871,0,3.397-1.527,3.397-3.398C72.104,98.503,70.578,96.976,68.707,96.976"/>
<path fill-rule="evenodd" clip-rule="evenodd" fill="#FFFFFF" d="M29.372,68.708c0-1.872-1.526-3.399-3.398-3.399
	c-1.873,0-3.399,1.527-3.399,3.399c0,1.872,1.526,3.398,3.399,3.398C27.846,72.105,29.372,70.58,29.372,68.708"/>
</svg>
