<?xml version="1.0" encoding="utf-8"?>
<!-- Generator: Adobe Illustrator 26.5.3, SVG Export Plug-In . SVG Version: 6.00 Build 0)  -->
<svg version="1.1" id="Capa_1" xmlns="http://www.w3.org/2000/svg" xmlns:xlink="http://www.w3.org/1999/xlink" x="0px" y="0px"
	 viewBox="0 0 740 740" style="enable-background:new 0 0 740 740;" xml:space="preserve">
<style type="text/css">
	.st0{fill:#FFFFFF;}
</style>
<g transform="translate(0.000000,740.000000) scale(0.100000,-0.100000)">
	<path class="st0" d="M1748.3,6904.4c-210.2-95.1-275.3-342.1-138.5-523.9c78.4-101.8,252-146.8,388.8-100.1l53.4,20l665.8-665.8
		c365.4-365.4,665.8-677.5,665.8-690.8c0-16.7-53.4-46.7-158.5-88.4c-175.2-70.1-163.5-71.8-307,36.7
		c-50.1,38.4-106.8,68.4-125.1,68.4c-43.4,0-360.4-312-360.4-355.4c0-16.7,41.7-85.1,93.4-153.5l91.8-121.8l-36.7-73.4
		c-20-38.4-48.4-108.5-65.1-155.2c-18.4-56.7-38.4-85.1-60.1-88.4c-21.7-3.3-223.6,188.6-695.8,660.8l-664.1,664.1l26.7,73.4
		c71.8,200.2-61.7,420.5-270.3,445.5C613.6,5883.2,420,5667.9,480.1,5441c26.7-98.4,91.8-176.9,173.5-215.3
		c78.4-35,220.3-41.7,285.3-11.7c43.4,18.4,60.1,3.3,667.5-604c522.3-522.3,620.7-627.4,594-637.4c-56.7-20-68.4-71.8-68.4-280.3
		c0-203.6,13.3-267,58.4-267c13.3,0,25-6.7,25-15c0-8.3-275.3-290.3-610.7-627.4l-610.7-614.1l-63.4,20
		c-168.5,50.1-323.7-1.7-408.8-140.2c-95.1-153.5-51.7-357.1,95.1-453.9c60.1-40,86.8-46.7,190.2-46.7c106.8,0,128.5,5,191.9,50.1
		c123.5,86.8,173.5,236.9,125.1,375.4l-26.7,75.1l675.8,675.8c582.4,582.4,679.1,672.5,697.5,650.8c11.7-13.3,43.4-80.1,68.4-145.2
		c25-66.7,53.4-125.1,61.7-131.8c25-15,18.4-30-76.8-156.9c-50.1-66.7-91.8-136.8-91.8-153.5c0-36.7,253.6-307,322-342.1
		c53.4-26.7,45.1-30,240.3,115.1l70.1,51.7l113.5-51.7c63.4-28.4,133.5-56.7,160.2-61.7c30-8.3,45.1-23.4,45.1-45.1
		s-233.6-268.6-657.4-694.1l-657.4-659.1l-76.8,21.7c-238.6,66.7-452.2-83.4-450.5-317c0-118.5,51.7-218.6,143.5-278.7
		c60.1-40,86.8-46.7,190.2-46.7c106.8,0,128.5,5,191.9,50.1c123.5,86.8,173.5,236.9,125.1,375.4l-26.7,75.1l622.4,620.7
		c612.4,614.1,620.7,620.7,642.4,580.7c21.7-41.7,21.7-41.7,270.3-41.7s248.6,0,270.3,41.7c21.7,40,30,33.4,642.4-580.7l622.4-620.7
		l-25-66.7c-41.7-116.8-25-215.3,55.1-323.7c93.4-125.1,312-156.9,452.2-63.4c190.2,126.8,188.6,423.8-3.3,557.3
		c-56.7,40-83.4,46.7-176.9,46.7c-60.1,0-130.2-6.7-153.5-13.3c-41.7-13.3-85.1,26.7-705.8,642.4
		c-460.5,457.2-660.8,665.8-660.8,690.8c0,25,13.3,40,46.7,48.4c25,5,95.1,33.4,156.9,61.7l111.8,51.7l130.2-95.1
		c75.1-53.4,140.2-90.1,156.9-85.1c45.1,15,348.7,323.7,348.7,355.4c0,16.7-41.7,86.8-91.8,153.5c-51.7,68.4-90.1,126.8-86.8,131.8
		c30,53.4,98.4,216.9,106.8,253.6c5,25,20,50.1,35,56.7c20,6.7,215.3-178.5,699.2-662.4l670.8-672.5l-26.7-80.1
		c-55.1-165.2,41.7-358.8,203.6-412.2c155.2-51.7,340.4,18.4,412.2,155.2c143.5,275.3-123.5,580.7-420.5,477.2l-53.4-20
		l-622.4,620.7c-562.3,564-617.4,622.4-584,635.7c53.4,20,58.4,45.1,58.4,263.6c0,231.9-6.7,263.6-60.1,282
		c-36.7,11.7,6.7,60.1,584,637.4c609,609,625.7,624.1,669.1,605.7c68.4-31.7,216.9-25,292,13.3c200.2,101.8,236.9,380.4,71.8,537.3
		c-253.6,242-662.4-16.7-549-348.7l26.7-80.1l-662.4-664.1c-480.6-480.6-672.5-662.4-697.5-659.1c-21.7,3.3-38.4,26.7-51.7,71.8
		c-10,38.4-38.4,106.8-63.4,155.2l-45.1,88.4l93.4,126.8c50.1,68.4,91.8,138.5,91.8,153.5c0,40-318.7,352.1-360.4,352.1
		c-18.4,0-75.1-30-125.1-68.4c-143.5-108.5-131.8-106.8-307-36.7c-105.1,41.7-158.5,71.8-158.5,88.4c0,13.3,300.4,325.4,665.8,690.8
		c650.8,650.8,667.5,665.8,710.8,647.4c68.4-31.7,216.9-25,292,13.3c120.1,61.7,198.6,216.9,175.2,350.4
		c-28.4,165.2-193.6,295.3-355.4,280.3c-118.5-11.7-201.9-58.4-255.3-143.5c-61.7-96.8-76.8-196.9-43.4-295.3l26.7-75.1L4615,5794.7
		L3995.9,5179l-31.7,41.7c-31.7,38.4-38.4,40-263.6,40c-225.3,0-231.9-1.7-263.6-40l-31.7-41.7l-620.7,612.4l-619.1,614.1l26.7,78.4
		c51.7,150.2-21.7,340.4-153.5,403.8C1950.2,6929.4,1821.7,6936.1,1748.3,6904.4z M1988.6,6729.2c66.7-60.1,85.1-116.8,60.1-193.6
		c-41.7-126.8-205.2-166.9-298.7-73.4C1584.7,6627.4,1811.7,6882.7,1988.6,6729.2z M5657.9,6712.5c33.4-38.4,45.1-66.7,45.1-121.8
		c-1.7-205.2-285.3-250.3-350.4-55.1c-25,78.4-6.7,133.5,63.4,195.2c51.7,45.1,68.4,50.1,126.8,43.4
		C5591.1,6767.5,5624.5,6749.2,5657.9,6712.5z M920.6,5661.2c71.8-65.1,88.4-128.5,50.1-208.6c-83.4-178.5-345.4-121.8-345.4,75.1
		c0,58.4,48.4,131.8,106.8,161.9C798.8,5724.6,858.9,5714.6,920.6,5661.2z M6709.1,5666.2c43.4-40,80.1-128.5,68.4-166.9
		c-35-106.8-93.4-155.2-190.2-155.2c-105.1,0-203.6,125.1-175.2,220.3c15,46.7,71.8,111.8,116.8,131.8
		C6575.6,5716.3,6669,5701.3,6709.1,5666.2z M3839.1,5073.9c5-21.7,15-83.4,21.7-138.5c5-55.1,16.7-111.8,25-126.8
		c6.7-13.3,60.1-38.4,118.5-55.1c58.4-15,151.8-55.1,210.2-86.8c56.7-31.7,115.1-56.7,126.8-56.7c11.7,0,71.8,38.4,131.8,83.4
		c60.1,46.7,116.8,83.4,123.5,83.4c8.3,0,55.1-40,103.5-90.1l88.4-90.1l-85.1-111.8c-46.7-63.4-85.1-128.5-85.1-145.2
		c0-18.4,18.4-63.4,40-101.8c23.4-38.4,61.7-130.2,85.1-203.6c25-73.4,50.1-138.5,56.7-146.8c6.7-6.7,76.8-21.7,156.9-31.7l145.2-20
		v-136.8v-136.8l-141.8-20c-78.4-11.7-153.5-30-165.2-43.4c-13.3-11.7-28.4-50.1-33.4-85.1c-6.7-35-41.7-125.1-78.4-200.2
		c-35-75.1-65.1-148.5-65.1-161.9c0-13.3,38.4-75.1,85.1-135.2l85.1-111.8l-95.1-96.8l-96.8-98.4l-93.4,71.8
		c-155.2,120.1-151.8,118.5-277,53.4c-60.1-33.4-160.2-73.4-223.6-93.4c-125.1-36.7-125.1-36.7-143.5-175.2
		c-23.4-188.6-10-175.2-158.5-175.2c-148.5,0-135.2-13.3-158.5,175.2c-18.4,138.5-18.4,138.5-140.2,175.2
		c-61.7,18.4-163.5,60.1-223.6,91.8c-126.8,68.4-123.5,68.4-280.3-51.7l-93.4-71.8l-95.1,96.8l-95.1,95.1l85.1,111.8
		c45.1,60.1,83.4,121.8,83.4,136.8s-30,88.4-65.1,163.5c-36.7,75.1-71.8,165.2-78.4,200.2c-5,35-20,73.4-33.4,85.1
		c-11.7,13.3-86.8,31.7-165.2,43.4l-141.8,20v136.8v136.8l141.8,20c78.4,10,150.2,23.4,156.9,28.4c8.3,5,30,60.1,50.1,121.8
		c18.4,61.7,56.7,156.9,85.1,208.6c26.7,51.7,50.1,108.5,50.1,125.1c0,18.4-38.4,81.8-85.1,145.2l-85.1,111.8l88.4,90.1
		c48.4,50.1,95.1,90.1,103.5,90.1c6.7,0,63.4-36.7,123.5-83.4c60.1-45.1,120.1-83.4,131.8-83.4s70.1,25,126.8,56.7
		c58.4,31.7,151.8,71.8,210.2,86.8c58.4,16.7,111.8,41.7,118.5,55.1c8.3,15,20,71.8,25,126.8c21.7,185.2,13.3,175.2,160.2,175.2
		C3820.7,5110.6,3830.7,5107.3,3839.1,5073.9z M920.6,2006.9c71.8-65.1,88.4-128.5,50.1-208.6c-55.1-118.5-186.9-143.5-285.3-53.4
		c-51.7,48.4-60.1,66.7-60.1,128.5s8.3,80.1,60.1,128.5C767.1,2075.4,840.5,2077,920.6,2006.9z M6715.8,2001.9
		c51.7-48.4,60.1-66.7,60.1-128.5s-8.3-80.1-60.1-128.5c-98.4-88.4-230.3-65.1-285.3,50.1c-36.7,78.4-20,150.2,51.7,211.9
		C6560.6,2077,6635.7,2075.4,6715.8,2001.9z M1966.9,960.7c73.4-43.4,106.8-128.5,83.4-208.6c-55.1-183.5-338.7-161.9-353.7,28.4
		c-5,73.4,3.3,96.8,58.4,151.8C1820,997.4,1888.4,1007.4,1966.9,960.7z M5627.8,952.4c53.4-41.7,95.1-131.8,81.8-175.2
		c-33.4-103.5-93.4-155.2-181.9-155.2c-143.5,0-238.6,176.9-153.5,283.7C5440.9,992.4,5551.1,1012.4,5627.8,952.4z"/>
</g>
<circle class="st0" cx="370" cy="370" r="58.2"/>
</svg>
