<?xml version="1.0" encoding="utf-8"?>
<!-- Generator: Adobe Illustrator 16.0.3, SVG Export Plug-In . SVG Version: 6.00 Build 0)  -->
<!DOCTYPE svg PUBLIC "-//W3C//DTD SVG 1.1//EN" "http://www.w3.org/Graphics/SVG/1.1/DTD/svg11.dtd">
<svg version="1.1" id="Capa_1" xmlns="http://www.w3.org/2000/svg" xmlns:xlink="http://www.w3.org/1999/xlink" x="0px" y="0px"
	 width="177px" height="177px" viewBox="0 0 177 177" enable-background="new 0 0 177 177" xml:space="preserve">
<path fill="#FFFFFF" d="M57.094,102.139V92.012H24.917v21.707h7.845c-0.41-0.994-0.644-2.076-0.644-3.209
	c0-2.303,0.947-4.4,2.458-5.912c1.522-1.521,3.611-2.459,5.913-2.459H57.094z M92.012,119.914v32.176h21.707v-7.854
	c-0.994,0.42-2.078,0.645-3.209,0.645c-2.303,0-4.4-0.936-5.913-2.459c-1.521-1.512-2.458-3.609-2.458-5.912v-16.596H92.012z
	 M86.851,152.09v-32.176h-2.606c-1.599,0-3.385-0.244-5.151-1.082c-1.795-0.84-3.492-2.254-4.839-4.547
	c-1.249-2.137-3.053-3.893-5.22-5.113c-2.107-1.199-4.566-1.873-7.18-1.873H40.489c-0.878,0-1.678,0.361-2.264,0.947
	c-0.575,0.586-0.937,1.385-0.937,2.264c0,0.877,0.362,1.678,0.937,2.264c0.586,0.586,1.386,0.945,2.264,0.945h18.81
	c1.424,0,2.575,1.152,2.575,2.576c0,1.436-1.151,2.586-2.575,2.586H22.332h-5.853c-0.878,0-1.678,0.361-2.264,0.945
	c-0.575,0.586-0.946,1.387-0.946,2.264c0,0.879,0.371,1.68,0.946,2.264c0.585,0.586,1.434,0.957,2.264,0.947H45.22
	c1.435,0,2.586,1.15,2.586,2.574c0,1.426-1.151,2.586-2.586,2.586H8.761c-0.878,0-1.678,0.361-2.264,0.947
	c-0.585,0.576-0.946,1.385-0.946,2.264c0,0.877,0.361,1.678,0.946,2.264c0.586,0.574,1.386,0.945,2.264,0.945H45.22
	c1.435,0,2.586,1.152,2.586,2.576s-1.151,2.586-2.586,2.586H12.712c-0.878,0-1.677,0.361-2.262,0.936
	c-0.586,0.586-0.947,1.385-0.947,2.273c0,0.877,0.361,1.678,0.947,2.264c0.585,0.574,1.384,0.936,2.262,0.936h13.552h18.957
	c1.434,0,2.585,1.162,2.585,2.586s-1.151,2.586-2.585,2.586H26.264c-0.878,0-1.678,0.361-2.263,0.938
	c-0.586,0.584-0.947,1.385-0.947,2.264c0,0.877,0.361,1.686,0.947,2.262c0.585,0.586,1.385,0.947,2.263,0.947h14.283
	c1.425,0,2.586,1.16,2.586,2.586c0,1.424-1.161,2.574-2.586,2.574H26.264c-2.302,0-4.4-0.936-5.912-2.449
	c-1.513-1.521-2.458-3.609-2.458-5.92c0-1.133,0.233-2.215,0.643-3.201h-5.825c-2.302,0-4.399-0.947-5.912-2.459
	c-1.521-1.521-2.459-3.609-2.459-5.912c0-1.434,0.361-2.77,0.996-3.951c-0.937-0.42-1.775-1.004-2.488-1.717
	c-1.512-1.521-2.458-3.609-2.458-5.914c0-2.311,0.946-4.398,2.458-5.912c1.513-1.521,3.601-2.457,5.903-2.457
	c-0.41-0.996-0.644-2.078-0.644-3.211c0-2.303,0.946-4.398,2.459-5.912c1.521-1.521,3.609-2.459,5.912-2.459h3.267V83.797
	c0-1.121-0.253-2.137-0.741-3.103c-0.516-1.044-1.316-2.058-2.321-3.073c-1.474-1.493-2.723-3.249-3.591-5.19
	c-0.819-1.844-1.288-3.834-1.288-5.913V52.246c0-1.434,1.162-2.586,2.586-2.586c1.425,0,2.576,1.152,2.576,2.586v14.273
	c0,1.347,0.302,2.634,0.829,3.815c0.595,1.327,1.483,2.566,2.556,3.649c1.376,1.395,2.488,2.839,3.278,4.419
	c0.829,1.669,1.288,3.444,1.288,5.396v3.055h32.176v-2.605c0-1.6,0.244-3.386,1.073-5.152c0.839-1.795,2.254-3.492,4.557-4.838
	c2.126-1.249,3.893-3.054,5.112-5.22c1.191-2.107,1.864-4.566,1.864-7.181v-2.185V40.49c0-0.878-0.362-1.678-0.947-2.263
	c-0.576-0.576-1.376-0.937-2.263-0.937c-0.878,0-1.679,0.361-2.264,0.937c-0.575,0.585-0.937,1.385-0.937,2.263V59.3
	c0,1.425-1.161,2.576-2.585,2.576c-1.424,0-2.586-1.152-2.586-2.576V22.334v-5.855c0-0.878-0.361-1.678-0.936-2.264
	c-0.585-0.575-1.385-0.946-2.263-0.946c-0.888,0-1.688,0.371-2.263,0.946c-0.586,0.586-0.948,1.386-0.948,2.264v28.742
	c0,1.434-1.16,2.586-2.585,2.586c-1.424,0-2.575-1.152-2.575-2.586V8.762c0-0.878-0.371-1.678-0.946-2.264
	c-0.586-0.585-1.386-0.946-2.264-0.946s-1.687,0.361-2.263,0.946c-0.585,0.586-0.947,1.386-0.947,2.264v36.459
	c0,1.434-1.161,2.586-2.585,2.586c-1.425,0-2.576-1.152-2.576-2.586V12.713c0-0.878-0.36-1.678-0.946-2.263
	c-0.585-0.585-1.385-0.946-2.263-0.946s-1.679,0.36-2.264,0.946c-0.585,0.585-0.946,1.385-0.946,2.263v13.552v18.956
	c0,1.434-1.151,2.586-2.586,2.586c-1.425,0-2.575-1.152-2.575-2.586V26.265c0-0.878-0.361-1.678-0.946-2.263
	c-0.586-0.586-1.386-0.947-2.264-0.947s-1.678,0.361-2.264,0.947c-0.585,0.585-0.946,1.385-0.946,2.263v14.283
	c0,1.425-1.151,2.585-2.576,2.585c-1.424,0-2.585-1.16-2.585-2.585V26.265c0-2.303,0.946-4.4,2.459-5.912
	c1.512-1.513,3.609-2.459,5.912-2.459c1.132,0,2.224,0.234,3.21,0.644v-5.825c0-2.302,0.937-4.4,2.458-5.912
	c1.513-1.522,3.61-2.458,5.912-2.458c1.425,0,2.772,0.36,3.943,0.995c0.418-0.937,1.004-1.776,1.726-2.488
	c1.512-1.513,3.609-2.459,5.911-2.459c2.303,0,4.401,0.946,5.913,2.459c1.512,1.512,2.449,3.6,2.458,5.903
	c0.986-0.41,2.069-0.645,3.21-0.645c2.303,0,4.391,0.947,5.912,2.459c1.513,1.522,2.459,3.61,2.459,5.912v3.268h29.912
	c1.123,0,2.146-0.253,3.104-0.741c1.044-0.517,2.059-1.317,3.083-2.322c1.493-1.473,3.239-2.722,5.19-3.59
	c1.844-0.819,3.824-1.288,5.902-1.288h14.283c1.426,0,2.576,1.161,2.576,2.585c0,1.425-1.15,2.576-2.576,2.576H110.48
	c-1.347,0-2.623,0.302-3.805,0.829c-1.337,0.595-2.575,1.483-3.659,2.557c-1.385,1.375-2.829,2.488-4.409,3.278
	c-1.668,0.829-3.445,1.288-5.406,1.288h-3.053v32.176h2.604c1.601,0,3.386,0.244,5.161,1.073c1.785,0.839,3.484,2.254,4.828,4.556
	c1.25,2.127,3.064,3.893,5.221,5.113c2.107,1.19,4.576,1.863,7.181,1.863h2.185h19.182c0.878,0,1.68-0.361,2.264-0.946
	c0.586-0.575,0.946-1.376,0.946-2.264c0-0.878-0.36-1.678-0.946-2.263c-0.584-0.576-1.386-0.937-2.264-0.937h-18.801
	c-1.434,0-2.585-1.161-2.585-2.585c0-1.424,1.151-2.586,2.585-2.586h36.967h5.844c0.879,0,1.678-0.36,2.264-0.936
	c0.586-0.585,0.947-1.385,0.947-2.263c0-0.888-0.361-1.688-0.947-2.264c-0.584-0.585-1.434-0.966-2.264-0.946h-28.74
	c-1.426,0-2.586-1.161-2.586-2.586c0-1.424,1.16-2.575,2.586-2.575h36.459c0.877,0,1.687-0.371,2.263-0.947
	c0.585-0.585,0.946-1.385,0.946-2.263s-0.361-1.688-0.946-2.264c-0.576-0.585-1.386-0.946-2.263-0.946h-36.459
	c-1.426,0-2.586-1.161-2.586-2.586c0-1.424,1.16-2.575,2.586-2.575h32.517c0.878,0,1.678-0.361,2.263-0.947
	c0.576-0.585,0.938-1.385,0.938-2.263s-0.361-1.678-0.938-2.264c-0.585-0.585-1.385-0.946-2.263-0.946h-13.562h-18.955
	c-1.426,0-2.586-1.151-2.586-2.586c0-1.424,1.16-2.575,2.586-2.575h18.955c0.879,0,1.688-0.361,2.264-0.946
	c0.585-0.586,0.947-1.386,0.947-2.264s-0.362-1.678-0.947-2.263c-0.575-0.586-1.385-0.947-2.264-0.947h-14.283
	c-1.424,0-2.575-1.151-2.575-2.575c0-1.425,1.151-2.586,2.575-2.586h14.283c2.313,0,4.4,0.947,5.912,2.459
	c1.522,1.512,2.459,3.61,2.459,5.912c0,1.132-0.225,2.225-0.634,3.211h5.824c2.302,0,4.392,0.936,5.912,2.458
	c1.513,1.512,2.459,3.61,2.459,5.912c0,1.424-0.361,2.771-0.995,3.942c0.927,0.419,1.766,1.005,2.488,1.727
	c1.511,1.512,2.449,3.609,2.449,5.912c0,2.302-0.938,4.4-2.449,5.912c-1.522,1.513-3.61,2.449-5.913,2.459
	c0.419,0.985,0.644,2.068,0.644,3.21c0,2.302-0.938,4.39-2.458,5.912c-1.513,1.512-3.61,2.459-5.911,2.459h-3.27v24.283v5.629
	c0,1.123,0.264,2.146,0.74,3.102c0.529,1.045,1.318,2.061,2.324,3.084c1.482,1.492,2.721,3.238,3.59,5.189
	c0.819,1.846,1.287,3.826,1.287,5.904v14.283c0,1.424-1.15,2.574-2.576,2.574c-1.424,0-2.584-1.15-2.584-2.574v-14.283
	c0-1.348-0.303-2.625-0.83-3.807c-0.586-1.336-1.482-2.574-2.555-3.658c-1.367-1.385-2.479-2.828-3.27-4.41
	c-0.839-1.668-1.287-3.443-1.287-5.404V90.15h-32.177v2.604c0,1.6-0.243,3.387-1.083,5.162c-0.84,1.785-2.254,3.482-4.547,4.828
	c-2.135,1.248-3.892,3.064-5.111,5.219c-1.2,2.107-1.873,4.576-1.873,7.182v2.186v19.18c0,0.879,0.359,1.68,0.945,2.266
	c0.586,0.584,1.386,0.945,2.264,0.945c0.879,0,1.68-0.361,2.264-0.945c0.586-0.586,0.946-1.387,0.946-2.266v-18.801
	c0-1.434,1.151-2.584,2.575-2.584c1.436,0,2.586,1.15,2.586,2.584v36.967v5.846c0,0.877,0.361,1.678,0.945,2.262
	c0.586,0.586,1.386,0.947,2.264,0.947s1.679-0.361,2.264-0.947c0.586-0.584,0.956-1.434,0.946-2.262v-28.742
	c0-1.426,1.151-2.586,2.576-2.586s2.585,1.162,2.585,2.586v36.459c0,0.877,0.361,1.688,0.947,2.264
	c0.576,0.584,1.385,0.945,2.263,0.945s1.678-0.361,2.264-0.945c0.575-0.576,0.946-1.387,0.946-2.264v-36.459
	c0-1.426,1.152-2.586,2.575-2.586c1.425,0,2.586,1.162,2.586,2.586v32.516c0,0.879,0.36,1.68,0.937,2.266
	c0.586,0.574,1.385,0.936,2.273,0.936c0.878,0,1.678-0.361,2.263-0.936c0.575-0.586,0.937-1.387,0.937-2.266v-13.561v-18.955
	c0-1.426,1.162-2.586,2.586-2.586s2.585,1.16,2.585,2.586v18.955c0,0.879,0.36,1.688,0.937,2.264
	c0.586,0.586,1.387,0.947,2.264,0.947c0.879,0,1.688-0.361,2.264-0.947c0.585-0.576,0.947-1.385,0.947-2.264v-14.283
	c0-1.424,1.16-2.576,2.584-2.576c1.425,0,2.576,1.152,2.576,2.576v14.283c0,2.313-0.937,4.4-2.449,5.912
	c-1.521,1.521-3.609,2.459-5.922,2.459c-1.131,0-2.215-0.225-3.2-0.635v5.824c0,2.305-0.946,4.393-2.46,5.914
	c-1.521,1.512-3.608,2.457-5.911,2.457c-1.433,0-2.771-0.361-3.951-0.994c-0.419,0.928-1.005,1.766-1.717,2.488
	c-1.522,1.512-3.61,2.449-5.913,2.449c-2.311,0-4.398-0.938-5.912-2.449c-1.521-1.523-2.459-3.611-2.459-5.912
	c-0.995,0.418-2.078,0.645-3.209,0.645c-2.303,0-4.4-0.938-5.912-2.459c-1.521-1.514-2.459-3.609-2.459-5.912v-3.27H89.436h-5.64
	c-1.122,0-2.136,0.264-3.102,0.742c-1.044,0.527-2.059,1.316-3.074,2.322c-1.492,1.482-3.248,2.721-5.189,3.59
	c-1.844,0.82-3.835,1.289-5.913,1.289H52.244c-1.433,0-2.584-1.152-2.584-2.576s1.151-2.586,2.584-2.586h14.274
	c1.347,0,2.635-0.303,3.814-0.83c1.328-0.584,2.567-1.482,3.65-2.555c1.395-1.367,2.839-2.479,4.42-3.27
	c1.668-0.838,3.443-1.287,5.394-1.287h3.055V152.09z M84.987,57.095V24.918H63.289v7.844c0.986-0.409,2.069-0.644,3.2-0.644
	c2.312,0,4.4,0.946,5.922,2.459c1.512,1.521,2.449,3.61,2.449,5.912v16.605L84.987,57.095L84.987,57.095z M119.914,84.988h32.176
	V63.29h-7.854c0.42,0.985,0.645,2.068,0.645,3.2c0,2.312-0.938,4.4-2.459,5.922c-1.512,1.512-3.609,2.449-5.912,2.449h-16.596
	V84.988z M102.139,114.754c0.067-3.355,0.985-6.537,2.557-9.309c1.668-2.955,4.067-5.424,6.984-7.131
	c1.299-0.762,2.059-1.658,2.498-2.586c0.439-0.936,0.575-1.99,0.575-2.975V74.861c-3.354-0.068-6.537-0.986-9.308-2.546
	c-2.955-1.669-5.424-4.079-7.131-6.986c-0.762-1.297-1.658-2.068-2.586-2.498c-0.937-0.448-1.99-0.575-2.976-0.575h-5.18H74.86
	c-0.068,3.346-0.986,6.527-2.546,9.308c-1.668,2.946-4.078,5.424-6.986,7.131c-1.297,0.761-2.068,1.659-2.498,2.576
	c-0.448,0.946-0.575,1.989-0.575,2.975v5.19v12.703c3.347,0.068,6.528,0.986,9.308,2.557c2.946,1.668,5.425,4.068,7.132,6.984
	c0.76,1.299,1.658,2.059,2.575,2.498c0.947,0.439,1.991,0.576,2.976,0.576h5.19H102.139z"/>
</svg>
