<?xml version="1.0" encoding="utf-8"?>
<!-- Generator: Adobe Illustrator 16.0.3, SVG Export Plug-In . SVG Version: 6.00 Build 0)  -->
<!DOCTYPE svg PUBLIC "-//W3C//DTD SVG 1.1//EN" "http://www.w3.org/Graphics/SVG/1.1/DTD/svg11.dtd">
<svg version="1.1" id="Capa_1" xmlns="http://www.w3.org/2000/svg" xmlns:xlink="http://www.w3.org/1999/xlink" x="0px" y="0px"
	 width="186px" height="160px" viewBox="0 0 186 160" enable-background="new 0 0 186 160" xml:space="preserve">
<path fill="#FFFFFF" d="M120.531,87.564c1.997,0,3.616,1.62,3.616,3.616c0,1.998-1.619,3.617-3.616,3.617
	c-1.998,0-3.617-1.619-3.617-3.617C116.914,89.185,118.533,87.564,120.531,87.564"/>
<path fill="#FFFFFF" d="M19.994,92.267c-3.582,0-6.907-1.502-9.363-4.229c-0.686-0.762-1.662-1.196-2.687-1.196H3.72
	c-1.997,0-3.617,1.62-3.617,3.616v32.549c0,1.996,1.62,3.615,3.617,3.611h29.211c-2.962,3.561-4.619,8.041-4.619,12.662
	c0,10.967,8.923,19.891,19.89,19.891c10.968,0,19.891-8.924,19.891-19.891c0-4.621-1.658-9.105-4.62-12.662h58.423
	c-2.962,3.557-4.618,8.041-4.618,12.662c0,10.967,8.922,19.891,19.889,19.891c10.969,0,19.891-8.924,19.891-19.891
	c0-4.621-1.656-9.102-4.619-12.658h29.211c1.997,0,3.617-1.619,3.617-3.615V90.458c0-1.996-1.62-3.616-3.617-3.616h-4.223
	c-1.025,0-2.002,0.435-2.688,1.196c-2.455,2.727-5.781,4.229-9.363,4.229c-6.979,0-12.657-5.679-12.657-12.659
	c0-6.979,5.678-12.657,12.657-12.657c3.582,0,6.908,1.501,9.363,4.228c0.686,0.761,1.662,1.197,2.688,1.197h4.223
	c1.997,0,3.617-1.62,3.617-3.617V36.211c0-1.997-1.62-3.616-3.617-3.616h-29.211c2.963-3.556,4.619-8.037,4.619-12.658
	c0-10.968-8.922-19.89-19.891-19.89c-10.967,0-19.889,8.922-19.889,19.89c0,4.621,1.656,9.102,4.618,12.658H63.473
	c2.962-3.556,4.62-8.037,4.62-12.658c0-10.968-8.923-19.89-19.891-19.89c-10.968,0-19.89,8.922-19.89,19.89
	c0,4.621,1.657,9.102,4.619,12.658H3.72c-1.997,0-3.617,1.619-3.617,3.616v32.548c0,1.997,1.62,3.617,3.617,3.617h4.224
	c1.025,0,2.001-0.435,2.687-1.197c2.456-2.727,5.781-4.228,9.363-4.228c6.979,0,12.658,5.678,12.658,12.657
	C32.652,86.588,26.973,92.267,19.994,92.267 M19.994,59.718c-4.621,0-9.102,1.657-12.658,4.619V39.828h30.017
	c1.997,0,3.617-1.62,3.617-3.617v-4.224c0-1.025-0.435-2.001-1.197-2.687c-2.727-2.456-4.228-5.781-4.228-9.363
	c0-6.979,5.678-12.657,12.657-12.657c6.98,0,12.658,5.678,12.658,12.657c0,3.582-1.502,6.907-4.228,9.363
	c-0.762,0.686-1.197,1.662-1.197,2.687v4.224c0,1.997,1.62,3.617,3.617,3.617h30.016v28.931c0,1.997,1.62,3.617,3.617,3.617h4.224
	c1.024,0,2.002-0.435,2.688-1.197c2.456-2.727,5.781-4.228,9.363-4.228c5.744,0,10.777,3.873,12.24,9.419
	c0.508,1.931,2.487,3.082,4.42,2.574c1.931-0.509,3.082-2.488,2.574-4.42c-2.301-8.717-10.209-14.806-19.234-14.806
	c-4.621,0-9.103,1.657-12.658,4.619V39.828h30.018c1.996,0,3.615-1.62,3.615-3.617v-4.224c0-1.025-0.436-2.001-1.195-2.687
	c-2.728-2.456-4.229-5.781-4.229-9.363c0-6.979,5.678-12.657,12.656-12.657c6.979,0,12.658,5.678,12.658,12.657
	c0,3.582-1.502,6.907-4.228,9.363c-0.763,0.686-1.197,1.662-1.197,2.687v4.224c0,1.997,1.619,3.617,3.616,3.617h30.018v24.509
	c-3.557-2.962-8.037-4.619-12.658-4.619c-10.967,0-19.891,8.923-19.891,19.89c0,10.968,8.924,19.891,19.891,19.891
	c4.621,0,9.102-1.656,12.658-4.619v24.51h-30.018c-1.997,0-3.616,1.619-3.616,3.617v4.223c0,1.025,0.435,2.002,1.197,2.688
	c2.726,2.455,4.228,5.781,4.228,9.363c0,6.979-5.679,12.656-12.658,12.656c-6.979,0-12.656-5.678-12.656-12.656
	c0-3.582,1.501-6.908,4.229-9.363c0.76-0.686,1.195-1.662,1.195-2.688v-4.223c0-1.998-1.619-3.617-3.615-3.617H96.301V94.884
	c2.212,1.85,4.779,3.195,7.553,3.942c1.932,0.519,3.913-0.624,4.432-2.552c0.521-1.93-0.623-3.913-2.551-4.434
	c-2.344-0.631-4.467-1.945-6.139-3.804c-0.686-0.761-1.663-1.195-2.688-1.195h-4.224c-1.997,0-3.617,1.618-3.617,3.615v28.933
	H59.052c-1.997,0-3.617,1.619-3.617,3.615v4.225c0,1.025,0.435,2,1.197,2.686c2.726,2.457,4.228,5.783,4.228,9.365
	c0,6.979-5.678,12.656-12.658,12.656c-6.979,0-12.657-5.678-12.657-12.656c0-3.582,1.501-6.908,4.228-9.363
	c0.762-0.686,1.197-1.662,1.197-2.688v-4.223c0-1.998-1.62-3.617-3.617-3.617H7.335V94.88c3.556,2.963,8.037,4.619,12.658,4.619
	c10.968,0,19.891-8.923,19.891-19.891C39.885,68.641,30.962,59.718,19.994,59.718"/>
</svg>
