<?xml version="1.0" encoding="utf-8"?>
<!-- Generator: Adobe Illustrator 26.5.3, SVG Export Plug-In . SVG Version: 6.00 Build 0)  -->
<svg version="1.1" id="Capa_1" xmlns="http://www.w3.org/2000/svg" xmlns:xlink="http://www.w3.org/1999/xlink" x="0px" y="0px"
	 viewBox="0 0 400 400" style="enable-background:new 0 0 400 400;" xml:space="preserve">
<style type="text/css">
	.st0{fill:#858585;}
</style>
<g>
	<g>
		<path class="st0" d="M225.6,370.6c-16.9,0-33.7,0-50.7,0c-7.9-2.7-11.2-8.4-10.8-16.6c0.3-5.5,0.1-11.1,0.1-15.7
			c-12.3-5.1-24.1-10-36.4-15c0.6-0.3,0.4-0.3,0.2-0.1c-4.3,4.2-8.5,8.5-12.7,12.6c-6.5,6.4-14.1,6.4-20.6,0
			c-10.1-10.1-20.3-20.3-30.4-30.4c-6.4-6.5-6.4-14.1,0-20.5c4.4-4.4,8.8-8.8,12.5-12.4c-5.1-12.4-10-24.2-15.1-36.5
			c-4.8,0-10.2-0.2-15.7,0.1c-8.3,0.4-13.9-2.7-16.6-10.8c0-16.9,0-33.7,0-50.7c2.7-7.9,8.4-11.2,16.6-10.8
			c5.5,0.3,11.1,0.1,15.6,0.1c5.1-12.4,10-24.2,15.1-36.6c-3.8-3.7-8-7.8-12.3-12.1c-6.7-6.7-6.8-14.3-0.1-21
			c9.9-10,19.8-20,29.9-29.9c6.8-6.8,14.3-6.8,21.2,0.1c4.3,4.2,8.5,8.5,12,12c12.4-5.1,24.2-10,36.5-15.1c0-4.7,0.2-10.1-0.1-15.5
			c-0.4-8.3,2.7-13.9,10.8-16.6c16.9,0,33.7,0,50.7,0c7.9,2.7,11.2,8.4,10.8,16.6c-0.3,5.4-0.1,10.9-0.1,15.4
			c12.4,5.1,24.2,10,36.6,15.1c-0.5,0.3-0.3,0.2-0.2,0.1c4.3-4.3,8.7-8.7,13-13c5.9-5.7,13.6-6,19.3-0.2
			c10.7,10.4,21.3,21.1,31.8,31.8c5.6,5.7,5.4,13.5-0.2,19.3c-3.9,4-7.8,7.8-11.8,11.8c-0.6,0.6-1,1.3-1,1.1
			c5.1,12.3,9.9,24.1,15,36.4c4.6,0,10,0.2,15.5-0.1c8.3-0.5,13.9,2.7,16.6,10.8c0,16.9,0,33.7,0,50.7c-2.7,7.9-8.4,11.2-16.6,10.8
			c-5.4-0.3-10.9-0.1-15.5-0.1c-5.1,12.3-10,24.1-15.1,36.5c-0.3-0.5-0.2-0.3-0.1-0.1c4.1,4.1,8.1,8.1,12.2,12.2
			c6.7,6.8,6.8,14.3,0.1,21c-10,10-20.1,20.2-30.2,30.2c-6.6,6.5-14.1,6.5-20.8-0.1c-4.3-4.3-8.6-8.7-12.3-12.3
			c-12.3,5.1-24.2,10-36.5,15c0,4.7-0.2,10.1,0.1,15.6C236.8,362.3,233.7,368,225.6,370.6z M357.5,177.4c-7.8,0-15.4,0-22.9,0
			c-5.6,0-7.5-1.5-8.9-6.9c-3.1-13.5-8.5-26.1-15.7-37.9c-3.1-5.1-2.8-7.3,1.4-11.4c5.3-5.3,10.7-10.7,15.8-15.8
			c-10.8-10.8-21.4-21.3-32.2-32.1c-5.3,5.3-10.9,11-16.5,16.5c-3.1,3-6,3.4-9.6,1.3c-12.4-7.7-25.8-13.3-40-16.6
			c-4.3-1-5.9-3.2-6-7.6c0-6.7,0-13.4,0-20c0-1.3,0-2.5,0-3.8c-15.4,0-30.2,0-45.3,0c0,7.6,0,14.9,0,22.4c0,6.3-1.4,7.9-7.4,9.4
			c-12.8,3.1-24.9,8-36.1,14.8c-6.8,4.1-8.1,4-13.8-1.7c-5-5-9.9-10-14.4-14.6C95,84.4,84.4,94.9,73.6,105.7
			c5.2,5.2,10.8,10.7,16.3,16.1c3.4,3.4,3.8,6,1.3,10.1c-1,1.7-2.1,3.4-3,5.1c-6.1,10.7-10.4,22-13.2,34c-1,4.7-3.2,6.4-7.8,6.5
			c-2.9,0-5.7,0-8.7,0c-5,0-10.1,0-15.1,0c0,15.4,0,30.3,0,45.3c7.8,0,15.4,0,22.9,0c5.7,0,7.5,1.5,8.9,6.9
			c2.9,12.2,7.5,23.9,13.9,34.8c5.5,9.5,5.5,9.5-2.4,17.3c-4.5,4.4-8.9,8.9-12.8,12.7c10.9,10.9,21.4,21.4,32.2,32.2
			c5.3-5.3,10.9-11.1,16.5-16.7c2.8-2.8,5.5-3.3,8.7-1.4c12.8,7.9,26.5,13.7,41.3,17.1c3.4,0.8,5.1,3.1,5.1,6.8
			c0.1,5.1,0,10.2,0,15.4c0,3,0,6.2,0,9.2c15.4,0,30.3,0,45.3,0c0-8.1,0-16,0-23.9c0-4.3,1.6-6.6,5.5-7.5c14.5-3.3,28-9,40.6-16.8
			c3.3-2.1,6.1-1.6,9,1.3c4.8,4.7,9.5,9.4,14.1,14.1c0.9,1,1.6,2.3,1.9,2.8c11.3-11.3,21.8-21.8,32.5-32.5
			c-4.9-4.9-10.1-10.1-15.5-15.4c-4.3-4.3-4.6-6.4-1.4-11.7c7.1-11.6,12.3-24,15.5-37.3c1.5-6.1,3.1-7.3,9.5-7.3
			c7.4,0,14.8,0,22.4,0C357.5,207.5,357.5,192.7,357.5,177.4z"/>
		<path class="st0" d="M304,200.3c-0.4,53.1-41.3,97.9-94,102.5c-55.7,4.9-104.1-33.5-112-89.1c-7.8-55,31.4-107.3,86.3-115.5
			c22-3.2,42.9,0.1,62.8,9.9c0.8,0.4,1.7,0.8,2.5,1.4c4.5,2.5,6,6.5,3.9,10.2c-2.1,3.7-5.9,4.2-10.4,2.3c-8.1-3.2-16.3-7-24.8-8.9
			c-48.8-10.8-97.7,22.9-105.6,72.3c-8,50,25.3,95.5,75.3,103c49.1,7.3,95.7-28.8,101-78.1c1.8-16.8-0.8-32.8-7.9-48.2
			c-0.2-0.5-0.5-1-0.7-1.6c-1.7-4.1-0.3-7.9,3.2-9.6c3.7-1.7,7.5-0.4,9.5,3.6c4.5,9,7.7,18.5,9.2,28.4
			C303.1,188.6,303.4,194.5,304,200.3z"/>
		<path class="st0" d="M191,185.5c10.6-10.7,20.7-20.8,30.8-30.9c4.7-4.7,7.8-4.7,12.6,0.1c7.1,7.1,14.1,14.1,21.2,21.2
			c4.1,4.1,4.1,7.4,0,11.5c-19.6,19.6-39.3,39.3-58.9,58.9c-4.1,4.1-7.4,4.1-11.5,0c-13.4-13.4-26.7-26.6-40-40
			c-4.1-4.1-4.1-7.4-0.1-11.5c7.3-7.3,14.5-14.6,21.9-21.9c4-4,7.4-4,11.5,0.1C182.6,176.9,186.6,181,191,185.5z M173.3,186.4
			c-4.9,4.9-9.7,9.6-13.9,13.8c10.6,10.7,21.3,21.4,31.8,31.9c16.7-16.7,33.7-33.7,50.6-50.6c-4.5-4.5-9.1-9.2-14.5-14.7
			c-0.6,0.9-1.1,2.2-2,3c-9.5,9.5-18.9,19-28.4,28.5c-4.2,4.2-7.5,4.2-11.7,0C181,194.3,177,190.1,173.3,186.4z"/>
	</g>
</g>
</svg>
