<?xml version="1.0" encoding="utf-8"?>
<!-- Generator: Adobe Illustrator 26.5.3, SVG Export Plug-In . SVG Version: 6.00 Build 0)  -->
<svg version="1.1" id="Capa_1" xmlns="http://www.w3.org/2000/svg" xmlns:xlink="http://www.w3.org/1999/xlink" x="0px" y="0px"
	 viewBox="0 0 300 300" style="enable-background:new 0 0 300 300;" xml:space="preserve">
<style type="text/css">
	.st0{fill:none;stroke:#858585;stroke-width:8;stroke-miterlimit:10;}
	.st1{fill:none;stroke:#858585;stroke-width:8;stroke-miterlimit:9.9996;}
	.st2{fill:#858585;}
</style>
<image style="display:none;overflow:visible;" width="300" height="300" xlink:href="logo-trophy-64.png" >
</image>
<g>
	<g id="Valori_etici_e_morali_00000179619426424315382560000012146585944886779298_">
		<g>
			<g>
				<ellipse class="st0" cx="150.2" cy="150" rx="56.1" ry="128.4"/>
				<ellipse transform="matrix(0.866 -0.5 0.5 0.866 -54.7507 95.1205)" class="st1" cx="150.1" cy="149.7" rx="128.4" ry="56.1"/>
				<ellipse transform="matrix(0.5 -0.866 0.866 0.5 -54.8584 204.7389)" class="st1" cx="149.9" cy="149.9" rx="56.1" ry="128.4"/>
			</g>
			<path class="st2" d="M176.8,146.9c0.7-0.7,1-1.7,1.7-2.4c3.1-7.1,0.2-15.5-6.4-19.5c-7.6-4-16.6-1.7-20.9,5.7
				c-0.2,0.7-0.7,1.4-0.7,2.1c-0.2-0.7-0.2-1.4-0.7-2.1c-4-7.6-13.6-10-20.9-5.7c-7.6,4-10,13.6-5.7,20.9c4,7.6,27.4,31.2,27.4,31.2
				L176.8,146.9z"/>
		</g>
	</g>
</g>
</svg>
