<?xml version="1.0" encoding="utf-8"?>
<!-- Generator: Adobe Illustrator 26.5.3, SVG Export Plug-In . SVG Version: 6.00 Build 0)  -->
<svg version="1.1" id="Capa_1" xmlns="http://www.w3.org/2000/svg" xmlns:xlink="http://www.w3.org/1999/xlink" x="0px" y="0px"
	 viewBox="0 0 300 300" style="enable-background:new 0 0 300 300;" xml:space="preserve">
<style type="text/css">
	.st0{display:none;}
	.st1{display:inline;}
	.st2{fill:none;stroke:#858585;stroke-width:8;stroke-miterlimit:10;}
	.st3{fill:none;stroke:#858585;stroke-width:7.9998;stroke-miterlimit:9.9994;}
	.st4{fill:#858585;}
</style>
<image style="display:none;overflow:visible;enable-background:new    ;" width="300" height="300" xlink:href="logo-trophy-64.png" >
</image>
<g class="st0">
	<g id="Valori_etici_e_morali_00000179619426424315382560000012146585944886779298_" class="st1">
		<g>
			<g>
				<ellipse class="st2" cx="150.2" cy="150" rx="56.1" ry="128.4"/>
				<ellipse transform="matrix(0.866 -0.5 0.5 0.866 -54.7483 95.103)" class="st3" cx="150.1" cy="149.7" rx="128.4" ry="56.1"/>
				<ellipse transform="matrix(0.5 -0.866 0.866 0.5 -54.8442 204.7567)" class="st3" cx="149.9" cy="149.9" rx="56.1" ry="128.4"/>
			</g>
			<path class="st4" d="M176.8,146.9c0.7-0.7,1-1.7,1.7-2.4c3.1-7.1,0.2-15.5-6.4-19.5c-7.6-4-16.6-1.7-20.9,5.7
				c-0.2,0.7-0.7,1.4-0.7,2.1c-0.2-0.7-0.2-1.4-0.7-2.1c-4-7.6-13.6-10-20.9-5.7c-7.6,4-10,13.6-5.7,20.9c4,7.6,27.4,31.2,27.4,31.2
				L176.8,146.9z"/>
		</g>
	</g>
</g>
<path class="st4" d="M252.2,215.2l-31.3-9v-7.9c4.2-3.3,7.5-7.7,9.5-12.7h2.3c8.7,0,15.8-7.1,15.8-15.8v-31.5
	c0-24.9-19.3-45.3-43.7-47.1c-11.9-37.4-46.9-63.2-86.3-63.2c-50,0-90.6,40.7-90.6,90.6s40.7,90.6,90.6,90.6
	c20.3,0,39.8-6.9,55.7-19.3c1.9,3.2,4.4,6.1,7.3,8.4v7.9l-31.3,9c-11.7,3.4-19.9,14.3-19.9,26.5v30.5h141.9v-30.5
	C272.2,229.5,264,218.6,252.2,215.2z M224.1,215.3l-5.3,18.6l-11.6-9.3l11-11L224.1,215.3z M200.1,248.5h2.2l5.3,15.8h-12.7
	L200.1,248.5z M203.5,240.6h-4.6l-4.9-4.9l7.2-5.8l7.2,5.8L203.5,240.6z M232.8,177.6h-0.3c0.2-1.3,0.3-2.6,0.3-3.9v-11.8
	c4.3,0,7.9,3.5,7.9,7.9C240.6,174.1,237.1,177.6,232.8,177.6z M240.6,138.2v18c-2.3-1.4-5-2.2-7.9-2.2H232c-1.6-4.6-6-7.9-11.1-7.9
	h-14.1c-3,0-6.1-0.7-8.8-2.1l-8.8-4.4c-1.9-0.9-4-1.4-6-1.4c-7.4,0-13.5,6.1-13.5,13.5v2.3c-2.9,0-5.6,0.8-7.9,2.2V127
	c0-5.8,3.7-10.8,9.1-12.7l1.2-0.4l0.7-1c6.7-8.9,17.3-14.2,28.4-14.2C223,98.8,240.6,116.4,240.6,138.2z M153.9,127v42.7
	c0,1.7,0.4,3.4,0.9,4.9c-10.9,7.1-23.4,10.8-36.3,10.8c-36.9,0-67-30.1-67-67s30.1-67,67-67c28.6,0,53.4,17.7,63,44.3
	c-5.4,2.8-10.3,6.7-14.2,11.5C159.3,110.5,153.9,118.3,153.9,127z M161.8,169.7c0-4.3,3.5-7.9,7.9-7.9v11.8c0,1.3,0.1,2.6,0.3,3.9
	h-0.3C165.4,177.6,161.8,174.1,161.8,169.7z M35.7,118.5c0-45.6,37.1-82.8,82.8-82.8c35.2,0,66.6,22.6,78.1,55.4
	c-2.7,0.3-5.2,0.9-7.8,1.7c-10.7-29.6-38.5-49.2-70.3-49.2c-41.3,0-74.9,33.6-74.9,74.9s33.6,74.9,74.9,74.9
	c14.5,0,28.4-4.2,40.6-12.1c2.3,2.1,5.1,3.5,8.3,4c-14.1,10.4-31.2,16-48.9,16C72.8,201.2,35.7,164.1,35.7,118.5z M177.6,173.6v-22
	c0-3.1,2.5-5.6,5.6-5.6c0.9,0,1.7,0.2,2.5,0.6l8.8,4.4c3.8,1.9,8.1,2.9,12.3,2.9h14.1c2.2,0,3.9,1.8,3.9,3.9v15.8
	c0,13-10.6,23.6-23.6,23.6C188.2,197.3,177.6,186.7,177.6,173.6z M201.2,205.2c4.2,0,8.2-0.8,11.8-2.3v4.6l-11.8,11.8l-11.8-11.8
	v-4.6C193.1,204.3,197.1,205.2,201.2,205.2z M184.3,213.5l11,11l-11.6,9.3l-5.3-18.6L184.3,213.5z M138.2,241.7
	c0-8.7,5.9-16.5,14.2-18.9l18.4-5.3l8.6,30l8.4-6.8l5,5l-6.2,18.6h-24.7v-19.7h-7.9v19.7h-15.8V241.7z M264.3,264.3h-15.8v-19.7
	h-7.9v19.7h-24.7l-6.2-18.6l5-5l8.4,6.8l8.6-30l18.4,5.3c8.4,2.4,14.2,10.2,14.2,18.9V264.3z M122.4,107.4v-48h-7.9v48
	c-4.6,1.6-7.9,6-7.9,11.1c0,2,0.5,3.8,1.4,5.4l-24,27.5l5.9,5.2l23.8-27.2c1.5,0.6,3,1,4.7,1c6.5,0,11.8-5.3,11.8-11.8
	C130.3,113.3,127,109,122.4,107.4z M118.5,122.4c-2.2,0-3.9-1.8-3.9-3.9c0-2.2,1.8-3.9,3.9-3.9c2.2,0,3.9,1.8,3.9,3.9
	C122.4,120.6,120.6,122.4,118.5,122.4z M35.7,197.3h-7.9v-37.9l7.3,11.5c18.2,28.8,49.4,46,83.4,46v7.9c-32.5,0-62.6-14.6-82.8-39.5
	V197.3z M138.2,114.5h7.9v7.9h-7.9V114.5z M98.8,122.4h-7.9v-7.9h7.9V122.4z"/>
</svg>
