<?xml version="1.0" encoding="utf-8"?>
<!-- Generator: Adobe Illustrator 26.5.3, SVG Export Plug-In . SVG Version: 6.00 Build 0)  -->
<svg version="1.1" id="Capa_1" xmlns="http://www.w3.org/2000/svg" xmlns:xlink="http://www.w3.org/1999/xlink" x="0px" y="0px"
	 viewBox="0 0 400 400" style="enable-background:new 0 0 400 400;" xml:space="preserve">
<style type="text/css">
	.st0{fill:#858585;}
</style>
<g>
	<path class="st0" d="M20.5,321.9c1.4-5.5,3.1-10.9,7-15.4c6.1-7.1,13.8-10.7,23-10.7c2,0,4,1.1,5.9,1.9c11.6,4.6,23.4,5.1,34.8,0.3
		c9.6-4.1,17.6-1.4,25.1,4c7.8,5.6,11.5,13.7,11.7,23.2c0.2,12.3,0.4,24.5-0.1,36.8c-0.5,10.8-8,17.4-18.9,17.4
		c-13.9,0.1-27.8,0-41.7,0c-8.1,0-16.1,0-24.2,0c-13.5,0-17.5-2.6-22.7-14.7C20.5,350.4,20.5,336.2,20.5,321.9z M74.2,367.5
		c11.4,0,22.9,0,34.3,0c5.3,0,7.6-2.1,7.6-7.3c0.1-11.2,0-22.4,0-33.6c0-6-2-11.3-7-15c-3.6-2.7-7.5-4.8-12.3-2.9
		c-15.1,6.1-30.2,6-45.4,0.1c-1.8-0.7-4.2-0.8-6-0.3c-8,2.1-13,9-13.1,17.8c-0.1,11,0,22,0,32.9c0,6.3,2,8.3,8.5,8.3
		C52,367.5,63.1,367.5,74.2,367.5z"/>
	<path class="st0" d="M204.9,20.6c6.8,1.8,13.1,4.3,18.7,9c15.8,13.3,16.4,39,1.1,52.8c-10.5,9.5-22.7,12.6-36,8
		C175.2,85.8,167.1,76,164.5,62c-3.3-18.2,9.6-36.8,28.2-40.7c0.8-0.2,1.5-0.5,2.3-0.7C198.3,20.6,201.6,20.6,204.9,20.6z M200,80.3
		c13.1,0,23.8-10.6,23.8-23.8c0-13.1-10.6-23.8-23.7-24c-13.1-0.1-24.1,10.9-24,24C176.2,69.7,186.8,80.3,200,80.3z"/>
	<path class="st0" d="M325.5,379.4c-11.6,0-23.1,0-34.7,0c-11.2-0.1-18.8-6.9-19-18c-0.3-13.3-0.2-26.6,0.4-39.9
		c0.7-14.1,16.1-26.9,30-25.7c1.9,0.2,3.7,1.3,5.5,2c11.7,4.5,23.6,4.9,35.1,0c6.9-3,13-2,19.1,0.9c11.4,5.5,17,14.9,17.2,27.4
		c0.2,11.7,0.2,23.3,0,35c-0.1,10.7-7.7,18.2-18.5,18.3C349.1,379.5,337.3,379.4,325.5,379.4z M325,367.5c11.7,0,23.4,0,35,0
		c5,0,7.3-2.3,7.3-7.3c0.1-11.4,0-22.9,0-34.3c0-4.6-1.6-8.7-4.6-12.2c-4.1-4.6-10.2-6.7-14.6-4.9c-15.1,6-30.2,6-45.4,0.1
		c-1.8-0.7-4.2-0.8-6-0.3c-8.2,2.2-13,9-13.1,18.5c-0.1,10.9-0.1,21.7,0,32.6c0,5.9,2.1,7.9,8.1,7.9
		C302.9,367.5,314,367.5,325,367.5z"/>
	<path class="st0" d="M199.8,182c-11.2,0-22.4,0-33.6,0c-12.9,0-20.1-7.3-20.1-20.2c0.1-12.5-0.2-25,0.6-37.4
		c1-14.5,15-26.5,29.4-25.9c1.9,0.1,3.7,1.1,5.6,1.8c11.9,4.8,24,5.3,35.8,0.1c7-3.1,13.2-1.9,19.4,1.1c11.5,5.7,16.8,15.4,16.9,28
		c0.2,11.1,0.1,22.2,0,33.3c-0.1,11.7-7.4,18.9-19,19.2c-0.2,0-0.5,0-0.7,0C222.7,182,211.2,182,199.8,182z M200,170
		c11.5,0,23.1,0,34.6,0c4.9,0,7.2-2.2,7.2-7c0.1-11.5,0.2-23.1,0-34.6c-0.1-7.3-3.5-13-10.2-16.3c-2.7-1.3-5.5-2.3-8.7-1
		c-15.3,6.4-30.6,6.3-45.9,0.1c-1.4-0.6-3.2-0.7-4.7-0.4c-8.7,1.7-14.1,8.9-14.2,18.6c-0.1,10.8,0,21.7,0,32.5c0,6,2,8,8,8
		C177.3,170.1,188.6,170,200,170z"/>
	<path class="st0" d="M133,86.9c-13.6,8.2-24.9,17.7-34.3,29.3c-18.6,22.8-28.7,48.9-30,78.3c-0.1,1.7-0.1,3.5-0.3,5.2
		c-0.3,3.8-2.5,6.1-5.8,6.1c-3.4,0-6-2.5-6-6.3c0-4.7,0.3-9.4,0.8-14c4.2-37.9,20.6-69.5,49.5-94.3c6.9-6,15-10.7,22.5-15.9
		c0.8-0.5,1.5-1,2.6-1.7c-3.9-1.8-7.4-3.4-10.9-5.1c-3.9-1.9-5.3-4.9-3.9-8.1c1.5-3.4,4.8-4.4,8.9-2.6c7.2,3.2,14.5,6.5,21.6,9.9
		c4.6,2.2,5.6,5,3.4,9.7c-3.6,7.6-7.2,15.2-10.9,22.7c-1.9,4-5.2,5.4-8.5,3.8c-3.1-1.5-4-4.9-2.3-8.8c0.5-1.2,1.1-2.3,1.6-3.5
		C131.4,90.2,132,89,133,86.9z"/>
	<path class="st0" d="M343,186.6c3.1-3.3,5.3-5.9,7.7-8.2c3-2.9,6.5-3,9-0.5c2.3,2.4,2.3,6-0.5,8.8c-5.6,5.8-11.3,11.5-17.1,17.1
		c-3,2.9-6.3,2.8-9.3-0.1c-5.7-5.5-11.3-11.2-16.9-16.8c-2.8-2.9-2.9-6.3-0.6-8.8c2.5-2.6,5.9-2.5,9,0.4c1,0.9,1.8,1.8,2.7,2.7
		c0.9,0.9,1.8,1.7,2.7,2.6c0.4-0.1,0.7-0.3,1.1-0.4c-2.1-8.5-3.7-17.2-6.5-25.5c-12.4-35.8-36-61.7-70.3-77.7
		c-1-0.4-1.9-0.9-2.8-1.4c-3.2-1.9-4.3-5-2.7-8c1.4-2.8,4.6-4.1,7.8-2.6c5.8,2.7,11.7,5.3,17.1,8.7c36.3,22.4,58.8,54.5,67.3,96.3
		C341.6,177.2,342.1,181.3,343,186.6z"/>
	<path class="st0" d="M74.4,218c19.7,0,35.8,16.2,35.8,35.8c0,19.5-16.3,35.9-35.9,35.8c-19.6,0-35.8-16.2-35.8-35.9
		C38.6,234,54.7,218,74.4,218z M50.5,253.7c0,13.1,10.6,23.8,23.7,24c13.1,0.1,24.2-11,24.1-24c-0.1-13.1-10.9-23.7-24-23.7
		S50.6,240.6,50.5,253.7z"/>
	<path class="st0" d="M325.4,218c19.7-0.1,35.8,16,35.9,35.7c0.1,19.6-16.1,35.9-35.7,36s-35.9-16.2-36-35.8
		C289.6,234.3,305.7,218.1,325.4,218z M349.4,253.8c0-13.2-10.6-23.8-23.7-23.8s-23.8,10.6-24,23.7c-0.1,13.1,10.9,24.2,24,24.1
		C338.7,277.6,349.4,266.9,349.4,253.8z"/>
	<path class="st0" d="M167.7,326.7c26.5,7.1,52.7,5.8,78.4-3.6c2-0.7,3.9-1.5,5.9-2.1c3.2-0.9,6.1,0.5,7.2,3.3
		c1.2,2.9,0.1,6.2-3.1,7.6c-4,1.8-8.2,3.4-12.4,4.7c-26.8,8.3-53.9,9.1-81.1,1.9c-0.8-0.2-1.6-0.4-2.4-0.5c-0.2,0-0.4,0.1-1.2,0.2
		c0.8,1.7,1.6,3.3,2.3,4.9c0.7,1.5,1.5,2.9,2.1,4.4c1.1,3.1,0.1,5.5-2.6,7.2c-2.7,1.6-6,1-7.6-1.9c-4.4-7.8-8.5-15.8-12.5-23.8
		c-1.6-3.4-0.1-6.7,3.6-7.8c8.1-2.6,16.3-5,24.5-7.2c3.1-0.8,5.9,1.1,6.8,4.1c0.9,2.8-0.3,5.6-3.2,7
		C171,325.6,169.3,326.1,167.7,326.7z"/>
</g>
</svg>
