<?xml version="1.0" encoding="utf-8"?>
<!-- Generator: Adobe Illustrator 16.0.3, SVG Export Plug-In . SVG Version: 6.00 Build 0)  -->
<!DOCTYPE svg PUBLIC "-//W3C//DTD SVG 1.1//EN" "http://www.w3.org/Graphics/SVG/1.1/DTD/svg11.dtd">
<svg version="1.1" id="Capa_1" xmlns="http://www.w3.org/2000/svg" xmlns:xlink="http://www.w3.org/1999/xlink" x="0px" y="0px"
	 width="32px" height="32px" viewBox="0 0 32 32" enable-background="new 0 0 32 32" xml:space="preserve">
<path fill="#FFFFFF" d="M27.589,31.747c-3.016-0.334-5.876-1.074-8.551-2.382C10.31,25.104,4.191,18.499,1.211,9.167
	c-0.47-1.468-0.67-3.025-0.954-4.549c-0.132-0.713,0.094-1.062,0.77-1.383c1.961-0.929,3.924-1.853,5.89-2.772
	c0.726-0.34,1.188-0.208,1.627,0.47c1.233,1.901,2.459,3.805,3.68,5.714c0.423,0.66,0.37,1.075-0.194,1.649
	c-0.695,0.708-1.383,1.426-2.109,2.103c-0.455,0.424-0.547,0.9-0.434,1.474c0.525,2.683,1.874,4.911,3.782,6.82
	c1.893,1.894,4.1,3.239,6.758,3.781c0.646,0.131,1.156,0.021,1.617-0.484c0.658-0.717,1.367-1.389,2.063-2.071
	c0.545-0.533,0.965-0.584,1.604-0.176c1.926,1.229,3.848,2.465,5.764,3.709c0.642,0.416,0.771,0.887,0.441,1.592
	c-0.926,1.983-1.865,3.959-2.793,5.942C28.483,31.499,28.112,31.776,27.589,31.747"/>
<path fill="#FFFFFF" d="M31.778,15.468c-0.033,1.059-0.381,1.594-1.105,1.624c-0.699,0.027-1.089-0.452-1.126-1.493
	C29.31,8.974,24.592,4.049,19.109,2.81c-0.961-0.218-1.959-0.285-2.945-0.381c-0.821-0.08-1.298-0.463-1.281-1.114
	c0.018-0.67,0.535-1.069,1.379-1.063c7.251,0.049,13.76,5.466,15.131,12.609C31.56,13.723,31.651,14.599,31.778,15.468"/>
<path fill="#FFFFFF" d="M26.294,15.412c0.025,1.123-0.41,1.66-1.062,1.679c-0.656,0.021-1.087-0.479-1.133-1.33
	c-0.182-3.383-1.818-5.819-4.887-7.196c-0.943-0.423-2.049-0.519-3.093-0.678c-0.929-0.142-1.45-0.743-1.15-1.506
	c0.215-0.546,0.663-0.718,1.217-0.709c4.599,0.073,8.714,3.351,9.789,7.827C26.153,14.24,26.229,15.007,26.294,15.412"/>
</svg>
