<?xml version="1.0" encoding="utf-8"?>
<!-- Generator: Adobe Illustrator 26.5.3, SVG Export Plug-In . SVG Version: 6.00 Build 0)  -->
<svg version="1.1" id="Capa_1" xmlns="http://www.w3.org/2000/svg" xmlns:xlink="http://www.w3.org/1999/xlink" x="0px" y="0px"
	 viewBox="0 0 2054.2 1116.5" style="enable-background:new 0 0 2054.2 1116.5;" xml:space="preserve">
<style type="text/css">
	.st0{fill:#FFFFFF;}
	.st1{fill:#F2AA46;}
	.st2{fill:#F8FAFB;}
</style>
<g id="Capa_2_00000091707803481221657960000013041349063315806861_">
	<g id="Capa_1-2">
		<path class="st0" d="M1828.5,1017.6c-98.8-120.9-305.8-77.5-364.4-134.9s44.2-137.1-153.5-213.1s-238.4-294.6-238.4-294.6
			c-3.2-1.6-32.9-1.5-53.8-1c-20.9-0.5-32.5-1.5-35.7,0.1c0,0-45.9,219.5-243.5,295.5s-90.5,155.7-149.2,213.1
			s-265.6,14-364.4,134.8c-51.7,63.3-142.2,89.2-225.6,98.9h2054.2C1970.7,1106.8,1880.2,1080.9,1828.5,1017.6z"/>
		<path class="st1" d="M1056.5,349.1l-33.4,1.4l-33.4-1.4c0,0-13.7,10.8-13.4,33h93.7C1070.2,359.9,1056.5,349.1,1056.5,349.1z"/>
		<path class="st1" d="M1071.7,249.7c0,0,0.4,21.5,19.7,29.4c19.2,7.9,46.1,21.5,46.5,73.6h-75.6L1071.7,249.7z"/>
		<path class="st1" d="M972.2,249.7c0,0-0.5,21.5-19.7,29.4c-19.2,7.9-46,21.5-46.5,73.6h75.6L972.2,249.7z"/>
		<path class="st2" d="M1074.3,355c0,0,17.7-207.3-52.3-277.4C951.9,147.7,969.7,355,969.7,355H1074.3z"/>
		<circle class="st1" cx="1022.2" cy="183.2" r="29.2"/>
		<circle class="st1" cx="1022.2" cy="248.6" r="15"/>
	</g>
</g>
</svg>
