<?xml version="1.0" encoding="utf-8"?>
<!-- Generator: Adobe Illustrator 26.5.3, SVG Export Plug-In . SVG Version: 6.00 Build 0)  -->
<svg version="1.1" id="Capa_1" xmlns="http://www.w3.org/2000/svg" xmlns:xlink="http://www.w3.org/1999/xlink" x="0px" y="0px"
	 viewBox="0 0 300 300" style="enable-background:new 0 0 300 300;" xml:space="preserve">
<style type="text/css">
	.st0{opacity:0.39;fill:#F2AA46;enable-background:new    ;}
	.st1{opacity:0.39;enable-background:new    ;}
	.st2{fill:#F2AA46;}
</style>
<g>
	<path class="st0" d="M287.8,25.3l-105.2,76l-17.3,12.5c-9.1,6.8-21.6,6.8-30.8,0l-17.3-12.5L12.1,25.5c5.9-8.2,15.3-13,25.4-13
		h225.1C272.5,12.5,281.9,17.2,287.8,25.3z"/>
	<g class="st1">
		<path class="st2" d="M12.1,25.5l105.3,75.9l-102,102c-5.9-5.9-9.1-13.8-9.1-22.1V43.7C6.2,37.2,8.2,30.8,12.1,25.5z"/>
		<path class="st2" d="M293.8,43.7v137.5c0,8.3-3.3,16.3-9.1,22.1l-102-102l105.2-76C291.7,30.7,293.8,37.1,293.8,43.7z"/>
	</g>
	<path class="st0" d="M182.6,101.4l-17.3,12.5c-9.1,6.8-21.6,6.8-30.8,0l-17.3-12.5l-102,102c5.9,5.9,13.8,9.1,22.1,9.1H69
		c3.4-44.7,42.4-78.2,87.1-74.8c40,3,71.8,34.8,74.8,74.8h31.6c8.3,0,16.3-3.3,22.1-9.1L182.6,101.4z"/>
	<path class="st2" d="M262.5,212.5h-25c-3.5,0-6.3-2.8-6.3-6.3s2.8-6.3,6.3-6.3h25c10.3,0,18.8-8.4,18.8-18.8V43.7
		c0-10.3-8.4-18.8-18.8-18.8h-225c-10.3,0-18.8,8.4-18.8,18.8v137.5c0,10.3,8.4,18.8,18.8,18.8h25c3.5,0,6.3,2.8,6.3,6.3
		s-2.8,6.3-6.3,6.3h-25c-17.2,0-31.3-14-31.3-31.3V43.7c0-17.2,14-31.3,31.3-31.3h225.1c17.2,0,31.3,14,31.3,31.3v137.5
		C293.8,198.5,279.8,212.5,262.5,212.5z"/>
	<path class="st2" d="M150,125.2c-6.7,0-13.4-2.1-19.1-6.3L33.8,48.8c-2.8-2-3.4-5.9-1.4-8.7s5.9-3.4,8.7-1.4l97.2,70.2
		c7,5.1,16.4,5.1,23.4,0l97.2-70.2c2.8-2,6.7-1.4,8.7,1.4c2,2.8,1.4,6.7-1.4,8.7L169,118.9C163.4,123.1,156.7,125.2,150,125.2z"/>
	<path class="st2" d="M37.5,187.5c-1.6,0-3.2-0.6-4.4-1.8c-2.4-2.4-2.4-6.4,0-8.8l62.5-62.5c2.4-2.4,6.4-2.4,8.8,0s2.4,6.4,0,8.8
		l-62.5,62.5C40.7,186.9,39.1,187.5,37.5,187.5z"/>
	<path class="st2" d="M262.5,187.5c-1.6,0-3.2-0.6-4.4-1.8l-62.5-62.5c-2.4-2.4-2.4-6.4,0-8.8s6.4-2.4,8.8,0l62.5,62.5
		c2.4,2.4,2.4,6.4,0,8.8C265.7,186.9,264.1,187.5,262.5,187.5z"/>
	<path class="st2" d="M150,287.5c-0.4,0-0.8,0-1.2,0c-18.4-0.3-35.5-7.7-48.3-20.9c-26.4-27.3-25.6-70.9,1.6-97.2
		c13.2-12.8,30.9-19.7,49-19.3c18.4,0.3,35.5,7.7,48.3,20.9c12.5,12.9,19.3,29.9,19.3,47.8c0,3.5-2.8,6.3-6.3,6.3s-6.3-2.8-6.3-6.3
		c0-14.7-5.6-28.6-15.8-39.1c-10.5-10.8-24.5-16.9-39.5-17.1c-14.7,0-29.2,5.4-40,15.8c-22.3,21.6-22.9,57.3-1.3,79.5
		C120,268.7,134,274.8,149,275c15.1,0.5,29.2-5.4,40-15.8c2.5-2.4,6.4-2.3,8.8,0.1c2.4,2.5,2.3,6.4-0.1,8.8
		C184.9,280.7,168,287.5,150,287.5z"/>
	<path class="st2" d="M150,250c-17.2,0-31.3-14-31.3-31.3s14-31.3,31.3-31.3s31.3,14,31.3,31.3S167.2,250,150,250z M150,200
		c-10.3,0-18.8,8.4-18.8,18.8c0,10.3,8.4,18.8,18.8,18.8c10.3,0,18.8-8.4,18.8-18.8S160.3,200,150,200z"/>
	<path class="st2" d="M193.8,250c-15.7,0-25-11.7-25-31.3c0-3.5,2.8-6.3,6.3-6.3s6.3,2.8,6.3,6.3c0,12.4,4.2,18.8,12.5,18.8
		c9.4,0,12.5-4.7,12.5-18.8c0-3.5,2.8-6.3,6.3-6.3s6.3,2.8,6.3,6.3C218.8,226.5,218.8,250,193.8,250z"/>
</g>
</svg>
