<?xml version="1.0" encoding="utf-8"?>
<!-- Generator: Adobe Illustrator 16.0.3, SVG Export Plug-In . SVG Version: 6.00 Build 0)  -->
<!DOCTYPE svg PUBLIC "-//W3C//DTD SVG 1.1//EN" "http://www.w3.org/Graphics/SVG/1.1/DTD/svg11.dtd">
<svg version="1.1" id="Capa_1" xmlns="http://www.w3.org/2000/svg" xmlns:xlink="http://www.w3.org/1999/xlink" x="0px" y="0px"
	 width="59px" height="40px" viewBox="0 0 59 40" enable-background="new 0 0 59 40" xml:space="preserve">
<rect x="19.17" y="0.28" display="none" fill="#E5ECEC" width="20.657" height="39.438"/>
<path display="none" fill="#E03B36" d="M19.17,0.281H6.023c-3.098,0-5.633,2.254-5.633,5.446v28.546
	c0,3.193,2.535,5.446,5.633,5.446H19.17V0.281z"/>
<path display="none" fill="#E03B36" d="M52.975,0.281H39.828v39.438h13.146c3.099,0,5.634-2.253,5.634-5.446V5.727
	C58.608,2.535,56.073,0.281,52.975,0.281"/>
<path display="none" fill="#D42828" d="M52.975,0.281H39.828v28.264l12.958,11.174c3.099,0,5.822-2.253,5.822-5.446V5.727
	C58.608,2.535,56.073,0.281,52.975,0.281"/>
<polygon display="none" fill="#DBE7E6" points="39.828,28.545 39.828,0.281 19.17,0.281 19.17,11.455 "/>
<polygon display="none" fill="#D42828" points="19.17,0.281 6.023,0.281 19.17,11.455 "/>
<path display="none" fill="#BF151A" d="M39.828,39.719h13.146c3.1,0,5.634-1.878,5.634-5.634H39.828V39.719z"/>
<rect x="19.17" y="34.085" display="none" fill="#CFE0DE" width="20.657" height="5.635"/>
<path display="none" fill="#BF151A" d="M0.391,34.085c0,3.756,2.534,5.634,5.634,5.634h13.145v-5.634H0.391z"/>
<path display="none" fill="#BF151A" d="M52.975,0.281H39.828v9.954l18.78,5.821V5.727C58.608,2.535,56.073,0.281,52.975,0.281"/>
<polygon display="none" fill="#CFE0DE" points="39.828,10.234 39.828,0.28 19.17,0.28 19.17,4.13 "/>
<polygon display="none" fill="#BF151A" points="19.17,0.281 6.023,0.281 19.17,4.131 "/>
<path fill="#667DB9" d="M25.244,39.936h21.481c6.553,0,11.885-4.918,11.885-10.963V11.336c0-6.045-5.332-10.962-11.885-10.962
	H12.547c-6.553,0-11.884,4.917-11.884,10.962v17.636c0,6.045,5.331,10.963,11.884,10.963h1.763"/>
<path fill="#374783" d="M46.725,0.375H29.636v39.561h17.088c6.553,0,11.883-4.918,11.883-10.963V11.336
	C58.607,5.292,53.277,0.375,46.725,0.375"/>
<path fill="#FFFFFF" d="M58.609,13.242H44.335l10.624-9.8c-2.137-1.897-5.041-3.066-8.234-3.066h-2.846l-6.747,6.223V0.375H22.139
	v6.223l-6.747-6.223h-2.846c-3.194,0-6.098,1.169-8.235,3.066l10.626,9.8H0.664v13.831h14.273L4.71,36.505l-0.397,0.364
	c2.139,1.898,5.041,3.066,8.233,3.066h1.764h1.087l6.561-6.054l-0.116,6.054h15.291v-6.204l6.7,6.204h2.893
	c3.18,0,6.071-1.158,8.205-3.04l-0.4-0.371l-10.213-9.452h14.293V13.242z"/>
<path fill="#C0CCDC" d="M58.609,13.242H44.335l10.624-9.8c-2.137-1.897-5.041-3.066-8.234-3.066h-2.846l-6.747,6.223V0.375h-7.496
	v39.561h7.496v-6.204l6.7,6.204h2.893c3.18,0,6.071-1.158,8.205-3.04l-0.4-0.371l-10.213-9.452h14.293V13.242z"/>
<polygon fill="#F3307B" points="33.737,16.373 33.737,0.375 25.534,0.375 25.534,16.373 0.664,16.373 0.664,23.94 25.534,23.94 
	25.244,39.934 33.737,39.934 33.737,23.94 58.607,23.94 58.607,16.373 "/>
<polygon fill="#CA145C" points="33.737,16.373 33.737,0.375 29.636,0.375 29.636,39.934 33.737,39.934 33.737,23.94 58.607,23.94 
	58.607,16.373 "/>
<path fill="#F3307B" d="M23.271,14.286v-2.215L10.73,0.502C9.444,0.685,8.224,1.06,7.108,1.592l13.762,12.694H23.271z"/>
<path fill="#CA145C" d="M52.164,1.591c-1.117-0.532-2.335-0.906-3.622-1.088L36.001,12.071v2.215H38.4L52.164,1.591z"/>
<path fill="#F3307B" d="M7.112,38.721c1.115,0.531,2.335,0.904,3.621,1.088L23.27,28.242v-2.214h-2.399L7.112,38.721z"/>
<path fill="#CA145C" d="M36.001,26.028v2.221l12.493,11.564c1.29-0.18,2.513-0.549,3.63-1.078L38.395,26.028H36.001z"/>
</svg>
