<?xml version="1.0" encoding="utf-8"?>
<!-- Generator: Adobe Illustrator 24.3.0, SVG Export Plug-In . SVG Version: 6.00 Build 0)  -->
<svg version="1.1" id="Capa_1" xmlns="http://www.w3.org/2000/svg" xmlns:xlink="http://www.w3.org/1999/xlink" x="0px" y="0px"
	 viewBox="0 0 119.8 140.8" style="enable-background:new 0 0 119.8 140.8;" xml:space="preserve">
<style type="text/css">
	.st0{fill:#33ACAD;}
</style>
<g id="Capa_2_00000029027870581443944050000012115944705592646293_">
	<g id="Capa_1-2">
		<g id="surface1">
			<path class="st0" d="M119.6,38.2L119.6,38.2c-0.1-1.4-0.1-2.9-0.1-4.5c-0.1-7.8-6.2-14.1-14-14.6c-16.2-0.9-28.7-6.2-39.4-16.6
				l-0.2-0.1c-3.5-3.2-8.8-3.2-12.2,0l-0.1,0.1C42.9,12.9,30.4,18.2,14.2,19.1c-7.8,0.5-13.8,6.8-14,14.6c0,1.6-0.1,3-0.1,4.4v0.2
				c-0.3,16.5-0.7,37,6.2,55.7c3.6,10,9.4,19,17,26.5c8.5,8.3,19.7,14.9,33.3,19.7c0.4,0.2,0.9,0.3,1.4,0.4c1.3,0.3,2.7,0.3,4,0
				c0.5-0.1,0.9-0.2,1.4-0.4c13.5-4.7,24.7-11.4,33.2-19.7c7.6-7.4,13.4-16.5,17-26.5C120.3,75.3,119.9,54.7,119.6,38.2z
				 M105.6,91.1c-7.2,19.6-22,33.1-45.2,41.2l-0.3,0.1c-0.2,0-0.5,0-0.7,0l-0.2-0.1c-23.2-8.1-38-21.6-45.2-41.2
				c-6.3-17.2-6-36-5.7-52.6v-0.1c0.1-1.4,0.1-2.9,0.1-4.6c0.1-3.5,2.8-6.3,6.2-6.5c8.4-0.3,16.8-2.2,24.6-5.4
				c7.5-3.2,14.2-7.8,20-13.5c0.3-0.3,0.7-0.3,1,0c5.8,5.7,12.5,10.3,20,13.5c7.8,3.2,16.2,5.1,24.7,5.4c3.5,0.2,6.2,3,6.2,6.5
				c0,1.7,0.1,3.2,0.1,4.6C111.6,55,112,73.9,105.6,91.1z"/>
			<path class="st0" d="M59.8,35.3c-19.4,0-35,15.7-35,35.1s15.7,35,35.1,35c19.3,0,35-15.7,35-35.1C94.9,51,79.2,35.3,59.8,35.3z
				 M59.8,97.1C45,97.1,33,85.1,33,70.3s12-26.8,26.8-26.8s26.8,12,26.8,26.8l0,0C86.6,85.1,74.6,97.1,59.8,97.1z"/>
			<path class="st0" d="M69.9,59.5L53.6,75.7l-4.4-4.4c-1.6-1.6-4.3-1.5-5.8,0.1c-1.6,1.6-1.6,4.1,0,5.7l7.3,7.3
				c1.6,1.6,4.2,1.6,5.8,0l19.2-19.2c1.7-1.5,2-4.1,0.5-5.8s-4.1-2-5.8-0.5C70.2,59.1,70,59.3,69.9,59.5z"/>
		</g>
	</g>
</g>
</svg>
