<?xml version="1.0" encoding="utf-8"?>
<!-- Generator: Adobe Illustrator 24.3.0, SVG Export Plug-In . SVG Version: 6.00 Build 0)  -->
<svg version="1.1" id="Capa_1" xmlns="http://www.w3.org/2000/svg" xmlns:xlink="http://www.w3.org/1999/xlink" x="0px" y="0px"
	 viewBox="0 0 59 40" style="enable-background:new 0 0 59 40;" xml:space="preserve">
<style type="text/css">
	.st0{fill:#FFDA44;}
	.st1{fill:#D80027;}
</style>
<g>
	<path class="st0" d="M6,0.3h47c3.1,0,5.6,2.5,5.6,5.6v28.2c0,3.1-2.5,5.6-5.6,5.6H6c-3.1,0-5.6-2.5-5.6-5.6V5.9
		C0.4,2.8,2.9,0.3,6,0.3z"/>
	<g>
		<path class="st1" d="M5.8,0.3h47.4c3,0,5.4,2.4,5.4,5.4v7.7H0.4V5.7C0.4,2.7,2.8,0.3,5.8,0.3z"/>
		<path class="st1" d="M0.4,26.6h58.2v7.7c0,3-2.4,5.4-5.4,5.4H5.8c-3,0-5.4-2.4-5.4-5.4V26.6z"/>
	</g>
	<g>
	</g>
	<g>
	</g>
	<g>
	</g>
	<g>
	</g>
	<g>
	</g>
	<g>
	</g>
	<g>
	</g>
	<g>
	</g>
	<g>
	</g>
	<g>
	</g>
	<g>
	</g>
	<g>
	</g>
	<g>
	</g>
	<g>
	</g>
	<g>
	</g>
</g>
</svg>
