<?xml version="1.0" encoding="utf-8"?>
<!-- Generator: Adobe Illustrator 25.4.1, SVG Export Plug-In . SVG Version: 6.00 Build 0)  -->
<svg version="1.1" id="Capa_1" xmlns="http://www.w3.org/2000/svg" xmlns:xlink="http://www.w3.org/1999/xlink" x="0px" y="0px"
	 viewBox="0 0 400 400" style="enable-background:new 0 0 400 400;" xml:space="preserve">
<style type="text/css">
	.st0{fill:#C8CE3D;}
	.st1{fill:#44AFA0;}
	.st2{fill:#5A5D5D;}
</style>
<image style="display:none;overflow:visible;" width="512" height="512" xlink:href="1353ADBF.jpg"  transform="matrix(0.7809 0 0 0.7809 0.1818 0.1818)">
</image>
<path class="st0" d="M89.9,178c-0.8-5.2-1.1-10.6-1.1-16c0-61.6,49.9-111.5,111.5-111.5S311.8,100.4,311.8,162
	c0,5.4-0.4,10.8-1.1,16h26.2c0.6-5.2,0.9-10.6,0.9-16c0-75.9-61.6-137.5-137.5-137.5S62.8,86.1,62.8,162c0,5.4,0.3,10.8,0.9,16H89.9
	z"/>
<path class="st0" d="M244,325h57.6c0,0,10.1-2,10.7-12h25.2c0,0-2,36.8-36.8,36.8H244V325z"/>
<path class="st1" d="M337.5,313h-49.8c-7,0-12.7-5.7-12.7-12.7v-114c0-6.2,5.1-11.3,11.3-11.3h51.5c20.5,0,37.2,16.7,37.2,37.2v63.3
	C375,296.2,358.2,313,337.5,313z"/>
<path class="st1" d="M62.5,313h49.8c7,0,12.7-5.7,12.7-12.7v-114c0-6.2-5.1-11.3-11.3-11.3H62.2C41.7,175,25,191.7,25,212.2v63.3
	C25,296.2,41.8,313,62.5,313z"/>
<path class="st2" d="M212.5,375h-25c-20.7,0-37.5-16.8-37.5-37.5v0c0-20.7,16.8-37.5,37.5-37.5h25c20.7,0,37.5,16.8,37.5,37.5v0
	C250,358.2,233.2,375,212.5,375z"/>
</svg>
