<?xml version="1.0" encoding="utf-8"?>
<!-- Generator: Adobe Illustrator 16.0.3, SVG Export Plug-In . SVG Version: 6.00 Build 0)  -->
<!DOCTYPE svg PUBLIC "-//W3C//DTD SVG 1.1//EN" "http://www.w3.org/Graphics/SVG/1.1/DTD/svg11.dtd">
<svg version="1.1" id="Capa_1" xmlns="http://www.w3.org/2000/svg" xmlns:xlink="http://www.w3.org/1999/xlink" x="0px" y="0px"
	 width="2225px" height="2224px" viewBox="0 0 2225 2224" enable-background="new 0 0 2225 2224" xml:space="preserve">
<g>
	<path fill="#FFA811" d="M757.589-3154.292c-30.128,0-52.641-7.66-68.781-23.415c-17.001-16.615-25.136-40.029-24.877-71.709
		c1.118-121.81-43.688-227.004-141.093-330.996c-104.895-111.908-159.817-256.1-154.696-405.887
		c5.167-149.1,69.213-290.622,180.478-398.488c108.597-105.28,251.969-163.215,403.823-163.215h0.129
		c151.81,0,295.399,58.021,404.339,163.39c109.843,106.142,172.514,247.836,176.515,398.915
		c4.005,151.853-51.778,296.389-157.146,406.923c-99.125,103.903-143.374,208.581-139.327,329.274
		c1.033,31.248-6.542,54.576-23.157,71.364c-16.571,16.699-39.686,24.358-70.848,23.585c-44.678-1.204-90.431-0.945-134.679-0.688
		c-19.197,0.085-38.395,0.258-57.591,0.258h-0.344c-18.724,0-37.533-0.173-56.256-0.343c-42.655-0.346-86.816-0.69-129.686,0.86
		C762.066-3154.378,759.828-3154.292,757.589-3154.292 M741.75-3232.025c1.421,0.603,6.629,2.323,19.885,1.894
		c44.55-1.637,89.529-1.291,133.044-0.948c18.595,0.172,37.146,0.258,55.654,0.258h0.344c19.024,0,38.094-0.086,57.159-0.17
		c44.852-0.258,91.208-0.516,137.091,0.688c9.038,0.258,13.342-0.86,14.979-1.378c0.56-1.637,1.634-6.022,1.334-15.237
		c-4.735-140.489,47.648-266.088,160.161-384.106c189.902-199.201,182.369-506.266-17.175-699.182
		c-197.349-190.849-506.134-190.936-702.881-0.171c-202.298,196.187-212.327,496.276-23.243,698.231
		c110.061,117.421,162.915,242.845,161.581,383.507C739.598-3237.795,741.19-3233.319,741.75-3232.025"/>
	<path fill="#9DD220" d="M1114.281-2952.251H787.203c-20.918,0-37.877-16.957-37.877-37.877c0-20.919,16.959-37.877,37.877-37.877
		h327.079c20.962,0,37.878,16.958,37.878,37.877C1152.159-2969.208,1135.244-2952.251,1114.281-2952.251"/>
	<path fill="#9DD220" d="M1045.715-2813.998H855.726c-20.875,0-37.834-16.96-37.834-37.877c0-20.92,16.959-37.877,37.834-37.877
		h189.989c20.917,0,37.835,16.957,37.835,37.877C1083.55-2830.958,1066.632-2813.998,1045.715-2813.998"/>
	<path fill="#3F3F3E" d="M1242.978-4039.499c-6.369-0.689-14.419-7.748-17.517-14.032c-10.074-20.316-18.379-41.492-26.86-62.583
		c-2.108-5.251-4.477-12.053-2.797-16.787c18.25-52.08,13.644-105.971,13.817-159.602c0.042-20.573-7.747-28.063-28.234-27.288
		c-42.828,1.637-83.159,12.568-120.606,34.176c-49.284,28.236-84.535,69.297-109.154,121.379c-2.456-2.582-3.013-3.013-3.316-3.529
		c-2.84-5.423-5.422-10.848-8.437-16.012c-48.465-84.364-121.378-129.645-218.481-136.187c-15.194-0.945-28.838,3.099-28.795,20.144
		c0.044,43.561-1.465,87.635,5.078,130.331c4.735,30.733,3.616,55.698-8.479,85.313c-12.74,31.248-25.481,50.875-61.164,49.583
		c-15.796-0.601-22.079,9.901-21.865,25.052c0.259,22.897,0.173,45.711,0,68.524c-0.084,14.03,5.424,24.963,20.359,24.361
		c37.791-1.722,50.316,19.971,63.833,51.994c12.954,30.646,15.666,51.564-9.383,74.377c-10.289,9.384-10.03,21.779,0.042,32.11
		c17.346,17.819,34.046,36.585,53.286,51.996c6.414,5.077,24.879,5.853,29.484,0.86c24.75-26.601,46.874-22.211,78.337-8.781
		c30.862,13.17,51.004,25.394,49.498,61.292c-0.646,15.752,9.856,21.952,25.137,21.781c22.812-0.434,45.667-0.347,68.48-0.089
		c14.161,0.173,24.92-5.25,24.275-20.313c-1.378-36.502,18.594-49.673,50.488-62.844c30.732-12.74,52.383-18.422,76.143,8.608
		c10.674,12.053,23.975,8.782,35.079-2.841c12.138-12.482,24.534-24.791,36.931-37.018c26.083-25.824,27.073-28.577,3.141-56.126
		c-13.858-15.925-19.798-29.439-5.465-48.379c6.628-8.695,10.932-20.23,13.171-31.249c4.821-22.813,16.184-32.195,40.717-32.799
		c32.498-0.688,35.338-6.37,35.338-39.685c0-8.694,0.172-17.475-0.043-26.17C1293.94-4028.738,1306.336-4032.957,1242.978-4039.499
		 M732.195-4278.643c74.334,8.177,130.848,42.956,166.788,105.885c15.152,26.428,20.488,58.536,29.527,88.407
		c4.777,15.84-4.348,41.837,22.77,41.58c25.438-0.26,19.585-24.879,20.918-40.717c8.522-101.667,94.305-187.407,195.283-194.036
		c11.751,107.434-13.257,199.544-113.633,255.671c-17.775,9.899-38.135,16.185-58.105,20.918
		c-18.466,4.305-25.955,13.689-25.784,31.938c0.387,42.87,0.13,85.739,0.13,131.021H933.03c-0.603-7.059-1.507-14.032-1.507-21.09
		c-0.129-36.242-0.259-72.483,0.086-108.64c0.215-18.939-7.274-29.183-26.902-33.229
		c-97.706-20.745-167.176-102.956-172.341-203.503C731.162-4228.369,732.195-4252.473,732.195-4278.643 M1253.61-3953.846
		c-10.847,1.377-22.469,3.443-34.133,4.132c-16.227,0.946-24.49,8.178-29.527,24.362c-8.35,26.601-17.992,53.287-31.206,77.734
		c-9.813,17.992-12.31,31.509,2.711,46.659c6.974,7.058,12.311,15.665,20.101,25.824c-10.716,10.244-19.842,19.025-30.818,29.526
		c-9.856-7.317-20.316-14.29-29.614-22.382c-11.836-10.415-22.596-9.727-36.585-3.012c-26.945,12.998-54.533,25.307-82.899,34.52
		c-17.001,5.509-24.535,13.945-25.224,30.904c-0.386,10.675-2.237,21.349-3.615,33.143h-43.342
		c-1.121-6.715-2.54-13.688-3.402-20.747c-4.648-37.188-4.948-35.898-39.47-46.83c-22.725-7.231-45.193-16.788-65.897-28.666
		c-16.656-9.556-28.579-9.212-43.344,2.927c-27.848,22.898-28.45,22.21-56.213-10.33c7.618-10.158,15.194-21.004,23.544-31.161
		c8.995-10.848,7.79-20.92,2.109-33.316c-12.956-28.408-25.353-57.246-35.726-86.687c-5.036-14.117-12.568-21.09-26.901-22.383
		c-11.965-0.946-23.932-2.323-36.845-3.701v-42.095c1.378-0.947,2.455-2.239,3.487-2.153c39.125,1.291,65.338-12.567,68.136-56.041
		c0.517-8.091,5.94-15.753,9.341-24.19c15.709,18.08,31.075,34.778,44.937,52.686c3.141,4.131,2.194,12.567,1.162,18.767
		c-14.937,92.024,39.125,177.764,128.308,202.987c87.807,24.792,179.186-19.801,213.921-105.368
		c12.87-31.507,16.699-64.391,10.588-98.567c-1.249-7.575,2.712-17.733,7.447-24.361c11.318-15.668,24.533-29.871,39.082-47.174
		c5.725,17.646,12.827,33.4,15.754,49.929c3.529,19.628,13.902,27.46,32.755,27.891c10.029,0.172,20.014,2.152,31.378,3.53
		V-3953.846z"/>
	<path fill="#3F3F3E" d="M1755.785-4036.658c-4.305-7.06-6.027-12.913-5.208-17.476c0.687-4.477,4.562-6.714,11.535-6.714h73.385
		c2.756,0.344,4.994,0.688,6.802,1.031c1.807,0.259,3.486,1.033,4.995,2.153c1.461,1.291,3.012,3.185,4.518,5.854
		c1.505,2.668,3.485,6.37,5.895,11.104l162.228,312.573h1.292l165.369-316.104c3.354-6.713,6.37-11.019,9.08-12.825
		c2.754-1.894,6.372-3.1,10.889-3.787h75.669c6.631,0,9.986,3.011,9.986,9.038c0,3.013-1.676,7.403-4.99,13.084
		c-18.768,33.229-37.319,67.061-55.741,101.409c-18.421,34.434-36.758,68.953-55.051,103.73
		c-18.251,34.692-36.675,69.299-55.268,103.732c-18.552,34.435-37.403,68.18-56.428,101.408v290.966
		c0,16.098-6.671,24.189-19.929,24.189h-48.467c-12.697,0-19.066-8.092-19.066-24.189v-288.471L1755.785-4036.658z"/>
	<path fill="#3F3F3E" d="M2580.817-3331.969c-2.149,5.766-5.162,10.326-9.08,13.687c-3.918,3.356-8.912,4.907-14.937,4.907h-48.075
		c-13.862,0-20.792-5.77-20.792-17.562c0-2.324,0.042-4.218,0.215-5.769c0.128-1.549,0.345-2.928,0.688-4.306
		c0.301-1.29,0.604-2.493,0.906-3.526l261.395-697.718c0.647-1.636,1.379-3.615,2.322-5.768c0.861-2.152,2.067-4.218,3.617-6.026
		c1.465-1.807,3.658-3.443,6.543-4.82c2.884-1.291,6.714-2.064,11.534-2.064h29.958c4.478,0,8.178,0.773,11.062,2.064
		c2.842,1.377,5.079,3.014,6.543,4.82c1.552,1.809,2.755,3.874,3.615,6.026c0.948,2.152,1.68,4.132,2.325,5.768l259.158,697.718
		c0.258,1.636,0.559,3.354,0.86,5.077c0.257,1.721,0.603,3.272,0.946,4.822c0.258,1.461,0.431,2.669,0.431,3.701
		c0,11.792-6.974,17.562-20.834,17.562h-48.076c-5.982,0-11.019-1.551-14.935-4.907c-3.92-3.36-6.889-7.921-9.041-13.687
		l-49.843-138.339h-318.083c-10.545,29.87-20.23,56.815-28.967,81.005C2591.493-3365.113,2585.036-3346.003,2580.817-3331.969
		 M2665.526-3568.013h246.936l-122.327-344.339L2665.526-3568.013z"/>
	<path fill="#3F3F3E" d="M3338.319-4036.745c0-16.099,6.976-24.103,20.834-24.103h225.196c29.915,0,57.59,6.198,83.159,18.593
		c25.524,12.396,47.605,29.356,66.326,50.617c18.727,21.265,33.359,46.142,43.99,74.466c10.588,28.406,15.842,58.365,15.842,89.87
		c0,30.906-5.21,60.261-15.668,88.065c-10.376,27.89-24.879,52.511-43.43,73.773c-18.596,21.35-40.461,38.222-65.727,50.876
		c-25.223,12.57-52.639,18.854-82.255,18.854h-160.806v260.321c0,14.807-6.628,22.122-19.926,22.122h-47.607
		c-13.301,0-19.93-7.315-19.93-22.122V-4036.745z M3706.202-3828.248c0-17.818-3.185-34.949-9.468-51.394
		c-6.328-16.441-15.065-30.904-26.084-43.558c-11.019-12.569-23.93-22.641-38.738-30.216c-14.764-7.576-30.645-11.362-47.563-11.362
		h-158.567v272.888h158.567c16.313,0,31.854-3.617,46.659-11.02c14.763-7.404,27.762-17.475,38.951-29.957
		c11.234-12.567,20.016-27.117,26.56-43.56C3702.976-3792.867,3706.202-3810.17,3706.202-3828.248"/>
	<path fill="#3F3F3E" d="M4141.619-3622.419c0,31.938,4.133,61.55,12.481,89.097c8.309,27.547,20.531,51.393,36.673,71.709
		c16.187,20.314,35.855,36.327,59.139,47.862c23.244,11.621,49.802,17.39,79.761,17.39c31.979,0,59.913-5.854,83.76-17.647
		c23.889-11.707,43.602-27.721,59.137-48.037c15.583-20.313,27.203-44.248,34.91-71.707c7.748-27.548,11.577-57.073,11.577-88.666
		v-416.307c0-6.026,2.024-11.189,6.112-15.581c4.047-4.39,9.125-6.541,15.148-6.541h43.519c5.724,0,11.019,1.979,15.882,6.025
		c4.779,3.96,7.232,9.383,7.232,16.097v429.907c0,45.367-7.232,86.858-21.779,124.65c-14.507,37.705-34.348,70.159-59.57,97.102
		c-25.182,27.033-54.621,48.124-88.324,63.189c-33.7,15.148-69.598,22.64-107.604,22.64c-38.053,0-73.904-8.094-107.395-24.19
		c-33.527-16.013-62.883-38.136-88.104-66.201c-25.269-27.976-45.066-60.602-59.571-97.877
		c-14.548-37.189-21.78-76.959-21.78-119.313v-429.907c0-5.078,1.721-9.984,5.25-14.806c3.443-4.907,8.05-7.316,13.775-7.316h48.508
		c4.518,0,9.211,2.151,13.987,6.541c4.865,4.392,7.275,9.555,7.275,15.581V-3622.419z"/>
</g>
<g>
	<path fill="#FFA811" d="M757.589-738.292c-30.128,0-52.641-7.66-68.781-23.415c-17.001-16.615-25.136-40.029-24.877-71.709
		c1.118-121.81-43.688-227.004-141.093-330.996c-104.895-111.908-159.817-256.1-154.696-405.887
		c5.167-149.1,69.213-290.622,180.478-398.488c108.597-105.28,251.969-163.215,403.823-163.215h0.129
		c151.81,0,295.399,58.021,404.339,163.39c109.843,106.142,172.514,247.836,176.515,398.915
		c4.005,151.853-51.778,296.389-157.146,406.923c-99.125,103.903-143.374,208.581-139.327,329.274
		c1.033,31.248-6.542,54.576-23.157,71.364c-16.571,16.699-39.686,24.358-70.848,23.585c-44.678-1.204-90.431-0.945-134.679-0.688
		c-19.197,0.085-38.395,0.258-57.591,0.258h-0.344c-18.724,0-37.533-0.173-56.256-0.343c-42.655-0.346-86.816-0.69-129.686,0.86
		C762.066-738.378,759.828-738.292,757.589-738.292 M741.75-816.025c1.421,0.603,6.629,2.323,19.885,1.894
		c44.55-1.637,89.529-1.291,133.044-0.948c18.595,0.172,37.146,0.258,55.654,0.258h0.344c19.024,0,38.094-0.086,57.159-0.17
		c44.852-0.258,91.208-0.516,137.091,0.688c9.038,0.258,13.342-0.86,14.979-1.378c0.56-1.637,1.634-6.022,1.334-15.237
		c-4.735-140.489,47.648-266.088,160.161-384.106c189.902-199.201,182.369-506.266-17.175-699.182
		c-197.349-190.849-506.134-190.936-702.881-0.171c-202.298,196.187-212.327,496.276-23.243,698.231
		c110.061,117.421,162.915,242.845,161.581,383.507C739.598-821.795,741.19-817.319,741.75-816.025"/>
	<path fill="#9DD220" d="M1114.281-536.251H787.203c-20.918,0-37.877-16.957-37.877-37.877c0-20.919,16.959-37.877,37.877-37.877
		h327.079c20.962,0,37.878,16.958,37.878,37.877C1152.159-553.208,1135.244-536.251,1114.281-536.251"/>
	<path fill="#9DD220" d="M1045.715-397.998H855.726c-20.875,0-37.834-16.96-37.834-37.877c0-20.92,16.959-37.877,37.834-37.877
		h189.989c20.917,0,37.835,16.957,37.835,37.877C1083.55-414.958,1066.632-397.998,1045.715-397.998"/>
	<path fill="#FFFFFF" d="M1242.978-1623.499c-6.369-0.689-14.419-7.748-17.517-14.032c-10.074-20.316-18.379-41.492-26.86-62.583
		c-2.108-5.251-4.477-12.053-2.797-16.787c18.25-52.08,13.644-105.971,13.817-159.602c0.042-20.573-7.747-28.063-28.234-27.288
		c-42.828,1.637-83.159,12.568-120.606,34.176c-49.284,28.236-84.535,69.297-109.154,121.379c-2.456-2.582-3.013-3.013-3.316-3.529
		c-2.84-5.423-5.422-10.848-8.437-16.012c-48.465-84.364-121.378-129.645-218.481-136.187c-15.194-0.945-28.838,3.099-28.795,20.144
		c0.044,43.561-1.465,87.635,5.078,130.331c4.735,30.733,3.616,55.698-8.479,85.313c-12.74,31.248-25.481,50.875-61.164,49.583
		c-15.796-0.601-22.079,9.901-21.865,25.052c0.259,22.897,0.173,45.711,0,68.524c-0.084,14.03,5.424,24.963,20.359,24.361
		c37.791-1.722,50.316,19.971,63.833,51.994c12.954,30.646,15.666,51.564-9.383,74.377c-10.289,9.384-10.03,21.779,0.042,32.11
		c17.346,17.819,34.046,36.585,53.286,51.996c6.414,5.077,24.879,5.853,29.484,0.86c24.75-26.601,46.874-22.211,78.337-8.781
		c30.862,13.17,51.004,25.394,49.498,61.292c-0.646,15.752,9.856,21.952,25.137,21.781c22.812-0.434,45.667-0.347,68.48-0.089
		c14.161,0.173,24.92-5.25,24.275-20.313c-1.378-36.502,18.594-49.673,50.488-62.844c30.732-12.74,52.383-18.422,76.143,8.608
		c10.674,12.053,23.975,8.782,35.079-2.841c12.138-12.482,24.534-24.791,36.931-37.018c26.083-25.824,27.073-28.577,3.141-56.126
		c-13.858-15.925-19.798-29.439-5.465-48.379c6.628-8.695,10.932-20.23,13.171-31.249c4.821-22.813,16.184-32.195,40.717-32.799
		c32.498-0.688,35.338-6.37,35.338-39.685c0-8.694,0.172-17.475-0.043-26.17C1293.94-1612.738,1306.336-1616.957,1242.978-1623.499
		 M732.195-1862.643c74.334,8.177,130.848,42.956,166.788,105.885c15.152,26.428,20.488,58.536,29.527,88.407
		c4.777,15.84-4.348,41.837,22.77,41.58c25.438-0.26,19.585-24.879,20.918-40.717c8.522-101.667,94.305-187.407,195.283-194.036
		c11.751,107.434-13.257,199.544-113.633,255.671c-17.775,9.899-38.135,16.185-58.105,20.918
		c-18.466,4.305-25.955,13.689-25.784,31.938c0.387,42.87,0.13,85.739,0.13,131.021H933.03c-0.603-7.059-1.507-14.032-1.507-21.09
		c-0.129-36.242-0.259-72.483,0.086-108.64c0.215-18.939-7.274-29.183-26.902-33.229
		c-97.706-20.745-167.176-102.956-172.341-203.503C731.162-1812.369,732.195-1836.473,732.195-1862.643 M1253.61-1537.846
		c-10.847,1.377-22.469,3.443-34.133,4.132c-16.227,0.946-24.49,8.178-29.527,24.362c-8.35,26.601-17.992,53.287-31.206,77.734
		c-9.813,17.992-12.31,31.509,2.711,46.659c6.974,7.058,12.311,15.665,20.101,25.824c-10.716,10.244-19.842,19.025-30.818,29.526
		c-9.856-7.317-20.316-14.29-29.614-22.382c-11.836-10.415-22.596-9.727-36.585-3.012c-26.945,12.998-54.533,25.307-82.899,34.52
		c-17.001,5.509-24.535,13.945-25.224,30.904c-0.386,10.675-2.237,21.349-3.615,33.143h-43.342
		c-1.121-6.715-2.54-13.688-3.402-20.747c-4.648-37.188-4.948-35.898-39.47-46.83c-22.725-7.231-45.193-16.788-65.897-28.666
		c-16.656-9.556-28.579-9.212-43.344,2.927c-27.848,22.898-28.45,22.21-56.213-10.33c7.618-10.158,15.194-21.004,23.544-31.161
		c8.995-10.848,7.79-20.92,2.109-33.316c-12.956-28.408-25.353-57.246-35.726-86.687c-5.036-14.117-12.568-21.09-26.901-22.383
		c-11.965-0.946-23.932-2.323-36.845-3.701v-42.095c1.378-0.947,2.455-2.239,3.487-2.153c39.125,1.291,65.338-12.567,68.136-56.041
		c0.517-8.091,5.94-15.753,9.341-24.19c15.709,18.08,31.075,34.778,44.937,52.686c3.141,4.131,2.194,12.567,1.162,18.767
		c-14.937,92.024,39.125,177.764,128.308,202.987c87.807,24.792,179.186-19.801,213.921-105.368
		c12.87-31.507,16.699-64.391,10.588-98.567c-1.249-7.575,2.712-17.733,7.447-24.361c11.318-15.668,24.533-29.871,39.082-47.174
		c5.725,17.646,12.827,33.4,15.754,49.929c3.529,19.628,13.902,27.46,32.755,27.891c10.029,0.172,20.014,2.152,31.378,3.53
		V-1537.846z"/>
	<path fill="#FFFFFF" d="M1755.785-1620.658c-4.305-7.06-6.027-12.913-5.208-17.476c0.687-4.477,4.562-6.714,11.535-6.714h73.385
		c2.756,0.344,4.994,0.688,6.802,1.031c1.807,0.259,3.486,1.033,4.995,2.153c1.461,1.291,3.012,3.185,4.518,5.854
		c1.505,2.668,3.485,6.37,5.895,11.104l162.228,312.573h1.292l165.369-316.104c3.354-6.713,6.37-11.019,9.08-12.825
		c2.754-1.894,6.372-3.1,10.889-3.787h75.669c6.631,0,9.986,3.011,9.986,9.038c0,3.013-1.676,7.403-4.99,13.084
		c-18.768,33.229-37.319,67.061-55.741,101.409c-18.421,34.434-36.758,68.953-55.051,103.73
		c-18.251,34.692-36.675,69.299-55.268,103.732c-18.552,34.435-37.403,68.18-56.428,101.408v290.966
		c0,16.098-6.671,24.189-19.929,24.189h-48.467c-12.697,0-19.066-8.092-19.066-24.189v-288.471L1755.785-1620.658z"/>
	<path fill="#FFFFFF" d="M2580.817-915.969c-2.149,5.766-5.162,10.326-9.08,13.687c-3.918,3.356-8.912,4.907-14.937,4.907h-48.075
		c-13.862,0-20.792-5.77-20.792-17.562c0-2.324,0.042-4.218,0.215-5.769c0.128-1.549,0.345-2.928,0.688-4.306
		c0.301-1.29,0.604-2.493,0.906-3.526l261.395-697.718c0.647-1.636,1.379-3.615,2.322-5.768c0.861-2.152,2.067-4.218,3.617-6.026
		c1.465-1.807,3.658-3.443,6.543-4.82c2.884-1.291,6.714-2.064,11.534-2.064h29.958c4.478,0,8.178,0.773,11.062,2.064
		c2.842,1.377,5.079,3.014,6.543,4.82c1.552,1.809,2.755,3.874,3.615,6.026c0.948,2.152,1.68,4.132,2.325,5.768l259.158,697.718
		c0.258,1.636,0.559,3.354,0.86,5.077c0.257,1.721,0.603,3.272,0.946,4.822c0.258,1.461,0.431,2.669,0.431,3.701
		c0,11.792-6.974,17.562-20.834,17.562h-48.076c-5.982,0-11.019-1.551-14.935-4.907c-3.92-3.36-6.889-7.921-9.041-13.687
		l-49.843-138.339h-318.083c-10.545,29.87-20.23,56.815-28.967,81.005C2591.493-949.113,2585.036-930.003,2580.817-915.969
		 M2665.526-1152.013h246.936l-122.327-344.339L2665.526-1152.013z"/>
	<path fill="#FFFFFF" d="M3338.319-1620.745c0-16.099,6.976-24.103,20.834-24.103h225.196c29.915,0,57.59,6.198,83.159,18.593
		c25.524,12.396,47.605,29.356,66.326,50.617c18.727,21.265,33.359,46.142,43.99,74.466c10.588,28.406,15.842,58.365,15.842,89.87
		c0,30.906-5.21,60.261-15.668,88.065c-10.376,27.89-24.879,52.511-43.43,73.773c-18.596,21.35-40.461,38.222-65.727,50.876
		c-25.223,12.57-52.639,18.854-82.255,18.854h-160.806v260.321c0,14.807-6.628,22.122-19.926,22.122h-47.607
		c-13.301,0-19.93-7.315-19.93-22.122V-1620.745z M3706.202-1412.248c0-17.818-3.185-34.949-9.468-51.394
		c-6.328-16.441-15.065-30.904-26.084-43.558c-11.019-12.569-23.93-22.641-38.738-30.216c-14.764-7.576-30.645-11.362-47.563-11.362
		h-158.567v272.888h158.567c16.313,0,31.854-3.617,46.659-11.02c14.763-7.404,27.762-17.475,38.951-29.957
		c11.234-12.567,20.016-27.117,26.56-43.56C3702.976-1376.867,3706.202-1394.17,3706.202-1412.248"/>
	<path fill="#FFFFFF" d="M4141.619-1206.419c0,31.938,4.133,61.55,12.481,89.097c8.309,27.547,20.531,51.393,36.673,71.709
		c16.187,20.314,35.855,36.327,59.139,47.862c23.244,11.621,49.802,17.39,79.761,17.39c31.979,0,59.913-5.854,83.76-17.647
		c23.889-11.707,43.602-27.721,59.137-48.037c15.583-20.313,27.203-44.248,34.91-71.707c7.748-27.548,11.577-57.073,11.577-88.666
		v-416.307c0-6.026,2.024-11.189,6.112-15.581c4.047-4.39,9.125-6.541,15.148-6.541h43.519c5.724,0,11.019,1.979,15.882,6.025
		c4.779,3.96,7.232,9.383,7.232,16.097v429.907c0,45.367-7.232,86.858-21.779,124.65c-14.507,37.705-34.348,70.159-59.57,97.102
		c-25.182,27.033-54.621,48.124-88.324,63.189c-33.7,15.148-69.598,22.64-107.604,22.64c-38.053,0-73.904-8.094-107.395-24.19
		c-33.527-16.013-62.883-38.136-88.104-66.201c-25.269-27.976-45.066-60.602-59.571-97.877
		c-14.548-37.189-21.78-76.959-21.78-119.313v-429.907c0-5.078,1.721-9.984,5.25-14.806c3.443-4.907,8.05-7.316,13.775-7.316h48.508
		c4.518,0,9.211,2.151,13.987,6.541c4.865,4.392,7.275,9.555,7.275,15.581V-1206.419z"/>
</g>
<g>
	<path fill="#FFFFFF" d="M-4370.411-738.292c-30.128,0-52.641-7.66-68.781-23.415c-17.001-16.615-25.136-40.029-24.877-71.709
		c1.118-121.81-43.688-227.004-141.093-330.996c-104.895-111.908-159.817-256.1-154.696-405.887
		c5.167-149.1,69.213-290.622,180.478-398.488c108.597-105.28,251.969-163.215,403.823-163.215h0.129
		c151.81,0,295.399,58.021,404.339,163.39c109.843,106.142,172.514,247.836,176.515,398.915
		c4.005,151.853-51.778,296.389-157.146,406.923c-99.125,103.903-143.374,208.581-139.327,329.274
		c1.033,31.248-6.542,54.576-23.157,71.364c-16.571,16.699-39.686,24.358-70.848,23.585c-44.678-1.204-90.431-0.945-134.679-0.688
		c-19.197,0.085-38.395,0.258-57.591,0.258h-0.344c-18.724,0-37.533-0.173-56.256-0.343c-42.655-0.346-86.816-0.69-129.686,0.86
		C-4365.934-738.378-4368.172-738.292-4370.411-738.292 M-4386.25-816.025c1.421,0.603,6.629,2.323,19.885,1.894
		c44.55-1.637,89.529-1.291,133.044-0.948c18.595,0.172,37.146,0.258,55.654,0.258h0.344c19.024,0,38.094-0.086,57.159-0.17
		c44.852-0.258,91.208-0.516,137.091,0.688c9.038,0.258,13.342-0.86,14.979-1.378c0.56-1.637,1.634-6.022,1.334-15.237
		c-4.735-140.489,47.648-266.088,160.161-384.106c189.902-199.201,182.369-506.266-17.175-699.182
		c-197.349-190.849-506.134-190.936-702.881-0.171c-202.298,196.187-212.327,496.276-23.243,698.231
		c110.061,117.421,162.915,242.845,161.581,383.507C-4388.402-821.795-4386.81-817.319-4386.25-816.025"/>
	<path fill="#FFFFFF" d="M-4013.719-536.251h-327.079c-20.918,0-37.877-16.957-37.877-37.877c0-20.919,16.959-37.877,37.877-37.877
		h327.079c20.962,0,37.878,16.958,37.878,37.877C-3975.841-553.208-3992.756-536.251-4013.719-536.251"/>
	<path fill="#FFFFFF" d="M-4082.285-397.998h-189.989c-20.875,0-37.834-16.96-37.834-37.877c0-20.92,16.959-37.877,37.834-37.877
		h189.989c20.917,0,37.835,16.957,37.835,37.877C-4044.45-414.958-4061.368-397.998-4082.285-397.998"/>
	<path fill="#FFFFFF" d="M-3885.022-1623.499c-6.369-0.689-14.419-7.748-17.517-14.032c-10.074-20.316-18.379-41.492-26.86-62.583
		c-2.108-5.251-4.477-12.053-2.797-16.787c18.25-52.08,13.644-105.971,13.817-159.602c0.042-20.573-7.747-28.063-28.234-27.288
		c-42.828,1.637-83.159,12.568-120.606,34.176c-49.284,28.236-84.535,69.297-109.154,121.379c-2.456-2.582-3.013-3.013-3.316-3.529
		c-2.84-5.423-5.422-10.848-8.437-16.012c-48.465-84.364-121.378-129.645-218.481-136.187c-15.194-0.945-28.838,3.099-28.795,20.144
		c0.044,43.561-1.465,87.635,5.078,130.331c4.735,30.733,3.616,55.698-8.479,85.313c-12.74,31.248-25.481,50.875-61.164,49.583
		c-15.796-0.601-22.079,9.901-21.865,25.052c0.259,22.897,0.173,45.711,0,68.524c-0.085,14.03,5.424,24.963,20.359,24.361
		c37.791-1.722,50.316,19.971,63.833,51.994c12.954,30.646,15.666,51.564-9.383,74.377c-10.289,9.384-10.03,21.779,0.042,32.11
		c17.346,17.819,34.046,36.585,53.286,51.996c6.414,5.077,24.879,5.853,29.484,0.86c24.75-26.601,46.874-22.211,78.337-8.781
		c30.862,13.17,51.004,25.394,49.498,61.292c-0.645,15.752,9.857,21.952,25.138,21.781c22.812-0.434,45.667-0.347,68.48-0.089
		c14.161,0.173,24.92-5.25,24.275-20.313c-1.378-36.502,18.594-49.673,50.488-62.844c30.732-12.74,52.383-18.422,76.143,8.608
		c10.674,12.053,23.975,8.782,35.079-2.841c12.138-12.482,24.534-24.791,36.931-37.018c26.083-25.824,27.073-28.577,3.141-56.126
		c-13.858-15.925-19.798-29.439-5.465-48.379c6.629-8.695,10.932-20.23,13.171-31.249c4.821-22.813,16.184-32.195,40.717-32.799
		c32.498-0.688,35.338-6.37,35.338-39.685c0-8.694,0.172-17.475-0.043-26.17C-3834.06-1612.738-3821.664-1616.957-3885.022-1623.499
		 M-4395.805-1862.643c74.334,8.177,130.848,42.956,166.788,105.885c15.152,26.428,20.488,58.536,29.527,88.407
		c4.777,15.84-4.348,41.837,22.77,41.58c25.438-0.26,19.585-24.879,20.918-40.717c8.522-101.667,94.305-187.407,195.283-194.036
		c11.751,107.434-13.257,199.544-113.633,255.671c-17.775,9.899-38.135,16.185-58.105,20.918
		c-18.466,4.305-25.955,13.689-25.784,31.938c0.387,42.87,0.13,85.739,0.13,131.021h-37.059c-0.603-7.059-1.507-14.032-1.507-21.09
		c-0.129-36.242-0.259-72.483,0.086-108.64c0.215-18.939-7.274-29.183-26.902-33.229
		c-97.706-20.745-167.176-102.956-172.341-203.503C-4396.838-1812.369-4395.805-1836.473-4395.805-1862.643 M-3874.39-1537.846
		c-10.847,1.377-22.469,3.443-34.133,4.132c-16.227,0.946-24.49,8.178-29.527,24.362c-8.35,26.601-17.992,53.287-31.206,77.734
		c-9.813,17.992-12.31,31.509,2.711,46.659c6.974,7.058,12.311,15.665,20.101,25.824c-10.716,10.244-19.842,19.025-30.818,29.526
		c-9.856-7.317-20.316-14.29-29.614-22.382c-11.836-10.415-22.596-9.727-36.585-3.012c-26.945,12.998-54.533,25.307-82.899,34.52
		c-17.001,5.509-24.535,13.945-25.224,30.904c-0.386,10.675-2.237,21.349-3.615,33.143h-43.342
		c-1.121-6.715-2.54-13.688-3.402-20.747c-4.648-37.188-4.948-35.898-39.47-46.83c-22.725-7.231-45.193-16.788-65.897-28.666
		c-16.656-9.556-28.579-9.212-43.344,2.927c-27.848,22.898-28.45,22.21-56.213-10.33c7.618-10.158,15.194-21.004,23.544-31.161
		c8.995-10.848,7.79-20.92,2.109-33.316c-12.956-28.408-25.353-57.246-35.726-86.687c-5.036-14.117-12.568-21.09-26.901-22.383
		c-11.965-0.946-23.932-2.323-36.845-3.701v-42.095c1.378-0.947,2.455-2.239,3.487-2.153c39.125,1.291,65.338-12.567,68.136-56.041
		c0.517-8.091,5.94-15.753,9.341-24.19c15.709,18.08,31.075,34.778,44.937,52.686c3.141,4.131,2.194,12.567,1.162,18.767
		c-14.937,92.024,39.125,177.764,128.308,202.987c87.807,24.792,179.186-19.801,213.921-105.368
		c12.87-31.507,16.699-64.391,10.588-98.567c-1.249-7.575,2.712-17.733,7.447-24.361c11.318-15.668,24.533-29.871,39.082-47.174
		c5.725,17.646,12.827,33.4,15.754,49.929c3.529,19.628,13.902,27.46,32.755,27.891c10.029,0.172,20.014,2.152,31.378,3.53
		V-1537.846z"/>
	<path fill="#FFFFFF" d="M-3372.215-1620.658c-4.305-7.06-6.027-12.913-5.208-17.476c0.687-4.477,4.562-6.714,11.535-6.714h73.385
		c2.756,0.344,4.994,0.688,6.802,1.031c1.807,0.259,3.486,1.033,4.995,2.153c1.461,1.291,3.012,3.185,4.518,5.854
		c1.506,2.668,3.485,6.37,5.895,11.104l162.228,312.573h1.292l165.369-316.104c3.354-6.713,6.37-11.019,9.08-12.825
		c2.754-1.894,6.372-3.1,10.889-3.787h75.669c6.631,0,9.986,3.011,9.986,9.038c0,3.013-1.676,7.403-4.99,13.084
		c-18.768,33.229-37.319,67.061-55.741,101.409c-18.421,34.434-36.758,68.953-55.051,103.73
		c-18.251,34.692-36.675,69.299-55.268,103.732c-18.552,34.435-37.403,68.18-56.428,101.408v290.966
		c0,16.098-6.671,24.189-19.929,24.189h-48.467c-12.697,0-19.066-8.092-19.066-24.189v-288.471L-3372.215-1620.658z"/>
	<path fill="#FFFFFF" d="M-2547.183-915.969c-2.149,5.766-5.162,10.326-9.08,13.687c-3.918,3.356-8.912,4.907-14.937,4.907h-48.075
		c-13.862,0-20.792-5.77-20.792-17.562c0-2.324,0.042-4.218,0.215-5.769c0.128-1.549,0.345-2.928,0.688-4.306
		c0.301-1.29,0.604-2.493,0.906-3.526l261.395-697.718c0.647-1.636,1.379-3.615,2.322-5.768c0.861-2.152,2.067-4.218,3.617-6.026
		c1.465-1.807,3.658-3.443,6.543-4.82c2.884-1.291,6.714-2.064,11.534-2.064h29.958c4.478,0,8.178,0.773,11.062,2.064
		c2.842,1.377,5.079,3.014,6.543,4.82c1.552,1.809,2.755,3.874,3.615,6.026c0.948,2.152,1.68,4.132,2.325,5.768l259.158,697.718
		c0.258,1.636,0.559,3.354,0.86,5.077c0.257,1.721,0.603,3.272,0.946,4.822c0.258,1.461,0.431,2.669,0.431,3.701
		c0,11.792-6.974,17.562-20.834,17.562h-48.076c-5.982,0-11.019-1.551-14.935-4.907c-3.92-3.36-6.889-7.921-9.041-13.687
		l-49.843-138.339h-318.083c-10.545,29.87-20.23,56.815-28.967,81.005C-2536.507-949.113-2542.964-930.003-2547.183-915.969
		 M-2462.474-1152.013h246.936l-122.327-344.339L-2462.474-1152.013z"/>
	<path fill="#FFFFFF" d="M-1789.681-1620.745c0-16.099,6.976-24.103,20.834-24.103h225.196c29.915,0,57.59,6.198,83.159,18.593
		c25.524,12.396,47.605,29.356,66.326,50.617c18.727,21.265,33.359,46.142,43.99,74.466c10.588,28.406,15.842,58.365,15.842,89.87
		c0,30.906-5.21,60.261-15.668,88.065c-10.376,27.89-24.879,52.511-43.43,73.773c-18.596,21.35-40.461,38.222-65.727,50.876
		c-25.223,12.57-52.639,18.854-82.255,18.854h-160.806v260.321c0,14.807-6.628,22.122-19.926,22.122h-47.607
		c-13.301,0-19.93-7.315-19.93-22.122V-1620.745z M-1421.798-1412.248c0-17.818-3.185-34.949-9.468-51.394
		c-6.328-16.441-15.065-30.904-26.084-43.558c-11.019-12.569-23.93-22.641-38.738-30.216c-14.764-7.576-30.645-11.362-47.563-11.362
		h-158.567v272.888h158.567c16.313,0,31.854-3.617,46.659-11.02c14.763-7.404,27.762-17.475,38.951-29.957
		c11.234-12.567,20.016-27.117,26.56-43.56C-1425.024-1376.867-1421.798-1394.17-1421.798-1412.248"/>
	<path fill="#FFFFFF" d="M-986.381-1206.419c0,31.938,4.133,61.55,12.481,89.097c8.309,27.547,20.531,51.393,36.673,71.709
		c16.187,20.314,35.855,36.327,59.139,47.862c23.244,11.621,49.802,17.39,79.761,17.39c31.979,0,59.913-5.854,83.76-17.647
		c23.889-11.707,43.602-27.721,59.137-48.037c15.583-20.313,27.203-44.248,34.91-71.707c7.748-27.548,11.577-57.073,11.577-88.666
		v-416.307c0-6.026,2.024-11.189,6.112-15.581c4.047-4.39,9.125-6.541,15.148-6.541h43.519c5.724,0,11.019,1.979,15.882,6.025
		c4.779,3.96,7.232,9.383,7.232,16.097v429.907c0,45.367-7.232,86.858-21.779,124.65c-14.507,37.705-34.348,70.159-59.57,97.102
		c-25.182,27.033-54.621,48.124-88.324,63.189c-33.7,15.148-69.598,22.64-107.604,22.64c-38.053,0-73.904-8.094-107.395-24.19
		c-33.527-16.013-62.883-38.136-88.104-66.201c-25.269-27.976-45.066-60.602-59.571-97.877
		c-14.548-37.189-21.78-76.959-21.78-119.313v-429.907c0-5.078,1.721-9.984,5.25-14.806c3.443-4.907,8.05-7.316,13.775-7.316h48.508
		c4.518,0,9.211,2.151,13.987,6.541c4.865,4.392,7.275,9.555,7.275,15.581V-1206.419z"/>
</g>
<g>
	<path fill="#FFA811" d="M969.607,1224.875c-22.294,0-38.954-5.664-50.866-17.285c-12.636-12.282-18.672-29.607-18.43-53.018
		c0.844-90.183-32.355-168.001-104.389-244.934c-77.605-82.837-118.271-189.499-114.467-300.303
		c3.803-110.314,51.207-215.043,133.542-294.844c80.323-77.877,186.44-120.775,298.756-120.775h0.08
		c112.315,0.02,218.595,42.938,299.178,120.855c81.269,78.563,127.647,183.393,130.605,295.215
		c2.978,112.355-38.31,219.269-116.299,301.04c-73.321,76.912-106.077,154.327-103.06,243.624
		c0.765,23.158-4.828,40.422-17.103,52.787c-12.274,12.384-29.417,18.089-52.476,17.476c-32.998-0.896-66.863-0.685-99.599-0.504
		c-14.225,0.08-28.411,0.171-42.636,0.171h-0.241c-13.864,0-27.747-0.131-41.631-0.23c-31.55-0.241-64.226-0.513-95.978,0.644
		C972.907,1224.854,971.217,1224.875,969.607,1224.875 M957.876,1167.369c1.027,0.451,4.891,1.749,14.709,1.397
		c32.959-1.196,66.238-0.926,98.451-0.654c13.725,0.102,27.445,0.201,41.169,0.201h0.241c14.104,0,28.209-0.06,42.314-0.14
		c33.158-0.212,67.484-0.392,101.409,0.494c6.659,0.16,9.899-0.615,11.066-1.058c0.421-1.188,1.227-4.447,1.006-11.268
		c-3.501-103.925,35.252-196.863,118.513-284.188c140.484-147.336,134.931-374.552-12.676-517.279
		c-146.078-141.198-374.531-141.279-520.086-0.141C704.292,499.866,696.888,721.951,836.81,871.31
		c81.408,86.912,120.523,179.729,119.537,283.776C956.267,1163.104,957.454,1166.423,957.876,1167.369"/>
	<path fill="#9DD220" d="M1233.514,1374.393H991.499c-15.493,0-28.027-12.545-28.027-28.028c0-15.474,12.534-28.019,28.027-28.019
		h242.015c15.452,0,28.009,12.545,28.009,28.019C1261.522,1361.848,1248.966,1374.393,1233.514,1374.393"/>
	<path fill="#9DD220" d="M1182.769,1476.647h-140.524c-15.493,0-28.049-12.546-28.049-28.028c0-15.474,12.556-28.019,28.049-28.019
		h140.524c15.453,0,28.008,12.545,28.008,28.019C1210.776,1464.102,1198.222,1476.647,1182.769,1476.647"/>
	<path fill="#3F3F3E" d="M1328.745,569.947c-4.728-0.492-10.724-5.744-12.977-10.342c-7.445-15.041-13.603-30.744-19.88-46.318
		c-1.569-3.873-3.3-8.943-2.073-12.444c13.502-38.532,10.102-78.442,10.221-118.02c0.043-15.262-5.733-20.825-20.904-20.251
		c-31.689,1.236-61.529,9.355-89.176,25.261c-36.459,20.977-62.576,51.319-80.807,89.831c-1.77-1.893-2.232-2.225-2.435-2.637
		c-2.112-3.934-4.024-7.938-6.257-11.791c-35.855-62.445-89.799-95.967-161.611-100.745c-11.289-0.765-21.408,2.243-21.369,14.868
		c0.041,32.204-1.086,64.87,3.803,96.471c3.481,22.686,2.656,41.147-6.297,63.069c-9.417,23.118-18.834,37.646-45.272,36.7
		c-11.67-0.412-16.317,7.294-16.177,18.562c0.221,16.871,0.14,33.794,0.021,50.664c-0.062,10.423,4.003,18.481,15.069,17.988
		c27.969-1.237,37.225,14.829,47.244,38.572c9.537,22.575,11.55,38.139-6.961,54.971c-7.606,6.901-7.426,16.086,0.039,23.772
		c12.838,13.169,25.173,27.032,39.438,38.451c4.748,3.803,18.391,4.325,21.83,0.613c18.291-19.638,34.629-16.418,57.93-6.469
		c22.838,9.749,37.746,18.773,36.619,45.353c-0.482,11.681,7.284,16.259,18.592,16.066c16.902-0.271,33.764-0.181,50.665-0.019
		c10.483,0.1,18.409-3.895,17.988-15.002c-1.046-27.032,13.722-36.76,37.345-46.537c22.695-9.439,38.793-13.624,56.338,6.336
		c7.907,9.005,17.747,6.519,25.957-2.013c8.973-9.296,18.129-18.399,27.324-27.464c19.254-19.085,20.021-21.097,2.334-41.479
		c-10.303-11.801-14.648-21.842-4.064-35.785c4.908-6.489,8.068-15.021,9.759-23.119c3.561-16.892,11.931-23.843,30.08-24.256
		c24.064-0.553,26.157-4.738,26.157-29.396c0-6.448,0.161-12.918,0-19.366C1366.392,577.906,1375.607,574.768,1328.745,569.947
		 M950.814,392.984c54.97,6.137,96.782,31.871,123.422,78.371c11.187,19.577,15.131,43.371,21.812,65.424
		c3.541,11.72-3.22,30.986,16.82,30.784c18.873-0.191,14.527-18.44,15.493-30.171c6.318-75.203,69.819-138.624,144.509-143.523
		c8.673,79.448-9.818,147.588-84.086,189.127c-13.139,7.354-28.229,11.982-42.998,15.474c-13.643,3.229-19.195,10.11-19.074,23.672
		c0.303,31.71,0.08,63.431,0.08,96.933h-27.445c-0.361-5.231-1.046-10.423-1.086-15.613c-0.102-26.802-0.201-53.613,0.08-80.414
		c0.161-14.015-5.371-21.51-19.879-24.577c-72.314-15.313-123.703-76.138-127.527-150.535
		C950.01,430.197,950.814,412.352,950.814,392.984 M1336.594,633.349c-8.028,1.006-16.641,2.556-25.292,3.048
		c-11.992,0.705-18.069,6.077-21.832,18.009c-6.177,19.698-13.3,39.478-23.1,57.525c-7.223,13.33-9.074,23.3,2.033,34.508
		c5.15,5.191,9.095,11.6,14.869,19.104c-7.947,7.596-14.708,14.096-22.797,21.882c-7.305-5.463-15.031-10.554-21.91-16.589
		c-8.795-7.667-16.723-7.214-27.085-2.184c-19.918,9.637-40.323,18.691-61.329,25.503c-12.574,4.064-18.168,10.281-18.63,22.877
		c-0.303,7.888-1.69,15.755-2.698,24.518h-32.092c-0.805-4.929-1.852-10.12-2.495-15.352c-3.421-27.506-3.662-26.6-29.175-34.639
		c-16.841-5.312-33.481-12.425-48.754-21.217c-12.334-7.094-21.188-6.822-32.092,2.143c-20.645,16.951-21.047,16.459-41.57-7.666
		c5.634-7.456,11.188-15.493,17.385-22.989c6.66-8.058,5.775-15.522,1.59-24.688c-9.599-21.016-18.773-42.324-26.46-64.096
		c-3.722-10.493-9.296-15.685-19.88-16.569c-8.872-0.744-17.706-1.79-27.283-2.756v-31.158c1.046-0.673,1.811-1.649,2.575-1.63
		c28.974,0.996,48.331-9.225,50.423-41.408c0.402-5.977,4.427-11.68,6.9-17.928c11.611,13.41,23,25.734,33.24,38.965
		c2.355,3.088,1.652,9.355,0.906,13.902c-11.086,68.079,28.894,131.521,94.891,150.163c64.95,18.38,132.578-14.648,158.271-77.858
		c9.516-23.411,12.354-47.696,7.867-72.979c-0.965-5.582,1.992-13.129,5.533-18.008c8.311-11.58,18.108-22.134,28.834-34.951
		c4.266,13.09,9.497,24.75,11.689,36.963c2.615,14.507,10.262,20.322,24.244,20.604c7.426,0.151,14.791,1.609,23.222,2.625V633.349z
		"/>
	<path fill="#3F3F3E" d="M472.178,1701.66c-1.932-3.179-2.677-5.775-2.354-7.807c0.342-2.063,2.072-3.079,5.211-3.079h33.039
		c1.207,0.151,2.213,0.313,3.059,0.463c0.805,0.141,1.551,0.494,2.232,1.025c0.665,0.534,1.35,1.4,2.033,2.597
		c0.684,1.218,1.551,2.887,2.656,4.99l72.998,140.675h0.604l74.429-142.266c1.468-3.028,2.836-4.949,4.083-5.773
		c1.208-0.826,2.838-1.398,4.869-1.711h34.064c2.999,0,4.469,1.367,4.469,4.085c0,1.357-0.746,3.34-2.234,5.895
		c-8.451,14.95-16.802,30.162-25.07,45.634c-8.29,15.494-16.559,31.048-24.789,46.691c-8.209,15.614-16.5,31.166-24.869,46.671
		c-8.35,15.474-16.801,30.693-25.374,45.634v130.938c0,7.272-2.997,10.874-8.993,10.874h-21.811c-5.675,0-8.553-3.602-8.553-10.874
		v-129.812L472.178,1701.66z"/>
	<path fill="#3F3F3E" d="M843.449,2018.825c-0.966,2.557-2.313,4.599-4.064,6.128c-1.771,1.499-4.024,2.243-6.741,2.243h-21.608
		c-6.259,0-9.378-2.616-9.378-7.918c0-1.066,0.021-1.932,0.102-2.615c0.059-0.674,0.16-1.317,0.322-1.932
		c0.12-0.582,0.24-1.116,0.402-1.59l117.627-313.976c0.26-0.746,0.604-1.632,1.026-2.597c0.422-0.996,0.944-1.901,1.629-2.727
		c0.685-0.824,1.671-1.539,2.938-2.162c1.309-0.594,3.058-0.906,5.23-0.906h13.441c2.053,0,3.702,0.313,4.99,0.906
		c1.287,0.623,2.293,1.338,2.978,2.162c0.665,0.825,1.207,1.73,1.609,2.727c0.423,0.965,0.745,1.851,1.046,2.597l116.621,313.976
		c0.121,0.766,0.242,1.528,0.402,2.284c0.121,0.744,0.263,1.468,0.402,2.142c0.121,0.686,0.201,1.258,0.201,1.711
		c0,5.302-3.119,7.918-9.376,7.918h-21.61c-2.736,0-4.989-0.744-6.76-2.243c-1.771-1.529-3.099-3.571-4.043-6.128l-22.437-62.303
		h-143.14c-4.749,13.449-9.096,25.594-13.039,36.468C848.278,2003.877,845.36,2012.488,843.449,2018.825 M881.577,1912.578h111.129
		l-55.051-154.962L881.577,1912.578z"/>
	<path fill="#3F3F3E" d="M1184.338,1701.66c0-7.254,3.158-10.876,9.397-10.876h101.329c13.46,0,25.935,2.798,37.403,8.382
		c11.488,5.582,21.449,13.188,29.9,22.766c8.41,9.588,14.989,20.755,19.759,33.532c4.749,12.766,7.142,26.248,7.142,40.443
		c0,13.883-2.354,27.112-7.062,39.638c-4.688,12.524-11.187,23.593-19.558,33.188c-8.35,9.589-18.229,17.234-29.537,22.877
		c-11.389,5.666-23.703,8.512-37.043,8.512h-72.355v117.104c0,6.661-2.997,9.979-8.993,9.979h-21.409
		c-5.996,0-8.974-3.318-8.974-9.979V1701.66z M1349.912,1795.454c0-8.02-1.428-15.704-4.284-23.12
		c-2.857-7.395-6.762-13.933-11.711-19.597c-4.99-5.665-10.785-10.172-17.443-13.571c-6.662-3.401-13.805-5.111-21.409-5.111
		h-71.351v122.779h71.351c7.343,0,14.345-1.651,20.985-4.991c6.68-3.3,12.516-7.807,17.545-13.471
		c5.031-5.645,9.015-12.185,11.952-19.6C1348.444,1811.379,1349.912,1803.612,1349.912,1795.454"/>
	<path fill="#3F3F3E" d="M1545.831,1888.111c0,14.335,1.891,27.706,5.612,40.09c3.764,12.386,9.256,23.139,16.521,32.284
		c7.283,9.156,16.137,16.298,26.6,21.54c10.504,5.191,22.455,7.807,35.896,7.807c14.406,0,27.002-2.655,37.706-7.938
		c10.745-5.292,19.617-12.504,26.619-21.631c7.002-9.124,12.233-19.908,15.716-32.282c3.461-12.386,5.191-25.675,5.191-39.869
		v-187.357c0-2.736,0.925-5.07,2.736-7.042c1.851-1.942,4.145-2.928,6.84-2.928h19.559c2.615,0,4.971,0.904,7.162,2.718
		c2.154,1.819,3.26,4.224,3.26,7.252v193.453c0,20.392-3.26,39.086-9.798,56.087c-6.499,16.992-15.452,31.56-26.801,43.724
		c-11.369,12.153-24.608,21.629-39.739,28.43c-15.172,6.801-31.328,10.202-48.451,10.202c-17.125,0-33.24-3.632-48.311-10.886
		c-15.092-7.255-28.311-17.184-39.658-29.769c-11.349-12.637-20.282-27.324-26.802-44.076c-6.56-16.77-9.8-34.678-9.8-53.712
		v-193.453c0-2.263,0.785-4.507,2.355-6.67c1.529-2.202,3.621-3.3,6.197-3.3h21.852c2.012,0,4.104,0.985,6.277,2.928
		c2.173,1.972,3.26,4.306,3.26,7.042V1888.111z"/>
</g>
<g>
	<path fill="#FFA811" d="M5625.607,1224.875c-22.294,0-38.954-5.664-50.866-17.285c-12.636-12.282-18.672-29.607-18.43-53.018
		c0.844-90.183-32.355-168.001-104.389-244.934c-77.605-82.837-118.271-189.499-114.467-300.303
		c3.803-110.314,51.207-215.043,133.542-294.844c80.323-77.877,186.44-120.775,298.756-120.775h0.08
		c112.315,0.02,218.595,42.938,299.178,120.855c81.269,78.563,127.647,183.393,130.605,295.215
		c2.978,112.355-38.31,219.269-116.299,301.04c-73.321,76.912-106.077,154.327-103.06,243.624
		c0.765,23.158-4.828,40.422-17.103,52.787c-12.274,12.384-29.417,18.089-52.476,17.476c-32.998-0.896-66.863-0.685-99.599-0.504
		c-14.225,0.08-28.411,0.171-42.636,0.171h-0.241c-13.864,0-27.746-0.131-41.631-0.23c-31.55-0.241-64.226-0.513-95.978,0.644
		C5628.907,1224.854,5627.217,1224.875,5625.607,1224.875 M5613.877,1167.369c1.026,0.451,4.89,1.749,14.709,1.397
		c32.958-1.196,66.237-0.926,98.45-0.654c13.725,0.102,27.445,0.201,41.169,0.201h0.241c14.104,0,28.209-0.06,42.314-0.14
		c33.158-0.212,67.484-0.392,101.409,0.494c6.659,0.16,9.899-0.615,11.066-1.058c0.421-1.188,1.227-4.447,1.006-11.268
		c-3.501-103.925,35.252-196.863,118.513-284.188c140.484-147.336,134.931-374.552-12.676-517.279
		c-146.077-141.198-374.531-141.279-520.086-0.141c-149.7,145.132-157.105,367.217-17.184,516.575
		c81.408,86.912,120.524,179.729,119.537,283.776C5612.267,1163.104,5613.454,1166.423,5613.877,1167.369"/>
	<path fill="#9DD220" d="M5889.514,1374.393H5647.5c-15.494,0-28.028-12.545-28.028-28.028c0-15.474,12.534-28.019,28.028-28.019
		h242.014c15.452,0,28.009,12.545,28.009,28.019C5917.522,1361.848,5904.966,1374.393,5889.514,1374.393"/>
	<path fill="#9DD220" d="M5838.769,1476.647h-140.524c-15.492,0-28.049-12.546-28.049-28.028c0-15.474,12.557-28.019,28.049-28.019
		h140.524c15.453,0,28.008,12.545,28.008,28.019C5866.776,1464.102,5854.222,1476.647,5838.769,1476.647"/>
	<path fill="#FFFFFF" d="M5984.745,569.947c-4.728-0.492-10.724-5.744-12.977-10.342c-7.445-15.041-13.603-30.744-19.88-46.318
		c-1.569-3.873-3.3-8.943-2.073-12.444c13.502-38.532,10.103-78.442,10.221-118.02c0.043-15.262-5.733-20.825-20.904-20.251
		c-31.689,1.236-61.529,9.355-89.176,25.261c-36.459,20.977-62.576,51.319-80.807,89.831c-1.77-1.893-2.231-2.225-2.435-2.637
		c-2.112-3.934-4.024-7.938-6.256-11.791c-35.856-62.445-89.8-95.967-161.612-100.745c-11.289-0.765-21.408,2.243-21.369,14.868
		c0.041,32.204-1.086,64.87,3.803,96.471c3.481,22.686,2.656,41.147-6.297,63.069c-9.417,23.118-18.834,37.646-45.272,36.7
		c-11.67-0.412-16.317,7.294-16.177,18.562c0.221,16.871,0.14,33.794,0.021,50.664c-0.062,10.423,4.003,18.481,15.069,17.988
		c27.969-1.237,37.225,14.829,47.244,38.572c9.537,22.575,11.55,38.139-6.961,54.971c-7.606,6.901-7.426,16.086,0.039,23.772
		c12.838,13.169,25.173,27.032,39.438,38.451c4.748,3.803,18.391,4.325,21.83,0.613c18.291-19.638,34.629-16.418,57.93-6.469
		c22.838,9.749,37.746,18.773,36.619,45.353c-0.482,11.681,7.284,16.259,18.592,16.066c16.902-0.271,33.764-0.181,50.665-0.019
		c10.483,0.1,18.409-3.895,17.988-15.002c-1.046-27.032,13.722-36.76,37.345-46.537c22.695-9.439,38.793-13.624,56.338,6.336
		c7.907,9.005,17.747,6.519,25.957-2.013c8.973-9.296,18.129-18.399,27.324-27.464c19.254-19.085,20.021-21.097,2.334-41.479
		c-10.303-11.801-14.648-21.842-4.064-35.785c4.908-6.489,8.068-15.021,9.759-23.119c3.561-16.892,11.931-23.843,30.08-24.256
		c24.064-0.553,26.157-4.738,26.157-29.396c0-6.448,0.161-12.918,0-19.366C6022.392,577.906,6031.607,574.768,5984.745,569.947
		 M5606.814,392.984c54.97,6.137,96.782,31.871,123.422,78.371c11.187,19.577,15.131,43.371,21.812,65.424
		c3.541,11.72-3.22,30.986,16.82,30.784c18.873-0.191,14.527-18.44,15.493-30.171c6.318-75.203,69.819-138.624,144.509-143.523
		c8.673,79.448-9.818,147.588-84.086,189.127c-13.139,7.354-28.229,11.982-42.998,15.474c-13.643,3.229-19.195,10.11-19.074,23.672
		c0.303,31.71,0.081,63.431,0.081,96.933h-27.446c-0.361-5.231-1.046-10.423-1.086-15.613c-0.102-26.802-0.201-53.613,0.08-80.414
		c0.161-14.015-5.371-21.51-19.879-24.577c-72.314-15.313-123.703-76.138-127.527-150.535
		C5606.01,430.197,5606.814,412.352,5606.814,392.984 M5992.594,633.349c-8.028,1.006-16.641,2.556-25.292,3.048
		c-11.992,0.705-18.069,6.077-21.832,18.009c-6.177,19.698-13.3,39.478-23.1,57.525c-7.223,13.33-9.074,23.3,2.033,34.508
		c5.15,5.191,9.095,11.6,14.869,19.104c-7.947,7.596-14.708,14.096-22.797,21.882c-7.305-5.463-15.031-10.554-21.91-16.589
		c-8.795-7.667-16.723-7.214-27.085-2.184c-19.918,9.637-40.323,18.691-61.329,25.503c-12.574,4.064-18.168,10.281-18.63,22.877
		c-0.303,7.888-1.69,15.755-2.698,24.518h-32.092c-0.805-4.929-1.852-10.12-2.495-15.352c-3.421-27.506-3.662-26.6-29.175-34.639
		c-16.841-5.312-33.481-12.425-48.754-21.217c-12.334-7.094-21.188-6.822-32.092,2.143c-20.645,16.951-21.047,16.459-41.57-7.666
		c5.634-7.456,11.188-15.493,17.385-22.989c6.66-8.058,5.775-15.522,1.59-24.688c-9.599-21.016-18.773-42.324-26.46-64.096
		c-3.722-10.493-9.296-15.685-19.88-16.569c-8.872-0.744-17.706-1.79-27.283-2.756v-31.158c1.046-0.673,1.811-1.649,2.575-1.63
		c28.974,0.996,48.331-9.225,50.423-41.408c0.402-5.977,4.427-11.68,6.9-17.928c11.611,13.41,23,25.734,33.24,38.965
		c2.355,3.088,1.652,9.355,0.907,13.902c-11.087,68.079,28.893,131.521,94.89,150.163c64.95,18.38,132.578-14.648,158.271-77.858
		c9.516-23.411,12.354-47.696,7.867-72.979c-0.965-5.582,1.992-13.129,5.533-18.008c8.311-11.58,18.108-22.134,28.834-34.951
		c4.266,13.09,9.497,24.75,11.689,36.963c2.615,14.507,10.262,20.322,24.244,20.604c7.426,0.151,14.791,1.609,23.222,2.625V633.349z
		"/>
	<path fill="#FFFFFF" d="M5128.178,1701.66c-1.932-3.179-2.676-5.775-2.354-7.807c0.342-2.063,2.072-3.079,5.211-3.079h33.039
		c1.207,0.151,2.213,0.313,3.059,0.463c0.805,0.141,1.551,0.494,2.232,1.025c0.665,0.534,1.35,1.4,2.033,2.597
		c0.684,1.218,1.551,2.887,2.656,4.99l72.998,140.675h0.604l74.429-142.266c1.468-3.028,2.836-4.949,4.084-5.773
		c1.207-0.826,2.837-1.398,4.868-1.711h34.064c2.999,0,4.469,1.367,4.469,4.085c0,1.357-0.746,3.34-2.233,5.895
		c-8.452,14.95-16.803,30.162-25.071,45.634c-8.29,15.494-16.559,31.048-24.789,46.691c-8.209,15.614-16.5,31.166-24.869,46.671
		c-8.35,15.474-16.801,30.693-25.374,45.634v130.938c0,7.272-2.997,10.874-8.993,10.874h-21.811c-5.675,0-8.552-3.602-8.552-10.874
		v-129.812L5128.178,1701.66z"/>
	<path fill="#FFFFFF" d="M5499.449,2018.825c-0.966,2.557-2.313,4.599-4.064,6.128c-1.771,1.499-4.024,2.243-6.741,2.243h-21.608
		c-6.259,0-9.378-2.616-9.378-7.918c0-1.066,0.021-1.932,0.102-2.615c0.059-0.674,0.16-1.317,0.322-1.932
		c0.12-0.582,0.24-1.116,0.402-1.59l117.627-313.976c0.26-0.746,0.604-1.632,1.026-2.597c0.422-0.996,0.944-1.901,1.629-2.727
		c0.685-0.824,1.671-1.539,2.938-2.162c1.309-0.594,3.058-0.906,5.23-0.906h13.442c2.052,0,3.701,0.313,4.989,0.906
		c1.287,0.623,2.293,1.338,2.978,2.162c0.665,0.825,1.207,1.73,1.609,2.727c0.424,0.965,0.745,1.851,1.046,2.597l116.621,313.976
		c0.121,0.766,0.242,1.528,0.402,2.284c0.121,0.744,0.263,1.468,0.402,2.142c0.121,0.686,0.202,1.258,0.202,1.711
		c0,5.302-3.12,7.918-9.377,7.918h-21.61c-2.736,0-4.989-0.744-6.76-2.243c-1.771-1.529-3.099-3.571-4.043-6.128l-22.437-62.303
		h-143.14c-4.749,13.449-9.096,25.594-13.039,36.468C5504.278,2003.877,5501.36,2012.488,5499.449,2018.825 M5537.577,1912.578
		h111.129l-55.051-154.962L5537.577,1912.578z"/>
	<path fill="#FFFFFF" d="M5840.338,1701.66c0-7.254,3.158-10.876,9.397-10.876h101.329c13.46,0,25.936,2.798,37.403,8.382
		c11.488,5.582,21.45,13.188,29.9,22.766c8.41,9.588,14.989,20.755,19.759,33.532c4.75,12.766,7.142,26.248,7.142,40.443
		c0,13.883-2.353,27.112-7.062,39.638c-4.688,12.524-11.187,23.593-19.558,33.188c-8.35,9.589-18.229,17.234-29.537,22.877
		c-11.389,5.666-23.703,8.512-37.043,8.512h-72.355v117.104c0,6.661-2.997,9.979-8.993,9.979h-21.409
		c-5.996,0-8.974-3.318-8.974-9.979V1701.66z M6005.912,1795.454c0-8.02-1.428-15.704-4.284-23.12
		c-2.857-7.395-6.762-13.933-11.71-19.597c-4.991-5.665-10.786-10.172-17.444-13.571c-6.662-3.401-13.805-5.111-21.409-5.111
		h-71.351v122.779h71.351c7.343,0,14.345-1.651,20.985-4.991c6.68-3.3,12.516-7.807,17.545-13.471
		c5.032-5.645,9.015-12.185,11.952-19.6C6004.444,1811.379,6005.912,1803.612,6005.912,1795.454"/>
	<path fill="#FFFFFF" d="M6201.831,1888.111c0,14.335,1.891,27.706,5.612,40.09c3.764,12.386,9.256,23.139,16.521,32.284
		c7.283,9.156,16.137,16.298,26.6,21.54c10.504,5.191,22.455,7.807,35.896,7.807c14.406,0,27.002-2.655,37.706-7.938
		c10.745-5.292,19.617-12.504,26.619-21.631c7.002-9.124,12.233-19.908,15.717-32.282c3.46-12.386,5.19-25.675,5.19-39.869v-187.357
		c0-2.736,0.925-5.07,2.736-7.042c1.851-1.942,4.145-2.928,6.84-2.928h19.559c2.615,0,4.971,0.904,7.162,2.718
		c2.154,1.819,3.261,4.224,3.261,7.252v193.453c0,20.392-3.261,39.086-9.799,56.087c-6.499,16.992-15.451,31.56-26.801,43.724
		c-11.369,12.153-24.607,21.629-39.739,28.43c-15.172,6.801-31.327,10.202-48.451,10.202s-33.24-3.632-48.311-10.886
		c-15.092-7.255-28.311-17.184-39.658-29.769c-11.349-12.637-20.282-27.324-26.802-44.076c-6.56-16.77-9.8-34.678-9.8-53.712
		v-193.453c0-2.263,0.785-4.507,2.355-6.67c1.529-2.202,3.621-3.3,6.197-3.3h21.852c2.012,0,4.104,0.985,6.277,2.928
		c2.173,1.972,3.26,4.306,3.26,7.042V1888.111z"/>
</g>
<g>
	<path fill="#FFA811" d="M5568.635,3969.106c-31.185,0-54.489-7.921-71.152-24.177c-17.675-17.181-26.118-41.416-25.78-74.162
		c1.181-126.148-45.259-235.002-146.02-342.616c-108.556-115.874-165.439-265.074-160.118-420.069
		c5.319-154.309,71.629-300.806,186.8-412.431c112.357-108.936,260.797-168.942,417.904-168.942h0.112
		c157.108,0.027,305.773,60.062,418.494,169.055c113.68,109.895,178.556,256.531,182.692,412.951
		c4.166,157.164-53.588,306.716-162.68,421.099c-102.563,107.586-148.383,215.875-144.162,340.785
		c1.07,32.394-6.753,56.542-23.923,73.839c-17.169,17.322-41.149,25.303-73.403,24.445c-46.158-1.254-93.529-0.958-139.32-0.705
		c-19.897,0.112-39.742,0.239-59.639,0.239h-0.338c-19.394,0-38.813-0.184-58.234-0.322c-44.132-0.338-89.84-0.718-134.254,0.9
		C5573.252,3969.078,5570.886,3969.106,5568.635,3969.106 M5552.225,3888.668c1.437,0.631,6.841,2.446,20.575,1.955
		c46.104-1.674,92.654-1.295,137.715-0.915c19.198,0.142,38.391,0.281,57.588,0.281h0.338c19.729,0,39.459-0.084,59.189-0.195
		c46.383-0.297,94.398-0.548,141.853,0.689c9.315,0.226,13.848-0.859,15.479-1.478c0.59-1.661,1.717-6.222,1.407-15.762
		c-4.897-145.373,49.312-275.375,165.777-397.527c196.512-206.096,188.743-523.928-17.73-723.578
		c-204.337-197.51-523.9-197.623-727.505-0.195c-209.403,203.012-219.761,513.668-24.036,722.592
		c113.875,121.574,168.59,251.407,167.211,396.949C5549.974,3882.701,5551.634,3887.345,5552.225,3888.668"/>
	<path fill="#9DD220" d="M5937.79,4178.256h-338.533c-21.671,0-39.205-17.549-39.205-39.207c0-21.645,17.534-39.192,39.205-39.192
		h338.533c21.615,0,39.18,17.548,39.18,39.192C5976.97,4160.707,5959.405,4178.256,5937.79,4178.256"/>
	<path fill="#9DD220" d="M5866.808,4321.291h-196.568c-21.672,0-39.234-17.55-39.234-39.206c0-21.646,17.563-39.193,39.234-39.193
		h196.568c21.616,0,39.178,17.548,39.178,39.193C5905.985,4303.741,5888.424,4321.291,5866.808,4321.291"/>
	<path fill="#FFFFFF" d="M6071.002,3052.986c-6.613-0.689-15-8.035-18.151-14.467c-10.415-21.039-19.028-43.006-27.808-64.791
		c-2.196-5.418-4.617-12.51-2.901-17.407c18.887-53.899,14.131-109.727,14.297-165.087c0.062-21.35-8.02-29.131-29.241-28.328
		c-44.327,1.729-86.068,13.087-124.74,35.336c-50.998,29.342-87.532,71.785-113.034,125.656c-2.475-2.646-3.122-3.111-3.405-3.688
		c-2.954-5.502-5.63-11.104-8.752-16.494c-50.155-87.35-125.612-134.24-226.064-140.924c-15.791-1.069-29.946,3.138-29.892,20.798
		c0.058,45.048-1.519,90.741,5.32,134.944c4.869,31.733,3.715,57.559-8.809,88.223c-13.173,32.338-26.346,52.66-63.328,51.337
		c-16.324-0.577-22.824,10.202-22.628,25.964c0.309,23.6,0.195,47.271,0.028,70.869c-0.086,14.58,5.6,25.853,21.079,25.163
		c39.124-1.731,52.071,20.743,66.086,53.955c13.341,31.579,16.156,53.349-9.737,76.894c-10.64,9.654-10.387,22.502,0.056,33.254
		c17.957,18.421,35.212,37.813,55.166,53.786c6.641,5.319,25.724,6.05,30.535,0.857c25.586-27.47,48.439-22.966,81.033-9.048
		c31.946,13.637,52.8,26.26,51.225,63.439c-0.677,16.339,10.188,22.741,26.005,22.474c23.644-0.378,47.229-0.253,70.871-0.027
		c14.665,0.141,25.751-5.446,25.163-20.983c-1.464-37.813,19.193-51.42,52.237-65.098c31.747-13.203,54.265-19.057,78.807,8.863
		c11.061,12.597,24.824,9.118,36.309-2.815c12.551-13.003,25.359-25.737,38.223-38.417c26.932-26.695,28.004-29.51,3.264-58.021
		c-14.411-16.508-20.49-30.553-5.686-50.057c6.866-9.078,11.287-21.012,13.651-32.34c4.98-23.628,16.688-33.352,42.076-33.93
		c33.662-0.773,36.589-6.627,36.589-41.12c0-9.02,0.226-18.069,0-27.089C6123.662,3064.119,6136.554,3059.729,6071.002,3052.986
		 M5542.347,2805.447c76.893,8.584,135.381,44.582,172.645,109.627c15.648,27.385,21.165,60.668,30.511,91.516
		c4.952,16.394-4.505,43.344,23.528,43.062c26.399-0.269,20.32-25.795,21.672-42.204c8.838-105.195,97.664-193.908,202.141-200.762
		c12.132,111.133-13.734,206.447-117.621,264.553c-18.378,10.287-39.486,16.762-60.146,21.645
		c-19.083,4.517-26.851,14.143-26.682,33.113c0.424,44.355,0.112,88.728,0.112,135.59h-38.391c-0.506-7.317-1.463-14.579-1.52-21.84
		c-0.143-37.49-0.281-74.994,0.112-112.484c0.226-19.604-7.513-30.088-27.808-34.379c-101.154-21.42-173.037-106.502-178.387-210.57
		C5541.222,2857.502,5542.347,2832.539,5542.347,2805.447 M6081.98,3141.672c-11.229,1.408-23.277,3.575-35.379,4.264
		c-16.774,0.986-25.275,8.501-30.539,25.191c-8.64,27.554-18.604,55.222-32.311,80.467c-10.104,18.646-12.694,32.592,2.843,48.271
		c7.205,7.263,12.722,16.226,20.799,26.724c-11.116,10.625-20.573,19.717-31.889,30.608c-10.217-7.642-21.025-14.763-30.648-23.206
		c-12.302-10.723-23.391-10.09-37.887-3.053c-27.861,13.48-56.404,26.146-85.787,35.674c-17.59,5.686-25.414,14.381-26.061,32
		c-0.424,11.034-2.364,22.038-3.773,34.296h-44.89c-1.127-6.895-2.591-14.156-3.491-21.474
		c-4.785-38.477-5.123-37.209-40.811-48.453c-23.557-7.43-46.834-17.381-68.197-29.679c-17.254-9.923-29.638-9.543-44.891,2.997
		c-28.878,23.711-29.441,23.023-58.149-10.723c7.881-10.43,15.649-21.673,24.317-32.158c9.316-11.271,8.08-21.713,2.225-34.533
		c-13.427-29.398-26.261-59.204-37.013-89.658c-5.206-14.678-13.003-21.939-27.808-23.178c-12.411-1.041-24.768-2.504-38.164-3.854
		v-43.585c1.463-0.941,2.532-2.307,3.602-2.279c40.529,1.393,67.606-12.904,70.532-57.923c0.563-8.36,6.192-16.337,9.652-25.077
		c16.242,18.758,32.173,35.997,46.497,54.504c3.295,4.32,2.311,13.086,1.268,19.447c-15.508,95.23,40.417,183.973,132.734,210.051
		c90.854,25.709,185.452-20.491,221.393-108.91c13.311-32.748,17.28-66.719,11.005-102.084c-1.351-7.809,2.786-18.364,7.739-25.189
		c11.625-16.197,25.33-30.961,40.334-48.89c5.967,18.31,13.285,34.62,16.353,51.704c3.657,20.293,14.353,28.428,33.911,28.82
		c10.388,0.212,20.69,2.252,32.483,3.672V3141.672z"/>
</g>
<g>
	<path fill="#FFA811" d="M7896.635,3969.106c-31.185,0-54.489-7.921-71.152-24.177c-17.675-17.181-26.118-41.416-25.78-74.162
		c1.181-126.148-45.259-235.002-146.02-342.616c-108.556-115.874-165.439-265.074-160.118-420.069
		c5.319-154.309,71.629-300.806,186.8-412.431c112.357-108.936,260.797-168.942,417.904-168.942h0.112
		c157.108,0.027,305.773,60.062,418.494,169.055c113.68,109.895,178.556,256.531,182.692,412.951
		c4.166,157.164-53.588,306.716-162.68,421.099c-102.563,107.586-148.383,215.875-144.162,340.785
		c1.07,32.394-6.753,56.542-23.923,73.839c-17.169,17.322-41.149,25.303-73.403,24.445c-46.158-1.254-93.529-0.958-139.32-0.705
		c-19.897,0.112-39.742,0.239-59.639,0.239h-0.338c-19.394,0-38.813-0.184-58.234-0.322c-44.132-0.338-89.84-0.718-134.254,0.9
		C7901.252,3969.078,7898.886,3969.106,7896.635,3969.106 M7880.225,3888.668c1.437,0.631,6.841,2.446,20.575,1.955
		c46.104-1.674,92.654-1.295,137.715-0.915c19.198,0.142,38.391,0.281,57.588,0.281h0.338c19.729,0,39.459-0.084,59.189-0.195
		c46.383-0.297,94.398-0.548,141.853,0.689c9.315,0.226,13.848-0.859,15.479-1.478c0.59-1.661,1.717-6.222,1.407-15.762
		c-4.897-145.373,49.312-275.375,165.777-397.527c196.512-206.096,188.743-523.928-17.73-723.578
		c-204.337-197.51-523.9-197.623-727.505-0.195c-209.403,203.012-219.761,513.668-24.036,722.592
		c113.875,121.574,168.59,251.407,167.211,396.949C7877.974,3882.701,7879.634,3887.345,7880.225,3888.668"/>
	<path fill="#9DD220" d="M8265.79,4178.256h-338.533c-21.671,0-39.205-17.549-39.205-39.207c0-21.645,17.534-39.192,39.205-39.192
		h338.533c21.615,0,39.18,17.548,39.18,39.192C8304.97,4160.707,8287.405,4178.256,8265.79,4178.256"/>
	<path fill="#9DD220" d="M8194.808,4321.291h-196.568c-21.672,0-39.234-17.55-39.234-39.206c0-21.646,17.563-39.193,39.234-39.193
		h196.568c21.616,0,39.178,17.548,39.178,39.193C8233.985,4303.741,8216.424,4321.291,8194.808,4321.291"/>
	<path fill="#3F3E3D" d="M8399.002,3052.986c-6.613-0.689-15-8.035-18.151-14.467c-10.415-21.039-19.028-43.006-27.808-64.791
		c-2.196-5.418-4.617-12.51-2.901-17.407c18.887-53.899,14.131-109.727,14.297-165.087c0.062-21.35-8.02-29.131-29.241-28.328
		c-44.327,1.729-86.068,13.087-124.74,35.336c-50.998,29.342-87.532,71.785-113.034,125.656c-2.475-2.646-3.122-3.111-3.405-3.688
		c-2.954-5.502-5.63-11.104-8.752-16.494c-50.155-87.35-125.612-134.24-226.064-140.924c-15.791-1.069-29.946,3.138-29.892,20.798
		c0.058,45.048-1.519,90.741,5.32,134.944c4.869,31.733,3.715,57.559-8.809,88.223c-13.173,32.338-26.346,52.66-63.328,51.337
		c-16.324-0.577-22.824,10.202-22.628,25.964c0.309,23.6,0.195,47.271,0.028,70.869c-0.086,14.58,5.6,25.853,21.079,25.163
		c39.124-1.731,52.071,20.743,66.086,53.955c13.341,31.579,16.156,53.349-9.737,76.894c-10.64,9.654-10.387,22.502,0.056,33.254
		c17.957,18.421,35.212,37.813,55.166,53.786c6.641,5.319,25.724,6.05,30.535,0.857c25.586-27.47,48.439-22.966,81.033-9.048
		c31.946,13.637,52.8,26.26,51.225,63.439c-0.677,16.339,10.188,22.741,26.005,22.474c23.644-0.378,47.229-0.253,70.871-0.027
		c14.665,0.141,25.751-5.446,25.163-20.983c-1.464-37.813,19.193-51.42,52.237-65.098c31.747-13.203,54.265-19.057,78.807,8.863
		c11.061,12.597,24.824,9.118,36.309-2.815c12.551-13.003,25.359-25.737,38.223-38.417c26.932-26.695,28.004-29.51,3.264-58.021
		c-14.411-16.508-20.49-30.553-5.686-50.057c6.866-9.078,11.287-21.012,13.651-32.34c4.98-23.628,16.688-33.352,42.076-33.93
		c33.662-0.773,36.589-6.627,36.589-41.12c0-9.02,0.226-18.069,0-27.089C8451.662,3064.119,8464.554,3059.729,8399.002,3052.986
		 M7870.347,2805.447c76.893,8.584,135.381,44.582,172.645,109.627c15.648,27.385,21.165,60.668,30.511,91.516
		c4.952,16.394-4.505,43.344,23.528,43.062c26.399-0.269,20.32-25.795,21.672-42.204c8.838-105.195,97.664-193.908,202.141-200.762
		c12.132,111.133-13.734,206.447-117.621,264.553c-18.378,10.287-39.486,16.762-60.146,21.645
		c-19.083,4.517-26.851,14.143-26.682,33.113c0.424,44.355,0.112,88.728,0.112,135.59h-38.391c-0.506-7.317-1.463-14.579-1.52-21.84
		c-0.143-37.49-0.281-74.994,0.112-112.484c0.226-19.604-7.513-30.088-27.808-34.379c-101.154-21.42-173.037-106.502-178.387-210.57
		C7869.222,2857.502,7870.347,2832.539,7870.347,2805.447 M8409.98,3141.672c-11.229,1.408-23.277,3.575-35.379,4.264
		c-16.774,0.986-25.275,8.501-30.539,25.191c-8.64,27.554-18.604,55.222-32.311,80.467c-10.104,18.646-12.694,32.592,2.843,48.271
		c7.205,7.263,12.722,16.226,20.799,26.724c-11.116,10.625-20.573,19.717-31.889,30.608c-10.217-7.642-21.025-14.763-30.648-23.206
		c-12.302-10.723-23.391-10.09-37.887-3.053c-27.861,13.48-56.404,26.146-85.787,35.674c-17.59,5.686-25.414,14.381-26.061,32
		c-0.424,11.034-2.364,22.038-3.773,34.296h-44.89c-1.127-6.895-2.591-14.156-3.491-21.474
		c-4.785-38.477-5.123-37.209-40.811-48.453c-23.557-7.43-46.834-17.381-68.197-29.679c-17.254-9.923-29.638-9.543-44.891,2.997
		c-28.878,23.711-29.441,23.023-58.149-10.723c7.881-10.43,15.649-21.673,24.317-32.158c9.316-11.271,8.08-21.713,2.225-34.533
		c-13.427-29.398-26.261-59.204-37.013-89.658c-5.206-14.678-13.003-21.939-27.808-23.178c-12.411-1.041-24.768-2.504-38.164-3.854
		v-43.585c1.463-0.941,2.532-2.307,3.602-2.279c40.529,1.393,67.606-12.904,70.532-57.923c0.563-8.36,6.192-16.337,9.652-25.077
		c16.242,18.758,32.173,35.997,46.497,54.504c3.295,4.32,2.311,13.086,1.268,19.447c-15.508,95.23,40.417,183.973,132.734,210.051
		c90.854,25.709,185.452-20.491,221.393-108.91c13.311-32.748,17.28-66.719,11.005-102.084c-1.351-7.809,2.786-18.364,7.739-25.189
		c11.625-16.197,25.33-30.961,40.334-48.89c5.967,18.31,13.285,34.62,16.353,51.704c3.657,20.293,14.353,28.428,33.911,28.82
		c10.388,0.212,20.69,2.252,32.483,3.672V3141.672z"/>
</g>
<g>
	<path fill="#FFFFFF" d="M3240.635,3969.106c-31.185,0-54.489-7.921-71.152-24.177c-17.675-17.181-26.118-41.416-25.78-74.162
		c1.181-126.148-45.259-235.002-146.02-342.616c-108.556-115.874-165.439-265.074-160.118-420.069
		c5.319-154.309,71.629-300.806,186.8-412.431c112.357-108.936,260.797-168.942,417.904-168.942h0.112
		c157.108,0.027,305.773,60.062,418.494,169.055c113.68,109.895,178.556,256.531,182.692,412.951
		c4.166,157.164-53.588,306.716-162.68,421.099c-102.563,107.586-148.383,215.875-144.162,340.785
		c1.07,32.394-6.753,56.542-23.923,73.839c-17.169,17.322-41.149,25.303-73.403,24.445c-46.158-1.254-93.529-0.958-139.32-0.705
		c-19.897,0.112-39.742,0.239-59.639,0.239h-0.338c-19.394,0-38.813-0.184-58.234-0.322c-44.132-0.338-89.84-0.718-134.254,0.9
		C3245.252,3969.078,3242.886,3969.106,3240.635,3969.106 M3224.225,3888.668c1.437,0.631,6.841,2.446,20.575,1.955
		c46.104-1.674,92.654-1.295,137.715-0.915c19.198,0.142,38.391,0.281,57.588,0.281h0.338c19.729,0,39.459-0.084,59.189-0.195
		c46.383-0.297,94.398-0.548,141.853,0.689c9.315,0.226,13.848-0.859,15.479-1.478c0.59-1.661,1.717-6.222,1.407-15.762
		c-4.897-145.373,49.312-275.375,165.777-397.527c196.512-206.096,188.743-523.928-17.73-723.578
		c-204.337-197.51-523.9-197.623-727.505-0.195c-209.403,203.012-219.761,513.668-24.036,722.592
		c113.875,121.574,168.59,251.407,167.211,396.949C3221.974,3882.701,3223.634,3887.345,3224.225,3888.668"/>
	<path fill="#FFFFFF" d="M3609.79,4178.256h-338.533c-21.671,0-39.205-17.549-39.205-39.207c0-21.645,17.534-39.192,39.205-39.192
		h338.533c21.615,0,39.18,17.548,39.18,39.192C3648.97,4160.707,3631.405,4178.256,3609.79,4178.256"/>
	<path fill="#FFFFFF" d="M3538.808,4321.291h-196.568c-21.672,0-39.234-17.55-39.234-39.206c0-21.646,17.563-39.193,39.234-39.193
		h196.568c21.616,0,39.178,17.548,39.178,39.193C3577.985,4303.741,3560.424,4321.291,3538.808,4321.291"/>
	<path fill="#FFFFFF" d="M3743.002,3052.986c-6.613-0.689-15-8.035-18.151-14.467c-10.415-21.039-19.028-43.006-27.808-64.791
		c-2.196-5.418-4.617-12.51-2.901-17.407c18.887-53.899,14.131-109.727,14.297-165.087c0.062-21.35-8.02-29.131-29.241-28.328
		c-44.327,1.729-86.068,13.087-124.74,35.336c-50.998,29.342-87.532,71.785-113.034,125.656c-2.475-2.646-3.122-3.111-3.405-3.688
		c-2.954-5.502-5.63-11.104-8.752-16.494c-50.155-87.35-125.612-134.24-226.064-140.924c-15.791-1.069-29.946,3.138-29.892,20.798
		c0.058,45.048-1.519,90.741,5.32,134.944c4.869,31.733,3.715,57.559-8.809,88.223c-13.173,32.338-26.346,52.66-63.328,51.337
		c-16.324-0.577-22.824,10.202-22.628,25.964c0.309,23.6,0.195,47.271,0.028,70.869c-0.086,14.58,5.6,25.853,21.079,25.163
		c39.124-1.731,52.071,20.743,66.086,53.955c13.341,31.579,16.156,53.349-9.737,76.894c-10.64,9.654-10.387,22.502,0.056,33.254
		c17.957,18.421,35.212,37.813,55.166,53.786c6.641,5.319,25.724,6.05,30.535,0.857c25.586-27.47,48.439-22.966,81.033-9.048
		c31.946,13.637,52.8,26.26,51.225,63.439c-0.677,16.339,10.188,22.741,26.005,22.474c23.644-0.378,47.229-0.253,70.871-0.027
		c14.665,0.141,25.751-5.446,25.163-20.983c-1.464-37.813,19.193-51.42,52.237-65.098c31.747-13.203,54.265-19.057,78.807,8.863
		c11.061,12.597,24.824,9.118,36.309-2.815c12.551-13.003,25.359-25.737,38.223-38.417c26.932-26.695,28.004-29.51,3.264-58.021
		c-14.411-16.508-20.49-30.553-5.686-50.057c6.866-9.078,11.287-21.012,13.651-32.34c4.98-23.628,16.688-33.352,42.076-33.93
		c33.662-0.773,36.589-6.627,36.589-41.12c0-9.02,0.226-18.069,0-27.089C3795.662,3064.119,3808.554,3059.729,3743.002,3052.986
		 M3214.347,2805.447c76.893,8.584,135.381,44.582,172.645,109.627c15.648,27.385,21.165,60.668,30.511,91.516
		c4.952,16.394-4.505,43.344,23.528,43.062c26.399-0.269,20.32-25.795,21.672-42.204c8.838-105.195,97.664-193.908,202.141-200.762
		c12.132,111.133-13.734,206.447-117.621,264.553c-18.378,10.287-39.486,16.762-60.146,21.645
		c-19.083,4.517-26.851,14.143-26.682,33.113c0.424,44.355,0.112,88.728,0.112,135.59h-38.391c-0.506-7.317-1.463-14.579-1.52-21.84
		c-0.143-37.49-0.281-74.994,0.112-112.484c0.226-19.604-7.513-30.088-27.808-34.379c-101.154-21.42-173.037-106.502-178.387-210.57
		C3213.222,2857.502,3214.347,2832.539,3214.347,2805.447 M3753.98,3141.672c-11.229,1.408-23.277,3.575-35.379,4.264
		c-16.774,0.986-25.275,8.501-30.539,25.191c-8.64,27.554-18.604,55.222-32.311,80.467c-10.104,18.646-12.694,32.592,2.843,48.271
		c7.205,7.263,12.722,16.226,20.799,26.724c-11.116,10.625-20.573,19.717-31.889,30.608c-10.217-7.642-21.025-14.763-30.648-23.206
		c-12.302-10.723-23.391-10.09-37.887-3.053c-27.861,13.48-56.404,26.146-85.787,35.674c-17.59,5.686-25.414,14.381-26.061,32
		c-0.424,11.034-2.364,22.038-3.773,34.296h-44.89c-1.127-6.895-2.591-14.156-3.491-21.474
		c-4.785-38.477-5.123-37.209-40.811-48.453c-23.557-7.43-46.834-17.381-68.197-29.679c-17.254-9.923-29.638-9.543-44.891,2.997
		c-28.878,23.711-29.441,23.023-58.149-10.723c7.881-10.43,15.649-21.673,24.317-32.158c9.316-11.271,8.08-21.713,2.225-34.533
		c-13.427-29.398-26.261-59.204-37.013-89.658c-5.206-14.678-13.003-21.939-27.808-23.178c-12.411-1.041-24.768-2.504-38.164-3.854
		v-43.585c1.463-0.941,2.532-2.307,3.602-2.279c40.529,1.393,67.606-12.904,70.532-57.923c0.563-8.36,6.192-16.337,9.652-25.077
		c16.242,18.758,32.173,35.997,46.497,54.504c3.295,4.32,2.311,13.086,1.268,19.447c-15.508,95.23,40.417,183.973,132.734,210.051
		c90.854,25.709,185.452-20.491,221.393-108.91c13.311-32.748,17.28-66.719,11.005-102.084c-1.351-7.809,2.786-18.364,7.739-25.189
		c11.625-16.197,25.33-30.961,40.334-48.89c5.967,18.31,13.285,34.62,16.353,51.704c3.657,20.293,14.353,28.428,33.911,28.82
		c10.388,0.212,20.69,2.252,32.483,3.672V3141.672z"/>
</g>
<g>
	<path fill="#FFFFFF" d="M3297.607,1224.875c-22.294,0-38.954-5.664-50.866-17.285c-12.636-12.282-18.672-29.607-18.43-53.018
		c0.844-90.183-32.355-168.001-104.389-244.934c-77.605-82.837-118.271-189.499-114.467-300.303
		c3.803-110.314,51.207-215.043,133.542-294.844c80.323-77.877,186.44-120.775,298.756-120.775h0.08
		c112.315,0.02,218.595,42.938,299.178,120.855c81.269,78.563,127.647,183.393,130.605,295.215
		c2.978,112.355-38.31,219.269-116.299,301.04c-73.321,76.912-106.077,154.327-103.06,243.624
		c0.765,23.158-4.828,40.422-17.103,52.787c-12.274,12.384-29.417,18.089-52.476,17.476c-32.998-0.896-66.863-0.685-99.599-0.504
		c-14.225,0.08-28.411,0.171-42.636,0.171h-0.241c-13.864,0-27.747-0.131-41.631-0.23c-31.55-0.241-64.226-0.513-95.978,0.644
		C3300.907,1224.854,3299.217,1224.875,3297.607,1224.875 M3285.876,1167.369c1.027,0.451,4.891,1.749,14.709,1.397
		c32.959-1.196,66.238-0.926,98.451-0.654c13.725,0.102,27.445,0.201,41.169,0.201h0.241c14.104,0,28.209-0.06,42.314-0.14
		c33.158-0.212,67.484-0.392,101.409,0.494c6.659,0.16,9.899-0.615,11.066-1.058c0.421-1.188,1.227-4.447,1.006-11.268
		c-3.501-103.925,35.252-196.863,118.513-284.188c140.484-147.336,134.931-374.552-12.676-517.279
		c-146.078-141.198-374.531-141.279-520.086-0.141c-149.701,145.132-157.105,367.217-17.184,516.575
		c81.408,86.912,120.523,179.729,119.537,283.776C3284.267,1163.104,3285.454,1166.423,3285.876,1167.369"/>
	<path fill="#FFFFFF" d="M3561.514,1374.393h-242.015c-15.493,0-28.027-12.545-28.027-28.028c0-15.474,12.534-28.019,28.027-28.019
		h242.015c15.452,0,28.009,12.545,28.009,28.019C3589.522,1361.848,3576.966,1374.393,3561.514,1374.393"/>
	<path fill="#FFFFFF" d="M3510.769,1476.647h-140.524c-15.493,0-28.049-12.546-28.049-28.028c0-15.474,12.556-28.019,28.049-28.019
		h140.524c15.453,0,28.008,12.545,28.008,28.019C3538.776,1464.102,3526.222,1476.647,3510.769,1476.647"/>
	<path fill="#FFFFFF" d="M3656.745,569.947c-4.728-0.492-10.724-5.744-12.977-10.342c-7.445-15.041-13.603-30.744-19.88-46.318
		c-1.569-3.873-3.3-8.943-2.073-12.444c13.502-38.532,10.102-78.442,10.221-118.02c0.043-15.262-5.733-20.825-20.904-20.251
		c-31.689,1.236-61.529,9.355-89.176,25.261c-36.459,20.977-62.576,51.319-80.807,89.831c-1.77-1.893-2.232-2.225-2.435-2.637
		c-2.112-3.934-4.024-7.938-6.257-11.791c-35.855-62.445-89.799-95.967-161.611-100.745c-11.289-0.765-21.408,2.243-21.369,14.868
		c0.041,32.204-1.086,64.87,3.803,96.471c3.481,22.686,2.656,41.147-6.297,63.069c-9.417,23.118-18.834,37.646-45.272,36.7
		c-11.67-0.412-16.317,7.294-16.177,18.562c0.221,16.871,0.14,33.794,0.021,50.664c-0.062,10.423,4.003,18.481,15.069,17.988
		c27.969-1.237,37.225,14.829,47.244,38.572c9.537,22.575,11.55,38.139-6.961,54.971c-7.606,6.901-7.426,16.086,0.039,23.772
		c12.838,13.169,25.173,27.032,39.438,38.451c4.748,3.803,18.391,4.325,21.83,0.613c18.291-19.638,34.629-16.418,57.93-6.469
		c22.838,9.749,37.746,18.773,36.619,45.353c-0.482,11.681,7.284,16.259,18.592,16.066c16.902-0.271,33.764-0.181,50.665-0.019
		c10.483,0.1,18.409-3.895,17.988-15.002c-1.046-27.032,13.722-36.76,37.345-46.537c22.695-9.439,38.793-13.624,56.338,6.336
		c7.907,9.005,17.747,6.519,25.957-2.013c8.973-9.296,18.129-18.399,27.324-27.464c19.254-19.085,20.021-21.097,2.334-41.479
		c-10.303-11.801-14.648-21.842-4.064-35.785c4.908-6.489,8.068-15.021,9.759-23.119c3.561-16.892,11.931-23.843,30.08-24.256
		c24.064-0.553,26.157-4.738,26.157-29.396c0-6.448,0.161-12.918,0-19.366C3694.392,577.906,3703.607,574.768,3656.745,569.947
		 M3278.814,392.984c54.97,6.137,96.782,31.871,123.422,78.371c11.187,19.577,15.131,43.371,21.812,65.424
		c3.541,11.72-3.22,30.986,16.82,30.784c18.873-0.191,14.527-18.44,15.493-30.171c6.318-75.203,69.819-138.624,144.509-143.523
		c8.673,79.448-9.818,147.588-84.086,189.127c-13.139,7.354-28.229,11.982-42.998,15.474c-13.643,3.229-19.195,10.11-19.074,23.672
		c0.303,31.71,0.08,63.431,0.08,96.933h-27.445c-0.361-5.231-1.046-10.423-1.086-15.613c-0.102-26.802-0.201-53.613,0.08-80.414
		c0.161-14.015-5.371-21.51-19.879-24.577c-72.314-15.313-123.703-76.138-127.527-150.535
		C3278.01,430.197,3278.814,412.352,3278.814,392.984 M3664.594,633.349c-8.028,1.006-16.641,2.556-25.292,3.048
		c-11.992,0.705-18.069,6.077-21.832,18.009c-6.177,19.698-13.3,39.478-23.1,57.525c-7.223,13.33-9.074,23.3,2.033,34.508
		c5.15,5.191,9.095,11.6,14.869,19.104c-7.947,7.596-14.708,14.096-22.797,21.882c-7.305-5.463-15.031-10.554-21.91-16.589
		c-8.795-7.667-16.723-7.214-27.085-2.184c-19.918,9.637-40.323,18.691-61.329,25.503c-12.574,4.064-18.168,10.281-18.63,22.877
		c-0.303,7.888-1.69,15.755-2.698,24.518h-32.092c-0.805-4.929-1.852-10.12-2.495-15.352c-3.421-27.506-3.662-26.6-29.175-34.639
		c-16.841-5.312-33.481-12.425-48.754-21.217c-12.334-7.094-21.188-6.822-32.092,2.143c-20.645,16.951-21.047,16.459-41.57-7.666
		c5.634-7.456,11.188-15.493,17.385-22.989c6.66-8.058,5.775-15.522,1.59-24.688c-9.599-21.016-18.773-42.324-26.46-64.096
		c-3.722-10.493-9.296-15.685-19.88-16.569c-8.872-0.744-17.706-1.79-27.283-2.756v-31.158c1.046-0.673,1.811-1.649,2.575-1.63
		c28.974,0.996,48.331-9.225,50.423-41.408c0.402-5.977,4.427-11.68,6.9-17.928c11.611,13.41,23,25.734,33.24,38.965
		c2.355,3.088,1.652,9.355,0.906,13.902c-11.086,68.079,28.894,131.521,94.891,150.163c64.95,18.38,132.578-14.648,158.271-77.858
		c9.516-23.411,12.354-47.696,7.867-72.979c-0.965-5.582,1.992-13.129,5.533-18.008c8.311-11.58,18.108-22.134,28.834-34.951
		c4.266,13.09,9.497,24.75,11.689,36.963c2.615,14.507,10.262,20.322,24.244,20.604c7.426,0.151,14.791,1.609,23.222,2.625V633.349z
		"/>
	<path fill="#FFFFFF" d="M2800.178,1701.66c-1.932-3.179-2.677-5.775-2.354-7.807c0.342-2.063,2.072-3.079,5.211-3.079h33.039
		c1.207,0.151,2.213,0.313,3.059,0.463c0.805,0.141,1.551,0.494,2.232,1.025c0.665,0.534,1.35,1.4,2.033,2.597
		c0.684,1.218,1.551,2.887,2.656,4.99l72.998,140.675h0.604l74.429-142.266c1.468-3.028,2.836-4.949,4.083-5.773
		c1.208-0.826,2.838-1.398,4.869-1.711h34.064c2.999,0,4.469,1.367,4.469,4.085c0,1.357-0.746,3.34-2.234,5.895
		c-8.451,14.95-16.802,30.162-25.07,45.634c-8.29,15.494-16.559,31.048-24.789,46.691c-8.209,15.614-16.5,31.166-24.869,46.671
		c-8.35,15.474-16.801,30.693-25.374,45.634v130.938c0,7.272-2.997,10.874-8.993,10.874h-21.811c-5.675,0-8.553-3.602-8.553-10.874
		v-129.812L2800.178,1701.66z"/>
	<path fill="#FFFFFF" d="M3171.449,2018.825c-0.966,2.557-2.313,4.599-4.064,6.128c-1.771,1.499-4.024,2.243-6.741,2.243h-21.608
		c-6.259,0-9.378-2.616-9.378-7.918c0-1.066,0.021-1.932,0.102-2.615c0.059-0.674,0.16-1.317,0.322-1.932
		c0.12-0.582,0.24-1.116,0.402-1.59l117.627-313.976c0.26-0.746,0.604-1.632,1.026-2.597c0.422-0.996,0.944-1.901,1.629-2.727
		c0.685-0.824,1.671-1.539,2.938-2.162c1.309-0.594,3.058-0.906,5.23-0.906h13.441c2.053,0,3.702,0.313,4.99,0.906
		c1.287,0.623,2.293,1.338,2.978,2.162c0.665,0.825,1.207,1.73,1.609,2.727c0.423,0.965,0.745,1.851,1.046,2.597l116.621,313.976
		c0.121,0.766,0.242,1.528,0.402,2.284c0.121,0.744,0.263,1.468,0.402,2.142c0.121,0.686,0.201,1.258,0.201,1.711
		c0,5.302-3.119,7.918-9.376,7.918h-21.61c-2.736,0-4.989-0.744-6.76-2.243c-1.771-1.529-3.099-3.571-4.043-6.128l-22.437-62.303
		h-143.14c-4.749,13.449-9.096,25.594-13.039,36.468C3176.278,2003.877,3173.36,2012.488,3171.449,2018.825 M3209.577,1912.578
		h111.129l-55.051-154.962L3209.577,1912.578z"/>
	<path fill="#FFFFFF" d="M3512.338,1701.66c0-7.254,3.158-10.876,9.397-10.876h101.329c13.46,0,25.935,2.798,37.403,8.382
		c11.488,5.582,21.449,13.188,29.9,22.766c8.41,9.588,14.989,20.755,19.759,33.532c4.749,12.766,7.142,26.248,7.142,40.443
		c0,13.883-2.354,27.112-7.062,39.638c-4.688,12.524-11.187,23.593-19.558,33.188c-8.35,9.589-18.229,17.234-29.537,22.877
		c-11.389,5.666-23.703,8.512-37.043,8.512h-72.355v117.104c0,6.661-2.997,9.979-8.993,9.979h-21.409
		c-5.996,0-8.974-3.318-8.974-9.979V1701.66z M3677.912,1795.454c0-8.02-1.428-15.704-4.284-23.12
		c-2.857-7.395-6.762-13.933-11.711-19.597c-4.99-5.665-10.785-10.172-17.443-13.571c-6.662-3.401-13.805-5.111-21.409-5.111
		h-71.351v122.779h71.351c7.343,0,14.345-1.651,20.985-4.991c6.68-3.3,12.516-7.807,17.545-13.471
		c5.031-5.645,9.015-12.185,11.952-19.6C3676.444,1811.379,3677.912,1803.612,3677.912,1795.454"/>
	<path fill="#FFFFFF" d="M3873.831,1888.111c0,14.335,1.891,27.706,5.612,40.09c3.764,12.386,9.256,23.139,16.521,32.284
		c7.283,9.156,16.137,16.298,26.6,21.54c10.504,5.191,22.455,7.807,35.896,7.807c14.406,0,27.002-2.655,37.706-7.938
		c10.745-5.292,19.617-12.504,26.619-21.631c7.002-9.124,12.233-19.908,15.716-32.282c3.461-12.386,5.191-25.675,5.191-39.869
		v-187.357c0-2.736,0.925-5.07,2.736-7.042c1.851-1.942,4.145-2.928,6.84-2.928h19.559c2.615,0,4.971,0.904,7.162,2.718
		c2.154,1.819,3.26,4.224,3.26,7.252v193.453c0,20.392-3.26,39.086-9.798,56.087c-6.499,16.992-15.452,31.56-26.801,43.724
		c-11.369,12.153-24.608,21.629-39.739,28.43c-15.172,6.801-31.328,10.202-48.451,10.202c-17.125,0-33.24-3.632-48.311-10.886
		c-15.092-7.255-28.311-17.184-39.658-29.769c-11.349-12.637-20.282-27.324-26.802-44.076c-6.56-16.77-9.8-34.678-9.8-53.712
		v-193.453c0-2.263,0.785-4.507,2.355-6.67c1.529-2.202,3.621-3.3,6.197-3.3h21.852c2.012,0,4.104,0.985,6.277,2.928
		c2.173,1.972,3.26,4.306,3.26,7.042V1888.111z"/>
</g>
</svg>
