<?xml version="1.0" encoding="utf-8"?>
<!-- Generator: Adobe Illustrator 26.5.3, SVG Export Plug-In . SVG Version: 6.00 Build 0)  -->
<svg version="1.1" id="Capa_1" xmlns="http://www.w3.org/2000/svg" xmlns:xlink="http://www.w3.org/1999/xlink" x="0px" y="0px"
	 viewBox="0 0 218.9 300" style="enable-background:new 0 0 218.9 300;" xml:space="preserve">
<style type="text/css">
	.st0{opacity:0.39;fill:#F2AA46;enable-background:new    ;}
	.st1{display:none;fill:#79C8CC;}
	.st2{fill:#F2AA46;}
</style>
<g>
	<path class="st0" d="M185.6,173.3c-45.9,54.4-32.3,38.2-62.4,74c-7.2,8.5-20.3,8.5-27.5,0c-29.3-34.8-16.1-19.1-62.4-74
		c-33.5-39.5-31-98.1,5.6-134.7c38.9-38.9,102.1-38.9,141,0C216.3,74.9,219.2,133.5,185.6,173.3z"/>
	<ellipse class="st0" cx="109.4" cy="253.9" rx="99.4" ry="36.8"/>
	<path class="st0" d="M86.3,234.5c-27,10.4-36.1,26.2-19.4,40.2l0,0c5.2,4.4,1,12.7-5.6,11.4C30.7,279.8,10,267.8,10,253.9
		c0-16.3,27.1-28.8,62.4-34.1"/>
	<path class="st1" d="M109.4,65.3c24,0,43.5,19.5,43.5,43.5s-19.5,43.5-43.5,43.5s-43.5-19.5-43.5-43.5
		C66,84.8,85.4,65.3,109.4,65.3L109.4,65.3z"/>
	<path class="st0" d="M134.1,73c5.6,3.9,2.7,12.7-4.1,12.7c-22.9-0.1-43.8,18.4-43.7,43.7c0,6.9-8.8,9.8-12.7,4.1
		c-19.8-28.5,0.5-68.3,35.7-68.3C118.6,65.3,127.1,68.1,134.1,73L134.1,73z"/>
	<path class="st0" d="M99.7,9.8c25-2.4,32.2,33.1,8.4,41.1c-33.9,11.3-60.5,40.7-66.7,78.2c-2.7,16.5-26,17.1-29.5,0.8
		C-0.5,70.9,41.3,15.3,99.7,9.8z"/>
	<path class="st2" d="M61.1,108.8c0,26.6,21.7,48.3,48.3,48.3s48.3-21.7,48.3-48.3S136,60.5,109.4,60.5S61.1,82.1,61.1,108.8z
		 M148.1,108.8c0,21.3-17.3,38.6-38.6,38.6s-38.6-17.3-38.6-38.6s17.3-38.6,38.6-38.6S148.1,87.5,148.1,108.8z M14.8,253.9
		c0,15.1,38.8,31.9,94.6,31.9S204,269,204,253.9c0-7.4-9.7-15.4-26-21.5c-2.5-0.9-3.8-3.7-2.9-6.2c0.9-2.5,3.7-3.8,6.2-2.9
		c43.1,15.9,43.2,45.1,0,61.1c-39.9,14.8-104,14.8-144,0c-49.1-18.2-43.6-55,25.8-68.1l-33.7-39.9c-35-41.5-32.5-102.9,6-141.3
		c27.2-27.2,67-37.2,103.8-26.3c2.6,0.8,4,3.5,3.3,6c-0.8,2.6-3.5,4-6,3.3C103.1,8.2,67,17.3,42.4,42C7.2,77.1,4.9,132.2,36.9,170.2
		l62.4,74c5.3,6.2,14.8,6.2,20.1,0l62.4-74c14.5-17.2,22.4-39,22.4-61.4c0-2.7,2.2-4.9,4.8-4.9c2.7,0,4.9,2.2,4.9,4.8
		c0.1,24.7-8.7,48.8-24.6,67.7l-62.4,74c-9.1,10.8-25.8,10.8-34.9,0l-21.5-25.5C37.6,230.2,14.8,242.1,14.8,253.9L14.8,253.9z"/>
</g>
</svg>
