<?xml version="1.0" encoding="utf-8"?>
<!-- Generator: Adobe Illustrator 25.4.1, SVG Export Plug-In . SVG Version: 6.00 Build 0)  -->
<svg version="1.1" id="Capa_1" xmlns="http://www.w3.org/2000/svg" xmlns:xlink="http://www.w3.org/1999/xlink" x="0px" y="0px"
	 viewBox="0 0 4974.8 2278" style="enable-background:new 0 0 4974.8 2278;" xml:space="preserve">
<style type="text/css">
	.st0{fill:url(#SVGID_1_);}
	.st1{fill:url(#SVGID_00000115482315604450723460000015681935269750090398_);}
	.st2{fill:url(#SVGID_00000010275912273290527880000007770163105358537122_);}
	.st3{fill:url(#SVGID_00000062166880687226209880000011178007940072985763_);}
	.st4{fill:url(#SVGID_00000117665855030106177660000005166060381293196164_);}
	.st5{fill:url(#SVGID_00000070089118061203116650000017167466055956052134_);}
	.st6{fill:url(#SVGID_00000162340158715430030260000016694493537582133381_);}
	.st7{fill:url(#SVGID_00000071543601630372601140000001656821461018978495_);}
	.st8{fill:url(#SVGID_00000098904104236022600270000014940753585913800111_);}
	.st9{fill:url(#SVGID_00000076600403166051883730000014286556669462233751_);}
	.st10{fill:url(#SVGID_00000054245931190530347140000004986846319640630191_);}
	.st11{fill:url(#SVGID_00000040569250436880692230000006363076031708284350_);}
</style>
<g>
	<linearGradient id="SVGID_1_" gradientUnits="userSpaceOnUse" x1="4955.6543" y1="-450.342" x2="4382.231" y2="764.2325">
		<stop  offset="0" style="stop-color:#CACACA"/>
		<stop  offset="1" style="stop-color:#F0F0F0"/>
	</linearGradient>
	<path class="st0" d="M4696.3,271.1h-126.9c-99.8,0-180.8,80.9-180.8,180.8v53.5c0,40.6,32.9,73.5,73.5,73.5h53.5
		c99.8,0,180.8-80.9,180.8-180.8V271.1L4696.3,271.1z"/>
	<g>
		
			<linearGradient id="SVGID_00000168080524046598690540000012808923803538220990_" gradientUnits="userSpaceOnUse" x1="2411.573" y1="895.9918" x2="2427.0374" y2="1222.4629">
			<stop  offset="0" style="stop-color:#CACACA"/>
			<stop  offset="1" style="stop-color:#F0F0F0"/>
		</linearGradient>
		<path style="fill:url(#SVGID_00000168080524046598690540000012808923803538220990_);" d="M2550.2,1502.5h-257.9
			c-13.8,0-25-11.2-25-25V723.1c0-13.8,11.2-25,25-25h257.9c13.8,0,25,11.2,25,25v754.4C2575.2,1491.3,2564,1502.5,2550.2,1502.5z"
			/>
		
			<linearGradient id="SVGID_00000140705772856764311440000016798131349261003181_" gradientUnits="userSpaceOnUse" x1="1160.9928" y1="53.6148" x2="1706.1968" y2="622.5233">
			<stop  offset="0" style="stop-color:#CACACA"/>
			<stop  offset="1" style="stop-color:#F0F0F0"/>
		</linearGradient>
		<path style="fill:url(#SVGID_00000140705772856764311440000016798131349261003181_);" d="M1959.5,271.1
			c-340,0-615.7,275.7-615.7,615.7c0,340,275.7,615.7,615.7,615.7c340,0,615.7-275.7,615.7-615.7
			C2575.2,546.8,2299.5,271.1,1959.5,271.1z M1959.5,1194.7c-170,0-307.8-137.8-307.8-307.8c0-170,137.8-307.8,307.8-307.8
			c170,0,307.8,137.8,307.8,307.8C2267.3,1056.8,2129.5,1194.7,1959.5,1194.7z"/>
	</g>
	
		<linearGradient id="SVGID_00000106865203573766763080000009693470774717970075_" gradientUnits="userSpaceOnUse" x1="5264.5093" y1="-477.2549" x2="4632.8267" y2="860.7189">
		<stop  offset="0" style="stop-color:#CACACA"/>
		<stop  offset="1" style="stop-color:#F0F0F0"/>
	</linearGradient>
	<path style="fill:url(#SVGID_00000106865203573766763080000009693470774717970075_);" d="M4670.4,1502.5h-257.9
		c-13.8,0-25-11.2-25-25V630.9c0-13.8,11.2-25,25-25h257.9c13.8,0,25,11.2,25,25v846.7C4695.4,1491.3,4684.2,1502.5,4670.4,1502.5z"
		/>
	<g>
		
			<linearGradient id="SVGID_00000132067241222810688180000004047395843892170171_" gradientUnits="userSpaceOnUse" x1="791.1141" y1="938.8907" x2="811.4323" y2="1440.072">
			<stop  offset="0" style="stop-color:#CACACA"/>
			<stop  offset="1" style="stop-color:#F0F0F0"/>
		</linearGradient>
		<path style="fill:url(#SVGID_00000132067241222810688180000004047395843892170171_);" d="M1257.3,630.9h-247
			c-16.8,0-30.4,13.6-30.4,30.4v841.5c-0.3,107.8-87.7,195-195.5,195c-77.6,0-144.7-45.2-176.2-110.8c-24.6-51-74.7-84.8-131.3-84.8
			h-14.5c-108,0-181.6,111.6-136.6,209.8c79.6,173.8,255.1,294.5,458.7,294.5c270.8,0,490.8-213.3,502.8-481.1
			c0.4-1.9,0.6-3.8,0.6-5.8V661.3C1287.7,644.5,1274.1,630.9,1257.3,630.9z"/>
		<g>
			
				<linearGradient id="SVGID_00000067943968564933439800000015178559135075434931_" gradientUnits="userSpaceOnUse" x1="64.2573" y1="1173.5548" x2="644.4537" y2="992.949">
				<stop  offset="0" style="stop-color:#CACACA"/>
				<stop  offset="1" style="stop-color:#F0F0F0"/>
			</linearGradient>
			<path style="fill:url(#SVGID_00000067943968564933439800000015178559135075434931_);" d="M1133.8,271.1L1133.8,271.1
				c-85,0-153.9,68.9-153.9,153.9v573.2H979c0,108-87.5,195.5-195.5,195.5c-108,0-195.5-87.5-195.5-195.5H279.2
				c0,278.5,225.8,504.3,504.3,504.3c258.3,0,471.1-194.2,500.6-444.6h3.6V425.1C1287.7,340,1218.8,271.1,1133.8,271.1z"/>
			
				<linearGradient id="SVGID_00000042718629630271703250000009908187742340815799_" gradientUnits="userSpaceOnUse" x1="193.9943" y1="317.1021" x2="318.1609" y2="574.4654">
				<stop  offset="0" style="stop-color:#CACACA"/>
				<stop  offset="1" style="stop-color:#F0F0F0"/>
			</linearGradient>
			<path style="fill:url(#SVGID_00000042718629630271703250000009908187742340815799_);" d="M587.9,998.2L587,550.5
				c0.1-1.9,0.3-3.8,0.3-5.8c0-2.1-0.2-4.1-0.3-6.2l0-6.1l-0.3,0c-6.3-79.3-72.5-141.8-153.5-141.8c-85.1,0-154.1,69-154.1,154.1
				c0,0.2,0,0.4,0,0.7l0,0v452.8c-15.5,267.6,250.2,514.3,504.3,504.3C518.3,1503.9,587.9,998.2,587.9,998.2z"/>
		</g>
	</g>
	<g>
		
			<linearGradient id="SVGID_00000051360230222652742160000007757158051018217894_" gradientUnits="userSpaceOnUse" x1="4243.6143" y1="923.1415" x2="4104.8491" y2="1309.8331">
			<stop  offset="0" style="stop-color:#CACACA"/>
			<stop  offset="1" style="stop-color:#F0F0F0"/>
		</linearGradient>
		<path style="fill:url(#SVGID_00000051360230222652742160000007757158051018217894_);" d="M4309.4,1501.3h-257.9
			c-13.8,0-25-11.2-25-25V721.9c0-13.8,11.2-25,25-25h257.9c13.8,0,25,11.2,25,25v754.4C4334.4,1490.1,4323.2,1501.3,4309.4,1501.3z
			"/>
		<g>
			<g>
				
					<linearGradient id="SVGID_00000008121955663285401820000013397888712614083499_" gradientUnits="userSpaceOnUse" x1="3461.0076" y1="506.548" x2="4009.5979" y2="997.5703">
					<stop  offset="0" style="stop-color:#CACACA"/>
					<stop  offset="1" style="stop-color:#F0F0F0"/>
				</linearGradient>
				<path style="fill:url(#SVGID_00000008121955663285401820000013397888712614083499_);" d="M4334.3,518
					c-1.2-84-69.5-151.8-153.8-151.8c-84.3,0-152.7,67.8-153.8,151.8h-0.1v479h-0.9c0,108-87.5,195.5-195.5,195.5
					c-108,0-195.5-87.5-195.5-195.5h-308.8c0,278.5,225.8,504.3,504.3,504.3c262.8,0,478.6-201.1,502.1-457.8h2.2V518H4334.3z"/>
			</g>
			<g>
				
					<linearGradient id="SVGID_00000035529452580784006120000006636328664070532013_" gradientUnits="userSpaceOnUse" x1="2627.5393" y1="823.0997" x2="3132.1069" y2="1138.0312">
					<stop  offset="0" style="stop-color:#CACACA"/>
					<stop  offset="1" style="stop-color:#F0F0F0"/>
				</linearGradient>
				<path style="fill:url(#SVGID_00000035529452580784006120000006636328664070532013_);" d="M3325.8,997
					c0,108-87.5,195.5-195.5,195.5c-108,0-195.5-87.5-195.5-195.5H2626c0,278.5,225.8,504.3,504.3,504.3s504.3-225.8,504.3-504.3
					H3325.8z"/>
			</g>
		</g>
	</g>
	
		<linearGradient id="SVGID_00000031912103345552450640000012234465635508944806_" gradientUnits="userSpaceOnUse" x1="2640.5356" y1="353.6632" x2="2745.5127" y2="753.2537">
		<stop  offset="0" style="stop-color:#CACACA"/>
		<stop  offset="1" style="stop-color:#F0F0F0"/>
	</linearGradient>
	<path style="fill:url(#SVGID_00000031912103345552450640000012234465635508944806_);" d="M2935.4,991.4l-0.9-267.7h0
		c0-1,0.2-2,0.2-3c0-85-68.9-154-154-154c-85,0-154,68.9-154,154c0,1,0.1,2,0.2,3h-0.2v267.7c-15.5,270.5,234.6,521.2,504.3,509.6
		C2865.8,1502.4,2935.4,991.4,2935.4,991.4z"/>
	
		<linearGradient id="SVGID_00000063620698749403561790000013815285637573769402_" gradientUnits="userSpaceOnUse" x1="3947.2766" y1="410.7653" x2="3744.095" y2="759.5604">
		<stop  offset="0" style="stop-color:#CACACA"/>
		<stop  offset="1" style="stop-color:#F0F0F0"/>
	</linearGradient>
	<path style="fill:url(#SVGID_00000063620698749403561790000013815285637573769402_);" d="M3636.1,991.4l-0.9-359.6
		c0.1-2.4,0.4-4.8,0.4-7.2c0-85.1-69-154.1-154.1-154.1c-84.1,0-152.3,67.4-154,151.1h-0.2v369.8
		c-15.5,270.5,229.1,521.2,504.3,509.6C3566.5,1502.4,3636.1,991.4,3636.1,991.4z"/>
</g>
</svg>
