<?xml version="1.0" encoding="utf-8"?>
<!-- Generator: Adobe Illustrator 24.3.0, SVG Export Plug-In . SVG Version: 6.00 Build 0)  -->
<svg version="1.1" id="Capa_1" xmlns="http://www.w3.org/2000/svg" xmlns:xlink="http://www.w3.org/1999/xlink" x="0px" y="0px"
	 viewBox="0 0 360 131" style="enable-background:new 0 0 360 131;" xml:space="preserve">
<style type="text/css">
	.st0{fill:#33ACAD;}
</style>
<g>
	<path class="st0" d="M40.6,28.1c1.5,3.2,2.5,6.4,2.9,9.8c0,0.1,0,0.2,0,0.3c0,0.1,0,0.2,0,0.3c0.1,0.5,0.1,1.1,0.1,1.6
		c0,0.5,0,1.1,0,1.6c0.1,0.6,0.1,1.2,0.1,1.7c0,0.5,0,1.1,0,1.6c0,0.4,0,0.9,0,1.3c0,0.4,0,0.8-0.1,1.3c-0.1,1.2-0.1,2.5-0.3,3.7
		c-0.1,1.2-0.4,2.5-0.7,3.6c-1.2,4.8-3.4,8.7-6.6,11.7c-3.2,3.1-7,4.6-11.5,4.6c-0.6,0-1.3,0-2.1-0.1s-1.4-0.2-2.1-0.4
		c-0.3-0.1-0.7-0.2-1-0.3c-0.4-0.1-0.7-0.2-1.1-0.3c-4.5-1.4-7.8-4.2-9.9-8.5C6.4,57.4,5.1,52.8,4.8,48c0-0.5,0-1.1,0-1.7
		c0-0.6,0-1.1,0-1.7c0-0.3,0-0.6,0-0.9c0-0.3,0-0.6,0-0.9c0.1-1.6,0.3-3.2,0.5-4.7c0.2-1.5,0.5-2.9,0.7-4.2c0.9-3.3,2.3-6.5,4.3-9.4
		c2-2.9,4.7-4.9,8.2-6c0.9-0.3,1.9-0.6,2.9-0.7c1-0.1,2.1-0.2,3.1-0.2c0.4,0,0.8,0,1.1,0c0.4,0,0.8,0,1.2,0c1.3,0.2,2.6,0.4,3.8,0.9
		c1.2,0.4,2.4,1,3.5,1.7C36.9,22.4,39.1,24.9,40.6,28.1z M17.6,44.7L17.6,44.7c-0.1,0.1-0.1,0.1-0.1,0.1c0,0,0,0.1,0,0.1
		c0,0.8,0,1.9,0.1,3.1c0.1,1.3,0.2,2.6,0.3,3.9c0.3,2.2,0.9,4.2,1.8,6c0.9,1.8,2.3,2.7,4.2,2.7c0.1,0,0.1,0,0.2,0
		c0.1,0,0.1,0,0.2-0.1c0.1,0,0.1,0,0.2,0c0.1,0,0.2,0,0.3,0c0.1,0,0.1,0,0.2,0c1.8-0.3,3.1-1.3,3.9-3.1c0.8-1.8,1.3-3.7,1.6-5.8
		c0.2-1.1,0.3-2.2,0.3-3.3c0-1.1,0-2,0-2.8v-2.3c0-0.8,0-1.7,0-2.8c0-1.1-0.1-2.1-0.3-3.3c-0.2-2.1-0.7-4-1.5-5.8
		c-0.8-1.8-2.1-2.8-4-3.2H24c-1.9,0-3.4,0.9-4.3,2.7c-0.9,1.8-1.5,3.8-1.7,6c-0.2,1.2-0.3,2.3-0.3,3.5c-0.1,1.1-0.1,2.1-0.1,3
		c0,0.1,0,0.1,0,0.2c0,0.1,0,0.2,0,0.3c0,0.1,0,0.1,0,0.2c0.1,0.1,0.1,0.1,0.1,0.2c0,0.1,0,0.1,0,0.2C17.7,44.6,17.6,44.7,17.6,44.7
		z"/>
	<path class="st0" d="M63.1,69.7V30.5H52.2l5.5-10.9h17v50.1H63.1z"/>
</g>
<g>
	<path class="st0" d="M174.6,28.1c1.5,3.2,2.5,6.4,2.9,9.8c0,0.1,0,0.2,0,0.3c0,0.1,0,0.2,0,0.3c0.1,0.5,0.1,1.1,0.1,1.6
		c0,0.5,0,1.1,0,1.6c0.1,0.6,0.1,1.2,0.1,1.7c0,0.5,0,1.1,0,1.6c0,0.4,0,0.9,0,1.3c0,0.4,0,0.8-0.1,1.3c-0.1,1.2-0.1,2.5-0.3,3.7
		c-0.1,1.2-0.4,2.5-0.7,3.6c-1.2,4.8-3.4,8.7-6.6,11.7c-3.2,3.1-7,4.6-11.5,4.6c-0.6,0-1.3,0-2.1-0.1s-1.4-0.2-2.1-0.4
		c-0.3-0.1-0.7-0.2-1-0.3c-0.4-0.1-0.7-0.2-1.1-0.3c-4.5-1.4-7.8-4.2-9.9-8.5c-2.1-4.2-3.3-8.8-3.7-13.6c0-0.5,0-1.1,0-1.7
		c0-0.6,0-1.1,0-1.7c0-0.3,0-0.6,0-0.9c0-0.3,0-0.6,0-0.9c0.1-1.6,0.3-3.2,0.5-4.7c0.2-1.5,0.5-2.9,0.7-4.2c0.9-3.3,2.3-6.5,4.3-9.4
		c2-2.9,4.7-4.9,8.2-6c0.9-0.3,1.9-0.6,2.9-0.7c1-0.1,2.1-0.2,3.1-0.2c0.4,0,0.8,0,1.1,0c0.4,0,0.8,0,1.2,0c1.3,0.2,2.6,0.4,3.8,0.9
		c1.2,0.4,2.4,1,3.5,1.7C170.9,22.4,173.1,24.9,174.6,28.1z M151.6,44.7L151.6,44.7c-0.1,0.1-0.1,0.1-0.1,0.1c0,0,0,0.1,0,0.1
		c0,0.8,0,1.9,0.1,3.1c0.1,1.3,0.2,2.6,0.3,3.9c0.3,2.2,0.9,4.2,1.8,6c0.9,1.8,2.3,2.7,4.2,2.7c0.1,0,0.1,0,0.2,0
		c0.1,0,0.1,0,0.2-0.1c0.1,0,0.1,0,0.2,0c0.1,0,0.2,0,0.3,0c0.1,0,0.1,0,0.2,0c1.8-0.3,3.1-1.3,3.9-3.1c0.8-1.8,1.3-3.7,1.6-5.8
		c0.2-1.1,0.3-2.2,0.3-3.3c0-1.1,0-2,0-2.8v-2.3c0-0.8,0-1.7,0-2.8c0-1.1-0.1-2.1-0.3-3.3c-0.2-2.1-0.7-4-1.5-5.8
		c-0.8-1.8-2.1-2.8-4-3.2H158c-1.9,0-3.4,0.9-4.3,2.7c-0.9,1.8-1.5,3.8-1.7,6c-0.2,1.2-0.3,2.3-0.3,3.5c-0.1,1.1-0.1,2.1-0.1,3
		c0,0.1,0,0.1,0,0.2c0,0.1,0,0.2,0,0.3c0,0.1,0,0.1,0,0.2c0.1,0.1,0.1,0.1,0.1,0.2c0,0.1,0,0.1,0,0.2
		C151.7,44.6,151.6,44.7,151.6,44.7z"/>
	<path class="st0" d="M186.1,69.9l23.1-27.5c0.1-0.1,0.1-0.1,0.1-0.1c0,0,0.1-0.1,0.1-0.1c1-1.1,1.9-2.3,2.7-3.8
		c0.8-1.4,1.2-2.9,1.2-4.3V33c-0.3-1.6-1-2.8-2.1-3.7S208.6,28,207,28c-2.8,0-4.6,0.9-5.4,2.7c-0.8,1.8-1.3,3.8-1.4,6.2h-12.3
		c0.1-2.9,0.5-5.6,1.3-8.2c0.8-2.6,2.4-4.9,4.7-6.8c1.5-1.2,3.3-2.2,5.3-2.9c2-0.7,4-1.1,6.1-1.2c0.2-0.1,0.5-0.1,0.7-0.1
		c0.3,0,0.5,0,0.7,0c0.2,0,0.4,0,0.7,0s0.5,0,0.8,0.1c4.3,0.3,8.2,1.7,11.8,4.3c3.6,2.6,5.6,6.2,6,10.9v1.3c0,2.8-0.7,5.3-2.1,7.7
		c-1.4,2.4-3.1,4.6-5,6.7l-9.2,10.3h15.7v11H186.1z"/>
</g>
<g>
	<path class="st0" d="M305.6,28.1c1.5,3.2,2.5,6.4,2.9,9.8c0,0.1,0,0.2,0,0.3c0,0.1,0,0.2,0,0.3c0.1,0.5,0.1,1.1,0.1,1.6
		c0,0.5,0,1.1,0,1.6c0.1,0.6,0.1,1.2,0.1,1.7c0,0.5,0,1.1,0,1.6c0,0.4,0,0.9,0,1.3c0,0.4,0,0.8-0.1,1.3c-0.1,1.2-0.1,2.5-0.3,3.7
		c-0.1,1.2-0.4,2.5-0.7,3.6c-1.2,4.8-3.4,8.7-6.6,11.7c-3.2,3.1-7,4.6-11.5,4.6c-0.6,0-1.3,0-2.1-0.1c-0.7-0.1-1.4-0.2-2.1-0.4
		c-0.3-0.1-0.7-0.2-1-0.3c-0.4-0.1-0.7-0.2-1.1-0.3c-4.5-1.4-7.8-4.2-9.9-8.5c-2.1-4.2-3.3-8.8-3.7-13.6c0-0.5,0-1.1,0-1.7
		c0-0.6,0-1.1,0-1.7c0-0.3,0-0.6,0-0.9c0-0.3,0-0.6,0-0.9c0.1-1.6,0.3-3.2,0.5-4.7c0.2-1.5,0.5-2.9,0.7-4.2c0.9-3.3,2.3-6.5,4.3-9.4
		c2-2.9,4.7-4.9,8.2-6c0.9-0.3,1.9-0.6,2.9-0.7c1-0.1,2.1-0.2,3.1-0.2c0.4,0,0.8,0,1.1,0c0.4,0,0.8,0,1.2,0c1.3,0.2,2.6,0.4,3.8,0.9
		c1.2,0.4,2.4,1,3.5,1.7C301.9,22.4,304.1,24.9,305.6,28.1z M282.6,44.7L282.6,44.7c-0.1,0.1-0.1,0.1-0.1,0.1c0,0,0,0.1,0,0.1
		c0,0.8,0,1.9,0.1,3.1c0.1,1.3,0.2,2.6,0.3,3.9c0.3,2.2,0.9,4.2,1.8,6c0.9,1.8,2.3,2.7,4.2,2.7c0.1,0,0.1,0,0.2,0
		c0.1,0,0.1,0,0.2-0.1c0.1,0,0.1,0,0.2,0c0.1,0,0.2,0,0.3,0c0.1,0,0.1,0,0.2,0c1.8-0.3,3.1-1.3,3.9-3.1c0.8-1.8,1.3-3.7,1.6-5.8
		c0.2-1.1,0.3-2.2,0.3-3.3c0-1.1,0-2,0-2.8v-2.3c0-0.8,0-1.7,0-2.8c0-1.1-0.1-2.1-0.3-3.3c-0.2-2.1-0.7-4-1.5-5.8
		c-0.8-1.8-2.1-2.8-4-3.2H289c-1.9,0-3.4,0.9-4.3,2.7c-0.9,1.8-1.5,3.8-1.7,6c-0.2,1.2-0.3,2.3-0.3,3.5c-0.1,1.1-0.1,2.1-0.1,3
		c0,0.1,0,0.1,0,0.2c0,0.1,0,0.2,0,0.3c0,0.1,0,0.1,0,0.2c0.1,0.1,0.1,0.1,0.1,0.2c0,0.1,0,0.1,0,0.2
		C282.7,44.6,282.6,44.7,282.6,44.7z"/>
	<path class="st0" d="M330.1,52.7c0,0.2,0,0.3,0,0.5c0,0.2,0,0.4,0,0.5c0.1,1.2,0.3,2.3,0.7,3.4c0.4,1.1,1.2,2,2.4,2.6
		c0.2,0.1,0.3,0.1,0.5,0.2s0.4,0.1,0.5,0.2c0.4,0.1,0.8,0.2,1.1,0.3c0.4,0.1,0.7,0.1,1,0.1c1.9,0,3.5-0.7,4.9-2.1c1.3-1.4,2-3,2-4.8
		c0-0.4,0-0.8-0.1-1.1c-0.1-0.4-0.2-0.8-0.3-1.2c-0.2-0.4-0.3-0.8-0.5-1.1c-0.2-0.4-0.4-0.8-0.7-1.1c-0.5-0.6-1.2-1.1-2-1.3
		c-0.8-0.2-1.6-0.4-2.5-0.4c-0.2,0-0.4,0-0.6,0s-0.4,0-0.6,0h-1.9v-8.4c0.2,0,0.3,0,0.5,0c0.2,0,0.4,0,0.5,0
		c1.3-0.1,2.6-0.3,3.8-0.8c1.2-0.5,2.1-1.4,2.7-2.8c0.1-0.3,0.2-0.6,0.2-0.9c0-0.3,0.1-0.6,0.1-0.9c0-0.1,0-0.2,0-0.3
		c0-0.1,0-0.2,0-0.3c0-0.2,0-0.4,0-0.6c0-0.2,0-0.4,0-0.6c-0.1-0.4-0.3-0.9-0.4-1.3c-0.2-0.5-0.4-0.9-0.8-1.2
		c-0.4-0.4-0.8-0.7-1.3-0.9c-0.5-0.2-1-0.4-1.5-0.6c-0.3-0.1-0.6-0.1-0.9-0.1c-0.3,0-0.5,0-0.8,0c-1.4,0-2.6,0.5-3.7,1.4
		c-1.1,0.9-1.7,2.4-1.8,4.3h-12.5c0.1-5,2-8.8,5.8-11.4c3.8-2.6,7.9-4,12.4-4.1c0.1,0,0.2,0,0.3,0c0.1,0,0.1,0,0.2,0
		c0.4,0,0.8,0,1.1,0c0.4,0,0.8,0,1.1,0c1.6,0.2,3.2,0.5,4.8,0.9c1.6,0.5,3,1.1,4.3,1.9c1.7,1.1,3.1,2.7,4.2,4.6
		c1.1,1.9,1.6,3.9,1.6,6c0,0.5,0,1.1-0.1,1.6c-0.1,0.5-0.2,1-0.3,1.6c-0.5,2-1.5,3.6-2.9,4.7c-1.4,1.2-3,2.1-4.9,2.8
		c2.4,0.5,4.4,1.4,6.1,2.6c1.7,1.2,2.9,3,3.6,5.5c0.1,0.4,0.2,0.8,0.2,1.1c0.1,0.4,0.1,0.8,0.2,1.1c0.1,0.4,0.1,0.8,0.1,1.2
		c0,0.4,0,0.8,0,1.1c0,0.3,0,0.7,0,1c0,0.4-0.1,0.7-0.1,1.1c-0.2,2-0.8,3.9-1.8,5.8c-1,1.9-2.3,3.4-4,4.6c-1.5,1.1-3.1,2-5,2.6
		c-1.9,0.6-3.8,1-5.7,1.3c-0.4,0.1-0.9,0.1-1.3,0.1c-0.5,0-0.9,0-1.3,0c-0.5,0-1.1,0-1.7,0c-0.6,0-1.1-0.1-1.7-0.2
		c-1-0.1-1.9-0.3-2.8-0.5c-0.9-0.2-1.8-0.4-2.7-0.6c-3.6-1.4-6.3-3.6-8-6.7c-1.7-3.1-2.6-6.5-2.6-10.2H330.1z"/>
</g>
<path class="st0" d="M333.3,104.5c0,8.3-6.7,14.9-15,14.9c-7.2,0-13.1-5-14.6-11.8H194.7c-1.5,6.7-7.5,11.8-14.6,11.8
	c-7.2,0-13.2-5-14.6-11.8H56.2c-1.5,6.7-7.5,11.8-14.6,11.8c-8.3,0-15-6.7-15-14.9c0-8.3,6.7-15,15-15c7.2,0,13.1,5,14.6,11.8h109.2
	c1.5-6.7,7.4-11.8,14.6-11.8c7.2,0,13.1,5,14.6,11.8h109.1c1.5-6.7,7.4-11.8,14.6-11.8C326.6,89.5,333.3,96.2,333.3,104.5z"/>
</svg>
