<?xml version="1.0" encoding="utf-8"?>
<!-- Generator: Adobe Illustrator 26.5.3, SVG Export Plug-In . SVG Version: 6.00 Build 0)  -->
<svg version="1.1" id="Capa_1" xmlns="http://www.w3.org/2000/svg" xmlns:xlink="http://www.w3.org/1999/xlink" x="0px" y="0px"
	 viewBox="0 0 300 269.2" style="enable-background:new 0 0 300 269.2;" xml:space="preserve">
<style type="text/css">
	.st0{opacity:0.39;fill:#F2AA46;enable-background:new    ;}
	.st1{opacity:0.39;enable-background:new    ;}
	.st2{fill:#F2AA46;}
</style>
<g>
	<g>
		<g>
			<path class="st0" d="M236.5,7.1h-68c-32.8,0-59.5,26.7-59.5,59.5c0,29.9,22.2,54.7,51,58.9v26.1c0,3.4,2.1,6.5,5.2,7.8
				c3.1,1.3,6.8,0.6,9.3-1.8l31.5-31.5h30.5c32.8,0,60-26.7,60-59.5S269.3,7.1,236.5,7.1L236.5,7.1z M168.5,75.1
				c-4.7,0-8.5-3.8-8.5-8.5s3.8-8.5,8.5-8.5s8.5,3.8,8.5,8.5S173.2,75.1,168.5,75.1z M202.5,75.1c-4.7,0-8.5-3.8-8.5-8.5
				s3.8-8.5,8.5-8.5s8.5,3.8,8.5,8.5S207.2,75.1,202.5,75.1z M236.5,75.1c-4.7,0-8.5-3.8-8.5-8.5s3.8-8.5,8.5-8.5s8.5,3.8,8.5,8.5
				S241.2,75.1,236.5,75.1z"/>
		</g>
		<g>
			<path class="st0" d="M197.4,262c14.1,0,25.5-11.4,25.5-25.5v-34c0-3.7-2.3-6.9-5.8-8.1l-50.9-17c-2.5-0.8-5.2-0.5-7.4,1
				l-21.6,14.4c-22.9-10.9-50.1-38.1-61-61l14.4-21.6c1.5-2.2,1.8-4.9,1-7.4L74.7,52c-1.2-3.5-4.4-5.8-8.1-5.8H32
				c-14,0-25.4,11.3-25.4,25.4C6.6,169.5,99.6,262,197.4,262L197.4,262z"/>
		</g>
	</g>
	<g class="st1">
		<path class="st2" d="M39.8,42.6c9.2-1,11.9,13.9,3.1,17.3C30.4,64.6,20.5,77,18.2,92.8c-1,6.9-9.6,7.2-10.9,0.3
			C2.8,68.3,18.2,44.9,39.8,42.6z"/>
	</g>
	<g>
		<g>
			<g>
				<path class="st2" d="M168.6,163.2c-1.5,0-3-0.3-4.5-0.9c-4.3-1.8-7.2-6-7.2-10.7v-23.5c-13.7-2.6-26.2-9.7-35.5-20.4
					c-10-11.4-15.5-26-15.5-41.2C106,32.1,134,4,168.5,4h68c16.5,0,32.2,6.4,44.1,17.9c1.2,1.2,1.3,3.2,0.1,4.4
					c-1.2,1.2-3.2,1.3-4.4,0.1c-10.8-10.4-24.9-16.2-39.8-16.2h-68c-31.1,0-56.4,25.3-56.4,56.4c0,27.8,20.8,51.8,48.3,55.8l2.7,0.4
					v28.8c0,2.2,1.3,4.1,3.3,5c2,0.8,4.3,0.4,5.9-1.2l32.4-32.4h31.8c16.1,0,31.6-6.9,42.4-19c1.2-1.3,3.1-1.4,4.4-0.2
					c1.3,1.2,1.4,3.1,0.2,4.4c-12,13.4-29.2,21-47.1,21h-29.2l-30.6,30.6C174.5,162,171.6,163.2,168.6,163.2z M236.5,78.2
					c-6.4,0-11.6-5.2-11.6-11.6S230.1,55,236.5,55s11.6,5.2,11.6,11.6S242.9,78.2,236.5,78.2z M236.5,61.2c-3,0-5.4,2.4-5.4,5.4
					c0,3,2.4,5.4,5.4,5.4s5.4-2.4,5.4-5.4S239.5,61.2,236.5,61.2z M202.5,78.2c-6.4,0-11.6-5.2-11.6-11.6S196.1,55,202.5,55
					s11.6,5.2,11.6,11.6S208.9,78.2,202.5,78.2z M202.5,61.2c-3,0-5.4,2.4-5.4,5.4c0,3,2.4,5.4,5.4,5.4s5.4-2.4,5.4-5.4
					S205.5,61.2,202.5,61.2z M168.5,78.2c-6.4,0-11.6-5.2-11.6-11.6S162.1,55,168.5,55s11.6,5.2,11.6,11.6S175,78.2,168.5,78.2z
					 M168.5,61.2c-3,0-5.4,2.4-5.4,5.4c0,3,2.4,5.4,5.4,5.4s5.4-2.4,5.4-5.4S171.5,61.2,168.5,61.2z"/>
			</g>
			<g>
				<path class="st2" d="M197.4,265.1c-99.7,0-194-94.1-194-193.5c0-15.7,12.8-28.5,28.6-28.5h34.5c5,0,9.4,3.2,11,7.9l17,50.9
					c1.1,3.4,0.6,7.1-1.3,10.1l-13.4,20.1c2.2,4.3,5,8.9,8.4,13.6c1,1.4,0.7,3.3-0.7,4.3c-1.4,1-3.3,0.7-4.3-0.7
					c-4-5.6-7.3-11-9.7-16.2l-0.8-1.6l15.4-23.1c0.9-1.4,1.2-3.1,0.6-4.7L71.7,53c-0.7-2.2-2.8-3.7-5.1-3.7H32
					c-12.3,0-22.4,10-22.4,22.3c0,96.3,91.2,187.3,187.8,187.3c12.3,0,22.4-10,22.4-22.4v-34c0-2.3-1.5-4.4-3.7-5.1l-50.9-17
					c-1.6-0.5-3.3-0.3-4.7,0.6l-23.1,15.4l-1.6-0.8c-6.6-3.2-13.6-7.6-20.8-13.2c-1.4-1.1-1.6-3-0.5-4.4s3-1.6,4.4-0.5
					c6.3,4.9,12.3,8.8,18.1,11.7l20.1-13.4c3-2,6.7-2.5,10.1-1.3l50.8,17c4.7,1.6,7.9,6,7.9,11v34
					C226,252.3,213.2,265.1,197.4,265.1z"/>
			</g>
		</g>
	</g>
</g>
</svg>
