<?xml version="1.0" encoding="utf-8"?>
<!-- Generator: Adobe Illustrator 16.0.3, SVG Export Plug-In . SVG Version: 6.00 Build 0)  -->
<!DOCTYPE svg PUBLIC "-//W3C//DTD SVG 1.1//EN" "http://www.w3.org/Graphics/SVG/1.1/DTD/svg11.dtd">
<svg version="1.1" id="Capa_1" xmlns="http://www.w3.org/2000/svg" xmlns:xlink="http://www.w3.org/1999/xlink" x="0px" y="0px"
	 width="32.345px" height="31px" viewBox="0 0 32.345 31" enable-background="new 0 0 32.345 31" xml:space="preserve">
<path fill="#FFFFFF" d="M11.792,23.738v6.25c0,0.438,0.28,0.823,0.696,0.961C12.592,30.983,12.698,31,12.803,31
	c0.315,0,0.62-0.149,0.814-0.412l3.656-4.977L11.792,23.738z"/>
<path fill="#FFFFFF" d="M31.919,0.191c-0.309-0.22-0.716-0.249-1.053-0.073L0.543,15.953c-0.358,0.188-0.57,0.571-0.541,0.974
	c0.031,0.403,0.299,0.748,0.681,0.879l8.43,2.882l17.952-15.35L13.173,22.074l14.128,4.828c0.104,0.035,0.215,0.054,0.325,0.054
	c0.184,0,0.365-0.05,0.526-0.146c0.256-0.157,0.431-0.419,0.475-0.715l3.706-24.931C32.39,0.787,32.229,0.413,31.919,0.191"/>
</svg>
