<?xml version="1.0" encoding="utf-8"?>
<!-- Generator: Adobe Illustrator 24.3.0, SVG Export Plug-In . SVG Version: 6.00 Build 0)  -->
<svg version="1.1" id="Capa_1" xmlns="http://www.w3.org/2000/svg" xmlns:xlink="http://www.w3.org/1999/xlink" x="0px" y="0px"
	 viewBox="0 0 181 158.9" style="enable-background:new 0 0 181 158.9;" xml:space="preserve">
<style type="text/css">
	.st0{fill:#33ACAD;}
</style>
<g id="Capa_2_1_">
	<g id="Capa_1-2">
		<path class="st0" d="M180.6,113.4c-1.3-4.6-5.1-8-9.8-8.7V36h6c1.7,0,3-1.3,3-3V3c0-1.7-1.3-3-3-3H45c-1.7,0-3,1.3-3,3v30
			c0,1.7,1.3,3,3,3h6v59.9h-3c-7.4,0-14.7,2.1-21,6.1V86.9c0-1.7-1.3-3-3-3H3c-1.7,0-3,1.3-3,3v68.9c0,1.7,1.3,3,3,3h21
			c1.7,0,3-1.3,3-3v-15.1c6.3,4,13.6,6.2,21,6.1h49.2c3.4,0,6.8-0.4,10.1-1.3l64.9-17.4C178.6,126.4,182.4,119.8,180.6,113.4
			C180.6,113.4,180.6,113.4,180.6,113.4z M48,6h125.8v24H48V6z M57,36h107.9v69.3l-34.8,9.3c-1.4-3.4-4.3-6-7.9-7L81.8,96.8
			c-2.3-0.6-4.6-0.9-7-0.9H57V36z M21,152.9H6V89.9h15V152.9z M170.6,122.4l-64.9,17.4c-2.8,0.7-5.7,1.1-8.6,1.1H48
			c-7.1,0-14.1-2.3-19.8-6.6l-1.2-0.9v-24l1.2-0.9c5.7-4.3,12.7-6.6,19.8-6.6h26.8c1.8,0,3.7,0.2,5.4,0.7l40.4,10.8
			c2.4,0.6,4.1,2.7,4.4,5.2l0.1,0.4c0,0.1-0.1,0.3-0.1,0.4c0,0.5-0.1,1-0.2,1.4c-0.7,2.6-3.1,4.4-5.8,4.4c-0.5,0-1.1-0.1-1.6-0.2
			L92,118.2c-1.6-0.4-3.2,0.5-3.7,2.1c-0.4,1.6,0.5,3.2,2.1,3.7l0,0l25.5,6.8c1,0.3,2.1,0.4,3.1,0.4c5.4,0,10.1-3.6,11.5-8.8
			c0.2-0.6,0.3-1.2,0.3-1.8l36.5-9.8c0.3-0.1,0.5-0.1,0.8-0.2c3-0.4,5.8,1.5,6.6,4.4c0.1,0.5,0.2,1,0.2,1.6
			C175,119.3,173.2,121.7,170.6,122.4L170.6,122.4z"/>
		<path class="st0" d="M95.9,48h30c1.7,0,3-1.3,3-3s-1.3-3-3-3l0,0h-30c-1.7,0-3,1.3-3,3S94.3,48,95.9,48z"/>
	</g>
</g>
</svg>
