<?xml version="1.0" encoding="utf-8"?>
<!-- Generator: Adobe Illustrator 25.4.1, SVG Export Plug-In . SVG Version: 6.00 Build 0)  -->
<svg version="1.1" id="Capa_1" xmlns="http://www.w3.org/2000/svg" xmlns:xlink="http://www.w3.org/1999/xlink" x="0px" y="0px"
	 viewBox="0 0 105.3 133.3" style="enable-background:new 0 0 105.3 133.3;" xml:space="preserve">
<style type="text/css">
	.st0{fill:#36ADAE;}
</style>
<g>
	<g>
		<g>
			<g>
				<path class="st0" d="M100.7,46.4c1.4,0,2.5-1.1,2.5-2.5V10.1c0-4.1-3.4-7.5-7.5-7.5h-68c-4.1,0-7.5,3.4-7.5,7.5v37.5l-7.9,7.9
					C5.7,62.1,2.2,70.7,2.2,79.9v48.3c0,1.4,1.1,2.5,2.5,2.5c1.4,0,2.5-1.1,2.5-2.5V79.9c0-7.8,3.1-15.2,8.6-20.8l4.4-4.4v32.1
					l-4,8.1c-0.6,1.2-0.1,2.7,1.1,3.3c1.2,0.6,2.7,0.1,3.3-1.1l4.1-8.3l7.6-7.6c2.3-2.3,5.4-3.6,8.8-3.6h17
					c-2.5,5.1-7.7,8.4-13.6,8.4h-1.6c-0.7,0-1.3,0.3-1.8,0.7l-9,9c-0.5,0.5-0.7,1.1-0.7,1.8v9.1c0,7.5-2.9,14.5-8.1,19.9
					c-1,1-1,2.6,0,3.5c0.5,0.5,1.1,0.7,1.8,0.7h70.6c4.1,0,7.5-3.4,7.5-7.5V66.7c0-1.4-1.1-2.5-2.5-2.5c-1.4,0-2.5,1.1-2.5,2.5v41
					H36.4c0-0.4,0-0.7,0-1.1v-8l7.5-7.5h0.6c2.7,0,5.2-0.5,7.6-1.5c0,0,0.1,0.1,0.1,0.1c4,4.5,8.1,6.8,8.3,6.9
					c0.4,0.2,0.8,0.3,1.2,0.3c0.4,0,0.8-0.1,1.2-0.3c0.7-0.4,16.4-9.5,16.4-26.9c0-17.4-15.8-26.3-16.5-26.7c-0.8-0.4-1.7-0.4-2.4,0
					C59.8,43.3,44,52.2,44,69.6c0,1,0.1,2,0.2,3h-3c-4.6,0-9,1.8-12.3,5.1l-3.7,3.7V21.2h73v22.8C98.2,45.3,99.3,46.4,100.7,46.4z
					 M98.2,112.7v10.5h0c0,1.4-1.1,2.5-2.5,2.5H30.4c2.7-3.9,4.6-8.3,5.5-13H98.2z M71.7,59.1c0.8,1.5,1.5,3.2,1.9,5c0,0,0,0,0,0
					l-9.5,9.5v-6.9L71.7,59.1z M64.2,49.9c1.5,1.2,3.2,2.9,4.8,4.9l-4.8,4.8V49.9z M64.2,80.6l10.2-10.2C74,79.6,68.2,86,64.2,89.4
					V80.6z M59.2,89.4c-0.8-0.7-1.7-1.5-2.6-2.4c0.9-0.7,1.8-1.5,2.6-2.3V89.4z M59.2,49.9v9.6l-4.8-4.8
					C56,52.8,57.7,51.1,59.2,49.9z M51.6,59.1l7.6,7.6v5.9h-10c-0.1-1-0.2-2-0.2-3C49,65.6,50.1,62.1,51.6,59.1z M25.2,16.1v-6
					c0-1.4,1.1-2.5,2.5-2.5h68c1.4,0,2.5,1.1,2.5,2.5v6H25.2z"/>
			</g>
		</g>
		<g>
			<g>
				<path class="st0" d="M63.4,117.4c-0.5-0.5-1.1-0.7-1.8-0.7c-0.7,0-1.3,0.3-1.8,0.7c-0.5,0.5-0.7,1.1-0.7,1.8
					c0,0.7,0.3,1.3,0.7,1.8c0.5,0.5,1.1,0.7,1.8,0.7c0.7,0,1.3-0.3,1.8-0.7c0.5-0.5,0.7-1.1,0.7-1.8
					C64.2,118.5,63.9,117.9,63.4,117.4z"/>
			</g>
		</g>
		<g>
			<g>
				<path class="st0" d="M102.4,54.2c-0.5-0.5-1.1-0.7-1.8-0.7c-0.7,0-1.3,0.3-1.8,0.7c-0.5,0.5-0.7,1.1-0.7,1.8
					c0,0.7,0.3,1.3,0.7,1.8c0.5,0.5,1.1,0.7,1.8,0.7c0.7,0,1.3-0.3,1.8-0.7c0.5-0.5,0.7-1.1,0.7-1.8
					C103.2,55.3,102.9,54.7,102.4,54.2z"/>
			</g>
		</g>
		<g>
			<g>
				<path class="st0" d="M70.1,38.2c-4.7-4.7-12.2-4.7-16.9,0c-1,1-1,2.6,0,3.5c1,1,2.6,1,3.5,0c2.7-2.7,7.1-2.7,9.8,0
					c0.5,0.5,1.1,0.7,1.8,0.7s1.3-0.2,1.8-0.7C71.1,40.7,71.1,39.2,70.1,38.2z"/>
			</g>
		</g>
		<g>
			<g>
				<path class="st0" d="M76.8,31.5c-8.3-8.3-21.9-8.3-30.2,0c-1,1-1,2.6,0,3.5c1,1,2.6,1,3.5,0c6.4-6.4,16.8-6.4,23.2,0
					c0.5,0.5,1.1,0.7,1.8,0.7c0.6,0,1.3-0.2,1.8-0.7C77.8,34.1,77.8,32.5,76.8,31.5z"/>
			</g>
		</g>
	</g>
</g>
</svg>
