<?xml version="1.0" encoding="utf-8"?>
<!-- Generator: Adobe Illustrator 16.0.3, SVG Export Plug-In . SVG Version: 6.00 Build 0)  -->
<!DOCTYPE svg PUBLIC "-//W3C//DTD SVG 1.1//EN" "http://www.w3.org/Graphics/SVG/1.1/DTD/svg11.dtd">
<svg version="1.1" id="Capa_1" xmlns="http://www.w3.org/2000/svg" xmlns:xlink="http://www.w3.org/1999/xlink" x="0px" y="0px"
	 width="900px" height="900px" viewBox="0 0 900 900" enable-background="new 0 0 900 900" xml:space="preserve">
<g>
	<defs>
		<rect id="SVGID_1_" x="-72.926" y="-72.927" width="1045.852" height="1045.854"/>
	</defs>
	<clipPath id="SVGID_2_">
		<use xlink:href="#SVGID_1_"  overflow="visible"/>
	</clipPath>
	<g clip-path="url(#SVGID_2_)">
		<defs>
			<rect id="SVGID_3_" x="-141.625" y="-142.788" width="1185.577" height="1185.576"/>
		</defs>
		<clipPath id="SVGID_4_">
			<use xlink:href="#SVGID_3_"  overflow="visible"/>
		</clipPath>
		<path clip-path="url(#SVGID_4_)" fill="#ECECEC" d="M505.041,237.557c-4.549-10.055-12.984-17.776-23.59-21.775
			c-6.607-2.491-9.918-9.813-7.416-16.442c2.49-6.607,9.811-9.918,16.416-7.426c16.566,6.248,29.996,18.857,37.41,35.3
			c2.904,6.372,0.148,13.673-6.244,16.567C514.574,246.428,507.295,243.684,505.041,237.557"/>
		<path clip-path="url(#SVGID_4_)" fill="#FBCE47" d="M638.908,254.065h-62.352c-5.682-34.719-24.82-64.501-52.451-84.329
			l40.396-40.398c5.682-5.681,5.682-14.866,0-19.83c-5.678-5.681-14.889-5.681-19.826,0l-46.078,46.08
			c-31.189-12.768-66.624-12.768-99.194,1.407l-47.461-47.463c-5.68-5.679-14.892-5.679-19.855,0c-5.68,5.681-5.68,14.894,0,19.83
			l42.523,42.522c-26.198,19.831-43.93,48.894-49.583,82.181h-62.377c-52.424,0-94.256,42.522-94.256,94.255
			c0,52.45,42.523,94.257,94.256,94.257h62.377c8.494,55.265,53.83,100.629,111.959,107.024v43.929
			c0,7.804,6.374,14.174,14.176,14.174c7.803,0,14.174-6.37,14.174-14.174v-43.929c53.141-6.373,102.033-44.647,111.961-107.024
			h62.377c52.424,0,94.256-42.498,94.256-94.257C733.16,296.562,691.357,254.039,638.908,254.065 M322.187,414.203h-60.944
			c-36.127,0-65.883-29.756-65.883-65.883c0-36.15,29.755-65.906,65.883-65.906h60.944V414.203z M547.516,254.065H352.659
			C374.61,148.474,526.256,148.474,547.516,254.065 M384.537,497.1h131.791C478.793,530.412,422.097,531.101,384.537,497.1
			 M539.021,468.777H362.585c-4.247-7.804-7.087-16.323-9.211-25.509h97.097h97.072
			C546.107,451.763,542.551,460.257,539.021,468.777 M549.639,414.203h-99.193h-99.221v-25.509H550.33v25.509H549.639z
			 M549.639,360.346H351.225v-24.102H550.33v24.102H549.639z M549.639,307.922H351.225v-25.508H550.33v25.508H549.639z
			 M638.908,414.894h-60.945V282.388h60.945c36.15,0,65.904,29.757,65.904,65.907C704.84,385.139,675.084,414.894,638.908,414.894"
			/>
		<path clip-path="url(#SVGID_4_)" fill="#F9A40E" d="M436.987,549.602l0.64,33.087l0.117,8.275c0.024,1.378,0.014,2.782,0.147,4.04
			c0.172,1.291,0.538,2.542,1.043,3.733c0.539,1.176,1.243,2.267,2.07,3.257c0.849,0.971,1.834,1.809,2.904,2.519
			c1.079,0.692,2.264,1.201,3.481,1.573c1.229,0.354,2.501,0.488,3.772,0.501c1.268-0.054,2.531-0.23,3.738-0.614
			c1.193-0.408,2.344-0.946,3.383-1.659c1.027-0.73,1.965-1.579,2.76-2.551c0.773-0.987,1.422-2.065,1.908-3.217
			c0.447-1.162,0.762-2.371,0.885-3.606c0.088-1.18,0.041-2.596,0.021-3.976l-0.117-8.275l-0.457-33.087l-0.025-1.799l1.834-0.241
			c13.551-1.777,26.801-5.673,39.104-11.51c12.299-5.838,23.648-13.618,33.434-23.002c9.785-9.388,17.945-20.42,24.035-32.497
			c6.105-12.073,10.119-25.146,12.229-38.517l0.457-2.894l2.947-0.012l52.648-0.24l6.582-0.03l3.283-0.02l3.162-0.096
			c1.055-0.011,2.105-0.088,3.156-0.183c1.049-0.092,2.1-0.155,3.148-0.268c2.082-0.294,4.184-0.5,6.246-0.93
			c8.293-1.458,16.35-4.138,23.91-7.823c15.131-7.388,28.041-19.179,36.9-33.472c2.197-3.581,4.221-7.278,5.881-11.141
			c0.9-1.899,1.586-3.89,2.365-5.841c0.65-1.997,1.381-3.97,1.904-6.006c2.326-8.064,3.396-16.519,3.465-24.862
			c-0.244-16.776-5.189-33.539-14.191-47.765c-8.959-14.255-21.908-26.002-37.035-33.42c-7.557-3.702-15.611-6.429-23.92-7.888
			c-2.064-0.43-4.166-0.635-6.254-0.928c-1.049-0.115-2.102-0.177-3.154-0.269c-1.051-0.093-2.102-0.175-3.158-0.185l-3.168-0.095
			l-3.283-0.019l-6.582-0.03l-52.646-0.276l-2.813-0.017l-0.428-2.735c-2.545-16.371-8.324-32.246-17.008-46.405
			c-8.678-14.159-20.164-26.619-33.617-36.485l-2.322-1.703l2.023-1.98l29.777-29.151l7.475-7.26l3.719-3.621
			c1.102-1.065,1.975-2.354,2.621-3.743c1.295-2.778,1.559-6.064,0.594-8.976c-0.477-1.455-1.246-2.797-2.281-3.94
			c-0.551-0.568-1.135-1.126-1.736-1.68c-0.617-0.492-1.238-0.963-1.928-1.353c-2.711-1.581-6.035-2.166-9.117-1.495
			c-1.539,0.331-3.008,0.971-4.285,1.895c-0.303,0.252-0.623,0.472-0.918,0.744l-0.867,0.861l-1.869,1.816l-14.961,14.533
			c-9.955,9.704-20.02,19.29-30.018,28.936c9.643-10,19.221-20.058,28.91-29.995l14.506-14.935l1.813-1.865l0.953-1.002
			c0.332-0.325,0.717-0.616,1.078-0.925c1.504-1.164,3.26-1.991,5.104-2.442c3.688-0.914,7.678-0.335,11.018,1.479
			c0.838,0.445,1.619,0.993,2.373,1.568c0.699,0.6,1.391,1.219,2.063,1.883c1.342,1.389,2.393,3.093,3.047,4.916
			c1.328,3.662,1.117,7.78-0.412,11.338c-0.762,1.775-1.828,3.438-3.18,4.834l-3.639,3.756l-7.26,7.473l-29.15,29.78l-0.303-3.683
			c14.17,9.924,26.436,22.658,35.703,37.359c9.309,14.673,15.637,31.244,18.574,48.408l-3.238-2.752l52.645-0.276l6.584-0.03
			l3.295-0.011l3.41,0.069c1.141,0.002,2.275,0.077,3.412,0.166c1.133,0.089,2.271,0.146,3.406,0.261
			c2.26,0.29,4.531,0.5,6.768,0.939c9,1.5,17.756,4.369,25.986,8.308c16.465,7.936,30.51,20.665,40.281,36.079
			c9.811,15.419,15.242,33.535,15.559,51.863c0.088,18.35-5.178,36.585-14.885,52.086c-9.676,15.507-23.732,28.257-40.188,36.237
			c-8.225,3.966-16.98,6.885-25.988,8.389c-2.24,0.441-4.514,0.649-6.779,0.942c-1.133,0.112-2.271,0.173-3.41,0.262
			c-1.137,0.091-2.273,0.164-3.412,0.167l-3.418,0.071l-3.295-0.012l-6.582-0.029l-52.648-0.24l3.404-2.906
			c-2.307,14.027-6.754,27.747-13.379,40.352c-6.598,12.611-15.355,24.077-25.75,33.749c-10.375,9.697-22.389,17.57-35.293,23.354
			c-12.9,5.793-26.689,9.526-40.699,11.067l1.809-2.038l-0.457,33.087l-0.119,8.275c-0.027,1.373-0.002,2.721-0.16,4.287
			c-0.195,1.51-0.617,2.974-1.207,4.364c-0.631,1.379-1.447,2.656-2.41,3.812c-0.988,1.137-2.135,2.12-3.383,2.948
			c-1.262,0.813-2.645,1.415-4.072,1.85c-1.441,0.413-2.932,0.583-4.418,0.597c-1.486-0.053-2.967-0.264-4.383-0.71
			c-1.405-0.471-2.755-1.104-3.974-1.937c-1.206-0.849-2.306-1.842-3.239-2.978c-0.911-1.154-1.675-2.42-2.247-3.77
			c-0.535-1.365-0.905-2.79-1.051-4.242c-0.113-1.486-0.052-2.844-0.038-4.222l0.119-8.275L436.987,549.602z"/>
		<path clip-path="url(#SVGID_4_)" fill="#F9A40E" d="M577.963,414.894c-0.771-11.041-1.301-22.084-1.777-33.126
			c-0.268-5.521-0.42-11.043-0.621-16.563c-0.201-5.521-0.393-11.042-0.51-16.563l-0.416-16.564l-0.271-16.562l-0.24-16.564
			l-0.119-16.563l-0.031-3.943l3.986-0.014c13.693-0.047,27.389-0.054,41.082,0.059c6.865,0.049,13.66,0.093,20.582,0.279
			l5.408,0.355c0.904,0.022,1.791,0.212,2.68,0.355l2.67,0.45c0.887,0.16,1.783,0.282,2.664,0.479l2.605,0.714
			c1.727,0.52,3.51,0.852,5.156,1.597l5.008,2.001l4.785,2.461c0.395,0.21,0.801,0.4,1.186,0.629l1.131,0.727l2.258,1.451
			c0.744,0.49,1.51,0.954,2.238,1.468l2.105,1.657c2.895,2.098,5.369,4.688,7.881,7.188l3.445,4.053
			c0.6,0.654,1.076,1.406,1.586,2.127l1.521,2.174c0.488,0.736,1.049,1.423,1.473,2.197l1.285,2.314
			c0.848,1.549,1.754,3.055,2.391,4.702c0.678,1.624,1.445,3.202,2.035,4.85l1.59,4.999c1.76,6.766,2.471,13.723,2.084,20.578
			c-0.602-6.849-2.025-13.522-4.395-19.824c-2.346-6.316-5.846-12.097-9.881-17.342l-1.564-1.933
			c-0.523-0.64-1.008-1.31-1.615-1.879l-3.467-3.543c-2.49-2.166-4.959-4.344-7.703-6.157l-2-1.425
			c-0.693-0.437-1.42-0.822-2.125-1.236l-2.127-1.224l-1.063-0.612c-0.359-0.191-0.742-0.342-1.109-0.516l-4.459-2.018l-4.619-1.577
			c-6.217-1.865-12.656-2.988-19.137-2.934l-20.504,0.209c-13.693,0.114-27.389,0.104-41.082,0.059l3.955-3.955l-0.119,16.563
			l-0.244,16.564l-0.27,16.562l-0.416,16.564c-0.115,5.521-0.309,11.041-0.508,16.563c-0.201,5.521-0.354,11.043-0.623,16.563
			C579.262,392.81,578.734,403.853,577.963,414.894"/>
		<g opacity="0.1919" clip-path="url(#SVGID_4_)">
			<g>
				<defs>
					<rect id="SVGID_5_" x="353.357" y="443.259" width="97.795" height="25.51"/>
				</defs>
				<clipPath id="SVGID_6_">
					<use xlink:href="#SVGID_5_"  overflow="visible"/>
				</clipPath>
				<path clip-path="url(#SVGID_6_)" fill="#CECECE" d="M353.357,443.259c2.125,9.191,4.971,17.715,9.22,25.51h88.575v-25.51h-0.7
					H353.357z"/>
			</g>
		</g>
		<g opacity="0.1919" clip-path="url(#SVGID_4_)">
			<g>
				<defs>
					<rect id="SVGID_7_" x="351.232" y="389.393" width="99.92" height="24.81"/>
				</defs>
				<clipPath id="SVGID_8_">
					<use xlink:href="#SVGID_7_"  overflow="visible"/>
				</clipPath>
				<polygon clip-path="url(#SVGID_8_)" fill="#CECECE" points="351.232,414.202 450.452,414.202 451.152,414.202 451.152,389.393 
					351.232,389.393 				"/>
			</g>
		</g>
		<g opacity="0.1919" clip-path="url(#SVGID_4_)">
			<g>
				<defs>
					<rect id="SVGID_9_" x="351.232" y="336.246" width="99.916" height="24.111"/>
				</defs>
				<clipPath id="SVGID_10_">
					<use xlink:href="#SVGID_9_"  overflow="visible"/>
				</clipPath>
				<rect x="351.232" y="336.246" clip-path="url(#SVGID_10_)" fill="#CECECE" width="99.916" height="24.111"/>
			</g>
		</g>
		<g opacity="0.1919" clip-path="url(#SVGID_4_)">
			<g>
				<defs>
					<rect id="SVGID_11_" x="353.357" y="175.4" width="97.795" height="78.669"/>
				</defs>
				<clipPath id="SVGID_12_">
					<use xlink:href="#SVGID_11_"  overflow="visible"/>
				</clipPath>
				<path clip-path="url(#SVGID_12_)" fill="#CECECE" d="M353.357,254.068h97.795v-78.655
					C407.226,174.691,364.001,200.924,353.357,254.068"/>
			</g>
		</g>
		<g opacity="0.1919" clip-path="url(#SVGID_4_)">
			<g>
				<defs>
					<rect id="SVGID_13_" x="384.539" y="497.102" width="66.613" height="25.512"/>
				</defs>
				<clipPath id="SVGID_14_">
					<use xlink:href="#SVGID_13_"  overflow="visible"/>
				</clipPath>
				<path clip-path="url(#SVGID_14_)" fill="#CECECE" d="M384.539,497.102c19.138,17.016,42.528,25.51,66.611,25.51v-25.51H384.539z
					"/>
			</g>
		</g>
		<g opacity="0.1919" clip-path="url(#SVGID_4_)">
			<g>
				<defs>
					<rect id="SVGID_15_" x="351.232" y="282.402" width="99.916" height="25.509"/>
				</defs>
				<clipPath id="SVGID_16_">
					<use xlink:href="#SVGID_15_"  overflow="visible"/>
				</clipPath>
				<rect x="351.232" y="282.4" clip-path="url(#SVGID_16_)" fill="#CECECE" width="99.916" height="25.511"/>
			</g>
		</g>
		<path clip-path="url(#SVGID_4_)" fill="#F9A40E" d="M158.099,764.471c-2.083,0-4.528-0.063-7.342-0.182
			c-2.815-0.124-5.721-0.37-8.717-0.735c-3-0.367-5.965-0.825-8.901-1.377c-2.935-0.55-5.629-1.312-8.074-2.292
			c-6.729-2.572-10.095-7.034-10.095-13.398v-85.705c0-2.571,0.703-4.557,2.111-5.964c1.405-1.404,3.333-2.538,5.782-3.396
			c4.157-1.468,9.36-2.537,15.598-3.211c6.242-0.672,12.664-1.01,19.271-1.01c15.66,0,27.71,2.631,36.153,7.892
			c8.443,5.262,12.663,13.397,12.663,24.407c0,5.506-1.59,10.251-4.771,14.223c-3.184,3.98-7.464,6.882-12.847,8.719
			c6.117,1.715,11.224,4.835,15.326,9.36c4.098,4.527,6.148,10.216,6.148,17.065c0,12.113-4.497,21.078-13.49,26.886
			C187.92,761.564,174.983,764.471,158.099,764.471 M146.168,693.814h13.397c5.26,0,9.084-0.979,11.47-2.938
			c2.386-1.953,3.58-4.829,3.58-8.625c0-3.303-1.377-5.931-4.13-7.889c-2.752-1.956-6.881-2.938-12.387-2.938
			c-1.835,0-3.945,0.063-6.333,0.187c-2.386,0.121-4.252,0.303-5.598,0.549V693.814z M146.168,738.595
			c1.712,0.491,3.916,0.827,6.608,1.011c2.688,0.18,5.257,0.274,7.708,0.274c4.891,0,8.96-1.01,12.202-3.027
			c3.241-2.021,4.865-5.169,4.865-9.451c0-4.04-1.348-6.911-4.038-8.628c-2.692-1.711-6.789-2.568-12.296-2.568h-15.049V738.595z"/>
		<path clip-path="url(#SVGID_4_)" fill="#F9A40E" d="M272.799,764.471c-7.221,0-13.918-1.009-20.096-3.027
			c-6.179-2.021-11.562-5.046-16.15-9.082c-4.588-4.041-8.198-9.116-10.828-15.234c-2.632-6.117-3.945-13.272-3.945-21.471
			c0-8.075,1.313-15.019,3.945-20.83c2.63-5.812,6.085-10.582,10.37-14.316c4.282-3.731,9.175-6.484,14.682-8.259
			c5.506-1.772,11.13-2.66,16.883-2.66c6.484,0,12.387,0.98,17.71,2.938c5.321,1.956,9.91,4.65,13.764,8.075
			c3.853,3.427,6.85,7.521,8.993,12.294c2.139,4.771,3.212,9.974,3.212,15.6c0,4.163-1.167,7.343-3.488,9.545
			c-2.326,2.2-5.569,3.607-9.728,4.218l-45.329,6.792c1.343,4.037,4.097,7.065,8.256,9.085c4.16,2.017,8.931,3.027,14.317,3.027
			c5.015,0,9.755-0.64,14.221-1.926c4.466-1.285,8.104-2.783,10.921-4.497c1.954,1.224,3.606,2.937,4.954,5.139
			c1.345,2.202,2.019,4.527,2.019,6.975c0,5.507-2.57,9.605-7.708,12.297c-3.918,2.078-8.322,3.486-13.213,4.219
			C281.668,764.105,277.081,764.471,272.799,764.471 M267.66,692.347c-2.937,0-5.478,0.489-7.617,1.468
			c-2.141,0.981-3.884,2.233-5.229,3.764c-1.348,1.532-2.358,3.241-3.029,5.139c-0.674,1.897-1.072,3.823-1.193,5.78l31.384-5.139
			c-0.369-2.446-1.716-4.892-4.039-7.34C275.613,693.572,272.186,692.347,267.66,692.347"/>
		<path clip-path="url(#SVGID_4_)" fill="#F9A40E" d="M373.551,764.471c-7.219,0-13.918-1.009-20.095-3.027
			c-6.18-2.021-11.563-5.046-16.15-9.082c-4.589-4.041-8.198-9.116-10.828-15.234c-2.632-6.117-3.946-13.272-3.946-21.471
			c0-8.075,1.313-15.019,3.946-20.83c2.63-5.812,6.086-10.582,10.37-14.316c4.281-3.731,9.174-6.484,14.681-8.259
			c5.506-1.772,11.131-2.66,16.884-2.66c6.482,0,12.388,0.98,17.71,2.938c5.322,1.956,9.91,4.65,13.766,8.075
			c3.853,3.427,6.849,7.521,8.993,12.294c2.138,4.771,3.213,9.974,3.213,15.6c0,4.163-1.167,7.343-3.488,9.545
			c-2.327,2.2-5.57,3.607-9.727,4.218l-45.33,6.792c1.345,4.037,4.099,7.065,8.258,9.085c4.159,2.017,8.929,3.027,14.315,3.027
			c5.014,0,9.754-0.64,14.221-1.926c4.467-1.285,8.106-2.783,10.92-4.497c1.957,1.224,3.608,2.937,4.957,5.139
			c1.344,2.202,2.017,4.527,2.017,6.975c0,5.507-2.568,9.605-7.708,12.297c-3.917,2.078-8.322,3.486-13.213,4.219
			C382.421,764.105,377.833,764.471,373.551,764.471 M368.413,692.347c-2.936,0-5.477,0.489-7.616,1.468
			c-2.141,0.981-3.885,2.233-5.229,3.764c-1.348,1.532-2.358,3.241-3.029,5.139c-0.674,1.897-1.073,3.823-1.193,5.78l31.383-5.139
			c-0.367-2.446-1.715-4.892-4.038-7.34C376.366,693.572,372.938,692.347,368.413,692.347"/>
		<path clip-path="url(#SVGID_4_)" fill="#F9A40E" d="M489.906,653.624c2.074-1.222,5.229-2.386,9.449-3.486
			c4.221-1.104,8.471-1.652,12.754-1.652c6.119,0,11.531,0.89,16.244,2.663c4.707,1.774,7.734,4.557,9.082,8.348
			c2.205,6.364,4.59,13.765,7.158,22.207c2.568,8.441,5.139,17.159,7.707,26.152c2.57,8.991,5.076,17.864,7.525,26.609
			c2.447,8.749,4.59,16.49,6.424,23.218c-1.467,1.713-3.672,3.092-6.607,4.128c-2.938,1.038-6.424,1.56-10.461,1.56
			c-2.936,0-5.414-0.244-7.434-0.732c-2.018-0.49-3.67-1.222-4.955-2.203c-1.283-0.979-2.324-2.261-3.119-3.854
			c-0.795-1.588-1.498-3.424-2.109-5.508l-3.303-12.662h-33.221c-0.98,3.671-1.957,7.465-2.936,11.378
			c-0.98,3.919-1.957,7.708-2.936,11.38c-1.715,0.61-3.518,1.131-5.414,1.562c-1.898,0.425-4.193,0.64-6.883,0.64
			c-6.24,0-10.859-1.07-13.855-3.211c-3-2.138-4.494-5.106-4.494-8.901c0-1.711,0.242-3.422,0.732-5.14
			c0.486-1.711,1.037-3.73,1.65-6.056c0.854-3.301,2.049-7.4,3.58-12.293c1.527-4.895,3.213-10.188,5.047-15.877
			c1.832-5.69,3.789-11.529,5.871-17.526c2.08-5.994,4.039-11.654,5.873-16.978c1.836-5.322,3.516-10.061,5.045-14.22
			C487.854,659.007,489.047,655.824,489.906,653.624 M511.928,677.298c-1.717,5.14-3.641,10.858-5.781,17.162
			c-2.143,6.304-4.07,12.694-5.781,19.175h22.756c-1.713-6.605-3.459-13.06-5.23-19.358c-1.773-6.302-3.393-11.958-4.863-16.979
			H511.928z"/>
		<path clip-path="url(#SVGID_4_)" fill="#F9A40E" d="M621.492,669.591c6.975,0,13.305,0.888,18.994,2.66
			c5.688,1.774,10.488,4.07,14.406,6.882c2.445,1.716,4.373,3.61,5.781,5.689c1.404,2.081,2.111,4.773,2.111,8.075v64.233
			c0,6.484-1.227,12.082-3.674,16.792c-2.447,4.709-5.777,8.626-10,11.746c-4.221,3.119-9.176,5.413-14.865,6.882
			c-5.688,1.467-11.777,2.202-18.26,2.202c-11.135,0-19.883-1.5-26.244-4.499c-6.365-2.998-9.545-7.859-9.545-14.589
			c0-2.814,0.578-5.292,1.746-7.431c1.16-2.143,2.477-3.764,3.945-4.864c3.547,1.957,7.551,3.609,12.02,4.955
			c4.467,1.344,9.084,2.021,13.857,2.021c6.605,0,11.865-1.104,15.781-3.304c3.916-2.203,5.875-5.751,5.875-10.645v-2.939
			c-5.02,2.204-11.135,3.306-18.354,3.306c-5.506,0-10.738-0.826-15.691-2.479c-4.955-1.65-9.299-4.222-13.031-7.707
			c-3.732-3.487-6.729-7.983-8.992-13.489c-2.264-5.505-3.395-12.049-3.395-19.638c0-7.463,1.195-13.945,3.58-19.452
			c2.385-5.506,5.689-10.062,9.91-13.673c4.221-3.608,9.232-6.301,15.047-8.075C608.307,670.479,614.637,669.591,621.492,669.591
			 M632.869,696.202c-0.857-0.488-2.111-0.979-3.76-1.468c-1.652-0.488-3.705-0.735-6.148-0.735c-5.996,0-10.492,1.684-13.49,5.047
			c-2.998,3.366-4.496,8.167-4.496,14.405c0,7.098,1.498,12.205,4.496,15.328c2.998,3.119,6.82,4.678,11.471,4.678
			c5.016,0,8.994-1.162,11.928-3.487V696.202z"/>
		<path clip-path="url(#SVGID_4_)" fill="#F9A40E" d="M713.252,761.353c-1.227,0.366-3.154,0.733-5.783,1.102
			c-2.631,0.364-5.352,0.549-8.166,0.549c-2.693,0-5.109-0.185-7.25-0.549c-2.139-0.368-3.947-1.102-5.414-2.204
			c-1.467-1.099-2.6-2.597-3.395-4.497c-0.795-1.893-1.191-4.37-1.191-7.433v-55.056c0-2.813,0.52-5.228,1.559-7.248
			c1.039-2.02,2.539-3.823,4.494-5.413c1.957-1.589,4.377-3.03,7.252-4.314c2.873-1.285,5.965-2.413,9.268-3.396
			c3.305-0.979,6.729-1.742,10.275-2.292c3.549-0.552,7.098-0.826,10.648-0.826c5.869,0,10.518,1.133,13.945,3.394
			c3.422,2.265,5.141,5.965,5.141,11.105c0,1.714-0.248,3.393-0.736,5.045c-0.49,1.652-1.1,3.153-1.836,4.496
			c-2.568,0-5.199,0.125-7.891,0.368c-2.693,0.248-5.32,0.613-7.891,1.101c-2.568,0.49-4.986,1.01-7.248,1.56
			c-2.266,0.552-4.193,1.193-5.781,1.927V761.353z"/>
		<path clip-path="url(#SVGID_4_)" fill="#F9A40E" d="M756.744,647.566c0-4.648,1.561-8.561,4.68-11.743
			c3.121-3.183,7.25-4.771,12.389-4.771s9.27,1.589,12.385,4.771c3.121,3.183,4.68,7.095,4.68,11.743
			c0,4.652-1.559,8.567-4.68,11.747c-3.115,3.183-7.246,4.771-12.385,4.771s-9.268-1.589-12.389-4.771
			C758.305,656.134,756.744,652.219,756.744,647.566 M789.412,761.353c-1.35,0.243-3.334,0.579-5.965,1.008
			c-2.633,0.429-5.293,0.643-7.984,0.643s-5.109-0.185-7.246-0.549c-2.145-0.368-3.947-1.102-5.416-2.204
			c-1.469-1.099-2.602-2.597-3.395-4.497c-0.799-1.893-1.193-4.37-1.193-7.433v-74.691c1.344-0.245,3.332-0.582,5.965-1.011
			c2.631-0.429,5.291-0.642,7.986-0.642c2.686,0,5.104,0.184,7.246,0.552c2.139,0.364,3.947,1.101,5.414,2.2
			c1.467,1.102,2.598,2.602,3.393,4.497c0.799,1.898,1.195,4.378,1.195,7.434V761.353z"/>
		<path clip-path="url(#SVGID_4_)" fill="#FBCE47" d="M154.573,760.944c-2.083,0-4.529-0.063-7.341-0.182
			c-2.816-0.123-5.721-0.368-8.717-0.735c-3-0.365-5.965-0.826-8.902-1.375c-2.935-0.55-5.629-1.312-8.073-2.292
			c-6.73-2.572-10.095-7.036-10.095-13.398v-85.706c0-2.569,0.703-4.557,2.11-5.965c1.405-1.406,3.333-2.538,5.782-3.396
			c4.157-1.466,9.359-2.538,15.598-3.208c6.241-0.673,12.664-1.012,19.271-1.012c15.66,0,27.711,2.631,36.154,7.89
			c8.442,5.263,12.663,13.398,12.663,24.409c0,5.507-1.592,10.25-4.772,14.222c-3.183,3.98-7.463,6.885-12.848,8.721
			c6.118,1.713,11.225,4.832,15.326,9.357c4.099,4.528,6.147,10.219,6.147,17.068c0,12.113-4.495,21.078-13.488,26.886
			C184.394,758.036,171.457,760.944,154.573,760.944 M142.644,690.29h13.396c5.26,0,9.084-0.978,11.47-2.938
			c2.386-1.953,3.579-4.832,3.579-8.625c0-3.303-1.375-5.932-4.129-7.89c-2.752-1.955-6.882-2.938-12.387-2.938
			c-1.834,0-3.947,0.063-6.332,0.184c-2.386,0.122-4.252,0.306-5.597,0.549V690.29z M142.644,735.068
			c1.711,0.489,3.915,0.828,6.605,1.01c2.69,0.184,5.259,0.277,7.71,0.277c4.89,0,8.96-1.011,12.203-3.031
			c3.241-2.018,4.864-5.167,4.864-9.45c0-4.038-1.349-6.911-4.038-8.624c-2.693-1.712-6.79-2.57-12.297-2.57h-15.048V735.068z"/>
		<path clip-path="url(#SVGID_4_)" fill="#FBCE47" d="M269.273,760.944c-7.219,0-13.917-1.008-20.094-3.028
			c-6.18-2.018-11.563-5.045-16.151-9.083c-4.588-4.037-8.198-9.112-10.828-15.23c-2.631-6.118-3.945-13.275-3.945-21.471
			c0-8.079,1.314-15.021,3.945-20.832c2.629-5.811,6.084-10.581,10.37-14.314c4.281-3.73,9.175-6.484,14.681-8.259
			c5.506-1.773,11.131-2.66,16.883-2.66c6.484,0,12.389,0.98,17.71,2.934c5.322,1.959,9.91,4.65,13.765,8.078
			c3.853,3.426,6.85,7.521,8.993,12.293c2.139,4.772,3.212,9.975,3.212,15.599c0,4.163-1.166,7.343-3.489,9.547
			c-2.325,2.199-5.568,3.608-9.726,4.219l-45.329,6.791c1.344,4.035,4.097,7.065,8.257,9.086c4.159,2.017,8.929,3.027,14.315,3.027
			c5.015,0,9.755-0.643,14.222-1.927c4.466-1.288,8.104-2.783,10.92-4.497c1.955,1.224,3.606,2.935,4.954,5.14
			c1.345,2.201,2.021,4.527,2.021,6.972c0,5.506-2.57,9.604-7.709,12.297c-3.917,2.081-8.322,3.488-13.213,4.222
			C278.143,760.578,273.555,760.944,269.273,760.944 M264.134,688.822c-2.936,0-5.477,0.49-7.616,1.468
			c-2.141,0.98-3.884,2.233-5.229,3.762c-1.347,1.531-2.358,3.242-3.029,5.14c-0.674,1.898-1.072,3.824-1.193,5.778l31.383-5.135
			c-0.367-2.448-1.714-4.893-4.037-7.341C272.086,690.045,268.662,688.822,264.134,688.822"/>
		<path clip-path="url(#SVGID_4_)" fill="#FBCE47" d="M370.026,760.944c-7.221,0-13.918-1.008-20.096-3.028
			c-6.179-2.018-11.561-5.045-16.15-9.083c-4.588-4.037-8.198-9.112-10.828-15.23c-2.632-6.118-3.946-13.275-3.946-21.471
			c0-8.079,1.313-15.021,3.946-20.832c2.63-5.811,6.085-10.581,10.37-14.314c4.281-3.73,9.175-6.484,14.681-8.259
			c5.506-1.773,11.131-2.66,16.884-2.66c6.482,0,12.388,0.98,17.71,2.934c5.321,1.959,9.909,4.65,13.765,8.078
			c3.853,3.426,6.85,7.521,8.992,12.293c2.138,4.772,3.212,9.975,3.212,15.599c0,4.163-1.166,7.343-3.487,9.547
			c-2.327,2.199-5.57,3.608-9.728,4.219l-45.329,6.791c1.344,4.035,4.098,7.065,8.258,9.086c4.158,2.017,8.929,3.027,14.316,3.027
			c5.014,0,9.754-0.643,14.222-1.927c4.465-1.288,8.104-2.783,10.919-4.497c1.958,1.224,3.608,2.935,4.957,5.14
			c1.343,2.201,2.017,4.527,2.017,6.972c0,5.506-2.568,9.604-7.708,12.297c-3.916,2.081-8.322,3.488-13.213,4.222
			C378.896,760.578,374.307,760.944,370.026,760.944 M364.888,688.822c-2.936,0-5.478,0.49-7.617,1.468
			c-2.141,0.98-3.884,2.233-5.23,3.762c-1.347,1.531-2.357,3.242-3.029,5.14c-0.673,1.898-1.071,3.824-1.193,5.778l31.385-5.135
			c-0.368-2.448-1.715-4.893-4.039-7.341C372.839,690.045,369.413,688.822,364.888,688.822"/>
		<path clip-path="url(#SVGID_4_)" fill="#FBCE47" d="M486.377,650.099c2.08-1.223,5.232-2.385,9.453-3.487
			c4.223-1.102,8.471-1.651,12.756-1.651c6.115,0,11.527,0.889,16.24,2.66c4.709,1.776,7.736,4.562,9.086,8.351
			c2.203,6.364,4.588,13.766,7.154,22.206c2.57,8.443,5.141,17.161,7.711,26.153c2.568,8.992,5.074,17.864,7.523,26.61
			c2.445,8.749,4.588,16.487,6.424,23.216c-1.469,1.715-3.672,3.091-6.607,4.128c-2.936,1.039-6.424,1.562-10.461,1.562
			c-2.936,0-5.412-0.247-7.434-0.733c-2.02-0.493-3.67-1.224-4.955-2.204c-1.283-0.979-2.322-2.263-3.119-3.854
			c-0.797-1.588-1.498-3.424-2.111-5.507l-3.303-12.661h-33.219c-0.98,3.67-1.957,7.462-2.936,11.378
			c-0.979,3.917-1.957,7.708-2.936,11.377c-1.715,0.613-3.521,1.13-5.416,1.56c-1.896,0.43-4.191,0.645-6.881,0.645
			c-6.242,0-10.857-1.074-13.855-3.211c-2.998-2.141-4.496-5.109-4.496-8.903c0-1.713,0.244-3.424,0.736-5.138
			c0.486-1.711,1.035-3.73,1.648-6.055c0.855-3.305,2.047-7.404,3.58-12.296c1.529-4.893,3.211-10.188,5.047-15.876
			c1.834-5.689,3.789-11.531,5.873-17.527c2.078-5.994,4.035-11.652,5.869-16.976c1.838-5.322,3.518-10.061,5.049-14.222
			C484.328,655.482,485.52,652.301,486.377,650.099 M508.4,673.771c-1.715,5.139-3.641,10.86-5.781,17.161
			c-2.141,6.305-4.066,12.694-5.781,19.179h22.758c-1.715-6.607-3.457-13.06-5.232-19.361c-1.773-6.302-3.393-11.957-4.859-16.979
			H508.4z"/>
		<path clip-path="url(#SVGID_4_)" fill="#FBCE47" d="M617.965,666.066c6.975,0,13.309,0.887,18.996,2.66
			c5.689,1.774,10.49,4.069,14.406,6.881c2.445,1.716,4.375,3.611,5.781,5.691c1.404,2.08,2.111,4.77,2.111,8.072v64.235
			c0,6.484-1.227,12.078-3.672,16.791c-2.447,4.709-5.779,8.624-10,11.745c-4.223,3.121-9.178,5.413-14.867,6.883
			c-5.691,1.468-11.777,2.203-18.262,2.203c-11.135,0-19.881-1.504-26.244-4.5c-6.361-2.998-9.541-7.861-9.541-14.588
			c0-2.814,0.578-5.293,1.742-7.433c1.164-2.141,2.479-3.764,3.947-4.862c3.547,1.954,7.553,3.606,12.021,4.954
			c4.463,1.345,9.084,2.019,13.855,2.019c6.605,0,11.865-1.102,15.781-3.303c3.916-2.203,5.873-5.75,5.873-10.645v-2.938
			c-5.02,2.205-11.135,3.305-18.354,3.305c-5.506,0-10.734-0.826-15.689-2.478c-4.955-1.652-9.299-4.222-13.029-7.709
			c-3.734-3.485-6.732-7.983-8.994-13.49c-2.266-5.504-3.395-12.047-3.395-19.634c0-7.464,1.193-13.95,3.578-19.454
			c2.387-5.507,5.689-10.063,9.912-13.672c4.219-3.608,9.234-6.301,15.049-8.075C604.781,666.953,611.111,666.066,617.965,666.066
			 M629.346,692.676c-0.857-0.488-2.111-0.979-3.764-1.468c-1.65-0.489-3.703-0.734-6.146-0.734c-5.998,0-10.496,1.684-13.49,5.046
			c-3,3.368-4.496,8.166-4.496,14.408c0,7.097,1.496,12.203,4.496,15.321c2.994,3.122,6.82,4.683,11.471,4.683
			c5.016,0,8.992-1.163,11.93-3.488V692.676z"/>
		<path clip-path="url(#SVGID_4_)" fill="#FBCE47" d="M709.725,757.827c-1.223,0.366-3.152,0.733-5.781,1.1
			c-2.631,0.367-5.354,0.552-8.166,0.552c-2.693,0-5.111-0.185-7.248-0.552c-2.145-0.366-3.947-1.1-5.414-2.202
			c-1.471-1.101-2.602-2.598-3.396-4.496c-0.795-1.896-1.191-4.374-1.191-7.433V689.74c0-2.814,0.516-5.231,1.559-7.249
			c1.039-2.02,2.537-3.824,4.496-5.413c1.953-1.591,4.375-3.03,7.248-4.314c2.875-1.285,5.965-2.414,9.27-3.396
			c3.305-0.979,6.729-1.742,10.277-2.294c3.547-0.55,7.096-0.827,10.645-0.827c5.871,0,10.52,1.136,13.947,3.396
			c3.422,2.265,5.137,5.964,5.137,11.104c0,1.715-0.244,3.395-0.732,5.047c-0.488,1.65-1.102,3.151-1.836,4.496
			c-2.568,0-5.201,0.123-7.891,0.368c-2.693,0.247-5.322,0.612-7.889,1.098c-2.572,0.492-4.99,1.011-7.252,1.563
			c-2.266,0.549-4.191,1.19-5.781,1.926V757.827z"/>
		<path clip-path="url(#SVGID_4_)" fill="#FBCE47" d="M753.221,644.042c0-4.649,1.559-8.562,4.678-11.746
			c3.121-3.181,7.252-4.771,12.389-4.771s9.27,1.59,12.389,4.771c3.119,3.185,4.678,7.097,4.678,11.746
			c0,4.652-1.559,8.565-4.678,11.745c-3.119,3.183-7.252,4.772-12.389,4.772s-9.268-1.59-12.389-4.772
			C754.779,652.607,753.221,648.694,753.221,644.042 M785.887,757.827c-1.346,0.244-3.334,0.577-5.967,1.009
			c-2.631,0.427-5.293,0.643-7.982,0.643c-2.691,0-5.109-0.185-7.25-0.552c-2.141-0.366-3.943-1.1-5.412-2.202
			c-1.465-1.101-2.602-2.598-3.396-4.496c-0.795-1.896-1.189-4.374-1.189-7.433v-74.694c1.342-0.242,3.332-0.579,5.963-1.008
			c2.629-0.429,5.289-0.643,7.982-0.643c2.691,0,5.107,0.182,7.248,0.549c2.141,0.368,3.945,1.102,5.416,2.204
			c1.467,1.102,2.598,2.602,3.395,4.497c0.793,1.896,1.193,4.376,1.193,7.434V757.827z"/>
	</g>
</g>
</svg>
