<?xml version="1.0" encoding="utf-8"?>
<!-- Generator: Adobe Illustrator 27.0.0, SVG Export Plug-In . SVG Version: 6.00 Build 0)  -->
<svg version="1.1" id="Capa_1" xmlns="http://www.w3.org/2000/svg" xmlns:xlink="http://www.w3.org/1999/xlink" x="0px" y="0px"
	 viewBox="0 0 1000 811.4" style="enable-background:new 0 0 1000 811.4;" xml:space="preserve">
<style type="text/css">
	.st0{fill:#E63724;}
</style>
<g>
	<path class="st0" d="M85.19,428.67h84.91v35.5H39.71v-162.4h127.37v35.5h-81.9V428.67z M81.94,364.64h75.4v34.34h-75.4V364.64z"/>
	<path class="st0" d="M195.62,464.17v-162.4h76.79c17.94,0,33.72,3.33,47.33,9.98c13.61,6.65,24.24,16.01,31.9,28.07
		c7.66,12.06,11.48,26.45,11.48,43.15c0,16.55-3.83,30.9-11.48,43.04c-7.66,12.14-18.29,21.54-31.9,28.19
		c-13.61,6.65-29.39,9.98-47.33,9.98H195.62z M241.55,427.51h29c9.28,0,17.36-1.74,24.24-5.22c6.88-3.48,12.26-8.58,16.12-15.31
		c3.86-6.73,5.8-14.73,5.8-24.01c0-9.43-1.94-17.48-5.8-24.13c-3.87-6.65-9.24-11.72-16.12-15.2c-6.88-3.48-14.96-5.22-24.24-5.22
		h-29V427.51z"/>
	<path class="st0" d="M462.18,467.41c-23.98,0-42.69-6.57-56.14-19.72c-13.46-13.14-20.18-31.78-20.18-55.91v-90.02h45.94v88.62
		c0,13.92,2.74,23.9,8.24,29.93c5.49,6.03,13.03,9.05,22.62,9.05c9.59,0,17.09-3.02,22.5-9.05c5.41-6.03,8.12-16.01,8.12-29.93
		v-88.62h45.24v90.02c0,24.13-6.73,42.77-20.18,55.91C504.87,460.84,486.15,467.41,462.18,467.41z"/>
	<path class="st0" d="M569.6,464.17v-162.4h45.47v162.4H569.6z M610.66,428.21l-2.55-51.5l69.83-74.94h50.58l-69.6,75.4
		l-25.52,26.68L610.66,428.21z M678.64,464.17l-52.9-67.05l29.93-32.02L732,464.17H678.64z"/>
	<path class="st0" d="M848.69,512.42c-17.02,0-32.48-2.71-46.4-8.12c-13.92-5.42-25.83-12.96-35.73-22.62
		c-9.9-9.67-17.52-21-22.85-33.99c-5.34-12.99-8-27.06-8-42.22c0-15.16,2.67-29.19,8-42.11c5.34-12.91,12.99-24.16,22.97-33.76
		c9.98-9.59,22-17.09,36.08-22.5c14.07-5.41,29.7-8.12,46.86-8.12c16.55,0,31.59,2.55,45.12,7.66c13.53,5.1,25.17,12.22,34.92,21.34
		c9.74,9.13,17.28,19.84,22.62,32.13c5.34,12.3,8,25.48,8,39.56c0,14.23-2.24,26.3-6.73,36.19c-4.49,9.9-10.56,17.4-18.21,22.5
		c-7.66,5.1-16.36,7.66-26.1,7.66c-11.6,0-20.76-3.36-27.49-10.09c-6.73-6.73-10.09-16.59-10.09-29.58v-7.89l0.23-11.6l-2.09-37.58
		v-17.63h37.82v70.76c0,5.26,1,8.9,3.02,10.9c2.01,2.01,4.41,3.02,7.19,3.02c2.94,0,5.49-1.16,7.66-3.48
		c2.16-2.32,3.86-6.11,5.1-11.37c1.24-5.26,1.86-12.3,1.86-21.11c0-11.14-1.97-21.34-5.92-30.62c-3.94-9.28-9.55-17.28-16.82-24.01
		c-7.27-6.73-16.01-11.91-26.22-15.54c-10.21-3.63-21.5-5.45-33.87-5.45c-12.38,0-23.66,2.01-33.87,6.03
		c-10.21,4.02-18.99,9.67-26.33,16.94c-7.35,7.27-12.99,15.82-16.94,25.64c-3.94,9.82-5.92,20.53-5.92,32.13
		c0,11.76,1.93,22.58,5.8,32.48c3.86,9.9,9.43,18.48,16.7,25.75c7.27,7.27,15.93,12.91,25.98,16.94
		c10.05,4.02,21.26,6.03,33.64,6.03c7.58,0,15.27-0.81,23.08-2.44c7.81-1.62,15.5-4.22,23.08-7.77l8.58,24.82
		c-6.96,3.4-15.39,6.11-25.29,8.12C868.26,511.41,858.44,512.42,848.69,512.42z M837.56,466.02c-9.13,0-17.6-2.4-25.4-7.19
		c-7.81-4.79-14.12-11.56-18.91-20.3c-4.8-8.74-7.19-18.98-7.19-30.74c0-11.75,2.36-21.96,7.08-30.62
		c4.72-8.66,10.98-15.39,18.79-20.18c7.81-4.79,16.36-7.19,25.64-7.19c10.05,0,18.48,2.36,25.29,7.08
		c6.8,4.72,11.91,11.37,15.31,19.95c3.4,8.58,5.1,18.91,5.1,30.97c0,11.91-1.62,22.24-4.87,30.97c-3.25,8.74-8.2,15.47-14.85,20.18
		C856.89,463.67,848.23,466.02,837.56,466.02z M847.53,434.47c4.48,0,8.43-1,11.83-3.02c3.4-2.01,6.11-5.02,8.12-9.05
		c2.01-4.02,3.02-8.89,3.02-14.62c0-5.72-1.01-10.56-3.02-14.5c-2.01-3.94-4.72-6.92-8.12-8.93c-3.4-2.01-7.35-3.02-11.83-3.02
		c-4.33,0-8.24,1.04-11.72,3.13c-3.48,2.09-6.19,5.07-8.12,8.93c-1.94,3.87-2.9,8.66-2.9,14.38c0,5.57,0.96,10.36,2.9,14.38
		c1.93,4.02,4.64,7.08,8.12,9.16C839.3,433.43,843.2,434.47,847.53,434.47z"/>
</g>
</svg>
