<?xml version="1.0" encoding="utf-8"?>
<!-- Generator: Adobe Illustrator 24.3.0, SVG Export Plug-In . SVG Version: 6.00 Build 0)  -->
<svg version="1.1" id="Capa_1" xmlns="http://www.w3.org/2000/svg" xmlns:xlink="http://www.w3.org/1999/xlink" x="0px" y="0px"
	 viewBox="0 0 1045.9 1045.9" style="enable-background:new 0 0 1045.9 1045.9;" xml:space="preserve">
<style type="text/css">
	.st0{fill:#5F59F7;}
	.st1{fill:#353389;}
	.st2{fill:#55BEED;}
</style>
<g>
	<g>
		<path class="st0" d="M383,868l-22.9-33.1h-1.4h-24V868h-27.5V749h51.5c10.6,0,19.7,1.8,27.4,5.2c7.8,3.6,13.8,8.5,17.9,15
			c4.2,6.4,6.3,14.1,6.3,22.9c0,8.8-2.1,16.5-6.4,22.8s-10.2,11.3-18.2,14.7l26.7,38.2L383,868L383,868L383,868z M376,776.8
			c-4.3-3.6-10.6-5.3-18.9-5.3h-22.4v41.4h22.4c8.2,0,14.5-1.8,18.9-5.5c4.3-3.6,6.5-8.8,6.5-15.3
			C382.6,785.5,380.3,780.4,376,776.8z"/>
		<path class="st0" d="M503.5,809c5.5,6.1,8.3,13.5,8.3,22.6c0,6.9-1.8,13.3-5.5,19.1c-3.6,5.8-9.1,10.6-16.5,14
			c-7.5,3.6-16.5,5.2-27.2,5.2c-8.4,0-16.6-1.2-24.7-3.3c-8.2-2.1-15-5.3-20.7-9.5l10.7-21.1c4.5,3.4,9.9,6.1,15.7,7.8
			s12,2.8,18.3,2.8c6.9,0,12.3-1.3,16.3-4c3.9-2.6,5.9-6.4,5.9-11.3c0-9.7-7.5-14.6-22.2-14.6h-12.6v-18.2l24.5-27.7h-50.6v-22.1
			h83.2v17.8l-27,30.6C490,799.1,498,802.9,503.5,809z"/>
		<path class="st0" d="M602.6,797.8c6.2,3.1,11.2,7.4,14.8,12.9c3.6,5.6,5.5,12.1,5.5,19.5c0,8-2,14.8-5.9,20.9
			c-3.9,6.1-9.4,10.6-16.1,13.9c-6.9,3.2-14.5,4.9-22.8,4.9c-16.6,0-29.7-5.1-39.1-15.3c-9.4-10.2-14.1-24.8-14.1-43.7
			c0-13.5,2.5-25.1,7.6-34.7c5.1-9.6,12.2-16.9,21.4-21.8c9.1-5,19.7-7.5,31.7-7.5c6.3,0,12.5,0.7,18.3,2.1
			c5.8,1.4,10.8,3.4,14.8,6.1l-10.3,20.3c-5.8-3.9-13.3-5.9-22.2-5.9c-10.1,0-18,3-24,8.8c-5.8,5.8-9.1,14.5-9.5,25.6
			c7-7,16.9-10.6,29.4-10.6C589.4,793.3,596.3,794.9,602.6,797.8z M590.6,844.6c3.7-3.2,5.5-7.5,5.5-12.8c0-5.5-1.8-9.9-5.5-12.9
			c-3.7-3.2-8.5-4.9-14.7-4.9c-6.1,0-10.9,1.7-14.8,5c-3.8,3.3-5.8,7.6-5.8,12.8s1.8,9.5,5.6,12.8s8.8,4.9,15.3,4.9
			C582.1,849.4,586.9,847.8,590.6,844.6z"/>
		<path class="st0" d="M657.5,862.7c-7.7-4.9-13.8-11.9-18.2-21.1c-4.4-9.1-6.5-20.2-6.5-33s2.1-23.9,6.5-33s10.4-16.3,18.2-21.1
			s16.5-7.2,26.4-7.2s18.6,2.5,26.4,7.2c7.7,4.9,13.8,11.9,18.2,21.1c4.4,9.1,6.5,20.2,6.5,33s-2.1,23.9-6.5,33
			s-10.4,16.3-18.2,21.1s-16.5,7.2-26.4,7.2C673.9,869.9,665.2,867.5,657.5,862.7z M700.9,837.4c4.2-6.2,6.2-15.8,6.2-28.9
			c0-13.1-2.1-22.7-6.2-28.9c-4.2-6.2-9.9-9.4-17.1-9.4c-7.1,0-12.8,3.2-16.9,9.4s-6.2,15.8-6.2,28.9c0,13.1,2.1,22.7,6.2,28.9
			c4.2,6.2,9.9,9.4,16.9,9.4C691.1,846.6,696.8,843.5,700.9,837.4z"/>
	</g>
	<path class="st0" d="M368.1,499.4h309c60.7-0.1,110.1-49.6,110.1-110.4c0-48.7-32.3-91.7-78.3-105.6
		c-13.9-55.6-64.1-95.5-122.3-95.5c-22.6,0-44.1,5.8-63.2,16.9c-20.1-18.4-46.5-28.9-74.3-28.9c-59.6,0-108.4,47.6-110.2,106.8
		c-47.3,13.2-80.7,56.4-80.7,106.4C258,449.8,307.5,499.2,368.1,499.4z M356.9,310.6c8.2-1.2,13.9-8.5,13.2-16.7
		c-0.4-2.5-0.4-5-0.4-7.4c0-43.7,35.6-79.4,79.4-79.4c23.3,0,45.4,10.2,60.4,27.8c5.3,6.2,14.4,7.2,21.1,2.4
		c16.3-12.1,35.6-18.4,56.2-18.4c47,0,86.4,34.7,93.6,79.6c0.9,6.4,5.8,11.4,12.2,12.7c36.8,7.5,63.6,40.3,63.6,77.7
		c0,43.7-35.6,79.4-79.4,79.4H368.4c-43.7,0-79.4-35.6-79.4-79.4C289,349.9,318.2,316.1,356.9,310.6z"/>
	<path class="st1" d="M424.4,499.4v60.4h-53.1C364.4,535,341.8,517,315,517c-32.3,0-58.4,26.1-58.4,58.4s26.1,58.4,58.4,58.4
		c27,0,49.6-18.3,56.3-42.9h68.4c8.7,0,15.9-7,15.9-15.9v-75.5L424.4,499.4L424.4,499.4z M314.9,601.2c-14.2,0-25.8-11.5-25.8-25.8
		s11.5-25.8,25.8-25.8s25.8,11.5,25.8,25.8C340.8,589.7,329.2,601.2,314.9,601.2z"/>
	<path class="st2" d="M590.3,499.4v75.5c0,8.7,7,15.9,15.9,15.9h68.4c6.6,24.8,29.4,42.9,56.3,42.9c32.3,0,58.4-26.1,58.4-58.4
		s-26.1-58.4-58.4-58.4c-27,0-49.6,18-56.3,42.9h-53.3v-60.4L590.3,499.4L590.3,499.4z M705,575.4c0-14.2,11.5-25.8,25.8-25.8
		s25.8,11.5,25.8,25.8s-11.5,25.8-25.8,25.8S705,589.7,705,575.4z"/>
	<path class="st0" d="M538.1,591.3v-91.9h-31v91.9c-24.8,6.6-42.9,29.4-42.9,56.3c0,32.3,26.1,58.4,58.4,58.4s58.4-26.1,58.4-58.4
		C581,620.8,562.9,598.2,538.1,591.3z M522.6,673.6c-14.2,0-25.8-11.5-25.8-25.8s11.5-25.8,25.8-25.8c14.2,0,25.8,11.5,25.8,25.8
		C548.5,662,536.9,673.6,522.6,673.6z"/>
</g>
</svg>
