<?xml version="1.0" encoding="utf-8"?>
<!-- Generator: Adobe Illustrator 24.3.0, SVG Export Plug-In . SVG Version: 6.00 Build 0)  -->
<svg version="1.1" id="Capa_1" xmlns="http://www.w3.org/2000/svg" xmlns:xlink="http://www.w3.org/1999/xlink" x="0px" y="0px"
	 viewBox="0 0 900 900" style="enable-background:new 0 0 900 900;" xml:space="preserve">
<style type="text/css">
	.st0{fill:#1C9FE0;}
	.st1{opacity:0.5;fill:#1C9FE0;enable-background:new    ;}
	.st2{opacity:0.7;fill:#1C9FE0;enable-background:new    ;}
	.st3{fill:#B4B4B4;}
</style>
<g>
	<g>
		<path class="st0" d="M616.3,283.8c-10.5-2.6-19-4.6-31.1-7.6c31.3-34.3,60.9-66.7,90.3-99.2c1.5,0.4,3.1,0.8,4.6,1.2
			c-1.2,44.9-2.3,89.8-3.7,138.2c-10.9-6.8-19.1-12-28-17.6c-50.6,102.2-131.7,156.4-247,153c-69.5-2-148.5-44.9-181.6-97.7
			c78.3,74.2,165.7,97.9,265,59.9C546.6,390.5,589.7,346.1,616.3,283.8z"/>
		<g>
			<path class="st1" d="M567,316.3c-3.4,4.2-7.4,7.9-11.6,11.3c-4.2,3.4-8.9,6.4-13.8,8.9c-9.7,5.3-20.5,8.5-31.7,9.8
				s-22.5,0.3-33.4-2.3c-10.9-2.6-21.4-7-31.3-12.3c-19.7-10.6-36.8-25-52.1-40.8l-5.7-6c-1.9-1.9-3.7-4.1-5.5-6.1
				c-3.5-4.1-7.2-8.2-10.6-12.6l-5-6.4c-1.8-2.2-3.4-4.2-5-6.6l-9.7-13.2l10.6,2.7c-10.9,5.5-21.8,10.8-32.8,16
				c-10.9,5.3-21.8,10.6-32.9,15.8c-10.9,5.3-22,10.5-32.9,15.7c-11.1,5.2-22,10.4-33,15.6l4.2-9.7c0.3,0.8,0.7,1.9,1,2.9
				c0.4,1,0.7,2,1.1,3c0.8,2,1.6,4,2.6,6c1.8,4,3.7,7.9,5.9,11.7c4.2,7.8,8.9,15.1,14.1,22.2c5.2,7.1,10.9,13.8,17.2,20.1
				c3.1,3,6.4,6.1,9.8,8.9l2.5,2.2l2.6,2c1.8,1.4,3.4,2.7,5.3,4c7.1,5.3,14.9,9.7,22.8,13.6c7.9,4.1,16.4,7.1,25,9.8
				c17.2,5.2,35.3,7.8,53.8,8.5c-18.3,2-37,1.4-55.3-2.2c-9.1-2-18.3-4.4-27-7.9c-8.7-3.5-17.3-7.6-25.2-12.7
				c-16.2-9.8-30.4-22.9-42.4-37.5c-6-7.4-11.5-15.1-16.2-23.5c-2.5-4.1-4.6-8.3-6.8-12.6c-1.1-2.2-2-4.4-3-6.6
				c-0.5-1.1-1-2.2-1.4-3.4c-0.4-1.2-0.8-2.2-1.4-3.7l-2.2-6.4l6.4-3.3c10.9-5.5,21.7-10.8,32.6-16.2c10.9-5.3,21.8-10.8,32.8-16
				c10.9-5.3,21.8-10.6,32.9-15.8c10.9-5.3,22-10.5,32.9-15.7l6.6-3.1l4.1,5.9l9.1,13c1.5,2.2,3,4.4,4.6,6.4l4.8,6.3
				c3.1,4.2,6.6,8.2,9.8,12.3c1.6,2,3.3,4.1,5,6l5.2,5.9c3.4,4,7.2,7.6,10.8,11.3l2.7,2.9c1,1,1.9,1.8,2.9,2.6l5.7,5.3
				c1.9,1.8,4,3.3,6,5l3,2.5c1,0.8,2,1.6,3.1,2.3l6.3,4.5c1.1,0.8,2.2,1.5,3.3,2.2l3.3,2c8.7,5.3,18,10.1,27.8,13.2
				c2.5,0.7,4.9,1.4,7.4,2c2.5,0.5,5,1,7.5,1.5c2.6,0.4,5,0.5,7.6,1c2.6,0,5.2,0.3,7.8,0.1C530,338.5,550.9,330.6,567,316.3z"/>
			<path class="st2" d="M551.2,303.8c-9.8,2.5-19.9,3.1-30,3c-10.1-0.1-20.2-1.5-30-4c-19.8-4.8-38.3-14.3-54.3-27
				c-16-12.8-29.5-28.7-40.4-45.9c-11.1-17.2-19.8-35.8-26.9-54.9l7.4,3.1c-22.2,11.3-44.4,22.9-66.3,34.8
				c-22,11.7-44.1,23.6-65.9,35.6l-8.1-15.4c22.5-11.1,45-22,67.6-32.8c22.7-10.8,45.2-21.6,68.1-31.9l5.6-2.6l1.8,5.6
				c6.1,18.8,13.8,37.1,23.6,54.2c9.8,17.1,22.1,32.9,37,45.9c14.9,13,32.5,23.1,51.6,28.7c9.6,2.9,19.4,4.6,29.3,5.2
				C531.1,306.2,541.2,305.9,551.2,303.8z"/>
			<path class="st0" d="M534.8,274.8c-9-1.1-17.7-3.5-26.3-6.4c-8.6-3-16.8-6.8-24.8-11.2c-16-8.7-30.6-20.1-43.3-33.2
				c-12.7-13.1-23.6-28.1-32.6-44.1s-16.2-32.9-22-50.4l7.4,3.4l-122,59.1l-7.2-15.8l124.7-53.1l5.9-2.5l1.6,5.9
				c4.6,17.1,10.8,33.8,18.7,49.7c7.9,15.8,17.7,30.8,29.5,44.2s25.4,25.1,40.7,34.5c7.6,4.6,15.6,8.9,23.9,12.3
				C517.4,270.4,525.9,273.3,534.8,274.8z"/>
		</g>
	</g>
	<g>
		<g>
			<g>
				<path class="st0" d="M97,668.6H78.2v51.9H8.7V514.3h99.2c57.5,0,93.9,30,93.9,77.8c0,29.8-14.2,52.1-38.9,64.8l43.3,63.6h-74.2
					L97,668.6z M103.4,567.9H78v48.3h25.4c19.1,0,28.3-9.1,28.3-24.2C131.8,577.1,122.7,567.9,103.4,567.9z"/>
				<path class="st0" d="M431.2,514.3v206.2h-69.5v-76h-64.1v76h-69.5V514.3h69.5v73h64.1v-73H431.2z"/>
			</g>
		</g>
		<g>
			<path class="st3" d="M452.1,704l11.7-22.4c13.2,9.4,34.5,16.2,54.7,16.2c26.2,0,37.1-7.9,37.1-21.2c0-35.1-98.7-4.8-98.7-66.9
				c0-28,25-46.8,65.1-46.8c20.3,0,43.3,5.3,56.9,14.2l-12,22.4c-14.2-9.1-29.8-12.4-45-12.4c-24.7,0-36.8,9.1-36.8,21.6
				c0,36.8,98.9,6.8,98.9,67.4c0,28.3-25.9,46.3-67.4,46.3C490.7,722.3,465.1,714.2,452.1,704z"/>
			<path class="st3" d="M754.7,564.4l-75.7,171.7c-13.8,33-31.8,43.3-55.7,43.3c-15,0-30.3-5-40.1-14.5l12-21.2
				c7.6,7.4,17.3,11.5,28,11.5c13.5,0,22.1-6.1,29.8-24.2l5-10.9L589,564.2h29.5l54.5,124.9l53.9-124.9h27.8V564.4z"/>
			<path class="st3" d="M759.3,704l11.7-22.4c13.2,9.4,34.5,16.2,54.7,16.2c26.2,0,37.1-7.9,37.1-21.2c0-35.1-98.7-4.8-98.7-66.9
				c0-28,25-46.8,65.1-46.8c20.3,0,43.3,5.3,56.9,14.2l-12,22.4c-14.2-9.1-29.8-12.4-45-12.4c-24.7,0-36.8,9.1-36.8,21.6
				c0,36.8,98.9,6.8,98.9,67.4c0,28.3-25.9,46.3-67.4,46.3C797.9,722.3,772.3,714.2,759.3,704z"/>
		</g>
	</g>
</g>
</svg>
