<?xml version="1.0" encoding="utf-8"?>
<!-- Generator: Adobe Illustrator 16.0.3, SVG Export Plug-In . SVG Version: 6.00 Build 0)  -->
<!DOCTYPE svg PUBLIC "-//W3C//DTD SVG 1.1//EN" "http://www.w3.org/Graphics/SVG/1.1/DTD/svg11.dtd">
<svg version="1.1" id="Capa_1" xmlns="http://www.w3.org/2000/svg" xmlns:xlink="http://www.w3.org/1999/xlink" x="0px" y="0px"
	 width="141.08px" height="228.04px" viewBox="0 0 141.08 228.04" enable-background="new 0 0 141.08 228.04" xml:space="preserve">
<path fill="#1AA1C8" d="M0.001,47.813c0,0,111.026,33.766,103.587-38.917c0,0,47.501,84.129-44.64,156.811
	c0,0,17.741-12.018,23.464-48.073c0,0-13.163,39.49-43.495,50.936C38.917,168.569,103.588,97.604,0.001,47.813"/>
<path fill="#8CC23E" d="M23.465,67.844c0,0-34.91,42.35,2.862,86.417c0,0-8.585-19.457-5.723-44.639c0,0,3.433,38.344,18.313,49.219
	C38.917,158.841,71.538,112.484,23.465,67.844"/>
<path fill="#8CC23E" d="M57.804,173.72c0,0,58.374-21.747,68.104-105.875c0,0,18.313,29.187-3.435,71.537
	c0,0,13.163-9.729,18.313-41.205C140.787,98.177,150.517,185.166,57.804,173.72"/>
<path fill="#1AA1C8" d="M78.981,18.744c4.947,10.422,1.782,22.277-7.069,26.479S51.875,44.382,46.927,33.96
	c-4.947-10.422-1.782-22.277,7.07-26.479C62.848,3.28,74.035,8.322,78.981,18.744"/>
<g>
	<path fill="#8CC23E" d="M0.645,194.327H6.83l5.063,14.326l5.448-14.326h3.783l5.35,14.164l5.069-14.164h6.224l-9.188,25.18h-4.004
		l-5.369-14.349l-5.531,14.349H9.717L0.645,194.327z"/>
	<path fill="#8CC23E" d="M63.43,199.419l-5.26,2.893c-0.988-1.033-1.965-1.751-2.931-2.152c-0.965-0.4-2.097-0.602-3.394-0.602
		c-2.364,0-4.275,0.705-5.735,2.114c-1.46,1.41-2.189,3.216-2.189,5.419c0,2.141,0.703,3.89,2.108,5.245s3.251,2.033,5.538,2.033
		c2.827,0,5.028-0.964,6.604-2.893l4.982,3.411c-2.7,3.512-6.511,5.268-11.433,5.268c-4.428,0-7.896-1.312-10.402-3.935
		c-2.507-2.623-3.761-5.693-3.761-9.211c0-2.438,0.609-4.683,1.828-6.734s2.919-3.664,5.103-4.837
		c2.183-1.173,4.625-1.759,7.325-1.759c2.5,0,4.744,0.497,6.734,1.492S62.165,197.583,63.43,199.419z"/>
</g>
<g>
	<path fill="#8CC23E" d="M85.055,194.327h6.318v25.18h-6.318v-2.661c-1.232,1.173-2.47,2.018-3.71,2.534
		c-1.241,0.517-2.585,0.775-4.034,0.775c-3.251,0-6.064-1.262-8.437-3.784s-3.56-5.658-3.56-9.407c0-3.889,1.148-7.074,3.444-9.559
		c2.296-2.483,5.085-3.726,8.368-3.726c1.511,0,2.928,0.285,4.253,0.856c1.325,0.57,2.551,1.427,3.676,2.568V194.327z
		 M78.413,199.512c-1.953,0-3.575,0.69-4.866,2.071c-1.293,1.381-1.938,3.151-1.938,5.311c0,2.176,0.657,3.966,1.971,5.369
		c1.315,1.404,2.934,2.106,4.855,2.106c1.984,0,3.629-0.69,4.936-2.071c1.308-1.381,1.961-3.189,1.961-5.427
		c0-2.19-0.653-3.965-1.961-5.323C82.064,200.19,80.412,199.512,78.413,199.512z"/>
	<path fill="#8CC23E" d="M96.422,194.327h5.415v3.171c0.586-1.25,1.365-2.198,2.338-2.847c0.972-0.647,2.036-0.972,3.193-0.972
		c0.817,0,1.674,0.216,2.568,0.647l-1.967,5.438c-0.74-0.37-1.351-0.555-1.828-0.555c-0.972,0-1.794,0.602-2.465,1.805
		s-1.007,3.564-1.007,7.082l0.023,1.227v10.183h-6.271V194.327z"/>
</g>
<g>
	<path fill="#8CC23E" d="M138.524,208.745h-20.296c0.293,1.79,1.076,3.214,2.349,4.271c1.273,1.057,2.896,1.585,4.872,1.585
		c2.36,0,4.389-0.825,6.087-2.477l5.322,2.5c-1.327,1.882-2.916,3.274-4.768,4.177s-4.05,1.354-6.596,1.354
		c-3.949,0-7.166-1.246-9.65-3.738c-2.484-2.491-3.726-5.612-3.726-9.361c0-3.842,1.238-7.031,3.714-9.569
		c2.477-2.537,5.581-3.807,9.315-3.807c3.965,0,7.189,1.27,9.674,3.807c2.483,2.538,3.726,5.89,3.726,10.056L138.524,208.745z
		 M132.207,203.77c-0.418-1.403-1.24-2.546-2.47-3.425c-1.229-0.88-2.653-1.319-4.276-1.319c-1.762,0-3.308,0.494-4.637,1.481
		c-0.834,0.617-1.607,1.705-2.318,3.263H132.207z"/>
</g>
</svg>
