<?xml version="1.0" encoding="utf-8"?>
<!-- Generator: Adobe Illustrator 24.3.0, SVG Export Plug-In . SVG Version: 6.00 Build 0)  -->
<svg version="1.1" id="Capa_1" xmlns="http://www.w3.org/2000/svg" xmlns:xlink="http://www.w3.org/1999/xlink" x="0px" y="0px"
	 viewBox="0 0 564 726" style="enable-background:new 0 0 564 726;" xml:space="preserve">
<style type="text/css">
	.st0{display:none;fill:#FFB300;}
	.st1{display:none;}
	.st2{display:inline;fill:#FFB300;}
	.st3{display:inline;}
	.st4{fill:#FFB300;stroke:#FFB300;stroke-width:3;stroke-miterlimit:10;}
	.st5{fill:#FFFFFF;}
	.st6{fill:#FFB300;}
	.st7{fill:#FF7333;}
</style>
<rect x="-620.1" y="65.9" class="st0" width="595.3" height="595.3"/>
<g class="st1">
	<rect x="-733.7" y="855" class="st2" width="714" height="714"/>
	<g class="st3">
		<path class="st4" d="M-565.1,1469.7c0-27.2,22.8-42.9,42.9-42.9c22.8,0,42,19.3,42,42.9c0,18.4-10.5,32.4-24.5,38.5
			c5.3,4.4,8.8,11.4,8.8,18.4c0,13.1-10.5,23.7-23.6,23.7h-10.5v-78.8h10.5v28.9c14.9-0.9,28-13.1,28-30.7
			c0-16.6-14.9-31.5-31.5-31.5c-28,0-40.3,31.5-25.4,51.7l-8.8,6.1C-563.4,1486.3-565.1,1477.6-565.1,1469.7z M-506.4,1525.8
			c0-7-6.1-13.1-13.1-13.1v26.3C-512.6,1538.9-506.4,1532.8-506.4,1525.8z"/>
		<path class="st4" d="M-460.9,1549.4c-13.1,0-23.7-11.4-23.7-23.7c0-13.1,10.5-23.7,23.7-23.7c13.1,0,23.7,10.5,23.7,23.7
			c0,0.9,0,1.8,0,1.8h-37.7c0.9,7,7,12.3,13.1,12.3c4.4,0,7.9-1.8,10.5-4.4l8.8,5.3C-446,1545.9-453,1549.4-460.9,1549.4z
			 M-460.9,1511.7c-5.3,0-10.5,3.5-12.3,8.8h25.4C-451.2,1515.2-455.6,1511.7-460.9,1511.7z"/>
		<path class="st4" d="M-407.4,1549.4c-13.1,0-23.7-11.4-23.7-23.7c0-13.1,10.5-23.7,23.7-23.7c13.1,0,23.7,10.5,23.7,23.7
			c0,0.9,0,1.8,0,1.8h-37.7c0.9,7,7,12.3,13.1,12.3c4.4,0,7.9-1.8,10.5-4.4l8.8,5.3C-392.5,1545.9-399.6,1549.4-407.4,1549.4z
			 M-407.4,1511.7c-5.3,0-10.5,3.5-12.3,8.8h25.4C-396.9,1515.2-401.3,1511.7-407.4,1511.7z"/>
		<path class="st4" d="M-360.1,1549.4h-10.5v-92c0-16.6,14-30.7,30.7-30.7c16.6,0,30.7,14,30.7,30.7v92.9h-10.5c0-2.6,0-14.9,0-29.8
			h-40.3L-360.1,1549.4L-360.1,1549.4z M-319.8,1460.9c0-16.6-9.6-23.7-20.1-23.7c-9.6,0-20.1,7-20.1,23.7v48.2h40.3V1460.9z"/>
		<path class="st4" d="M-247.1,1525.8c0,7-3.5,13.1-7.9,18.4c9.6,5.3,16.6,15.8,16.6,28.9c0,17.5-14.9,32.4-32.4,32.4
			c-10.5,0-20.1-5.3-26.3-13.1l7-6.1c4.4,6.1,10.5,9.6,18.4,9.6c12.3,0,22.8-9.6,22.8-22.8c0-12.3-10.5-22.8-22.8-22.8
			c-6.1,0-11.4,2.6-15.8,7l-7.9-7c2.6-2.6,5.3-4.4,7.9-6.1c-5.3-4.4-8.8-11.4-8.8-18.4c0-13.1,10.5-23.7,23.6-23.7
			c5.3,0,9.6,1.8,13.1,4.4l1.8-4.4h10.5l-5.3,11.4C-248,1516.1-247.1,1520.5-247.1,1525.8z M-284.8,1525.8c0,7.9,6.1,14,14,14
			s14-6.1,14-14c0-7-6.1-14-14-14S-284.8,1518.8-284.8,1525.8z"/>
		<path class="st4" d="M-212.1,1501.2c4.4,0,7.9,0.9,11.4,3.5l-3.5,8.8c0,0-2.6-2.6-7.9-2.6c-9.6,0-11.4,9.6-11.4,14.9v23.7h-9.6
			v-47.3h9.6v2.6C-220.9,1503-217.4,1501.2-212.1,1501.2z"/>
		<path class="st4" d="M-192.8,1486.3c0-3.5,2.6-5.3,5.3-5.3c2.6,0,5.3,2.6,5.3,5.3s-2.6,5.3-5.3,5.3
			C-190.2,1491.6-192.8,1489-192.8,1486.3z M-192,1502.1h9.6v48.2h-9.6V1502.1z"/>
	</g>
	<g class="st3">
		<path class="st4" d="M606.2,975.3c0-46.9,39.3-74.1,74.1-74.1c39.3,0,72.6,33.3,72.6,74.1c0,31.8-18.2,56-42.4,66.6
			c9.1,7.6,15.1,19.7,15.1,31.8c0,22.7-18.2,40.8-40.8,40.8h-18.2V978.3h18.2v49.9c25.7-1.5,48.4-22.7,48.4-52.9
			c0-28.7-25.7-54.5-54.5-54.5c-48.4,0-69.6,54.5-43.9,89.2l-15.1,10.6C609.2,1004,606.2,988.9,606.2,975.3z M707.5,1072.1
			c0-12.1-10.6-22.7-22.7-22.7v45.4C696.9,1094.8,707.5,1084.2,707.5,1072.1z"/>
		<path class="st4" d="M786.2,1112.9c-22.7,0-40.8-19.7-40.8-40.8c0-22.7,18.2-40.8,40.8-40.8c22.7,0,40.8,18.1,40.8,40.8
			c0,1.5,0,3,0,3h-65c1.5,12.1,12.1,21.2,22.7,21.2c7.6,0,13.6-3,18.2-7.6l15.1,9.1C811.9,1106.9,799.8,1112.9,786.2,1112.9z
			 M786.2,1047.9c-9.1,0-18.2,6.1-21.2,15.1h43.9C802.8,1054,795.3,1047.9,786.2,1047.9z"/>
		<path class="st4" d="M878.5,1112.9c-22.7,0-40.8-19.7-40.8-40.8c0-22.7,18.2-40.8,40.8-40.8c22.7,0,40.8,18.1,40.8,40.8
			c0,1.5,0,3,0,3h-65c1.5,12.1,12.1,21.2,22.7,21.2c7.6,0,13.6-3,18.1-7.6l15.1,9.1C904.2,1106.9,892.1,1112.9,878.5,1112.9z
			 M878.5,1047.9c-9.1,0-18.2,6.1-21.2,15.1h43.9C896.6,1054,889,1047.9,878.5,1047.9z"/>
		<path class="st4" d="M960.1,1112.9H942V954.1c0-28.7,24.2-52.9,52.9-52.9c28.7,0,52.9,24.2,52.9,52.9v160.3h-18.1
			c0-4.5,0-25.7,0-51.4h-69.6L960.1,1112.9L960.1,1112.9z M1029.7,960.2c0-28.7-16.6-40.8-34.8-40.8c-16.6,0-34.8,12.1-34.8,40.8
			v83.2h69.6V960.2z"/>
		<path class="st4" d="M1155.3,1072.1c0,12.1-6.1,22.7-13.6,31.8c16.6,9.1,28.7,27.2,28.7,49.9c0,30.3-25.7,56-56,56
			c-18.2,0-34.8-9.1-45.4-22.7l12.1-10.6c7.6,10.6,18.2,16.6,31.8,16.6c21.2,0,39.3-16.6,39.3-39.3c0-21.2-18.2-39.3-39.3-39.3
			c-10.6,0-19.7,4.5-27.2,12.1l-13.6-12.1c4.5-4.5,9.1-7.6,13.6-10.6c-9.1-7.6-15.1-19.7-15.1-31.8c0-22.7,18.2-40.8,40.8-40.8
			c9.1,0,16.6,3,22.7,7.6l3-7.6h18.2l-9.1,19.7C1153.7,1055.5,1155.3,1063,1155.3,1072.1z M1090.2,1072.1
			c0,13.6,10.6,24.2,24.2,24.2c13.6,0,24.2-10.6,24.2-24.2c0-12.1-10.6-24.2-24.2-24.2C1100.8,1047.9,1090.2,1060,1090.2,1072.1z"/>
		<path class="st4" d="M1215.8,1029.8c7.6,0,13.6,1.5,19.7,6.1l-6.1,15.1c0,0-4.5-4.5-13.6-4.5c-16.6,0-19.7,16.6-19.7,25.7v40.8
			h-16.6v-81.7h16.6v4.5C1200.6,1032.8,1206.7,1029.8,1215.8,1029.8z"/>
		<path class="st4" d="M1249,1004c0-6,4.5-9.1,9.1-9.1c4.5,0,9.1,4.5,9.1,9.1c0,4.5-4.5,9.1-9.1,9.1
			C1253.6,1013.1,1249,1008.6,1249,1004z M1250.5,1031.3h16.6v83.2h-16.6V1031.3z"/>
	</g>
	<g class="st3">
		<g>
			<path class="st5" d="M-472.3,1181c2.1,9.3,5,17.8,9.3,25.7h89.3V1181h-0.7H-472.3z"/>
			<polygon class="st5" points="-474.4,1126.7 -474.4,1151.7 -374.4,1151.7 -373.7,1151.7 -373.7,1126.7 			"/>
			<rect x="-474.4" y="1073.2" class="st5" width="100.7" height="24.3"/>
			<path class="st5" d="M-472.3,990.4c11.4,0,55,0,98.5,0v-79.3C-418,910.4-461.5,936.8-472.3,990.4z"/>
			<path class="st5" d="M-440.8,1235.3c19.3,17.1,42.8,25.7,67.1,25.7v-25.7H-440.8z"/>
			<path class="st5" d="M-474.4,1044.6h100.7v-25.7c-50,0-100.7,0-100.7,0V1044.6L-474.4,1044.6z"/>
		</g>
		<path class="st6" d="M-345.2,971.1c-7.9-7.9-18.6-12.1-30-12.1c-7.1,0-12.9-5.7-12.9-12.9c0-7.1,5.7-12.9,12.9-12.9
			c17.9,0,35,7.1,47.8,20c5,5,5,12.9,0,17.9C-333,976.1-340.9,976.1-345.2,971.1z"/>
		<path class="st6" d="M-184.5,990.4h-62.8c-5.7-35-25-65-52.8-85l40.7-40.7c5.7-5.7,5.7-15,0-20c-5.7-5.7-15-5.7-20,0l-46.4,46.4
			c-31.4-12.9-67.1-12.9-100,1.4l-47.8-47.8c-5.7-5.7-15-5.7-20,0c-5.7,5.7-5.7,15,0,20l42.8,42.8c-26.4,20-44.3,49.3-50,82.8h-62.8
			c-52.8,0-95,42.8-95,95c0,52.8,42.8,95,95,95h62.8c8.6,55.7,54.3,101.4,112.8,107.8v44.3c0,7.9,6.4,14.3,14.3,14.3
			c7.9,0,14.3-6.4,14.3-14.3v-44.3c53.6-6.4,102.8-45,112.8-107.8h62.8l0,0c52.8,0,95-42.8,95-95
			C-89.5,1033.2-131.7,990.4-184.5,990.4z M-503.7,1151.7h-61.4c-36.4,0-66.4-30-66.4-66.4c0-36.4,30-66.4,66.4-66.4h61.4V1151.7z
			 M-276.6,990.4c-21.4,0-173.5,0-196.4,0C-450.8,884-298,884-276.6,990.4z M-440.8,1235.3H-308
			C-345.9,1268.8-403,1269.6-440.8,1235.3z M-285.2,1206.7H-463c-4.3-7.9-7.1-16.4-9.3-25.7h97.8h97.8
			C-278,1189.6-281.6,1198.2-285.2,1206.7z M-274.5,1151.7h-100h-100V1126h200.6v25.7H-274.5z M-274.5,1097.5h-199.9v-24.3h200.6
			v24.3H-274.5z M-274.5,1044.6h-199.9v-25.7c0,0,193.5,0,200.6,0v25.7H-274.5z M-184.5,1152.5h-61.4v-133.5h61.4
			c36.4,0,66.4,30,66.4,66.4C-118.1,1122.5-148.1,1152.5-184.5,1152.5z"/>
	</g>
	<g class="st3">
		<g>
			<path class="st5" d="M-472.3,2115.7c2.1,9.3,5,17.9,9.3,25.7h89.3v-25.7h-0.7H-472.3z"/>
			<polygon class="st5" points="-474.4,2061.4 -474.4,2086.4 -374.4,2086.4 -373.7,2086.4 -373.7,2061.4 			"/>
			<rect x="-474.4" y="2007.9" class="st5" width="100.7" height="24.3"/>
			<path class="st5" d="M-472.3,1925.1c11.4,0,55,0,98.5,0v-79.3C-418,1845.1-461.5,1871.5-472.3,1925.1z"/>
			<path class="st5" d="M-440.8,2170c19.3,17.1,42.8,25.7,67.1,25.7V2170H-440.8z"/>
			<path class="st5" d="M-474.4,1979.3h100.7v-25.7c-50,0-100.7,0-100.7,0V1979.3L-474.4,1979.3z"/>
		</g>
		<path class="st6" d="M-345.2,1905.8c-7.9-7.9-18.6-12.1-30-12.1c-7.1,0-12.9-5.7-12.9-12.9c0-7.1,5.7-12.9,12.9-12.9
			c17.9,0,35,7.1,47.8,20c5,5,5,12.9,0,17.9C-333,1910.8-340.9,1910.8-345.2,1905.8z"/>
		<path class="st6" d="M-184.5,1925.1h-62.8c-5.7-35-25-65-52.8-85l40.7-40.7c5.7-5.7,5.7-15,0-20c-5.7-5.7-15-5.7-20,0l-46.4,46.4
			c-31.4-12.9-67.1-12.9-100,1.4l-47.8-47.8c-5.7-5.7-15-5.7-20,0c-5.7,5.7-5.7,15,0,20l42.8,42.8c-26.4,20-44.3,49.3-50,82.8h-62.8
			c-52.8,0-95,42.8-95,95c0,52.8,42.8,95,95,95h62.8c8.6,55.7,54.3,101.4,112.8,107.8v44.3c0,7.9,6.4,14.3,14.3,14.3
			c7.9,0,14.3-6.4,14.3-14.3v-44.3c53.6-6.4,102.8-45,112.8-107.8h62.8l0,0c52.8,0,95-42.8,95-95
			C-89.5,1967.9-131.7,1925.1-184.5,1925.1z M-503.7,2086.4h-61.4c-36.4,0-66.4-30-66.4-66.4c0-36.4,30-66.4,66.4-66.4h61.4V2086.4z
			 M-276.6,1925.1c-21.4,0-173.5,0-196.4,0C-450.8,1818.7-298,1818.7-276.6,1925.1z M-440.8,2170H-308
			C-345.9,2203.5-403,2204.2-440.8,2170z M-285.2,2141.4H-463c-4.3-7.9-7.1-16.4-9.3-25.7h97.8h97.8
			C-278,2124.3-281.6,2132.8-285.2,2141.4z M-274.5,2086.4h-100h-100v-25.7h200.6v25.7H-274.5z M-274.5,2032.2h-199.9v-24.3h200.6
			v24.3H-274.5z M-274.5,1979.3h-199.9v-25.7c0,0,193.5,0,200.6,0v25.7H-274.5z M-184.5,2087.1h-61.4v-133.5h61.4
			c36.4,0,66.4,30,66.4,66.4C-118.1,2057.2-148.1,2087.1-184.5,2087.1z"/>
	</g>
	<g class="st3">
		<g>
			<path class="st5" d="M203.3,1102.7c1.7,7.6,4.1,14.5,7.6,20.9h72.7v-20.9H283H203.3z"/>
			<polygon class="st5" points="201.6,1058.5 201.6,1078.9 283,1078.9 283.6,1078.9 283.6,1058.5 			"/>
			<rect x="201.6" y="1014.9" class="st5" width="82" height="19.8"/>
			<path class="st5" d="M203.3,947.4c9.3,0,44.8,0,80.3,0v-64.6C247.5,882.3,212,903.8,203.3,947.4z"/>
			<path class="st5" d="M228.9,1147c15.7,14,34.9,20.9,54.7,20.9V1147H228.9z"/>
			<path class="st5" d="M201.6,991.6h82v-20.9c-40.7,0-82,0-82,0V991.6L201.6,991.6z"/>
		</g>
		<path class="st6" d="M306.9,931.7c-6.4-6.4-15.1-9.9-24.4-9.9c-5.8,0-10.5-4.7-10.5-10.5c0-5.8,4.7-10.5,10.5-10.5
			c14.5,0,28.5,5.8,39,16.3c4.1,4.1,4.1,10.5,0,14.5C316.8,935.8,310.4,935.8,306.9,931.7z"/>
		<path class="st6" d="M437.8,947.4h-51.2c-4.7-28.5-20.4-52.9-43.1-69.2l33.2-33.2c4.7-4.7,4.7-12.2,0-16.3
			c-4.7-4.7-12.2-4.7-16.3,0l-37.8,37.8c-25.6-10.5-54.7-10.5-81.4,1.2l-39-39c-4.7-4.7-12.2-4.7-16.3,0c-4.7,4.7-4.7,12.2,0,16.3
			l34.9,34.9c-21.5,16.3-36.1,40.1-40.7,67.5h-51.2c-43,0-77.4,34.9-77.4,77.4c0,43,34.9,77.4,77.4,77.4H180
			c7,45.4,44.2,82.6,91.9,87.8v36.1c0,6.4,5.2,11.6,11.6,11.6c6.4,0,11.6-5.2,11.6-11.6V1190c43.6-5.2,83.8-36.7,91.9-87.8h51.2l0,0
			c43.1,0,77.4-34.9,77.4-77.4C515.1,982.3,480.8,947.4,437.8,947.4z M177.7,1078.9h-50c-29.7,0-54.1-24.4-54.1-54.1
			c0-29.7,24.4-54.1,54.1-54.1h50L177.7,1078.9L177.7,1078.9z M362.7,947.4c-17.5,0-141.4,0-160,0
			C220.8,860.7,345.3,860.7,362.7,947.4z M228.9,1147h108.2C306.3,1174.3,259.7,1174.9,228.9,1147z M355.7,1123.7H210.9
			c-3.5-6.4-5.8-13.4-7.6-20.9H283h79.7C361.6,1109.7,358.6,1116.7,355.7,1123.7z M364.5,1078.9H283h-81.4V1058H365v20.9H364.5
			L364.5,1078.9z M364.5,1034.7H201.6v-19.8H365v19.8H364.5z M364.5,991.6H201.6v-20.9c0,0,157.7,0,163.5,0v20.9H364.5L364.5,991.6z
			 M437.8,1079.5h-50V970.7h50c29.7,0,54.1,24.4,54.1,54.1C491.9,1055,467.4,1079.5,437.8,1079.5z"/>
	</g>
</g>
<g>
	<path class="st7" d="M447.1,293.9c-67.6,2.6-131.7,20.2-188.7,49.4L185,385.6c-19.4,11.2-44.2,4.5-55.3-14.8l-37.3-64.6
		c-11.2-19.3-4.5-44.2,14.8-55.3l60.8-35.1c3.5-2,8-0.8,10.1,2.7l47.8,82.7c2.1,3.6,6.7,4.8,10.2,2.6c3.4-2.1,4.4-6.7,2.4-10.2
		l-48.1-83.3c-1.9-3.3-1-7.5,2.2-9.7c50.2-34.8,92.6-79.1,125.2-130.8c12.4-19.6,41.1-19.1,52.7,1l102.1,176.9
		C484.2,267.7,470.3,293,447.1,293.9z M460.2,170.7c3.8-21.6-8.9-43.3-29.4-50.8c-6.4-2.3-12.3,4.7-8.9,10.6
		c8.2,14.1,16.3,28.3,24.6,42.6C450,179.2,459,177.5,460.2,170.7z M290.3,431.1l-34.9-60.6c-2-3.5-6.5-4.7-10.1-2.7
		c-18.9,10.9-19.6,11.3-44.9,25.9c-3.5,2-4.7,6.5-2.7,10.1l35,60.6c4.5,7.8,12.5,12,20.8,12c8,0,11-2.7,28.1-12.5
		C293,457.2,296.9,442.5,290.3,431.1z M513.9,114.7c3.5-2,4.7-6.5,2.7-10.1c-2-3.5-6.5-4.7-10.1-2.7l-19,11
		c-6.5,3.8-3.8,13.7,3.7,13.7C493.8,126.7,493.3,126.6,513.9,114.7z M446.2,76.6l4.6-17.3c1.1-3.9-1.3-8-5.2-9c-3.9-1-8,1.3-9,5.2
		L432,72.8c-1.2,4.7,2.3,9.3,7.1,9.3C442.4,82.1,445.4,79.9,446.2,76.6L446.2,76.6z M528.3,193.3c1.1-3.9-1.3-8-5.2-9l-17.3-4.6
		c-3.9-1-8,1.3-9,5.2c-1.1,3.9,1.3,8,5.2,9c18.9,5.1,17.9,4.9,19.2,4.9C524.4,198.8,527.4,196.6,528.3,193.3L528.3,193.3z"/>
</g>
<g>
	<path class="st7" d="M155,640.6c-0.2,0.9-0.5,1.6-0.9,2.1c-0.4,0.5-0.9,0.9-1.7,1.2c-0.8,0.3-1.7,0.5-2.9,0.5
		c-1.2,0.1-2.7,0.1-4.6,0.1c-2.1,0-3.7,0-5-0.1c-1.2-0.1-2.2-0.3-3-0.5c-0.7-0.3-1.2-0.7-1.6-1.2c-0.3-0.5-0.6-1.2-0.8-2.1
		l-11.2-44.4h-0.1l-10.6,44.4c-0.2,0.8-0.4,1.5-0.8,2c-0.3,0.5-0.8,0.9-1.5,1.2c-0.7,0.3-1.7,0.5-2.9,0.6c-1.2,0.1-2.8,0.1-4.8,0.1
		c-2.1,0-3.8,0-5-0.1c-1.2-0.1-2.2-0.3-3-0.5s-1.2-0.7-1.6-1.2c-0.3-0.5-0.6-1.2-0.8-2.1l-15.9-61.2c-0.3-1.3-0.5-2.3-0.5-3.1
		c0-0.7,0.2-1.3,0.6-1.7c0.5-0.4,1.2-0.6,2.2-0.7c1-0.1,2.5-0.1,4.3-0.1c1.7,0,3,0,4,0.1c1,0.1,1.7,0.2,2.2,0.4
		c0.5,0.2,0.8,0.5,1,0.9c0.2,0.4,0.3,0.9,0.4,1.6l12.3,53.7h0.1l12.8-53.3c0.1-0.7,0.3-1.2,0.6-1.7c0.2-0.4,0.6-0.8,1.2-1
		s1.3-0.4,2.3-0.5c1-0.1,2.3-0.1,3.9-0.1c1.7,0,3.1,0,4.1,0.1c1,0.1,1.8,0.2,2.4,0.5c0.6,0.2,1,0.6,1.2,1c0.3,0.4,0.5,1,0.6,1.7
		l13.2,53.3h0.1l12.3-53.5c0.1-0.6,0.3-1.1,0.4-1.5c0.2-0.4,0.5-0.7,1-1c0.5-0.2,1.2-0.4,2.2-0.5c0.9-0.1,2.3-0.1,4-0.1
		c1.6,0,2.8,0,3.7,0.1c0.9,0.1,1.5,0.3,1.9,0.7c0.4,0.4,0.6,1,0.5,1.8c-0.1,0.8-0.2,1.8-0.6,3.2L155,640.6z"/>
</g>
<g>
	<path class="st7" d="M222.1,617.7c0,4.1-0.5,7.9-1.6,11.3c-1.1,3.4-2.7,6.3-4.9,8.8c-2.2,2.5-5,4.4-8.3,5.7c-3.3,1.3-7.2,2-11.7,2
		c-4.3,0-8-0.6-11.2-1.8c-3.2-1.2-5.8-2.9-7.9-5.2c-2.1-2.3-3.6-5.1-4.7-8.4c-1-3.3-1.5-7.1-1.5-11.4c0-4.1,0.6-7.9,1.7-11.3
		c1.1-3.4,2.8-6.3,5-8.8c2.2-2.4,5-4.3,8.3-5.7c3.3-1.3,7.2-2,11.6-2c4.3,0,8.1,0.6,11.3,1.8c3.2,1.2,5.8,2.9,7.9,5.2
		c2.1,2.3,3.6,5.1,4.6,8.4C221.6,609.6,222.1,613.4,222.1,617.7z M208.1,618.3c0-2.4-0.2-4.6-0.6-6.6c-0.4-2-1-3.7-1.9-5.2
		c-0.9-1.5-2.1-2.6-3.6-3.5c-1.5-0.8-3.4-1.2-5.7-1.2c-2,0-3.8,0.4-5.3,1.1c-1.5,0.7-2.8,1.8-3.7,3.3c-1,1.4-1.7,3.1-2.2,5.1
		s-0.7,4.3-0.7,6.9c0,2.4,0.2,4.6,0.6,6.6c0.4,2,1,3.7,1.9,5.2c0.9,1.5,2.1,2.6,3.6,3.4c1.5,0.8,3.4,1.2,5.6,1.2
		c2.1,0,3.8-0.4,5.4-1.1c1.5-0.7,2.8-1.8,3.7-3.2c1-1.4,1.7-3.1,2.2-5.1C207.9,623.1,208.1,620.8,208.1,618.3z"/>
</g>
<g>
	<path class="st7" d="M261.3,598.5c0,1.3,0,2.4-0.1,3.2c-0.1,0.8-0.2,1.5-0.3,2c-0.1,0.5-0.3,0.8-0.6,1c-0.2,0.2-0.5,0.3-0.9,0.3
		c-0.3,0-0.6-0.1-1-0.2c-0.4-0.1-0.8-0.3-1.2-0.4c-0.5-0.1-0.9-0.3-1.5-0.4c-0.5-0.1-1.1-0.2-1.8-0.2c-0.8,0-1.5,0.2-2.3,0.5
		s-1.5,0.8-2.4,1.4c-0.8,0.7-1.7,1.5-2.5,2.6c-0.9,1.1-1.8,2.4-2.8,4v30.1c0,0.4-0.1,0.7-0.3,0.9c-0.2,0.3-0.6,0.5-1.1,0.7
		c-0.5,0.2-1.2,0.3-2.1,0.4c-0.9,0.1-2,0.1-3.3,0.1s-2.4,0-3.3-0.1c-0.9-0.1-1.6-0.2-2.1-0.4s-0.9-0.4-1.1-0.7
		c-0.2-0.3-0.3-0.6-0.3-0.9V594c0-0.4,0.1-0.7,0.3-0.9c0.2-0.3,0.5-0.5,1-0.7c0.5-0.2,1.1-0.3,1.8-0.4c0.7-0.1,1.7-0.1,2.8-0.1
		c1.2,0,2.1,0,2.9,0.1c0.8,0.1,1.3,0.2,1.8,0.4c0.4,0.2,0.7,0.4,0.9,0.7c0.2,0.3,0.3,0.6,0.3,0.9v6c1.3-1.8,2.5-3.3,3.6-4.5
		c1.1-1.2,2.2-2.1,3.2-2.8c1-0.7,2-1.2,3-1.4c1-0.3,2-0.4,3-0.4c0.5,0,1,0,1.5,0.1s1.1,0.1,1.7,0.3c0.6,0.1,1.1,0.3,1.5,0.4
		c0.4,0.2,0.8,0.3,0.9,0.5c0.2,0.2,0.3,0.4,0.4,0.6c0.1,0.2,0.2,0.5,0.2,0.9c0.1,0.4,0.1,0.9,0.2,1.7
		C261.2,596.2,261.3,597.2,261.3,598.5z"/>
</g>
<g>
	<path class="st7" d="M314,642.4c0,0.4-0.1,0.7-0.3,0.9s-0.6,0.5-1.1,0.6c-0.5,0.2-1.2,0.3-2.1,0.4c-0.9,0.1-2.1,0.1-3.5,0.1
		c-1.5,0-2.7,0-3.6-0.1c-0.9-0.1-1.7-0.2-2.3-0.4c-0.6-0.2-1.1-0.4-1.4-0.7c-0.3-0.3-0.6-0.7-0.9-1.1l-16.1-25.5v25.6
		c0,0.4-0.1,0.7-0.3,0.9s-0.6,0.5-1.1,0.7c-0.5,0.2-1.2,0.3-2.1,0.4c-0.9,0.1-2,0.1-3.3,0.1s-2.4,0-3.3-0.1
		c-0.9-0.1-1.6-0.2-2.1-0.4s-0.9-0.4-1.1-0.7c-0.2-0.3-0.3-0.6-0.3-0.9v-71.3c0-0.4,0.1-0.7,0.3-1c0.2-0.3,0.6-0.5,1.1-0.7
		c0.5-0.2,1.2-0.4,2.1-0.5c0.9-0.1,2-0.2,3.3-0.2s2.4,0.1,3.3,0.2c0.9,0.1,1.6,0.3,2.1,0.5c0.5,0.2,0.9,0.4,1.1,0.7
		c0.2,0.3,0.3,0.6,0.3,1v42.4l14.3-19.2c0.3-0.4,0.6-0.8,1-1.1s0.8-0.6,1.4-0.8c0.6-0.2,1.3-0.3,2.2-0.4c0.9-0.1,2-0.1,3.4-0.1
		c1.3,0,2.5,0,3.4,0.1c0.9,0.1,1.7,0.2,2.2,0.4c0.6,0.2,0.9,0.4,1.2,0.7c0.2,0.3,0.3,0.6,0.3,1c0,0.5-0.1,1.1-0.4,1.7
		c-0.3,0.6-0.7,1.3-1.2,2l-14.1,16l16.4,25.3c0.4,0.7,0.7,1.3,0.9,1.9S314,642,314,642.4z"/>
</g>
<g>
	<path class="st7" d="M382.8,638.9c0.4,1.3,0.7,2.3,0.8,3.1c0.1,0.8,0,1.3-0.4,1.7c-0.4,0.4-1.1,0.6-2.1,0.7c-1,0.1-2.4,0.1-4.2,0.1
		c-1.8,0-3.3,0-4.3-0.1c-1-0.1-1.8-0.2-2.4-0.3c-0.5-0.2-0.9-0.4-1.1-0.7c-0.2-0.3-0.4-0.7-0.5-1.1l-4.7-14.1h-26.3l-4.4,13.7
		c-0.1,0.5-0.3,0.9-0.6,1.3c-0.2,0.3-0.6,0.6-1.1,0.8c-0.5,0.2-1.3,0.3-2.2,0.4c-1,0.1-2.2,0.1-3.8,0.1c-1.7,0-3-0.1-3.9-0.2
		c-0.9-0.1-1.6-0.4-2-0.8c-0.4-0.4-0.5-1-0.4-1.8c0.1-0.8,0.4-1.8,0.8-3l21.6-62.2c0.2-0.6,0.5-1.1,0.8-1.5c0.3-0.4,0.7-0.7,1.4-0.9
		c0.6-0.2,1.5-0.3,2.6-0.4c1.1-0.1,2.6-0.1,4.4-0.1c2.1,0,3.8,0,5.1,0.1c1.3,0.1,2.2,0.2,3,0.4c0.7,0.2,1.2,0.5,1.5,0.9
		c0.3,0.4,0.6,0.9,0.8,1.6L382.8,638.9z M350.6,587.5L350.6,587.5l-10,29.8h19.9L350.6,587.5z"/>
</g>
<g>
	<path class="st7" d="M437,595.4c0,3.9-0.6,7.4-1.8,10.5c-1.2,3-3,5.6-5.4,7.7c-2.3,2.1-5.2,3.7-8.6,4.7c-3.4,1.1-7.4,1.6-12.1,1.6
		h-5.9v22.4c0,0.4-0.1,0.7-0.4,1c-0.2,0.3-0.6,0.5-1.2,0.7c-0.5,0.2-1.3,0.3-2.2,0.4c-0.9,0.1-2.1,0.2-3.5,0.2
		c-1.4,0-2.5-0.1-3.4-0.2c-0.9-0.1-1.7-0.3-2.2-0.4c-0.5-0.2-0.9-0.4-1.1-0.7c-0.2-0.3-0.3-0.6-0.3-1v-63.1c0-1.7,0.4-3,1.3-3.8
		c0.9-0.8,2-1.3,3.5-1.3h16.5c1.7,0,3.2,0.1,4.7,0.2c1.5,0.1,3.3,0.4,5.4,0.8c2.1,0.4,4.2,1.2,6.4,2.3c2.1,1.1,4,2.5,5.5,4.3
		c1.5,1.7,2.7,3.7,3.5,6C436.6,590,437,592.5,437,595.4z M422.1,596.4c0-2.5-0.4-4.5-1.3-6.1c-0.9-1.6-1.9-2.8-3.2-3.5
		c-1.3-0.8-2.6-1.2-4-1.4c-1.4-0.2-2.8-0.3-4.3-0.3h-6.1v23.8h6.4c2.3,0,4.2-0.3,5.7-0.9c1.5-0.6,2.8-1.5,3.8-2.6
		c1-1.1,1.7-2.4,2.2-4C421.8,599.9,422.1,598.2,422.1,596.4z"/>
</g>
<g>
	<path class="st7" d="M492.1,595.4c0,3.9-0.6,7.4-1.8,10.5c-1.2,3-3,5.6-5.4,7.7c-2.3,2.1-5.2,3.7-8.6,4.7
		c-3.4,1.1-7.4,1.6-12.1,1.6h-5.9v22.4c0,0.4-0.1,0.7-0.4,1c-0.2,0.3-0.6,0.5-1.2,0.7c-0.5,0.2-1.3,0.3-2.2,0.4
		c-0.9,0.1-2.1,0.2-3.5,0.2c-1.4,0-2.5-0.1-3.4-0.2c-0.9-0.1-1.7-0.3-2.2-0.4c-0.5-0.2-0.9-0.4-1.1-0.7c-0.2-0.3-0.3-0.6-0.3-1
		v-63.1c0-1.7,0.4-3,1.3-3.8c0.9-0.8,2-1.3,3.5-1.3h16.5c1.7,0,3.2,0.1,4.7,0.2c1.5,0.1,3.3,0.4,5.4,0.8c2.1,0.4,4.2,1.2,6.4,2.3
		s4,2.5,5.5,4.3c1.5,1.7,2.7,3.7,3.5,6C491.7,590,492.1,592.5,492.1,595.4z M477.2,596.4c0-2.5-0.4-4.5-1.3-6.1s-1.9-2.8-3.2-3.5
		c-1.3-0.8-2.6-1.2-4-1.4c-1.4-0.2-2.8-0.3-4.3-0.3h-6.1v23.8h6.4c2.3,0,4.2-0.3,5.7-0.9c1.5-0.6,2.8-1.5,3.8-2.6
		c1-1.1,1.7-2.4,2.2-4C477,599.9,477.2,598.2,477.2,596.4z"/>
</g>
</svg>
